<?xml version="1.0" standalone="no"?>
<!DOCTYPE svg PUBLIC "-//W3C//DTD SVG 1.1//EN" "http://www.w3.org/Graphics/SVG/1.1/DTD/svg11.dtd" >
<svg xmlns="http://www.w3.org/2000/svg" xmlns:xlink="http://www.w3.org/1999/xlink" version="1.1">
<metadata>
Created by FontForge 20170731 at Thu Mar  7 10:19:32 2013
 By Aleksey,,,
Copyright (c) 1990-2002 ParaType. All Rights Reserved. Friz Quadrata is a registered trade mark of International Typeface Corporation.
</metadata>
<defs>
<font id="BlizQuadrataWeb" horiz-adv-x="640" >
  <font-face 
    font-family="BlizQuadrata Web"
    font-weight="400"
    font-stretch="normal"
    units-per-em="1000"
    panose-1="2 0 0 0 0 0 0 0 0 0"
    ascent="800"
    descent="-200"
    x-height="485"
    cap-height="700"
    bbox="-488 -290 1122 1012"
    underline-thickness="50"
    underline-position="-150"
    unicode-range="U+0020-FB04"
  />
<missing-glyph horiz-adv-x="585" 
d="M50 0v485h485v-485h-485zM58 8h469v469h-469v-469z" />
    <glyph glyph-name="fi" unicode="fi" horiz-adv-x="442" 
d="M159 415v-345q-1 -25 9 -41.5t31 -28.5h-170q18 12 26 28.5t9 41.5v345h-56l56 70v58q0 69 49 120.5t133 51.5q63 0 106 -27t44 -69q0 -28 -19.5 -46t-45.5 -18q-30 0 -49.5 22t-13.5 49q-9 7 -20 11.5t-23 4.5q-30 0 -48 -18.5t-18 -55.5v-83h172q17 -1 29 3t24 13v-431
q0 -25 8 -41.5t27 -28.5h-165q18 12 26.5 28.5t8.5 41.5v345h-130z" />
    <glyph glyph-name="fl" unicode="fl" horiz-adv-x="447" 
d="M64 485v53q0 73 49 125t134 52q18 0 38 -3.5t45 -11.5q14 -1 27.5 3t26.5 13v-646q0 -25 8 -41.5t27 -28.5h-165q18 12 26.5 28.5t8.5 41.5v559q-13 6 -26.5 9.5t-28.5 3.5q-35 0 -55 -18t-20 -56v-83h81q4 0 9.5 1t11.5 3v-91q-6 8 -14.5 12.5t-25.5 4.5h-62v-345
q-1 -25 9 -41.5t31 -28.5h-170q18 12 26 28.5t9 41.5v345h-56z" />
    <glyph glyph-name="ff" unicode="ff" horiz-adv-x="509" 
d="M64 485v58q0 81 62 126.5t148 45.5q28 0 54.5 -7t52.5 -19q27 13 56.5 19.5t74.5 6.5q19 0 36 -2t36 -5l-70 -79q-13 6 -26.5 9.5t-28.5 3.5q-35 -1 -55 -18.5t-20 -55.5v-83h126q4 0 9.5 1t11.5 3v-91q-6 8 -14.5 12.5t-25.5 4.5h-107v-345q-1 -25 9 -41.5t31 -28.5
h-170q18 12 26.5 28.5t8.5 41.5v345h-130v-345q-1 -25 9 -41.5t31 -28.5h-170q18 12 26 28.5t9 41.5v345h-56zM289 485v58q-1 30 3 43.5t13 26.5q-14 13 -32 21t-39 8q-38 0 -57 -20.5t-18 -55.5v-81h130z" />
    <glyph glyph-name="ffi" unicode="ffi" horiz-adv-x="667" 
d="M64 485v58q0 81 62 126.5t148 45.5q28 0 54.5 -7t52.5 -19q18 13 39.5 19.5t51.5 6.5q65 -1 107 -28t42 -68q0 -28 -19.5 -46t-45.5 -18q-31 0 -50 21.5t-13 49.5q-9 7 -20 11t-23 5q-30 0 -48.5 -18.5t-17.5 -55.5v-83h172q17 -1 29 3t24 13v-431q0 -25 8 -41.5
t27 -28.5h-165q18 12 26 28.5t9 41.5v345h-130v-345q-1 -25 9 -41.5t31 -28.5h-170q18 12 26.5 28.5t8.5 41.5v345h-130v-345q-1 -25 9 -41.5t31 -28.5h-170q18 12 26 28.5t9 41.5v345h-56zM289 485v58q-1 20 3 36.5t13 33.5q-15 14 -33 21.5t-38 7.5q-39 -1 -57 -22
t-18 -56v-79h130z" />
    <glyph glyph-name="ffl" unicode="ffl" horiz-adv-x="672" 
d="M64 485v58q-1 80 61.5 126t148.5 46q25 0 52 -6.5t55 -18.5q20 12 42.5 18.5t48.5 6.5q20 0 41.5 -4t41.5 -11q14 -1 27.5 3t26.5 13v-646q0 -25 8 -41.5t27 -28.5h-165q18 12 26 28.5t9 41.5v559q-13 6 -26.5 9.5t-28.5 3.5q-35 -1 -55 -18.5t-20 -55.5v-83h81
q4 0 9.5 1t11.5 3v-91q-6 8 -14.5 12.5t-25.5 4.5h-62v-345q-1 -25 9 -41.5t31 -28.5h-170q18 12 26.5 28.5t8.5 41.5v345h-130v-345q-1 -25 9 -41.5t31 -28.5h-170q18 12 26 28.5t9 41.5v345h-56zM289 485v58q-1 30 3 43.5t13 26.5q-14 13 -32 21t-39 8q-38 0 -57 -20.5
t-18 -55.5v-81h130z" />
    <glyph glyph-name=".notdef" horiz-adv-x="585" 
d="M50 0v485h485v-485h-485zM58 8h469v469h-469v-469z" />
    <glyph glyph-name=".null" horiz-adv-x="0" 
 />
    <glyph glyph-name="nonmarkingreturn" horiz-adv-x="233" 
 />
    <glyph glyph-name="space" unicode=" " horiz-adv-x="233" 
 />
    <glyph glyph-name="space" unicode="&#xa0;" horiz-adv-x="233" 
 />
    <glyph glyph-name="exclam" unicode="!" horiz-adv-x="238" 
d="M90 173l-20 451q-2 34 -9.5 49.5t-25.5 26.5h137q10 -1 13 -3.5t3 -12.5q0 -6 -2 -25.5t-3 -50.5l-20 -435h-73zM61 51q0 27 19 46.5t47 19.5q27 0 46.5 -19.5t19.5 -46.5q0 -28 -19.5 -46.5t-46.5 -19.5q-28 1 -47 19.5t-19 46.5z" />
    <glyph glyph-name="quotedbl" unicode="&#x22;" horiz-adv-x="364" 
d="M72 427l-27 294h92l-27 -294h-38zM254 427l-27 294h92l-27 -294h-38z" />
    <glyph glyph-name="numbersign" unicode="#" horiz-adv-x="676" 
d="M434 32h-67l37 181h-202l-36 -181h-68l37 181h-115l11 56h115l41 201h-119l11 56h119l41 204h67l-41 -204h202l41 204h67l-41 -204h122l-12 -56h-121l-41 -201h126l-12 -56h-125zM415 269l41 201h-202l-41 -201h202z" />
    <glyph glyph-name="dollar" unicode="$" horiz-adv-x="522" 
d="M230 803h60v-88q35 -1 70 -7.5t69 -18.5v-117q-26 28 -61.5 43.5t-77.5 19.5v-205q123 -51 169.5 -105.5t47.5 -123.5q0 -90 -62 -149t-155 -67v-96h-60v96q-51 1 -101 5.5t-96 12.5v129q43 -36 93.5 -55t103.5 -17v275q-104 39 -155 86t-50 114q0 78 58 129t147 51v88z
M230 451v184q-45 0 -76 -22t-31 -58q0 -30 20.5 -53t86.5 -51zM290 308v-242q53 6 84.5 41.5t32.5 78.5q0 36 -30 68t-87 54z" />
    <glyph glyph-name="percent" unicode="%" horiz-adv-x="694" 
d="M477 700h60l-327 -700h-60zM188 700q64 -1 106.5 -45t42.5 -119q-1 -72 -42.5 -116.5t-104.5 -44.5q-68 0 -109 44t-41 115q0 74 41 120t107 46zM187 645q-35 -1 -51 -29.5t-16 -80.5q0 -50 18 -77.5t52 -27.5t50.5 28.5t16.5 75.5q0 49 -17.5 79.5t-52.5 31.5zM505 325
q64 0 106 -44.5t43 -119.5q0 -72 -42 -116.5t-105 -44.5q-68 0 -109 44t-41 115q0 74 41 120t107 46zM504 270q-35 0 -51 -29t-16 -81q-1 -50 17.5 -78t52.5 -27q34 0 50.5 28.5t16.5 75.5q-1 49 -18 80t-52 31z" />
    <glyph glyph-name="ampersand" unicode="&#x26;" horiz-adv-x="571" 
d="M293 415l131 -128q110 -108 204.5 -179.5t182.5 -107.5l-130 -4q-46 -1 -96 24.5t-116 88.5q-46 -65 -96 -94t-124 -30q-107 0 -176 54t-69 149q0 68 36 124t114 111q-47 43 -66.5 77t-19.5 70q0 65 46 105t121 40q69 0 114.5 -37.5t45.5 -102.5q0 -39 -24 -77.5
t-78 -82.5zM233 478q32 19 51 45.5t19 56.5q0 31 -20.5 51t-52.5 20q-31 0 -50.5 -17.5t-19.5 -45.5q-1 -28 18.5 -56.5t54.5 -53.5zM426 148l-211 208q-47 -31 -73.5 -71t-26.5 -83q0 -64 40 -103t105 -39q51 0 89.5 20t76.5 68z" />
    <glyph glyph-name="quotesingle" unicode="'" horiz-adv-x="182" 
d="M72 427l-27 294h92l-27 -294h-38z" />
    <glyph glyph-name="parenleft" unicode="(" horiz-adv-x="317" 
d="M258 715h69q-71 -110 -109 -235t-38 -252q0 -128 38 -252t109 -234h-69q-80 106 -129.5 234t-48.5 252q0 124 49.5 252.5t128.5 234.5z" />
    <glyph glyph-name="parenright" unicode=")" horiz-adv-x="317" 
d="M-10 715h69q78 -106 127.5 -234.5t50.5 -252.5q0 -124 -49.5 -252t-128.5 -234h-69q70 110 108.5 234t38.5 252q0 127 -38.5 252t-108.5 235z" />
    <glyph glyph-name="asterisk" unicode="*" horiz-adv-x="469" 
d="M268 554l90 37l41 38l30 -94l-54 7l-93 -23l61 -74l49 -27l-80 -58l-10 54l-51 81l-51 -81l-11 -55l-79 58l48 27l61 73l-93 23l-56 -6l31 93l41 -37l88 -36l-7 95l-23 51h98l-23 -51z" />
    <glyph glyph-name="plus" unicode="+" 
d="M347 68h-54v255h-255v54h255v255h54v-255h255v-54h-255v-255z" />
    <glyph glyph-name="comma" unicode="," horiz-adv-x="223" 
d="M92 -110h-52q25 25 47 57.5t23 45.5q0 5 -1.5 6.5t-5.5 2.5q-28 5 -41 20.5t-13 41.5q0 28 18 44.5t47 16.5q31 0 50 -21t19 -54q0 -41 -26 -83t-65 -77z" />
    <glyph glyph-name="hyphenminus" unicode="-" horiz-adv-x="425" 
d="M40 225l58 80q3 5 9.5 8t14.5 3h263l-58 -80q-4 -6 -10.5 -8.5t-13.5 -2.5h-263z" />
    <glyph glyph-name="period" unicode="." horiz-adv-x="212" 
d="M40 51q0 27 19 46.5t47 19.5q27 0 46.5 -19.5t19.5 -46.5q0 -28 -19.5 -47t-46.5 -19q-28 0 -47 19t-19 47z" />
    <glyph glyph-name="slash" unicode="/" horiz-adv-x="382" 
d="M313 715h64l-323 -851h-64z" />
    <glyph glyph-name="zero" unicode="0" 
d="M323 715q127 0 205 -102.5t78 -269.5q0 -159 -79.5 -258.5t-209.5 -99.5q-128 1 -205.5 102.5t-77.5 269.5q0 158 79 257.5t210 100.5zM318 67q77 0 125 70t48 191q-1 133 -45.5 219t-122.5 86q-79 0 -126.5 -70.5t-47.5 -190.5q0 -134 44.5 -219.5t124.5 -85.5z" />
    <glyph glyph-name="one" unicode="1" 
d="M390 743v-643q-1 -38 10 -60.5t36 -39.5h-194q24 17 34.5 39.5t11.5 60.5v457h-123q72 29 131 75.5t94 110.5z" />
    <glyph glyph-name="two" unicode="2" 
d="M98 568l59 125q32 9 71 15.5t76 6.5q89 0 147.5 -44.5t58.5 -119.5q-1 -36 -16 -76t-40 -77l-215 -313q39 -5 75 -7t62 -2q67 0 120 11.5t100 35.5l-57 -123h-475l287 422q31 46 37.5 65t6.5 38q-1 49 -32.5 77t-86.5 29q-41 0 -86.5 -16.5t-91.5 -46.5z" />
    <glyph glyph-name="three" unicode="3" 
d="M118 588l47 110q30 8 59.5 12.5t67.5 4.5q112 0 174.5 -47.5t62.5 -123.5q0 -57 -39.5 -97t-99.5 -53v-4q75 -5 125 -56.5t51 -124.5q0 -101 -85.5 -162.5t-236.5 -61.5q-33 0 -67.5 4t-70.5 11l-47 126q60 -32 106 -45.5t94 -13.5q92 -1 142 41.5t50 99.5
q0 63 -44 100.5t-128 37.5q-26 0 -44 -2.5t-36 -7.5v90q19 -3 40 -5t34 -1q64 0 102.5 29t38.5 84q0 40 -37.5 70t-103.5 30q-36 0 -75 -11t-80 -34z" />
    <glyph glyph-name="four" unicode="4" 
d="M337 700h143v-470q40 0 72 10t57 30l-49 -129h-80v-41q-1 -38 10 -60.5t36 -39.5h-194q24 17 35 39.5t11 60.5v41h-366zM378 619l-223 -387q35 -5 73 -8t70 -3q19 0 39 1t41 3v394z" />
    <glyph glyph-name="five" unicode="5" 
d="M124 700h386v-124q-32 22 -69 31.5t-94 10.5q-23 0 -56.5 -2t-71.5 -5l-9 -176q26 7 52 10.5t54 3.5q113 -1 184 -59t71 -155q0 -117 -88.5 -183.5t-226.5 -66.5q-31 0 -65.5 4t-72.5 12l-48 109q37 -20 83.5 -32t96.5 -11q88 0 146.5 42t59.5 113q0 67 -52 106t-132 39
q-42 0 -86.5 -9.5t-82.5 -26.5z" />
    <glyph glyph-name="six" unicode="6" 
d="M512 715l-47 -63q-139 -40 -223.5 -140.5t-84.5 -230.5q-1 -99 48.5 -156.5t129.5 -57.5q69 0 109 40t40 111q0 78 -44 122.5t-115 44.5q-31 0 -61.5 -8.5t-58.5 -23.5l58 77q19 16 45.5 23.5t60.5 7.5q103 0 166 -61.5t64 -158.5q-1 -114 -79.5 -185t-196.5 -71
q-124 0 -203 84.5t-78 213.5q0 163 134 285t336 147z" />
    <glyph glyph-name="seven" unicode="7" 
d="M119 700h454l-226 -543q-18 -43 -27 -71t-9 -43q-1 -15 6 -26t23 -17h-175l264 609q-37 8 -73 11.5t-78 3.5q-68 0 -116.5 -12t-88.5 -42z" />
    <glyph glyph-name="eight" unicode="8" 
d="M196 370q-60 20 -97 63.5t-37 99.5q0 83 69 132.5t184 49.5q122 0 186 -49.5t64 -122.5q0 -56 -40 -97t-100 -61q98 -37 138 -82t41 -107q0 -93 -80.5 -152t-204.5 -59q-126 0 -204.5 53t-78.5 146q0 63 40.5 109t119.5 77zM282 441l89 -31q51 32 73.5 61.5t22.5 62.5
q0 54 -44.5 87t-115.5 33q-63 0 -101 -27t-38 -69q-1 -38 27.5 -67.5t86.5 -49.5zM351 309l-88 28q-54 -19 -87.5 -57.5t-32.5 -84.5q0 -62 49.5 -103.5t123.5 -40.5q76 0 127 35t51 91q0 42 -30.5 73.5t-112.5 58.5z" />
    <glyph glyph-name="nine" unicode="9" 
d="M129 -15l47 63q138 39 223 139.5t85 231.5q0 98 -49.5 156t-128.5 58q-70 0 -109.5 -40.5t-39.5 -110.5q0 -79 43.5 -123t115.5 -44q30 0 60.5 8t59.5 24l-58 -77q-20 -17 -46.5 -24t-59.5 -7q-104 0 -167 61t-63 159q-1 113 77.5 184t194.5 72q126 0 205.5 -85
t79.5 -213q-1 -164 -135 -286t-335 -146z" />
    <glyph glyph-name="colon" unicode=":" horiz-adv-x="212" 
d="M40 331q0 27 19 46.5t47 19.5q27 -1 46.5 -20t19.5 -46q0 -28 -19.5 -47.5t-46.5 -18.5q-28 -1 -47 18.5t-19 47.5zM40 51q0 27 19 46.5t47 19.5q27 0 46.5 -19.5t19.5 -46.5q0 -28 -19.5 -47t-46.5 -19q-28 0 -47 19t-19 47z" />
    <glyph glyph-name="semicolon" unicode=";" horiz-adv-x="223" 
d="M51 331q-1 27 18.5 46.5t47.5 19.5q27 0 46.5 -19.5t19.5 -46.5q0 -28 -19.5 -47t-46.5 -19q-28 0 -47.5 19t-18.5 47zM92 -110h-52q25 25 47 57.5t23 45.5q0 5 -1.5 6.5t-5.5 2.5q-28 5 -41 20.5t-13 41.5q0 28 18 44.5t47 16.5q31 0 50 -21t19 -54q0 -41 -26 -83
t-65 -77z" />
    <glyph glyph-name="less" unicode="&#x3c;" 
d="M58 346l500 316l25 -40l-433 -276l433 -276l-25 -40z" />
    <glyph glyph-name="equal" unicode="=" 
d="M38 233v55h564v-55h-564zM38 412v55h564v-55h-564z" />
    <glyph glyph-name="greater" unicode="&#x3e;" 
d="M583 346l-500 -316l-25 40l433 276l-433 276l25 40z" />
    <glyph glyph-name="question" unicode="?" horiz-adv-x="399" 
d="M0 602l17 34q23 47 49.5 63t95.5 16q110 0 173.5 -51t63.5 -136q0 -51 -23 -92.5t-81 -90.5l-31 -26q-49 -41 -63 -65.5t-14 -47.5q0 -9 1.5 -17.5t6.5 -15.5h-86q-1 6 -1 12.5v13.5q0 46 16.5 79t66.5 73q65 52 84.5 86t19.5 70q0 59 -43 97.5t-112 38.5q-32 -1 -67 -11
t-73 -30zM82 51q0 27 19 46.5t47 19.5q27 0 46.5 -19.5t19.5 -46.5q-1 -28 -20 -46.5t-46 -19.5q-28 1 -47 19.5t-19 46.5z" />
    <glyph glyph-name="at" unicode="@" horiz-adv-x="820" 
d="M595 61l12 -38q-42 -18 -89.5 -27.5t-100.5 -9.5q-174 1 -270.5 104t-96.5 246q0 163 111.5 270.5t275.5 107.5q146 0 239.5 -91.5t93.5 -222.5q0 -124 -67 -189t-162 -65q-30 0 -48.5 15t-18.5 43q0 6 1 14.5t4 22.5l49 228q-16 11 -33.5 16t-38.5 5q-71 0 -118 -53.5
t-46 -133.5q-1 -47 21 -73t65 -26q17 0 39 5t42 16l-56 -71q-8 -7 -17 -9t-33 -2q-61 0 -97.5 41t-36.5 108q0 108 68.5 180.5t179.5 72.5q11 0 26 -1.5t31 -3.5q39 -7 39 -6.5t1 0.5q3 0 6.5 0.5t15.5 4.5l29 9l-60 -285q-4 -16 -4 -20.5v-8.5q-1 -19 6.5 -26.5t28.5 -7.5
q62 0 102 53.5t40 146.5q0 118 -79.5 195.5t-210.5 78.5q-141 0 -239.5 -94.5t-97.5 -239.5q0 -141 88 -227.5t238 -86.5q48 0 87.5 8.5t80.5 26.5z" />
    <glyph glyph-name="A" unicode="A" horiz-adv-x="658" 
d="M218 700h164l241 -597q17 -43 37 -66t48 -37h-215q25 11 33 30t-3 48l-76 188h-269l-63 -157q-17 -41 -9.5 -66t33.5 -43h-189q29 18 49 45.5t42 81.5l200 506q9 24 2.5 41t-25.5 26zM312 609l-108 -276h217z" />
    <glyph glyph-name="B" unicode="B" horiz-adv-x="592" 
d="M43 700l269 5q89 1 145 -41.5t56 -115.5q0 -49 -27.5 -86t-78.5 -56q76 -9 124 -60t48 -128q-1 -98 -72.5 -158t-220.5 -60h-243q24 17 34.5 39.5t11.5 60.5v500q-1 37 -11.5 59.5t-34.5 40.5zM191 625v-204l55 -1q66 -2 109 28t44 84q0 48 -35.5 73.5t-93.5 25.5
q-14 -1 -36 -2.5t-43 -3.5zM191 352v-269q26 -5 53 -7t51 -2q82 0 125 35.5t44 101.5q0 63 -47.5 104t-142.5 41q-11 0 -32 -1.5t-51 -2.5z" />
    <glyph glyph-name="C" unicode="C" horiz-adv-x="667" 
d="M611 688v-122q-41 28 -92 46t-106 18q-106 0 -184 -68.5t-78 -189.5q0 -138 79 -220t207 -82q74 0 132.5 18t102.5 56l-68 -134q-44 -13 -84.5 -18.5t-90.5 -6.5q-186 0 -290 100.5t-103 259.5q0 153 103.5 261t285.5 109q29 0 56 -3t74 -13q20 -5 31.5 -7.5t24.5 -3.5z
" />
    <glyph glyph-name="D" unicode="D" horiz-adv-x="731" 
d="M89 100v500q-1 37 -11.5 59.5t-34.5 40.5q50 3 130.5 6t129.5 3q182 0 286.5 -93.5t105.5 -262.5q0 -157 -107 -255t-286 -98h-259q24 17 34.5 39.5t11.5 60.5zM191 619v-528q23 -5 44 -7t47 -2q140 0 219 71.5t79 203.5q0 123 -79 196.5t-198 73.5q-17 0 -45.5 -2
t-66.5 -6z" />
    <glyph glyph-name="E" unicode="E" horiz-adv-x="515" 
d="M43 700h388v-115q-18 20 -43 28t-62 8l-135 -3v-200h144q9 0 18 0.5t18 2.5v-109q-14 14 -32 20t-44 6h-104v-251q32 -4 65.5 -5.5t64.5 -1.5q71 -1 120.5 12.5t88.5 48.5l-51 -141h-436q24 17 35 40t11 60v500q-1 36 -11.5 59t-34.5 41z" />
    <glyph glyph-name="F" unicode="F" horiz-adv-x="431" 
d="M43 700h352q9 0 18 0.5t18 2.5v-118q-18 20 -43 28t-62 8l-135 -3v-200h144q9 0 18 0.5t18 2.5v-109q-13 12 -31.5 19t-44.5 7h-104v-238q0 -38 12 -61t39 -39h-199q24 17 35 40t11 60v500q-1 36 -11.5 59t-34.5 41z" />
    <glyph glyph-name="G" unicode="G" horiz-adv-x="744" 
d="M626 696v-120q-38 29 -84.5 43t-100.5 14q-128 -1 -209 -75t-81 -192q0 -129 86.5 -214t227.5 -85q34 0 65 4.5t61 14.5v181q0 35 -9 54.5t-26 34.5h143q-4 -8 -5.5 -16t-0.5 -14v-259q-1 -18 0.5 -27t4.5 -19q-61 -20 -119.5 -28t-120.5 -8q-200 0 -311 105t-111 256
q0 167 115.5 268t298.5 101q54 0 102.5 -8.5t73.5 -10.5z" />
    <glyph glyph-name="H" unicode="H" horiz-adv-x="767" 
d="M191 424h385v176q0 39 -11 60.5t-35 39.5h194q-25 -18 -35.5 -39.5t-10.5 -60.5v-500q0 -40 10.5 -61.5t35.5 -38.5h-194q24 17 35 38.5t11 61.5v244h-385v-244q0 -40 10.5 -61.5t35.5 -38.5h-194q24 17 35 38.5t11 61.5v500q0 39 -11 60.5t-35 39.5h194
q-25 -18 -35.5 -39.5t-10.5 -60.5v-176z" />
    <glyph glyph-name="I" unicode="I" horiz-adv-x="280" 
d="M43 700h194q-25 -18 -35.5 -40.5t-10.5 -59.5v-500q-1 -38 10 -60.5t36 -39.5h-194q24 17 34.5 39.5t11.5 60.5v500q-1 37 -11.5 59.5t-34.5 40.5z" />
    <glyph glyph-name="J" unicode="J" horiz-adv-x="280" 
d="M39 700h201q-25 -18 -36 -40.5t-10 -59.5v-616q0 -60 -6 -82.5t-18 -41.5q-25 -35 -84.5 -62t-120.5 -33q67 41 97 92.5t30 130.5v612q0 39 -14.5 62.5t-38.5 37.5z" />
    <glyph glyph-name="K" unicode="K" horiz-adv-x="585" 
d="M43 700h194q-25 -18 -35.5 -40.5t-10.5 -59.5v-500q-1 -38 10 -60.5t36 -39.5h-194q24 17 34.5 39.5t11.5 60.5v500q-1 37 -11.5 59.5t-34.5 40.5zM211 363l156 210q24 32 32 48.5t9 29.5q0 15 -10 28t-26 21h192l-243 -315l115 -152q83 -111 128 -156.5t101 -76.5
l-107 -5q-39 -1 -71.5 18t-97.5 108z" />
    <glyph glyph-name="L" unicode="L" horiz-adv-x="514" 
d="M43 700h199q-27 -17 -39 -41t-12 -59v-511q30 -5 62 -7.5t53 -1.5q67 0 125.5 16t97.5 49l-56 -145h-430q24 17 34.5 39.5t11.5 60.5v500q-1 37 -11.5 59.5t-34.5 40.5z" />
    <glyph glyph-name="M" unicode="M" horiz-adv-x="920" 
d="M84 700h178l202 -523l188 453q6 14 11.5 32.5t9.5 37.5h173q-23 -14 -30 -39.5t-2 -61.5l65 -510q4 -36 16 -55.5t33 -33.5h-194q23 15 33 38.5t3 86.5l-53 470l-247 -605l-28 24q-16 13 -28.5 33t-24.5 51l-196 495l-67 -476q-9 -58 2 -81t38 -36h-174q23 21 35.5 49
t18.5 65l70 482q7 54 -1.5 72t-30.5 32z" />
    <glyph glyph-name="N" unicode="N" horiz-adv-x="777" 
d="M40 700h149q3 -8 7 -15t8 -11l409 -510v436q0 37 -11 59.5t-35 40.5h170q-25 -18 -36 -40.5t-10 -59.5v-628q-40 12 -73.5 34t-82.5 85l-371 464v-455q-1 -38 10 -60.5t36 -39.5h-170q24 17 34.5 39.5t11.5 60.5v500q-1 37 -11.5 59.5t-34.5 40.5z" />
    <glyph glyph-name="O" unicode="O" horiz-adv-x="840" 
d="M420 715q165 0 274.5 -101t109.5 -264q0 -150 -102.5 -257.5t-281.5 -107.5q-166 0 -275 100.5t-109 264.5q0 149 102 257t282 108zM422 633q-121 -1 -196 -76t-75 -191q-1 -131 74 -215t193 -84q120 0 195.5 75t75.5 192q0 130 -75 214.5t-192 84.5z" />
    <glyph glyph-name="P" unicode="P" horiz-adv-x="560" 
d="M253 0h-210q24 17 35 38.5t11 61.5v500q-1 37 -11.5 59.5t-34.5 40.5h248q129 -1 189 -50t60 -135t-62 -143.5t-164 -56.5q-19 0 -41 3t-44 10q85 3 140 46t56 121q-1 61 -40.5 96t-109.5 35q-21 -1 -42.5 -3.5t-41.5 -6.5v-500q-1 -45 14.5 -73.5t47.5 -42.5z" />
    <glyph glyph-name="Q" unicode="Q" horiz-adv-x="840" 
d="M420 715q165 0 274.5 -101t109.5 -264q0 -102 -49.5 -187.5t-139.5 -131.5q92 -92 179 -135.5t165 -41.5q-30 -26 -64 -39.5t-70 -13.5q-63 0 -151 49t-190 140q-17 -2 -33 -3.5t-31 -1.5q-166 1 -275 101.5t-109 263.5q0 149 102 257t282 108zM422 633q-121 -1 -196 -76
t-75 -191q-1 -131 74 -215t193 -84q120 0 195.5 75t75.5 192q0 130 -75 214.5t-192 84.5z" />
    <glyph glyph-name="R" unicode="R" horiz-adv-x="562" 
d="M43 700q53 0 80 0.5t52 1.5q79 1 81.5 1.5t5.5 0.5q122 -1 186.5 -49t64.5 -133q0 -64 -47.5 -114.5t-125.5 -62.5q77 -122 168.5 -221t153.5 -124q-38 -2 -65.5 -4t-42.5 -2q-63 0 -153.5 100.5t-180.5 270.5q75 7 126.5 46.5t51.5 101.5q0 58 -36.5 87.5t-103.5 29.5
q-23 0 -38 -2t-29 -5v-523q-1 -38 10 -60.5t36 -39.5h-194q24 17 34.5 39.5t11.5 60.5v500q-1 37 -11.5 59.5t-34.5 40.5z" />
    <glyph glyph-name="S" unicode="S" horiz-adv-x="511" 
d="M449 693v-117q-39 31 -80.5 48t-90.5 17q-69 0 -103 -29t-34 -72q0 -35 28.5 -62.5t147.5 -79.5q122 -55 155.5 -96t33.5 -102q0 -97 -74 -156t-207 -59q-52 0 -98 7t-93 23l-29 132q47 -42 104 -62t122 -20q74 0 118.5 28.5t44.5 78.5q0 39 -26.5 68t-142.5 82
q-124 55 -161.5 99.5t-37.5 106.5q-1 86 66 136.5t196 50.5q43 0 82.5 -5.5t78.5 -16.5z" />
    <glyph glyph-name="T" unicode="T" horiz-adv-x="492" 
d="M295 620v-520q0 -38 10.5 -60.5t35.5 -39.5h-194q24 17 34.5 39.5t11.5 60.5v520l-119 1q-33 0 -58 -11t-46 -31l40 125q13 -3 25.5 -4t38.5 0h387q13 0 29 1t32 3l-35 -117q-11 18 -29 26t-51 8z" />
    <glyph glyph-name="U" unicode="U" horiz-adv-x="730" 
d="M40 700h194q-25 -18 -35.5 -40.5t-10.5 -59.5v-357q0 -96 44 -136t123 -40q84 0 133.5 42.5t50.5 120.5v370q-1 37 -11.5 59.5t-34.5 40.5h194q-25 -18 -36 -40.5t-10 -59.5v-500q-1 -38 10 -60.5t36 -39.5h-145v67q-41 -43 -91 -62t-112 -20q-125 0 -189 61.5t-64 183.5
v370q-1 37 -11.5 59.5t-34.5 40.5z" />
    <glyph glyph-name="V" unicode="V" horiz-adv-x="592" 
d="M-40 700h156q0 -17 3.5 -34.5t9.5 -32.5l183 -501l155 400q13 35 20 60t7 43q-1 17 -10.5 35.5t-26.5 29.5h165l-292 -728q-50 28 -77 52.5t-45 74.5l-191 515q-12 31 -24.5 49.5t-32.5 36.5z" />
    <glyph glyph-name="W" unicode="W" horiz-adv-x="941" 
d="M-40 700h150q0 -15 2 -30.5t8 -31.5l160 -519l144 447q4 14 7 31.5t4 33.5q-1 23 -9.5 40t-25.5 29h137q-3 -23 -0.5 -45t10.5 -44l156 -495l141 435q6 21 10 38.5t4 31.5q0 25 -12.5 46.5t-35.5 32.5h161l-244 -728q-56 29 -85 61t-47 92l-119 382l-171 -535
q-56 32 -86.5 67t-46.5 88l-148 473q-11 34 -27 59t-37 41z" />
    <glyph glyph-name="X" unicode="X" horiz-adv-x="646" 
d="M261 374l-175 253q-21 30 -39.5 46.5t-39.5 26.5l85 3q61 2 70.5 -4t38.5 -47l136 -197l116 155q9 13 15 25.5t6 22.5q0 14 -10.5 25t-28.5 17h192l-245 -311l206 -299q22 -33 46 -55t52 -35h-166q-12 11 -21 22t-25 37l-164 248l-153 -202q-15 -20 -21 -33t-6 -22
q0 -17 11 -30.5t30 -19.5h-211q19 19 35.5 38t37.5 46z" />
    <glyph glyph-name="Y" unicode="Y" horiz-adv-x="571" 
d="M-40 700l130 2q8 0 14.5 -1.5t14.5 -3.5l191 -302l138 214q6 9 10 19.5t4 20.5q0 14 -9.5 28t-24.5 23h173l-258 -387v-213q0 -38 10.5 -60.5t35.5 -39.5h-194q24 17 35 39.5t11 60.5v214l-206 318q-16 24 -34.5 40.5t-40.5 27.5z" />
    <glyph glyph-name="Z" unicode="Z" horiz-adv-x="609" 
d="M99 700h466l-378 -611q81 -5 125 -7t72 -2q71 0 128.5 12t106.5 42l-54 -134h-560l381 615q-38 4 -81.5 7.5t-80.5 3.5q-62 0 -101 -11t-75 -37z" />
    <glyph glyph-name="bracketleft" unicode="[" horiz-adv-x="343" 
d="M80 732h263v-60h-127v-869h127v-60h-263q24 18 35 40.5t11 59.5v789q0 37 -11 59.5t-35 40.5z" />
    <glyph glyph-name="backslash" unicode="\" horiz-adv-x="382" 
d="M69 715l323 -851h-64l-323 851h64z" />
    <glyph glyph-name="bracketright" unicode="]" horiz-adv-x="343" 
d="M263 -257h-263v60h127v869h-127v60h263q-25 -18 -35.5 -40.5t-10.5 -59.5v-789q-1 -37 10 -59.5t36 -40.5z" />
    <glyph glyph-name="asciicircum" unicode="^" horiz-adv-x="488" 
d="M244 631l-147 -198h-67l214 288l214 -288h-67z" />
    <glyph glyph-name="underscore" unicode="_" horiz-adv-x="569" 
d="M0 -270v47h569v-47h-569z" />
    <glyph glyph-name="grave" unicode="`" horiz-adv-x="301" 
d="M54 710l247 -157l-3 -3l-298 83z" />
    <glyph glyph-name="a" unicode="a" horiz-adv-x="490" 
d="M85 392l63 104q24 4 47 6.5t44 2.5q90 0 135.5 -42t46.5 -130v-195q-1 -37 16 -53.5t56 -17.5q4 -1 9 -1t10 1l-48 -67h-6.5h-8.5q-67 0 -95 30t-28 82v157q-14 -9 -28 -15t-78 -21q-56 -14 -78.5 -34.5t-22.5 -53.5q-1 -38 25.5 -61t75.5 -23q20 0 42 3t45 10l-64 -80
q-16 -4 -32 -6.5t-32 -2.5q-73 0 -117.5 43.5t-44.5 114.5q0 52 31 86t139 59q98 22 116.5 37.5t18.5 40.5q0 29 -24 46t-68 17q-37 0 -75 -9.5t-70 -27.5z" />
    <glyph glyph-name="b" unicode="b" horiz-adv-x="579" 
d="M28 700h77q17 0 29 3.5t24 12.5v-643q26 -6 52.5 -9t47.5 -3q88 -1 138.5 48.5t51.5 135.5q-1 82 -45 133t-115 51q-26 0 -52 -6.5t-50 -18.5l46 74q9 15 30 21t58 6q104 0 168 -67t64 -177q0 -128 -85 -202t-234 -74q-46 1 -98.5 5t-103.5 12q16 12 23.5 28t8.5 40v560
q0 24 -8.5 40.5t-26.5 29.5z" />
    <glyph glyph-name="c" unicode="c" horiz-adv-x="508" 
d="M446 491v-110q-28 22 -61.5 34.5t-71.5 13.5q-83 0 -132.5 -49t-49.5 -125q0 -88 57 -141t160 -53q51 0 91.5 11t73.5 35q-44 -83 -75 -102t-114 -20q-85 0 -138.5 20t-91.5 61q-34 34 -50.5 79t-16.5 96q-1 55 19.5 102.5t55.5 82.5q41 41 94.5 60t131.5 19q37 -1 59 -6
t59 -8z" />
    <glyph glyph-name="d" unicode="d" horiz-adv-x="600" 
d="M409 700h77q17 -1 29 3t24 13v-646q0 -25 8 -41.5t27 -28.5h-130v270q0 75 -44 117t-107 42q-69 0 -115.5 -48.5t-46.5 -125.5q0 -84 52 -139t130 -55q34 0 56.5 6.5t43.5 21.5l-44 -75q-12 -18 -29 -23.5t-49 -5.5q-117 1 -190.5 74t-73.5 185q0 114 71.5 187t178.5 74
q47 0 88.5 -15.5t78.5 -44.5v185q0 24 -8.5 40.5t-26.5 29.5z" />
    <glyph glyph-name="e" unicode="e" horiz-adv-x="558" 
d="M534 257h-403q-4 -85 50 -140.5t162 -55.5q56 -1 104 11.5t94 38.5l-66 -104q-39 -12 -75 -17t-78 -5q-135 0 -215 69t-80 194q-1 112 71.5 184.5t194.5 72.5q115 0 179.5 -70.5t61.5 -177.5zM141 322h279q-5 49 -41 78t-91 29q-57 -1 -97 -30t-50 -77z" />
    <glyph glyph-name="f" unicode="f" horiz-adv-x="284" 
d="M64 485v58q0 80 62.5 126t160.5 46q19 0 36 -2t36 -5l-70 -79q-13 6 -26.5 9.5t-28.5 3.5q-35 0 -55 -18t-20 -56v-83h126q4 0 9.5 1t11.5 3v-91q-6 8 -14.5 12.5t-25.5 4.5h-107v-345q-1 -25 9 -41.5t31 -28.5h-170q18 12 26 28.5t9 41.5v345h-56z" />
    <glyph glyph-name="g" unicode="g" horiz-adv-x="555" 
d="M39 326q0 75 63.5 127t173.5 52q16 0 43.5 -2t19.5 -1q25 -2 45.5 -3t38.5 0q35 0 74.5 3.5t79.5 11.5l-23 -58q-9 -22 -26.5 -25t-58.5 3l-56 7q37 -21 57.5 -54.5t20.5 -74.5q-1 -64 -45.5 -107t-131.5 -55q-60 -8 -74 -15.5t-14 -17.5q-1 -8 7.5 -14.5t22.5 -5.5h40
q158 0 220 -40.5t62 -111.5q0 -82 -86 -135t-213 -53q-131 1 -209.5 43t-79.5 104q0 38 28.5 62t78.5 24q14 0 27.5 -3.5t27.5 -11.5q-21 -1 -32.5 -15t-11.5 -35q0 -42 43.5 -71.5t121.5 -30.5q84 0 137 30t53 84q0 46 -44 70t-132 24q-26 0 -62 -1.5t-47 -1.5
q-28 0 -43 8.5t-27 37.5q-5 9 -6 14.5t-1 10.5q0 9 5.5 17t19.5 15l59 29q-66 10 -106 55t-40 111zM257 438q-50 0 -82 -27.5t-32 -69.5q-1 -53 37.5 -91t94.5 -37q49 -1 80.5 29t31.5 78q0 49 -38.5 83t-91.5 35z" />
    <glyph glyph-name="h" unicode="h" horiz-adv-x="560" 
d="M28 700h77q17 0 29 3.5t24 12.5v-282q16 29 60 50t96 21q88 -1 136 -44t49 -114v-277q0 -25 8 -41.5t27 -28.5h-165q18 12 26.5 28.5t8.5 41.5v250q-1 50 -33.5 79.5t-88.5 29.5q-59 0 -91.5 -28.5t-32.5 -86.5v-244q0 -25 8 -41.5t27 -28.5h-165q18 12 26 28.5t9 41.5
v560q0 24 -8.5 40.5t-26.5 29.5z" />
    <glyph glyph-name="i" unicode="i" horiz-adv-x="218" 
d="M30 485h77q17 -1 29 3t24 13v-431q0 -25 8 -41.5t27 -28.5h-165q18 12 26.5 28.5t8.5 41.5v345q0 24 -8.5 40.5t-26.5 29.5zM43 619q0 25 19 44t45 20q25 0 44.5 -19.5t19.5 -44.5q0 -26 -19.5 -45t-44.5 -19q-26 -1 -45 18.5t-19 45.5z" />
    <glyph glyph-name="j" unicode="j" horiz-adv-x="220" 
d="M34 485h77q17 -1 29 3t24 13v-510q0 -54 -4.5 -76.5t-14.5 -39.5q-20 -32 -71 -55t-114 -29q54 28 81.5 75t27.5 130v419q0 24 -8.5 40.5t-26.5 29.5zM47 619q0 25 19 44.5t45 19.5q25 0 44.5 -19.5t19.5 -44.5q-1 -26 -20 -45t-44 -19q-26 0 -45.5 19t-18.5 45z" />
    <glyph glyph-name="k" unicode="k" horiz-adv-x="499" 
d="M28 700h77q17 0 29 3.5t24 12.5v-646q0 -25 8 -41.5t27 -28.5h-165q18 12 26 28.5t9 41.5v560q0 24 -8.5 40.5t-26.5 29.5zM178 271l100 109q15 17 28.5 38.5t13.5 33.5q0 8 -5.5 16t-17.5 17h163l-181 -203q10 -10 19 -19.5t19 -20.5l133 -167q18 -24 37 -42t42 -33
l-38 -1q-90 -2 -106 6.5t-31 30.5z" />
    <glyph glyph-name="l" unicode="l" horiz-adv-x="221" 
d="M28 700h77q17 0 29 3.5t24 12.5v-646q0 -25 8 -41.5t27 -28.5h-165q18 12 26 28.5t9 41.5v560q0 24 -8.5 40.5t-26.5 29.5z" />
    <glyph glyph-name="m" unicode="m" horiz-adv-x="891" 
d="M195 0h-165q18 12 26.5 28.5t8.5 41.5v345q0 24 -8.5 40.5t-26.5 29.5h75q17 -1 29 3t24 13v-78q24 42 62 62t88 20q59 -1 100.5 -24t65.5 -70q30 48 73.5 70.5t98.5 23.5q92 0 137.5 -50.5t46.5 -150.5v-234q0 -25 8 -41.5t27 -28.5h-165q18 12 26 28.5t9 41.5v210
q-1 78 -30.5 113.5t-86.5 35.5q-64 -1 -93.5 -36.5t-29.5 -106.5v-216q-1 -25 7.5 -41.5t27.5 -28.5h-165q18 12 26 28.5t9 41.5v217q0 66 -29 104t-90 38q-57 0 -89 -32t-32 -89v-238q0 -25 8 -41.5t27 -28.5z" />
    <glyph glyph-name="n" unicode="n" horiz-adv-x="562" 
d="M195 0h-165q18 12 26.5 28.5t8.5 41.5v345q0 24 -8.5 40.5t-26.5 29.5h77q17 -1 29 3t24 13v-67q18 33 63 52t93 19q88 0 136.5 -43.5t48.5 -114.5v-277q0 -25 8 -41.5t27 -28.5h-165q18 12 26 28.5t9 41.5v250q0 50 -33 79.5t-89 29.5q-59 0 -91.5 -28.5t-32.5 -86.5
v-244q0 -25 8 -41.5t27 -28.5z" />
    <glyph glyph-name="o" unicode="o" horiz-adv-x="610" 
d="M309 505q124 -1 199 -78t75 -182q0 -113 -81.5 -186t-201.5 -74q-124 0 -199 77t-74 183q0 112 81 186t201 74zM303 429q-78 0 -125 -50.5t-47 -133.5q0 -76 46 -130t130 -54q77 -1 124.5 49.5t47.5 134.5q-1 75 -47 129.5t-129 54.5z" />
    <glyph glyph-name="p" unicode="p" horiz-adv-x="612" 
d="M198 -221h-170q18 13 26 29.5t9 40.5v566q0 24 -8.5 40.5t-26.5 29.5h73q17 -1 29 3t24 13v-79q33 42 78.5 62.5t100.5 20.5q110 0 181 -64.5t71 -178.5q0 -118 -67.5 -197.5t-191.5 -79.5q-21 0 -41 3t-40 8l-61 89q28 -13 55.5 -18.5t64.5 -5.5q86 0 131 50.5t46 140.5
q0 76 -45 124t-124 48q-75 0 -115 -39t-39 -103v-433q0 -24 9.5 -40.5t30.5 -29.5z" />
    <glyph glyph-name="q" unicode="q" horiz-adv-x="601" 
d="M325 505h250q-19 -13 -27 -29.5t-8 -40.5v-586q0 -24 8 -40.5t27 -29.5h-170q20 13 30 29.5t10 40.5v562q-26 5 -59 9t-57 4q-89 -1 -143.5 -47.5t-54.5 -130.5q0 -88 52.5 -136.5t145.5 -48.5q27 0 46 3.5t40 12.5l-50 -72q-8 -10 -19.5 -15t-36.5 -5q-142 1 -212 73
t-70 183q-1 110 78 187t220 77z" />
    <glyph glyph-name="r" unicode="r" horiz-adv-x="315" 
d="M200 0h-170q18 12 26.5 28.5t8.5 41.5v345q0 24 -8.5 40.5t-26.5 29.5h73q16 -1 28 2.5t24 13.5v-80q24 38 58.5 61t76.5 23q8 -1 17 -1.5t18 -2.5v-98q-13 8 -26 12t-29 4q-52 -1 -81 -36.5t-29 -106.5v-206q0 -25 9.5 -41.5t30.5 -28.5z" />
    <glyph glyph-name="s" unicode="s" horiz-adv-x="430" 
d="M370 487v-89q-37 20 -70.5 29.5t-70.5 10.5q-41 0 -64.5 -15.5t-23.5 -40.5q0 -20 18.5 -36t106.5 -46q94 -33 123.5 -67.5t30.5 -80.5q0 -81 -61 -123.5t-163 -43.5q-40 0 -77 7t-76 22l-38 105q49 -32 99.5 -49.5t91.5 -17.5q60 -1 92.5 19.5t32.5 52.5q0 23 -17 40.5
t-113 55.5q-93 36 -121 67.5t-28 75.5q0 65 49 103t148 39q36 0 67.5 -4.5t63.5 -13.5z" />
    <glyph glyph-name="t" unicode="t" horiz-adv-x="308" 
d="M126 640h37v-155h112q8 0 16 0.5t17 3.5v-97q-8 11 -20 17t-31 6h-94v-254q-1 -51 24.5 -78.5t79.5 -27.5q9 0 18.5 1.5t20.5 4.5l-58 -73q-9 -1 -17 -2t-15 -1q-70 0 -109 43.5t-39 115.5v271h-70v36q66 8 99.5 59.5t28.5 129.5z" />
    <glyph glyph-name="u" unicode="u" horiz-adv-x="554" 
d="M26 485h77q17 -1 29 3t24 13v-310q-1 -68 31 -99t88 -31q54 -1 88.5 34t34.5 90v230q0 24 -8.5 40.5t-26.5 29.5h77q17 -1 29 3t24 13v-431q0 -25 8 -41.5t27 -28.5h-126v70q-25 -42 -65 -63.5t-95 -21.5q-81 1 -131 48t-50 129v253q0 24 -8.5 40.5t-26.5 29.5z" />
    <glyph glyph-name="v" unicode="v" horiz-adv-x="490" 
d="M-40 485h94q16 0 29.5 3.5t24.5 13.5q1 -11 3.5 -22t6.5 -18l147 -351l118 265q8 18 12 32.5t5 24.5q-1 16 -10 30t-24 22h154l-238 -513q-44 24 -67 45.5t-43 68.5l-138 321q-11 25 -30 44.5t-44 33.5z" />
    <glyph glyph-name="w" unicode="w" horiz-adv-x="770" 
d="M-40 485h75q16 -1 27 3t20 12l145 -390l107 286q6 17 9 27.5t3 19.5q0 12 -7 22t-20 20h135q-2 -12 -0.5 -22.5t6.5 -23.5l117 -324l106 271q6 16 9 26.5t3 19.5q0 15 -8 28t-24 25h137l-206 -513q-42 20 -61.5 39t-33.5 59l-105 280l-143 -378q-39 15 -63.5 38.5
t-38.5 61.5l-140 354q-9 20 -21 34.5t-28 24.5z" />
    <glyph glyph-name="x" unicode="x" horiz-adv-x="507" 
d="M1 485l60 2q60 2 71.5 -1.5t29.5 -26.5l104 -138l81 94q8 10 12.5 19t4.5 17q0 10 -7 18.5t-19 15.5h172l-199 -223l149 -194q19 -25 37.5 -41.5t39.5 -26.5l-120 -2q-15 0 -24.5 5t-17.5 17l-128 175l-106 -120q-12 -14 -18 -24.5t-5 -18.5q0 -10 5.5 -18t16.5 -14h-170
l231 256l-114 149q-22 27 -43.5 47t-42.5 33z" />
    <glyph glyph-name="y" unicode="y" horiz-adv-x="472" 
d="M-57 485l87 3q42 1 48 0t12 -4l164 -370l107 260q7 18 11 33t4 30q-1 15 -8 28t-20 20h156l-237 -541q-36 -81 -88 -117t-123 -36q-37 0 -70.5 7.5t-65.5 19.5l93 68q13 -10 28 -14.5t32 -4.5q37 1 63 21t48 68l26 59q-19 17 -32 34.5t-21 37.5l-147 326
q-12 27 -28.5 45.5t-38.5 26.5z" />
    <glyph glyph-name="z" unicode="z" horiz-adv-x="478" 
d="M83 485h377l-283 -400q35 -5 72 -7t66 -2q60 0 103.5 9t79.5 30l-58 -115h-445l294 404q-26 3 -53 5t-54 2q-54 -1 -89.5 -10t-64.5 -28z" />
    <glyph glyph-name="braceleft" unicode="{" horiz-adv-x="402" 
d="M70 214v40q47 2 71 36.5t24 109.5q0 23 -1.5 59t-1.5 74q0 92 44.5 142t125.5 49v-28q-36 -6 -55.5 -34.5t-19.5 -86.5q-1 -18 -0.5 -38t1.5 -44l2 -92v-2q0 -75 -33.5 -115t-99.5 -47v-6q66 -8 99.5 -48t33.5 -114q0 -63 -1.5 -92.5t-1.5 -85.5q0 -54 18 -84.5t57 -34.5
v-28q-80 -4 -125 47t-45 144q0 38 1.5 73.5t1.5 59.5q0 71 -23 106.5t-72 39.5z" />
    <glyph glyph-name="bar" unicode="|" horiz-adv-x="135" 
d="M30 773h75v-1043h-75v1043z" />
    <glyph glyph-name="braceright" unicode="}" horiz-adv-x="402" 
d="M332 254v-40q-48 -3 -71.5 -37.5t-23.5 -108.5q-1 -24 1 -59.5t2 -73.5q-1 -92 -45.5 -142t-124.5 -49v28q35 6 55 34.5t20 86.5q0 18 -0.5 38t-0.5 44q-3 91 -2.5 91t0.5 3q0 74 33 114t100 48v6q-67 7 -100 47t-33 115q0 62 1.5 92t1.5 86q0 54 -18.5 84.5t-56.5 34.5
v28q79 4 124.5 -47t45.5 -144q-1 -38 -2 -74t-1 -59q0 -72 22.5 -107.5t72.5 -38.5z" />
    <glyph glyph-name="asciitilde" unicode="~" horiz-adv-x="610" 
d="M96 566l-34 17q31 57 67.5 83.5t86.5 27.5q26 0 51.5 -7.5t85.5 -40.5q23 -13 41 -18.5t36 -5.5q22 0 44 19t41 59l34 -16q-34 -63 -66.5 -89.5t-73.5 -25.5q-26 0 -48.5 6t-83.5 39q-36 19 -51.5 24t-32.5 5q-28 0 -51 -18.5t-46 -58.5z" />
    <glyph glyph-name="exclamdown" unicode="&#xa1;" horiz-adv-x="238" 
d="M45 439q0 27 19 46.5t47 19.5q27 0 46 -19.5t20 -46.5q0 -28 -19.5 -47t-46.5 -19q-28 0 -47.5 19t-18.5 47zM148 317l20 -451q1 -34 8.5 -49.5t26.5 -26.5h-137q-11 1 -13.5 3.5t-2.5 12.5q0 6 1.5 25.5t3.5 50.5l20 435h73z" />
    <glyph glyph-name="cent" unicode="&#xa2;" horiz-adv-x="488" 
d="M268 704h62v-82q37 -1 62.5 -6.5t53.5 -7.5v-110q-26 21 -56 32.5t-60 14.5v-367q54 -2 94 9.5t69 36.5l-16 -43q-14 -38 -22 -46.5t-19 -14.5q-16 -9 -48.5 -14.5t-57.5 -3.5v-102h-62v105q-106 7 -173.5 79t-67.5 168q0 107 68.5 182.5t172.5 84.5v85zM268 188v353
q-58 -9 -97.5 -54.5t-39.5 -113.5q0 -75 39 -123t98 -62z" />
    <glyph glyph-name="sterling" unicode="&#xa3;" horiz-adv-x="480" 
d="M414 676v-106q-26 28 -59 45t-72 17q-48 0 -75.5 -23t-26.5 -62q0 -30 19.5 -65.5t62.5 -87.5h118v-59h-83q20 -33 33 -71.5t13 -73.5q0 -17 -5 -39t-13 -44q18 -8 37.5 -13t32.5 -5q17 0 33 7t31 23v-114q-18 -10 -36.5 -15t-38.5 -5q-26 0 -54 11t-60 35
q-26 -23 -59 -34.5t-62 -11.5q-44 1 -72 20.5t-28 58.5t31 63t85 24q17 -1 35 -4t36 -10q3 9 5 18t2 19q0 32 -19.5 75t-53.5 86h-109v59h63q-32 41 -45 74t-13 66q0 77 49.5 128.5t145.5 51.5q47 0 83.5 -9.5t68.5 -28.5zM217 69q-15 11 -30.5 17t-33.5 6
q-24 -1 -35.5 -8.5t-10.5 -19.5q0 -13 10.5 -21.5t31.5 -7.5q17 0 34.5 8t33.5 26z" />
    <glyph glyph-name="currency" unicode="&#xa4;" horiz-adv-x="680" 
d="M595 640l40 -39l-94 -92q28 -35 43 -77t15 -86q0 -45 -15 -87t-43 -76l94 -92l-40 -39l-93 93q-34 -29 -75.5 -44t-87.5 -15q-47 0 -88 15.5t-73 43.5l-93 -93l-40 39l93 92q-28 35 -43.5 77.5t-15.5 85.5t15.5 85.5t43.5 77.5l-93 92l40 39l93 -93q31 28 71.5 43.5
t89.5 15.5q48 -1 89 -16t74 -43zM131 346q0 -88 61.5 -151t146.5 -63t146.5 63t61.5 151q0 87 -61.5 150.5t-146.5 63.5t-146.5 -63.5t-61.5 -150.5z" />
    <glyph glyph-name="yen" unicode="&#xa5;" horiz-adv-x="511" 
d="M-40 700l130 2q8 0 14.5 -1.5t14.5 -3.5l161 -297l108 207q7 15 10.5 24.5t3.5 17.5q0 14 -9.5 28t-24.5 23h173l-208 -363h105v-54h-125v-56h125v-54h-125v-73q-1 -38 10 -60.5t36 -39.5h-194q24 17 34.5 39.5t11.5 60.5v73h-138v54h138v56h-138v54h120l-158 295
q-13 23 -32.5 40.5t-42.5 27.5z" />
    <glyph glyph-name="brokenbar" unicode="&#xa6;" horiz-adv-x="135" 
d="M30 773h75v-319h-75v319zM30 49h75v-319h-75v319z" />
    <glyph glyph-name="section" unicode="&#xa7;" horiz-adv-x="461" 
d="M373 691l3 -105q-24 21 -50.5 33t-51.5 12q-35 0 -56.5 -25t-21.5 -61q0 -38 23 -75t82 -90q77 -71 103.5 -130t26.5 -133q-1 -148 -66.5 -237t-161.5 -89q-29 0 -58.5 6t-55.5 17l-4 108q23 -20 52 -33.5t51 -13.5q33 0 55.5 24.5t22.5 61.5q0 30 -13.5 57t-92.5 106
q-80 79 -105 136t-25 129q0 145 69 235.5t160 90.5q27 0 58 -6.5t56 -17.5zM281 263l-36 38q-60 62 -78.5 93t-30.5 69q-4 -17 -5.5 -36t-1.5 -45q0 -40 12 -72t41 -64l35 -40q67 -78 82 -105t29 -60q2 13 2.5 28.5t1.5 52.5q0 44 -12.5 78t-38.5 63z" />
    <glyph glyph-name="dieresis" unicode="&#xa8;" horiz-adv-x="318" 
d="M0 619q0 25 19 44t45 20q25 0 44.5 -19.5t19.5 -44.5q0 -26 -19.5 -45t-44.5 -19q-26 -1 -45 18.5t-19 45.5zM190 619q0 25 19 44.5t45 19.5q25 0 44.5 -19.5t19.5 -44.5q0 -26 -19.5 -45t-44.5 -19q-26 0 -45 19t-19 45z" />
    <glyph glyph-name="copyright" unicode="&#xa9;" horiz-adv-x="828" 
d="M50 350q0 150 107 257t257 107t257 -107t107 -257q-1 -151 -107.5 -257t-256.5 -107q-150 0 -257 107t-107 257zM100 350q0 -135 92 -229.5t222 -94.5q129 0 221.5 94.5t92.5 229.5q0 134 -92.5 229t-221.5 95q-130 0 -222 -95t-92 -229zM555 561v-75q-28 17 -60 28.5
t-63 11.5q-68 0 -115 -42t-47 -119q0 -85 48.5 -135.5t127.5 -50.5q46 -1 81.5 10t64.5 35l-42 -83q-27 -9 -52.5 -12t-55.5 -3q-114 -1 -179 59.5t-65 163.5q0 105 69.5 167.5t176.5 62.5q32 0 59.5 -7.5t51.5 -10.5z" />
    <glyph glyph-name="ordfeminine" unicode="&#xaa;" horiz-adv-x="296" 
d="M59 637l39 72q12 3 25 4.5t32 1.5q57 0 85.5 -27t28.5 -75v-123q-1 -22 8.5 -30t30.5 -8q2 -1 4.5 -1t5.5 1l-25 -50q-3 -1 -6 -1t-6 1q-42 0 -61 18.5t-18 53.5v84l-10 -4t-46 -12q-34 -9 -46 -19.5t-12 -28.5q-1 -21 13.5 -33t42.5 -12q12 0 23 1t23 5l-29 -56
q-11 -4 -21.5 -5.5t-20.5 -0.5q-47 0 -74.5 26.5t-27.5 73.5q0 36 21 56t85 36q58 14 67.5 21t9.5 21t-12.5 23t-37.5 9q-21 0 -44.5 -5.5t-46.5 -16.5z" />
    <glyph glyph-name="guillemotleft" unicode="&#xab;" horiz-adv-x="368" 
d="M126 263l66 -181h-35l-117 181l117 181h35zM262 263l66 -181h-36l-116 181l116 181h36z" />
    <glyph glyph-name="logicalnot" unicode="&#xac;" 
d="M38 376v55h564v-265h-58v210h-506z" />
    <glyph glyph-name="hyphen" unicode="&#xad;" horiz-adv-x="425" 
d="M40 225l58 80q3 5 9.5 8t14.5 3h263l-58 -80q-4 -6 -10.5 -8.5t-13.5 -2.5h-263z" />
    <glyph glyph-name="registered" unicode="&#xae;" horiz-adv-x="828" 
d="M50 350q0 150 107 257t257 107t257 -107t107 -257q-1 -151 -107.5 -257t-256.5 -107q-150 0 -257 107t-107 257zM298 188v320q0 25 -7 38.5t-22 25.5q20 0 41 0.5t43 1.5h28h28q77 -1 119.5 -29.5t42.5 -86.5q0 -39 -29.5 -72t-82.5 -41q43 -67 98.5 -131.5t89.5 -80.5
q38 44 59.5 99.5t21.5 117.5q0 133 -92.5 228.5t-221.5 95.5q-130 0 -222 -95t-92 -229q0 -135 91.5 -229.5t222.5 -94.5q60 0 116 22.5t106 72.5v0l1 1q-66 -10 -120.5 37.5t-134.5 198.5q48 3 80.5 28.5t32.5 65.5q0 34 -22.5 54.5t-66.5 20.5q-18 0 -26.5 -1.5
t-16.5 -3.5v-334q0 -26 6.5 -39t23.5 -25h-124q15 11 22 24.5t7 39.5z" />
    <glyph glyph-name="macron" unicode="&#xaf;" horiz-adv-x="382" 
d="M0 657h382v-60h-382v60z" />
    <glyph glyph-name="macron" unicode="&#x2c9;" horiz-adv-x="382" 
d="M0 657h382v-60h-382v60z" />
    <glyph glyph-name="degree" unicode="&#xb0;" horiz-adv-x="310" 
d="M45 590q-1 45 31.5 77.5t78.5 32.5q45 0 77.5 -32.5t32.5 -77.5q0 -46 -32.5 -78t-77.5 -32q-46 0 -78 32t-32 78zM87 590q0 -29 19.5 -48.5t48.5 -19.5q28 0 48 19.5t20 48.5q0 28 -20 48t-48 20q-29 -1 -48.5 -20.5t-19.5 -47.5z" />
    <glyph glyph-name="plusminus" unicode="&#xb1;" 
d="M38 52v54h564v-54h-564zM347 161h-54v206h-255v54h255v233h54v-233h255v-54h-255v-206z" />
    <glyph glyph-name="twosuperior" unicode="&#xb2;" horiz-adv-x="315" 
d="M24 605l37 83q20 7 42.5 10.5t49.5 3.5q62 0 96.5 -28.5t34.5 -70.5q0 -20 -6.5 -38.5t-30.5 -53.5l-124 -181q23 -3 40.5 -3.5t33.5 -0.5q42 0 72 6.5t66 23.5l-38 -86h-297l178 261q11 16 17 31t6 27q0 23 -18 38t-46 15q-21 0 -50 -10t-63 -27z" />
    <glyph glyph-name="threesuperior" unicode="&#xb3;" horiz-adv-x="354" 
d="M45 617l34 81q20 5 39.5 8t38.5 3q67 0 108 -29.5t41 -78.5q0 -32 -19 -55.5t-54 -33.5q40 -6 67.5 -37.5t28.5 -74.5q-1 -59 -52.5 -99t-146.5 -40q-21 -1 -41.5 1.5t-44.5 8.5l-34 91q39 -23 69 -33t60 -9q49 0 80 22t31 58q-1 36 -28.5 56.5t-72.5 20.5
q-12 0 -25 -1.5t-26 -3.5v64q21 -3 31.5 -3.5t16.5 -0.5q37 0 59 17t22 43q0 24 -21 41t-58 17q-22 0 -48 -8.5t-55 -24.5z" />
    <glyph glyph-name="acute" unicode="&#xb4;" horiz-adv-x="301" 
d="M247 710l54 -77l-298 -83l-3 3z" />
    <glyph glyph-name="mu" unicode="&#xb5;" horiz-adv-x="549" 
d="M21 485h77q17 -1 29 3t24 13v-299q0 -71 32 -106t87 -35q54 -1 88 34t35 90v230q0 24 -8.5 40.5t-26.5 29.5h77q17 -1 29 3t24 13v-431q0 -25 8 -41.5t27 -28.5h-126v70q-23 -39 -58.5 -61.5t-82.5 -23.5q-44 0 -74.5 19.5t-49.5 67.5l11 -293h-95l8 292v344
q0 24 -8.5 40.5t-26.5 29.5z" />
    <glyph glyph-name="paragraph" unicode="&#xb6;" horiz-adv-x="616" 
d="M458 700h133q-25 -18 -35.5 -40.5t-10.5 -59.5v-709q0 -37 10.5 -59.5t35.5 -40.5h-133v909zM405 700v-909h-133q24 18 35 40.5t11 59.5v309q-117 -5 -190 73.5t-73 176.5q0 107 78.5 178t193.5 72h78z" />
    <glyph glyph-name="periodcentered" unicode="&#xb7;" horiz-adv-x="328" 
d="M80 280q0 35 24 59.5t60 24.5q35 0 59.5 -24.5t24.5 -59.5q-1 -36 -25 -60t-59 -24q-36 -1 -60 23.5t-24 60.5z" />
    <glyph glyph-name="periodcentered" unicode="&#x2219;" horiz-adv-x="328" 
d="M80 280q0 35 24 59.5t60 24.5q35 0 59.5 -24.5t24.5 -59.5q-1 -36 -25 -60t-59 -24q-36 -1 -60 23.5t-24 60.5z" />
    <glyph glyph-name="cedilla" unicode="&#xb8;" horiz-adv-x="215" 
d="M74 -12h54l-15 -41q45 6 73 -13t29 -56q0 -35 -29.5 -57.5t-70.5 -22.5q-31 0 -60 11t-55 31l34 43q19 -17 38 -25.5t37 -9.5q17 0 28 9.5t12 23.5q0 20 -18 26.5t-45 -0.5l-28 43z" />
    <glyph glyph-name="onesuperior" unicode="&#xb9;" horiz-adv-x="229" 
d="M153 732v-397q-1 -23 8 -38.5t28 -26.5h-144q19 9 28.5 24t9.5 41v269h-83q51 22 88.5 53t64.5 75z" />
    <glyph glyph-name="ordmasculine" unicode="&#xba;" horiz-adv-x="398" 
d="M201 715q78 0 124 -47.5t46 -113.5q-1 -70 -51.5 -115.5t-123.5 -45.5q-78 0 -123.5 47t-45.5 114q0 69 50.5 115t123.5 46zM198 659q-44 0 -71 -29.5t-27 -75.5q-1 -46 25 -75.5t75 -29.5q43 -1 70 28.5t28 76.5q-1 45 -26.5 75t-73.5 30z" />
    <glyph glyph-name="guillemotright" unicode="&#xbb;" horiz-adv-x="368" 
d="M106 263l-66 181h36l116 -181l-116 -181h-36zM242 263l-66 181h35l117 -181l-117 -181h-35z" />
    <glyph glyph-name="onequarter" unicode="&#xbc;" horiz-adv-x="716" 
d="M154 732v-397q-1 -23 8 -38.5t28 -26.5h-145q19 9 28.5 24t9.5 41v269h-83q52 23 89 53.5t65 74.5zM433 715h54l-279 -738h-54zM532 430h94v-282q17 1 37 7t43 17l-34 -87h-46v-20q-1 -23 8 -38.5t28 -26.5h-145q19 9 28.5 24t9.5 41v20h-224zM555 357l-121 -209
q18 -3 38.5 -4t39.5 -1q10 0 20.5 0.5t22.5 1.5v212z" />
    <glyph glyph-name="onehalf" unicode="&#xbd;" horiz-adv-x="673" 
d="M154 732v-397q-1 -23 8 -38.5t28 -26.5h-145q19 9 28.5 24t9.5 41v269h-83q52 23 89 53.5t65 74.5zM413 715h54l-279 -738h-54zM382 335l37 83q20 7 42.5 10.5t49.5 3.5q62 0 96.5 -28.5t34.5 -70.5q-1 -20 -7 -38.5t-30 -53.5l-124 -181q23 -3 40.5 -3.5t33.5 -0.5
q42 0 72 6.5t66 23.5l-38 -86h-297l178 261q11 16 17 31t6 27q0 23 -18 38t-46 15q-21 -1 -50 -10.5t-63 -26.5z" />
    <glyph glyph-name="threequarters" unicode="&#xbe;" horiz-adv-x="802" 
d="M45 617l34 81q20 5 39.5 8t38.5 3q67 0 108 -29.5t41 -78.5q0 -32 -19 -55.5t-54 -33.5q40 -6 67.5 -37.5t28.5 -74.5q-1 -59 -52.5 -99t-146.5 -40q-21 -1 -41.5 1.5t-44.5 8.5l-34 91q39 -23 69 -33t60 -9q49 0 80 22t31 58q-1 36 -28.5 56.5t-72.5 20.5
q-12 0 -25 -1.5t-26 -3.5v64q21 -3 31.5 -3.5t16.5 -0.5q37 0 59 17t22 43q0 24 -21 41t-58 17q-22 0 -48 -8.5t-55 -24.5zM523 715h54l-279 -738h-54zM618 430h94v-282q17 1 37 7t43 17l-34 -87h-46v-20q-1 -23 8 -38.5t28 -26.5h-145q19 9 28.5 24t9.5 41v20h-224z
M641 357l-121 -209q18 -3 38.5 -4t39.5 -1q10 0 20.5 0.5t22.5 1.5v212z" />
    <glyph glyph-name="questiondown" unicode="&#xbf;" horiz-adv-x="399" 
d="M178 439q0 27 19 46.5t47 19.5q27 0 46.5 -19.5t19.5 -46.5q0 -28 -19.5 -47t-46.5 -19q-28 0 -47 19t-19 47zM399 -112l-17 -34q-24 -47 -50.5 -63t-94.5 -16q-111 0 -174 51t-63 136q0 50 22.5 91.5t81.5 91.5l31 26q48 40 62.5 64.5t14.5 48.5q0 8 -2 16.5t-6 16.5h86
q0 -7 0.5 -13.5t0.5 -12.5q0 -47 -17 -80t-66 -72q-66 -53 -85 -87t-19 -69q-1 -59 42 -97.5t113 -38.5q31 0 66 10.5t74 30.5z" />
    <glyph glyph-name="Agrave" unicode="&#xc0;" horiz-adv-x="658" 
d="M218 700h164l241 -597q17 -43 37 -66t48 -37h-215q25 11 33 30t-3 48l-76 188h-269l-63 -157q-17 -41 -9.5 -66t33.5 -43h-189q29 18 49 45.5t42 81.5l200 506q9 24 2.5 41t-25.5 26zM312 609l-108 -276h217zM182 917l256 -163l-10 -10l-307 86z" />
    <glyph glyph-name="Aacute" unicode="&#xc1;" horiz-adv-x="658" 
d="M218 700h164l241 -597q17 -43 37 -66t48 -37h-215q25 11 33 30t-3 48l-76 188h-269l-63 -157q-17 -41 -9.5 -66t33.5 -43h-189q29 18 49 45.5t42 81.5l200 506q9 24 2.5 41t-25.5 26zM312 609l-108 -276h217zM426 917l61 -87l-307 -86l-10 10z" />
    <glyph glyph-name="Acircumflex" unicode="&#xc2;" horiz-adv-x="658" 
d="M218 700h164l241 -597q17 -43 37 -66t48 -37h-215q25 11 33 30t-3 48l-76 188h-269l-63 -157q-17 -41 -9.5 -66t33.5 -43h-189q29 18 49 45.5t42 81.5l200 506q9 24 2.5 41t-25.5 26zM312 609l-108 -276h217zM329 912l195 -182q-52 4 -101.5 20.5t-93.5 45.5
q-45 -29 -94.5 -45.5t-100.5 -20.5z" />
    <glyph glyph-name="Atilde" unicode="&#xc3;" horiz-adv-x="658" 
d="M218 700h164l241 -597q17 -43 37 -66t48 -37h-215q25 11 33 30t-3 48l-76 188h-269l-63 -157q-17 -41 -9.5 -66t33.5 -43h-189q29 18 49 45.5t42 81.5l200 506q9 24 2.5 41t-25.5 26zM312 609l-108 -276h217zM123 732l34 77q18 42 46 52t98 0l40 -6q31 -5 52 -7t35 -2
q35 0 58 9.5t49 30.5l-34 -77q-19 -43 -47 -53t-97 1l-40 6q-32 4 -53 6.5t-34 2.5q-36 0 -59 -10t-48 -30z" />
    <glyph glyph-name="Adieresis" unicode="&#xc4;" horiz-adv-x="658" 
d="M218 700h164l241 -597q17 -43 37 -66t48 -37h-215q25 11 33 30t-3 48l-76 188h-269l-63 -157q-17 -41 -9.5 -66t33.5 -43h-189q29 18 49 45.5t42 81.5l200 506q9 24 2.5 41t-25.5 26zM312 609l-108 -276h217zM157 809q0 28 19.5 48t48.5 20q28 0 48 -20t20 -48
q0 -29 -20 -48.5t-48 -19.5q-29 0 -48.5 19.5t-19.5 48.5zM366 809q0 28 19.5 48t48.5 20q28 -1 48 -20.5t20 -47.5q0 -29 -20 -49t-48 -19q-29 0 -48.5 19.5t-19.5 48.5z" />
    <glyph glyph-name="Aring" unicode="&#xc5;" horiz-adv-x="658" 
d="M218 700h164l241 -597q17 -43 37 -66t48 -37h-215q25 11 33 30t-3 48l-76 188h-269l-63 -157q-17 -41 -9.5 -66t33.5 -43h-189q29 18 49 45.5t42 81.5l200 506q9 24 2.5 41t-25.5 26zM312 609l-108 -276h217zM225 819q0 37 27.5 64t64.5 27q36 -1 64 -27.5t28 -63.5
q0 -38 -28 -65t-64 -26q-37 0 -64.5 26.5t-27.5 64.5zM277 819q0 -24 11.5 -37t28.5 -13q16 0 28 13t12 37q0 23 -12 36.5t-28 13.5q-17 0 -29 -13.5t-11 -36.5z" />
    <glyph glyph-name="AE" unicode="&#xc6;" horiz-adv-x="872" 
d="M373 700h415v-115q-18 20 -43 28t-62 8l-135 -3v-200h144q9 0 18 0.5t18 2.5v-109q-14 14 -32 20t-44 6h-104v-251q32 -4 65.5 -5.5t64.5 -1.5q71 0 120.5 13t88.5 48l-51 -141h-436q24 17 35 40t11 60v238h-178l-177 -244q-13 -18 -17.5 -30t-4.5 -22q0 -14 8 -24.5
t24 -17.5h-211q28 19 55.5 47t46.5 55l385 518q11 15 16 25.5t5 20.5q0 9 -6 17t-19 17zM446 418v126q0 17 0.5 31.5t2.5 30.5q-6 -16 -13.5 -32.5t-17.5 -29.5l-92 -126h120z" />
    <glyph glyph-name="Ccedilla" unicode="&#xc7;" horiz-adv-x="667" 
d="M611 688v-122q-41 28 -92 46t-106 18q-106 0 -184 -68.5t-78 -189.5q0 -138 79 -220t207 -82q74 0 132.5 18t102.5 56l-68 -134q-43 -13 -85.5 -19t-88.5 -6q-9 1 -17.5 1h-16.5l-22 -48q8 3 17 4t21 1q39 0 61 -20t23 -56q-1 -33 -29 -59t-80 -26q-31 0 -61 9.5
t-57 27.5l35 45q17 -14 35 -21.5t37 -7.5q20 0 33 9.5t13 23.5q0 13 -10 20.5t-26 6.5q-5 0 -12.5 -1.5t-14.5 -4.5l-39 50l23 51q-134 12 -220.5 113.5t-86.5 241.5q0 153 103.5 261.5t284.5 108.5q29 -1 56.5 -4t68.5 -11q25 -6 36.5 -8t25.5 -4z" />
    <glyph glyph-name="Egrave" unicode="&#xc8;" horiz-adv-x="515" 
d="M43 700h388v-115q-18 20 -43 28t-62 8l-135 -3v-200h144q9 0 18 0.5t18 2.5v-109q-14 14 -32 20t-44 6h-104v-251q32 -4 65.5 -5.5t64.5 -1.5q71 -1 120.5 12.5t88.5 48.5l-51 -141h-436q24 17 35 40t11 60v500q-1 36 -11.5 59t-34.5 41zM160 917l256 -163l-10 -10
l-307 86z" />
    <glyph glyph-name="Eacute" unicode="&#xc9;" horiz-adv-x="515" 
d="M43 700h388v-115q-18 20 -43 28t-62 8l-135 -3v-200h144q9 0 18 0.5t18 2.5v-109q-14 14 -32 20t-44 6h-104v-251q32 -4 65.5 -5.5t64.5 -1.5q71 -1 120.5 12.5t88.5 48.5l-51 -141h-436q24 17 35 40t11 60v500q-1 36 -11.5 59t-34.5 41zM355 917l61 -87l-307 -86l-10 10
z" />
    <glyph glyph-name="Ecircumflex" unicode="&#xca;" horiz-adv-x="515" 
d="M43 700h388v-115q-18 20 -43 28t-62 8l-135 -3v-200h144q9 0 18 0.5t18 2.5v-109q-14 14 -32 20t-44 6h-104v-251q32 -4 65.5 -5.5t64.5 -1.5q71 -1 120.5 12.5t88.5 48.5l-51 -141h-436q24 17 35 40t11 60v500q-1 36 -11.5 59t-34.5 41zM258 912l195 -182
q-52 4 -101.5 20.5t-93.5 45.5q-45 -29 -94.5 -45.5t-100.5 -20.5z" />
    <glyph glyph-name="Edieresis" unicode="&#xcb;" horiz-adv-x="515" 
d="M43 700h388v-115q-18 20 -43 28t-62 8l-135 -3v-200h144q9 0 18 0.5t18 2.5v-109q-14 14 -32 20t-44 6h-104v-251q32 -4 65.5 -5.5t64.5 -1.5q71 -1 120.5 12.5t88.5 48.5l-51 -141h-436q24 17 35 40t11 60v500q-1 36 -11.5 59t-34.5 41zM85 809q0 28 19.5 48t48.5 20
q28 0 48 -20t20 -48q0 -29 -20 -48.5t-48 -19.5q-29 0 -48.5 19.5t-19.5 48.5zM294 809q0 28 19.5 48t48.5 20q28 -1 48 -20.5t20 -47.5q0 -29 -20 -49t-48 -19q-29 0 -48.5 19.5t-19.5 48.5z" />
    <glyph glyph-name="Igrave" unicode="&#xcc;" horiz-adv-x="280" 
d="M43 700h194q-25 -18 -35.5 -40.5t-10.5 -59.5v-500q-1 -38 10 -60.5t36 -39.5h-194q24 17 34.5 39.5t11.5 60.5v500q-1 37 -11.5 59.5t-34.5 40.5zM44 917l256 -163l-10 -10l-307 86z" />
    <glyph glyph-name="Iacute" unicode="&#xcd;" horiz-adv-x="280" 
d="M43 700h194q-25 -18 -35.5 -40.5t-10.5 -59.5v-500q-1 -38 10 -60.5t36 -39.5h-194q24 17 34.5 39.5t11.5 60.5v500q-1 37 -11.5 59.5t-34.5 40.5zM239 917l61 -87l-307 -86l-10 10z" />
    <glyph glyph-name="Icircumflex" unicode="&#xce;" horiz-adv-x="281" 
d="M43 700h194q-25 -18 -35.5 -40.5t-10.5 -59.5v-500q-1 -38 10 -60.5t36 -39.5h-194q24 17 34.5 39.5t11.5 60.5v500q-1 37 -11.5 59.5t-34.5 40.5zM142 912l195 -182q-52 4 -101.5 20.5t-93.5 45.5q-45 -29 -94.5 -45.5t-100.5 -20.5z" />
    <glyph glyph-name="Idieresis" unicode="&#xcf;" horiz-adv-x="281" 
d="M43 700h194q-25 -18 -35.5 -40.5t-10.5 -59.5v-500q-1 -38 10 -60.5t36 -39.5h-194q24 17 34.5 39.5t11.5 60.5v500q-1 37 -11.5 59.5t-34.5 40.5zM-31 809q0 28 19.5 48t48.5 20q28 0 48 -20t20 -48q0 -29 -20 -48.5t-48 -19.5q-29 0 -48.5 19.5t-19.5 48.5zM178 809
q0 28 19.5 48t48.5 20q28 -1 48 -20.5t20 -47.5q0 -29 -20 -49t-48 -19q-29 0 -48.5 19.5t-19.5 48.5z" />
    <glyph glyph-name="Eth" unicode="&#xd0;" horiz-adv-x="731" 
d="M89 100v261h-89v60h89v179q-1 37 -11.5 59.5t-34.5 40.5q54 3 124.5 6t112.5 3q207 0 311 -96.5t104 -259.5q0 -165 -110 -259t-322 -94h-220q24 17 34.5 39.5t11.5 60.5zM191 619v-198h191v-60h-191v-270q20 -7 39.5 -9t51.5 -2q132 0 215 66t83 203q0 131 -79.5 205.5
t-204.5 74.5q-23 0 -50 -3t-55 -7z" />
    <glyph glyph-name="Ntilde" unicode="&#xd1;" horiz-adv-x="777" 
d="M40 700h149q3 -8 7 -15t8 -11l409 -510v436q0 37 -11 59.5t-35 40.5h170q-25 -18 -36 -40.5t-10 -59.5v-628q-40 12 -73.5 34t-82.5 85l-371 464v-455q-1 -38 10 -60.5t36 -39.5h-170q24 17 34.5 39.5t11.5 60.5v500q-1 37 -11.5 59.5t-34.5 40.5zM209 732l34 77
q18 42 46 52t98 0l40 -6q31 -5 52 -7t35 -2q35 0 58 9.5t49 30.5l-34 -77q-19 -43 -47 -53t-97 1l-40 6q-32 4 -53 6.5t-34 2.5q-36 0 -59 -10t-48 -30z" />
    <glyph glyph-name="Ograve" unicode="&#xd2;" horiz-adv-x="840" 
d="M420 715q165 0 274.5 -101t109.5 -264q0 -150 -102.5 -257.5t-281.5 -107.5q-166 0 -275 100.5t-109 264.5q0 149 102 257t282 108zM422 633q-121 -1 -196 -76t-75 -191q-1 -131 74 -215t193 -84q120 0 195.5 75t75.5 192q0 130 -75 214.5t-192 84.5zM322 917l256 -163
l-10 -10l-307 86z" />
    <glyph glyph-name="Oacute" unicode="&#xd3;" horiz-adv-x="840" 
d="M420 715q165 0 274.5 -101t109.5 -264q0 -150 -102.5 -257.5t-281.5 -107.5q-166 0 -275 100.5t-109 264.5q0 149 102 257t282 108zM422 633q-121 -1 -196 -76t-75 -191q-1 -131 74 -215t193 -84q120 0 195.5 75t75.5 192q0 130 -75 214.5t-192 84.5zM517 917l61 -87
l-307 -86l-10 10z" />
    <glyph glyph-name="Ocircumflex" unicode="&#xd4;" horiz-adv-x="840" 
d="M420 715q165 0 274.5 -101t109.5 -264q0 -150 -102.5 -257.5t-281.5 -107.5q-166 0 -275 100.5t-109 264.5q0 149 102 257t282 108zM422 633q-121 -1 -196 -76t-75 -191q-1 -131 74 -215t193 -84q120 0 195.5 75t75.5 192q0 130 -75 214.5t-192 84.5zM420 912l195 -182
q-52 4 -101.5 20.5t-93.5 45.5q-45 -29 -94.5 -45.5t-100.5 -20.5z" />
    <glyph glyph-name="Otilde" unicode="&#xd5;" horiz-adv-x="840" 
d="M420 715q165 0 274.5 -101t109.5 -264q0 -150 -102.5 -257.5t-281.5 -107.5q-166 0 -275 100.5t-109 264.5q0 149 102 257t282 108zM422 633q-121 -1 -196 -76t-75 -191q-1 -131 74 -215t193 -84q120 0 195.5 75t75.5 192q0 130 -75 214.5t-192 84.5zM214 732l34 77
q18 42 46 52t98 0l40 -6q31 -5 52 -7t35 -2q35 0 58 9.5t49 30.5l-34 -77q-19 -43 -47 -53t-97 1l-40 6q-32 4 -53 6.5t-34 2.5q-36 0 -59 -10t-48 -30z" />
    <glyph glyph-name="Odieresis" unicode="&#xd6;" horiz-adv-x="840" 
d="M420 715q165 0 274.5 -101t109.5 -264q0 -150 -102.5 -257.5t-281.5 -107.5q-166 0 -275 100.5t-109 264.5q0 149 102 257t282 108zM422 633q-121 -1 -196 -76t-75 -191q-1 -131 74 -215t193 -84q120 0 195.5 75t75.5 192q0 130 -75 214.5t-192 84.5zM248 809
q0 28 19.5 48t48.5 20q28 0 48 -20t20 -48q0 -29 -20 -48.5t-48 -19.5q-29 0 -48.5 19.5t-19.5 48.5zM457 809q0 28 19.5 48t48.5 20q28 -1 48 -20.5t20 -47.5q0 -29 -20 -49t-48 -19q-29 0 -48.5 19.5t-19.5 48.5z" />
    <glyph glyph-name="multiply" unicode="&#xd7;" 
d="M321 311l-203 -204l-39 38l204 204l-204 204l39 38l203 -204l203 204l39 -38l-204 -204l204 -204l-39 -38z" />
    <glyph glyph-name="Oslash" unicode="&#xd8;" horiz-adv-x="840" 
d="M226 -102l38 112q-104 41 -166 132t-62 208q-1 149 102 257t282 108q21 0 41 -1.5t41 -4.5l35 101h76l-41 -119q106 -36 169 -132t63 -209q0 -149 -102.5 -257t-281.5 -108q-22 0 -43.5 2t-42.5 5l-32 -94h-76zM294 97l181 531q-14 2 -27 3.5t-26 1.5
q-120 0 -195.5 -76.5t-75.5 -196.5q0 -92 38 -160t105 -103zM543 605l-181 -532q14 -3 28 -4.5t28 -1.5q119 0 195 76t76 197q0 95 -41 162.5t-105 102.5z" />
    <glyph glyph-name="Ugrave" unicode="&#xd9;" horiz-adv-x="730" 
d="M40 700h194q-25 -18 -35.5 -40.5t-10.5 -59.5v-357q0 -96 44 -136t123 -40q84 0 133.5 42.5t50.5 120.5v370q-1 37 -11.5 59.5t-34.5 40.5h194q-25 -18 -36 -40.5t-10 -59.5v-500q-1 -38 10 -60.5t36 -39.5h-145v67q-41 -43 -91 -62t-112 -20q-125 0 -189 61.5t-64 183.5
v370q-1 37 -11.5 59.5t-34.5 40.5zM267 917l256 -163l-10 -10l-307 86z" />
    <glyph glyph-name="Uacute" unicode="&#xda;" horiz-adv-x="730" 
d="M40 700h194q-25 -18 -35.5 -40.5t-10.5 -59.5v-357q0 -96 44 -136t123 -40q84 0 133.5 42.5t50.5 120.5v370q-1 37 -11.5 59.5t-34.5 40.5h194q-25 -18 -36 -40.5t-10 -59.5v-500q-1 -38 10 -60.5t36 -39.5h-145v67q-41 -43 -91 -62t-112 -20q-125 0 -189 61.5t-64 183.5
v370q-1 37 -11.5 59.5t-34.5 40.5zM462 917l61 -87l-307 -86l-10 10z" />
    <glyph glyph-name="Ucircumflex" unicode="&#xdb;" horiz-adv-x="730" 
d="M40 700h194q-25 -18 -35.5 -40.5t-10.5 -59.5v-357q0 -96 44 -136t123 -40q84 0 133.5 42.5t50.5 120.5v370q-1 37 -11.5 59.5t-34.5 40.5h194q-25 -18 -36 -40.5t-10 -59.5v-500q-1 -38 10 -60.5t36 -39.5h-145v67q-41 -43 -91 -62t-112 -20q-125 0 -189 61.5t-64 183.5
v370q-1 37 -11.5 59.5t-34.5 40.5zM365 912l195 -182q-52 4 -101.5 20.5t-93.5 45.5q-45 -29 -94.5 -45.5t-100.5 -20.5z" />
    <glyph glyph-name="Udieresis" unicode="&#xdc;" horiz-adv-x="730" 
d="M40 700h194q-25 -18 -35.5 -40.5t-10.5 -59.5v-357q0 -96 44 -136t123 -40q84 0 133.5 42.5t50.5 120.5v370q-1 37 -11.5 59.5t-34.5 40.5h194q-25 -18 -36 -40.5t-10 -59.5v-500q-1 -38 10 -60.5t36 -39.5h-145v67q-41 -43 -91 -62t-112 -20q-125 0 -189 61.5t-64 183.5
v370q-1 37 -11.5 59.5t-34.5 40.5zM193 809q0 28 19.5 48t48.5 20q28 0 48 -20t20 -48q0 -29 -20 -48.5t-48 -19.5q-29 0 -48.5 19.5t-19.5 48.5zM402 809q0 28 19.5 48t48.5 20q28 -1 48 -20.5t20 -47.5q0 -29 -20 -49t-48 -19q-29 0 -48.5 19.5t-19.5 48.5z" />
    <glyph glyph-name="Yacute" unicode="&#xdd;" horiz-adv-x="571" 
d="M-40 700l130 2q8 0 14.5 -1.5t14.5 -3.5l191 -302l138 214q6 9 10 19.5t4 20.5q0 14 -9.5 28t-24.5 23h173l-258 -387v-213q0 -38 10.5 -60.5t35.5 -39.5h-194q24 17 35 39.5t11 60.5v214l-206 318q-16 24 -34.5 40.5t-40.5 27.5zM383 917l61 -87l-307 -86l-10 10z" />
    <glyph glyph-name="Thorn" unicode="&#xde;" horiz-adv-x="547" 
d="M43 750h195q-23 -16 -35.5 -39.5t-10.5 -51.5q133 14 234 -59t101 -213q0 -134 -97.5 -214.5t-237.5 -68.5v-10q0 -35 11.5 -57t34.5 -37h-195q23 16 34 36.5t11 57.5v565q0 33 -11 53.5t-34 37.5zM192 586v-409q98 -7 159 49.5t61 148.5q-1 96 -61 156t-159 55z" />
    <glyph glyph-name="germandbls" unicode="&#xdf;" horiz-adv-x="584" 
d="M208 0h-165q18 12 26 28.5t9 41.5v332h-48l14 20q19 28 26.5 43.5t7.5 28.5v16q0 92 56.5 148.5t150.5 56.5q80 0 132.5 -40t52.5 -104q0 -38 -18.5 -68t-61.5 -56l-18 -11q-15 -9 -21.5 -16.5t-6.5 -13.5t3.5 -10t16.5 -9l20 -9q95 -44 140 -94t45 -119
q0 -82 -56.5 -131t-142.5 -49q-48 0 -83 10.5t-40 30.5l-27 91q30 -29 62.5 -42.5t68.5 -13.5q57 -1 85 27.5t29 76.5q0 43 -29.5 77.5t-96.5 66.5l-54 25q-34 15 -42.5 26t-8.5 27q0 13 7 24.5t39 37.5l39 31q24 19 36.5 41t12.5 50q0 33 -22 54.5t-66 21.5
q-54 0 -80.5 -36.5t-26.5 -112.5v-428q0 -25 8 -41.5t27 -28.5z" />
    <glyph glyph-name="agrave" unicode="&#xe0;" horiz-adv-x="490" 
d="M85 392l63 104q24 4 47 6.5t44 2.5q90 0 135.5 -42t46.5 -130v-195q-1 -37 16 -53.5t56 -17.5q4 -1 9 -1t10 1l-48 -67h-6.5h-8.5q-67 0 -95 30t-28 82v157q-14 -9 -28 -15t-78 -21q-56 -14 -78.5 -34.5t-22.5 -53.5q-1 -38 25.5 -61t75.5 -23q20 0 42 3t45 10l-64 -80
q-16 -4 -32 -6.5t-32 -2.5q-73 0 -117.5 43.5t-44.5 114.5q0 52 31 86t139 59q98 22 116.5 37.5t18.5 40.5q0 29 -24 46t-68 17q-37 0 -75 -9.5t-70 -27.5zM148 710l247 -157l-3 -3l-298 83z" />
    <glyph glyph-name="aacute" unicode="&#xe1;" horiz-adv-x="490" 
d="M85 392l63 104q24 4 47 6.5t44 2.5q90 0 135.5 -42t46.5 -130v-195q-1 -37 16 -53.5t56 -17.5q4 -1 9 -1t10 1l-48 -67h-6.5h-8.5q-67 0 -95 30t-28 82v157q-14 -9 -28 -15t-78 -21q-56 -14 -78.5 -34.5t-22.5 -53.5q-1 -38 25.5 -61t75.5 -23q20 0 42 3t45 10l-64 -80
q-16 -4 -32 -6.5t-32 -2.5q-73 0 -117.5 43.5t-44.5 114.5q0 52 31 86t139 59q98 22 116.5 37.5t18.5 40.5q0 29 -24 46t-68 17q-37 0 -75 -9.5t-70 -27.5zM341 710l54 -77l-298 -83l-3 3z" />
    <glyph glyph-name="acircumflex" unicode="&#xe2;" horiz-adv-x="490" 
d="M85 392l63 104q24 4 47 6.5t44 2.5q90 0 135.5 -42t46.5 -130v-195q-1 -37 16 -53.5t56 -17.5q4 -1 9 -1t10 1l-48 -67h-6.5h-8.5q-67 0 -95 30t-28 82v157q-14 -9 -28 -15t-78 -21q-56 -14 -78.5 -34.5t-22.5 -53.5q-1 -38 25.5 -61t75.5 -23q20 0 42 3t45 10l-64 -80
q-16 -4 -32 -6.5t-32 -2.5q-73 0 -117.5 43.5t-44.5 114.5q0 52 31 86t139 59q98 22 116.5 37.5t18.5 40.5q0 29 -24 46t-68 17q-37 0 -75 -9.5t-70 -27.5zM245 705l180 -168q-48 5 -93.5 21.5t-86.5 43.5q-42 -27 -87.5 -43.5t-92.5 -21.5z" />
    <glyph glyph-name="atilde" unicode="&#xe3;" horiz-adv-x="490" 
d="M85 392l63 104q24 4 47 6.5t44 2.5q90 0 135.5 -42t46.5 -130v-195q-1 -37 16 -53.5t56 -17.5q4 -1 9 -1t10 1l-48 -67h-6.5h-8.5q-67 0 -95 30t-28 82v157q-14 -9 -28 -15t-78 -21q-56 -14 -78.5 -34.5t-22.5 -53.5q-1 -38 25.5 -61t75.5 -23q20 0 42 3t45 10l-64 -80
q-16 -4 -32 -6.5t-32 -2.5q-73 0 -117.5 43.5t-44.5 114.5q0 52 31 86t139 59q98 22 116.5 37.5t18.5 40.5q0 29 -24 46t-68 17q-37 0 -75 -9.5t-70 -27.5zM54 553l25 59q13 30 30 42t46 12q21 0 65.5 -11t123.5 -10q29 0 50 6.5t42 23.5l-25 -59q-14 -31 -31 -42.5
t-45 -11.5q-22 -1 -66.5 10t-122.5 11q-30 0 -51 -7t-41 -23z" />
    <glyph glyph-name="adieresis" unicode="&#xe4;" horiz-adv-x="490" 
d="M85 392l63 104q24 4 47 6.5t44 2.5q90 0 135.5 -42t46.5 -130v-195q-1 -37 16 -53.5t56 -17.5q4 -1 9 -1t10 1l-48 -67h-6.5h-8.5q-67 0 -95 30t-28 82v157q-14 -9 -28 -15t-78 -21q-56 -14 -78.5 -34.5t-22.5 -53.5q-1 -38 25.5 -61t75.5 -23q20 0 42 3t45 10l-64 -80
q-16 -4 -32 -6.5t-32 -2.5q-73 0 -117.5 43.5t-44.5 114.5q0 52 31 86t139 59q98 22 116.5 37.5t18.5 40.5q0 29 -24 46t-68 17q-37 0 -75 -9.5t-70 -27.5zM86 619q0 25 19 44t45 20q25 0 44.5 -19.5t19.5 -44.5q0 -26 -19.5 -45t-44.5 -19q-26 -1 -45 18.5t-19 45.5z
M276 619q0 25 19 44.5t45 19.5q25 0 44.5 -19.5t19.5 -44.5q0 -26 -19.5 -45t-44.5 -19q-26 0 -45 19t-19 45z" />
    <glyph glyph-name="aring" unicode="&#xe5;" horiz-adv-x="490" 
d="M85 392l63 104q24 4 47 6.5t44 2.5q90 0 135.5 -42t46.5 -130v-195q-1 -37 16 -53.5t56 -17.5q4 -1 9 -1t10 1l-48 -67h-6.5h-8.5q-67 0 -95 30t-28 82v157q-14 -9 -28 -15t-78 -21q-56 -14 -78.5 -34.5t-22.5 -53.5q-1 -38 25.5 -61t75.5 -23q20 0 42 3t45 10l-64 -80
q-16 -4 -32 -6.5t-32 -2.5q-73 0 -117.5 43.5t-44.5 114.5q0 52 31 86t139 59q98 22 116.5 37.5t18.5 40.5q0 29 -24 46t-68 17q-37 0 -75 -9.5t-70 -27.5zM158 619q0 36 24.5 61t61.5 25q36 0 61 -25t25 -61q0 -37 -25 -61.5t-61 -24.5q-37 0 -61.5 24.5t-24.5 61.5z
M204 619q0 -27 11 -41t29 -14q17 0 28.5 14t11.5 41q0 24 -11 39.5t-29 15.5q-19 0 -29.5 -15.5t-10.5 -39.5z" />
    <glyph glyph-name="ae" unicode="&#xe6;" horiz-adv-x="821" 
d="M85 392l63 104q24 4 47 6.5t44 2.5q62 0 101.5 -18.5t55.5 -51.5q27 33 69.5 51.5t105.5 18.5q112 0 172.5 -70t58.5 -178h-383q-4 -85 48 -140.5t154 -55.5q52 0 96.5 12t86.5 38l-61 -104q-37 -12 -71 -17t-74 -5q-127 0 -205 68.5t-78 189.5v7.5t1 11.5
q-14 -7 -25.5 -11t-71.5 -18q-54 -13 -77 -33.5t-23 -54.5q0 -38 26 -61t75 -23q20 0 42 3t45 10l-64 -80q-16 -4 -30.5 -6.5t-28.5 -2.5q-77 0 -122 44t-45 114q0 52 31 86t139 59q98 22 116.5 37.5t18.5 40.5q0 29 -24 46t-68 17q-37 0 -75 -9.5t-70 -27.5zM429 322h259
q-4 49 -37.5 78t-84.5 29q-53 -1 -90.5 -30t-46.5 -77z" />
    <glyph glyph-name="ccedilla" unicode="&#xe7;" horiz-adv-x="508" 
d="M446 491v-110q-28 22 -61.5 35t-71.5 13q-82 0 -132 -49t-50 -123q0 -93 60.5 -145t156.5 -51q51 -1 92 10.5t73 35.5q-44 -82 -73.5 -101.5t-112.5 -20.5h-6h-4l-15 -38q4 1 8 1h9q38 0 61 -18t24 -52q0 -35 -29.5 -57t-70.5 -23q-31 0 -60 11t-55 31l34 43
q19 -17 38 -25.5t37 -9.5q17 0 28 9.5t12 23.5q0 15 -9.5 22t-28.5 7q-7 0 -13 -0.5t-12 -2.5l-28 43l16 38q-107 9 -172 79.5t-64 167.5q0 55 18.5 104t56.5 87q42 42 93.5 60.5t131.5 18.5q40 0 66 -6t53 -8z" />
    <glyph glyph-name="egrave" unicode="&#xe8;" horiz-adv-x="559" 
d="M534 257h-403q-4 -85 50 -140.5t162 -55.5q56 -1 104 11.5t94 38.5l-66 -104q-39 -12 -75 -17t-78 -5q-135 0 -215 69t-80 194q-1 112 71.5 184.5t194.5 72.5q115 0 179.5 -70.5t61.5 -177.5zM141 322h279q-5 49 -41 78t-91 29q-57 -1 -97 -30t-50 -77zM182 710l247 -157
l-3 -3l-298 83z" />
    <glyph glyph-name="eacute" unicode="&#xe9;" horiz-adv-x="559" 
d="M534 257h-403q-4 -85 50 -140.5t162 -55.5q56 -1 104 11.5t94 38.5l-66 -104q-39 -12 -75 -17t-78 -5q-135 0 -215 69t-80 194q-1 112 71.5 184.5t194.5 72.5q115 0 179.5 -70.5t61.5 -177.5zM141 322h279q-5 49 -41 78t-91 29q-57 -1 -97 -30t-50 -77zM375 710l54 -77
l-298 -83l-3 3z" />
    <glyph glyph-name="ecircumflex" unicode="&#xea;" horiz-adv-x="559" 
d="M534 257h-403q-4 -85 50 -140.5t162 -55.5q56 -1 104 11.5t94 38.5l-66 -104q-39 -12 -75 -17t-78 -5q-135 0 -215 69t-80 194q-1 112 71.5 184.5t194.5 72.5q115 0 179.5 -70.5t61.5 -177.5zM141 322h279q-5 49 -41 78t-91 29q-57 -1 -97 -30t-50 -77zM279 705l180 -168
q-48 5 -93.5 21.5t-86.5 43.5q-42 -27 -87.5 -43.5t-92.5 -21.5z" />
    <glyph glyph-name="edieresis" unicode="&#xeb;" horiz-adv-x="559" 
d="M534 257h-403q-4 -85 50 -140.5t162 -55.5q56 -1 104 11.5t94 38.5l-66 -104q-39 -12 -75 -17t-78 -5q-135 0 -215 69t-80 194q-1 112 71.5 184.5t194.5 72.5q115 0 179.5 -70.5t61.5 -177.5zM141 322h279q-5 49 -41 78t-91 29q-57 -1 -97 -30t-50 -77zM120 619
q0 25 19 44t45 20q25 0 44.5 -19.5t19.5 -44.5q0 -26 -19.5 -45t-44.5 -19q-26 -1 -45 18.5t-19 45.5zM310 619q0 25 19 44.5t45 19.5q25 0 44.5 -19.5t19.5 -44.5q0 -26 -19.5 -45t-44.5 -19q-26 0 -45 19t-19 45z" />
    <glyph glyph-name="igrave" unicode="&#xec;" horiz-adv-x="218" 
d="M30 485h77q17 -1 29 3t24 13v-431q0 -25 8 -41.5t27 -28.5h-165q18 12 26.5 28.5t8.5 41.5v345q0 24 -8.5 40.5t-26.5 29.5zM14 710l247 -157l-3 -3l-298 83z" />
    <glyph glyph-name="iacute" unicode="&#xed;" horiz-adv-x="218" 
d="M30 485h77q17 -1 29 3t24 13v-431q0 -25 8 -41.5t27 -28.5h-165q18 12 26.5 28.5t8.5 41.5v345q0 24 -8.5 40.5t-26.5 29.5zM207 710l54 -77l-298 -83l-3 3z" />
    <glyph glyph-name="icircumflex" unicode="&#xee;" horiz-adv-x="218" 
d="M30 485h77q17 -1 29 3t24 13v-431q0 -25 8 -41.5t27 -28.5h-165q18 12 26.5 28.5t8.5 41.5v345q0 24 -8.5 40.5t-26.5 29.5zM110 705l180 -168q-48 5 -93.5 21.5t-86.5 43.5q-42 -27 -87.5 -43.5t-92.5 -21.5z" />
    <glyph glyph-name="idieresis" unicode="&#xef;" horiz-adv-x="251" 
d="M43 485h77q17 -1 29 3t24 13v-431q0 -25 8 -41.5t27 -28.5h-165q3 2 6 4.5t7 6.5q12 12 17 25.5t5 33.5v345q0 24 -8.5 40.5t-26.5 29.5zM5 619q-1 27 15 45t40 19q23 0 39 -18.5t16 -45.5q-1 -28 -16.5 -46.5t-38.5 -17.5q-24 0 -39.5 18t-15.5 46zM136 619
q0 27 15.5 45.5t39.5 18.5q23 0 39 -18.5t16 -45.5q0 -28 -16 -46t-39 -18q-24 0 -39.5 18t-15.5 46z" />
    <glyph glyph-name="eth" unicode="&#xf0;" horiz-adv-x="606" 
d="M468 727l-69 -58q81 -65 124 -155t43 -212q0 -148 -74.5 -232.5t-203.5 -84.5q-112 0 -187 64.5t-74 179.5q0 120 70.5 190t178.5 70q61 0 105 -19.5t74 -55.5q-11 59 -43 112t-81 86l-101 -85l-39 46l87 73q-25 15 -51.5 24.5t-53.5 14.5l51 46q30 -5 59.5 -13t57.5 -19
l88 74zM291 413q-74 0 -117 -50.5t-43 -134.5q0 -79 45.5 -123t115.5 -44q77 0 123.5 49t46.5 131q0 74 -46.5 122.5t-124.5 49.5z" />
    <glyph glyph-name="ntilde" unicode="&#xf1;" horiz-adv-x="562" 
d="M195 0h-165q18 12 26.5 28.5t8.5 41.5v345q0 24 -8.5 40.5t-26.5 29.5h77q17 -1 29 3t24 13v-67q18 33 63 52t93 19q88 0 136.5 -43.5t48.5 -114.5v-277q0 -25 8 -41.5t27 -28.5h-165q18 12 26 28.5t9 41.5v250q0 50 -33 79.5t-89 29.5q-59 0 -91.5 -28.5t-32.5 -86.5
v-244q0 -25 8 -41.5t27 -28.5zM90 553l25 59q13 30 30 42t46 12q21 0 65.5 -11t123.5 -10q29 0 50 6.5t42 23.5l-25 -59q-14 -31 -31 -42.5t-45 -11.5q-22 -1 -66.5 10t-122.5 11q-30 0 -51 -7t-41 -23z" />
    <glyph glyph-name="ograve" unicode="&#xf2;" horiz-adv-x="611" 
d="M309 505q124 -1 199 -78t75 -182q0 -113 -81.5 -186t-201.5 -74q-124 0 -199 77t-74 183q0 112 81 186t201 74zM303 429q-78 0 -125 -50.5t-47 -133.5q0 -76 46 -130t130 -54q77 -1 124.5 49.5t47.5 134.5q-1 75 -47 129.5t-129 54.5zM208 710l247 -157l-3 -3l-298 83z
" />
    <glyph glyph-name="oacute" unicode="&#xf3;" horiz-adv-x="611" 
d="M309 505q124 -1 199 -78t75 -182q0 -113 -81.5 -186t-201.5 -74q-124 0 -199 77t-74 183q0 112 81 186t201 74zM303 429q-78 0 -125 -50.5t-47 -133.5q0 -76 46 -130t130 -54q77 -1 124.5 49.5t47.5 134.5q-1 75 -47 129.5t-129 54.5zM401 710l54 -77l-298 -83l-3 3z" />
    <glyph glyph-name="ocircumflex" unicode="&#xf4;" horiz-adv-x="611" 
d="M309 505q124 -1 199 -78t75 -182q0 -113 -81.5 -186t-201.5 -74q-124 0 -199 77t-74 183q0 112 81 186t201 74zM303 429q-78 0 -125 -50.5t-47 -133.5q0 -76 46 -130t130 -54q77 -1 124.5 49.5t47.5 134.5q-1 75 -47 129.5t-129 54.5zM305 705l180 -168q-48 5 -93.5 21.5
t-86.5 43.5q-42 -27 -87.5 -43.5t-92.5 -21.5z" />
    <glyph glyph-name="otilde" unicode="&#xf5;" horiz-adv-x="611" 
d="M309 505q124 -1 199 -78t75 -182q0 -113 -81.5 -186t-201.5 -74q-124 0 -199 77t-74 183q0 112 81 186t201 74zM303 429q-78 0 -125 -50.5t-47 -133.5q0 -76 46 -130t130 -54q77 -1 124.5 49.5t47.5 134.5q-1 75 -47 129.5t-129 54.5zM114 553l25 59q13 30 30 42t46 12
q21 0 65.5 -11t123.5 -10q29 0 50 6.5t42 23.5l-25 -59q-14 -31 -31 -42.5t-45 -11.5q-22 -1 -66.5 10t-122.5 11q-30 0 -51 -7t-41 -23z" />
    <glyph glyph-name="odieresis" unicode="&#xf6;" horiz-adv-x="611" 
d="M309 505q124 -1 199 -78t75 -182q0 -113 -81.5 -186t-201.5 -74q-124 0 -199 77t-74 183q0 112 81 186t201 74zM303 429q-78 0 -125 -50.5t-47 -133.5q0 -76 46 -130t130 -54q77 -1 124.5 49.5t47.5 134.5q-1 75 -47 129.5t-129 54.5zM146 619q0 25 19 44t45 20
q25 0 44.5 -19.5t19.5 -44.5q0 -26 -19.5 -45t-44.5 -19q-26 -1 -45 18.5t-19 45.5zM336 619q0 25 19 44.5t45 19.5q25 0 44.5 -19.5t19.5 -44.5q0 -26 -19.5 -45t-44.5 -19q-26 0 -45 19t-19 45z" />
    <glyph glyph-name="divide" unicode="&#xf7;" 
d="M38 322v54h564v-54h-564zM261 558q0 24 17 41.5t42 17.5q24 0 41.5 -17.5t17.5 -41.5q0 -25 -17.5 -42t-41.5 -17q-25 0 -42 17t-17 42zM261 140q0 24 17 41.5t42 17.5q24 -1 41.5 -18t17.5 -41q0 -25 -17.5 -42.5t-41.5 -16.5q-25 0 -42 17t-17 42z" />
    <glyph glyph-name="oslash" unicode="&#xf8;" horiz-adv-x="610" 
d="M413 614h70l-52 -133q71 -34 111.5 -97.5t40.5 -138.5q0 -112 -82 -185.5t-204 -74.5q-14 0 -28.5 1.5t-28.5 3.5l-45 -116h-70l53 135q-71 33 -111 96.5t-40 139.5q0 114 80.5 187t203.5 73q14 0 28.5 -1.5t29.5 -3.5zM209 88l131 338q-10 1 -19 1.5t-18 1.5
q-78 0 -125.5 -51t-46.5 -133q0 -46 19.5 -89t58.5 -68zM400 403l-132 -339q9 -2 18.5 -2.5t20.5 -0.5q77 0 124 50t48 134q0 50 -21 91.5t-58 66.5z" />
    <glyph glyph-name="ugrave" unicode="&#xf9;" horiz-adv-x="554" 
d="M26 485h77q17 -1 29 3t24 13v-310q-1 -68 31 -99t88 -31q54 -1 88.5 34t34.5 90v230q0 24 -8.5 40.5t-26.5 29.5h77q17 -1 29 3t24 13v-431q0 -25 8 -41.5t27 -28.5h-126v70q-25 -42 -65 -63.5t-95 -21.5q-81 1 -131 48t-50 129v253q0 24 -8.5 40.5t-26.5 29.5zM180 710
l247 -157l-3 -3l-298 83z" />
    <glyph glyph-name="uacute" unicode="&#xfa;" horiz-adv-x="554" 
d="M26 485h77q17 -1 29 3t24 13v-310q-1 -68 31 -99t88 -31q54 -1 88.5 34t34.5 90v230q0 24 -8.5 40.5t-26.5 29.5h77q17 -1 29 3t24 13v-431q0 -25 8 -41.5t27 -28.5h-126v70q-25 -42 -65 -63.5t-95 -21.5q-81 1 -131 48t-50 129v253q0 24 -8.5 40.5t-26.5 29.5zM373 710
l54 -77l-298 -83l-3 3z" />
    <glyph glyph-name="ucircumflex" unicode="&#xfb;" horiz-adv-x="554" 
d="M26 485h77q17 -1 29 3t24 13v-310q-1 -68 31 -99t88 -31q54 -1 88.5 34t34.5 90v230q0 24 -8.5 40.5t-26.5 29.5h77q17 -1 29 3t24 13v-431q0 -25 8 -41.5t27 -28.5h-126v70q-25 -42 -65 -63.5t-95 -21.5q-81 1 -131 48t-50 129v253q0 24 -8.5 40.5t-26.5 29.5zM277 705
l180 -168q-48 5 -93.5 21.5t-86.5 43.5q-42 -27 -87.5 -43.5t-92.5 -21.5z" />
    <glyph glyph-name="udieresis" unicode="&#xfc;" horiz-adv-x="554" 
d="M26 485h77q17 -1 29 3t24 13v-310q-1 -68 31 -99t88 -31q54 -1 88.5 34t34.5 90v230q0 24 -8.5 40.5t-26.5 29.5h77q17 -1 29 3t24 13v-431q0 -25 8 -41.5t27 -28.5h-126v70q-25 -42 -65 -63.5t-95 -21.5q-81 1 -131 48t-50 129v253q0 24 -8.5 40.5t-26.5 29.5zM118 619
q0 25 19 44t45 20q25 0 44.5 -19.5t19.5 -44.5q0 -26 -19.5 -45t-44.5 -19q-26 -1 -45 18.5t-19 45.5zM308 619q0 25 19 44.5t45 19.5q25 0 44.5 -19.5t19.5 -44.5q0 -26 -19.5 -45t-44.5 -19q-26 0 -45 19t-19 45z" />
    <glyph glyph-name="yacute" unicode="&#xfd;" horiz-adv-x="472" 
d="M-57 485l87 3q42 1 48 0t12 -4l164 -370l107 260q7 18 11 33t4 30q-1 15 -8 28t-20 20h156l-237 -541q-36 -81 -88 -117t-123 -36q-37 0 -70.5 7.5t-65.5 19.5l93 68q13 -10 28 -14.5t32 -4.5q37 1 63 21t48 68l26 59q-19 17 -32 34.5t-21 37.5l-147 326
q-12 27 -28.5 45.5t-38.5 26.5zM332 710l54 -77l-298 -83l-3 3z" />
    <glyph glyph-name="thorn" unicode="&#xfe;" horiz-adv-x="493" 
d="M28 700h77q17 0 29 3.5t24 12.5v-215q13 2 23 3t20 1q117 0 191 -66t74 -179q0 -126 -73.5 -200t-191.5 -75q-10 0 -20 1t-23 3v-140q0 -24 8 -40.5t27 -29.5h-165q18 13 26 29.5t9 40.5v781q0 24 -8.5 40.5t-26.5 29.5zM158 432v-371q11 -4 24.5 -5t27.5 -1
q68 0 109.5 52.5t42.5 135.5q0 87 -49 139.5t-128 52.5q-6 0 -12.5 -1t-14.5 -2z" />
    <glyph glyph-name="ydieresis" unicode="&#xff;" horiz-adv-x="472" 
d="M-57 485l87 3q42 1 48 0t12 -4l164 -370l107 260q7 18 11 33t4 30q-1 15 -8 28t-20 20h156l-237 -541q-36 -81 -88 -117t-123 -36q-37 0 -70.5 7.5t-65.5 19.5l93 68q13 -10 28 -14.5t32 -4.5q37 1 63 21t48 68l26 59q-19 17 -32 34.5t-21 37.5l-147 326
q-12 27 -28.5 45.5t-38.5 26.5zM77 619q0 25 19 44t45 20q25 0 44.5 -19.5t19.5 -44.5q0 -26 -19.5 -45t-44.5 -19q-26 -1 -45 18.5t-19 45.5zM267 619q0 25 19 44.5t45 19.5q25 0 44.5 -19.5t19.5 -44.5q0 -26 -19.5 -45t-44.5 -19q-26 0 -45 19t-19 45z" />
    <glyph glyph-name="Amacron" unicode="&#x100;" horiz-adv-x="658" 
d="M218 700h164l241 -597q17 -43 37 -66t48 -37h-215q25 11 33 30t-3 48l-76 188h-269l-63 -157q-17 -41 -9.5 -66t33.5 -43h-189q29 18 49 45.5t42 81.5l200 506q9 24 2.5 41t-25.5 26zM312 609l-108 -276h217zM107 862h392v-70h-392v70z" />
    <glyph glyph-name="amacron" unicode="&#x101;" horiz-adv-x="490" 
d="M85 392l63 104q24 4 47 6.5t44 2.5q90 0 135.5 -42t46.5 -130v-195q-1 -37 16 -53.5t56 -17.5q4 -1 9 -1t10 1l-48 -67h-6.5h-8.5q-67 0 -95 30t-28 82v157q-14 -9 -28 -15t-78 -21q-56 -14 -78.5 -34.5t-22.5 -53.5q-1 -38 25.5 -61t75.5 -23q20 0 42 3t45 10l-64 -80
q-16 -4 -32 -6.5t-32 -2.5q-73 0 -117.5 43.5t-44.5 114.5q0 52 31 86t139 59q98 22 116.5 37.5t18.5 40.5q0 29 -24 46t-68 17q-37 0 -75 -9.5t-70 -27.5zM54 657h382v-60h-382v60z" />
    <glyph glyph-name="Abreve" unicode="&#x102;" horiz-adv-x="658" 
d="M218 700h164l241 -597q17 -43 37 -66t48 -37h-215q25 11 33 30t-3 48l-76 188h-269l-63 -157q-17 -41 -9.5 -66t33.5 -43h-189q29 18 49 45.5t42 81.5l200 506q9 24 2.5 41t-25.5 26zM312 609l-108 -276h217zM153 930h66q4 -46 29.5 -73t68.5 -27q42 0 67.5 27t30.5 73
h66q-7 -74 -50 -122t-114 -48q-72 0 -115 48t-49 122z" />
    <glyph glyph-name="abreve" unicode="&#x103;" horiz-adv-x="490" 
d="M85 392l63 104q24 4 47 6.5t44 2.5q90 0 135.5 -42t46.5 -130v-195q-1 -37 16 -53.5t56 -17.5q4 -1 9 -1t10 1l-48 -67h-6.5h-8.5q-67 0 -95 30t-28 82v157q-14 -9 -28 -15t-78 -21q-56 -14 -78.5 -34.5t-22.5 -53.5q-1 -38 25.5 -61t75.5 -23q20 0 42 3t45 10l-64 -80
q-16 -4 -32 -6.5t-32 -2.5q-73 0 -117.5 43.5t-44.5 114.5q0 52 31 86t139 59q98 22 116.5 37.5t18.5 40.5q0 29 -24 46t-68 17q-37 0 -75 -9.5t-70 -27.5zM87 725h56q7 -51 33 -75.5t69 -24.5q42 0 68 24.5t34 75.5h56q-8 -68 -49 -114t-109 -46q-69 0 -110 46t-48 114z
" />
    <glyph glyph-name="Aogonek" unicode="&#x104;" horiz-adv-x="658" 
d="M218 700h164l241 -597q17 -43 37 -66t48 -37h-24q-40 -8 -63.5 -33.5t-23.5 -54.5q0 -18 9.5 -30t29.5 -12q25 0 47.5 12t38.5 32l25 -32q-22 -32 -51 -48.5t-64 -16.5q-44 0 -72 22.5t-28 59.5q0 35 20.5 63t56.5 38h-116q25 11 33 30t-3 48l-76 188h-269l-63 -157
q-17 -41 -9.5 -66t33.5 -43h-189q29 18 49 45.5t42 81.5l200 506q9 24 2.5 41t-25.5 26zM312 609l-108 -276h217z" />
    <glyph glyph-name="aogonek" unicode="&#x105;" horiz-adv-x="490" 
d="M85 392l63 104q24 4 47 6.5t44 2.5q90 0 135.5 -42t46.5 -130v-195q-1 -37 16 -53.5t56 -17.5q4 -1 9 -1t10 1l-53 -67q-35 -10 -55.5 -34t-20.5 -52q0 -19 10.5 -30.5t28.5 -11.5q17 0 37 11.5t34 29.5l24 -31q-23 -28 -50 -43t-59 -15q-42 0 -68.5 21t-26.5 56
q0 41 29.5 70t72.5 31q-41 3 -65.5 32t-23.5 78v157q-12 -8 -25.5 -14t-81.5 -22q-54 -13 -77 -33.5t-23 -54.5q0 -38 26 -61t75 -23q20 0 42 3t45 10l-64 -80q-16 -4 -32 -6.5t-32 -2.5q-73 0 -117.5 43.5t-44.5 114.5q0 52 31 86t139 59q98 22 116.5 37.5t18.5 40.5
q0 29 -24 46t-68 17q-37 0 -75 -9.5t-70 -27.5z" />
    <glyph glyph-name="Cacute" unicode="&#x106;" horiz-adv-x="668" 
d="M611 688v-122q-41 28 -92 46t-106 18q-106 0 -184 -68.5t-78 -189.5q0 -138 79 -220t207 -82q74 0 132.5 18t102.5 56l-68 -134q-44 -13 -84.5 -18.5t-90.5 -6.5q-186 0 -290 100.5t-103 259.5q0 153 103.5 261t285.5 109q29 0 56 -3t74 -13q20 -5 31.5 -7.5t24.5 -3.5z
M528 921l61 -87l-307 -86l-10 10z" />
    <glyph glyph-name="cacute" unicode="&#x107;" horiz-adv-x="509" 
d="M446 491v-110q-28 22 -61.5 34.5t-71.5 13.5q-83 0 -132.5 -49t-49.5 -125q0 -88 57 -141t160 -53q51 0 91.5 11t73.5 35q-44 -83 -75 -102t-114 -20q-85 0 -138.5 20t-91.5 61q-34 34 -50.5 79t-16.5 96q-1 55 19.5 102.5t55.5 82.5q41 41 94.5 60t131.5 19q37 -1 59 -6
t59 -8zM386 710l54 -77l-298 -83l-3 3z" />
    <glyph glyph-name="Ccircumflex" unicode="&#x108;" horiz-adv-x="668" 
d="M611 688v-122q-41 28 -92 46t-106 18q-106 0 -184 -68.5t-78 -189.5q0 -138 79 -220t207 -82q74 0 132.5 18t102.5 56l-68 -134q-44 -13 -84.5 -18.5t-90.5 -6.5q-186 0 -290 100.5t-103 259.5q0 153 103.5 261t285.5 109q29 0 56 -3t74 -13q20 -5 31.5 -7.5t24.5 -3.5z
M397 912l195 -182q-52 4 -101.5 20.5t-93.5 45.5q-45 -29 -94.5 -45.5t-100.5 -20.5z" />
    <glyph glyph-name="ccircumflex" unicode="&#x109;" horiz-adv-x="509" 
d="M446 491v-110q-28 22 -61.5 34.5t-71.5 13.5q-83 0 -132.5 -49t-49.5 -125q0 -88 57 -141t160 -53q51 0 91.5 11t73.5 35q-44 -83 -75 -102t-114 -20q-85 0 -138.5 20t-91.5 61q-34 34 -50.5 79t-16.5 96q-1 55 19.5 102.5t55.5 82.5q41 41 94.5 60t131.5 19q37 -1 59 -6
t59 -8zM280 705l180 -168q-48 5 -93.5 21.5t-86.5 43.5q-42 -27 -87.5 -43.5t-92.5 -21.5z" />
    <glyph glyph-name="Ccaron" unicode="&#x10c;" horiz-adv-x="668" 
d="M611 688v-122q-41 28 -92 46t-106 18q-106 0 -184 -68.5t-78 -189.5q0 -138 79 -220t207 -82q74 0 132.5 18t102.5 56l-68 -134q-44 -13 -84.5 -18.5t-90.5 -6.5q-186 0 -290 100.5t-103 259.5q0 153 103.5 261t285.5 109q29 0 56 -3t74 -13q20 -5 31.5 -7.5t24.5 -3.5z
M403 725l-195 182q51 -5 100.5 -21.5t94.5 -44.5q44 28 93.5 44.5t101.5 21.5z" />
    <glyph glyph-name="ccaron" unicode="&#x10d;" horiz-adv-x="509" 
d="M446 491v-110q-28 22 -61.5 34.5t-71.5 13.5q-83 0 -132.5 -49t-49.5 -125q0 -88 57 -141t160 -53q51 0 91.5 11t73.5 35q-44 -83 -75 -102t-114 -20q-85 0 -138.5 20t-91.5 61q-34 34 -50.5 79t-16.5 96q-1 55 19.5 102.5t55.5 82.5q41 41 94.5 60t131.5 19q37 -1 59 -6
t59 -8zM291 532l-180 168q47 -6 92.5 -22.5t87.5 -42.5q41 26 86.5 42.5t93.5 22.5z" />
    <glyph glyph-name="Dcaron" unicode="&#x10e;" horiz-adv-x="731" 
d="M89 100v500q-1 37 -11.5 59.5t-34.5 40.5q50 3 130.5 6t129.5 3q182 0 286.5 -93.5t105.5 -262.5q0 -157 -107 -255t-286 -98h-259q24 17 34.5 39.5t11.5 60.5zM191 619v-528q23 -5 44 -7t47 -2q140 0 219 71.5t79 203.5q0 123 -79 196.5t-198 73.5q-17 0 -45.5 -2
t-66.5 -6zM314 726l-195 182q51 -5 100.5 -21.5t94.5 -44.5q44 28 93.5 44.5t101.5 21.5z" />
    <glyph glyph-name="dcaron" unicode="&#x10f;" horiz-adv-x="677" 
d="M409 700h77q17 -1 29 3t24 13v-646q0 -25 8 -41.5t27 -28.5h-130v270q0 75 -44 117t-107 42q-69 0 -115.5 -48.5t-46.5 -125.5q0 -84 52 -139t130 -55q34 0 56.5 6.5t43.5 21.5l-44 -75q-12 -18 -29 -23.5t-49 -5.5q-117 1 -190.5 74t-73.5 185q0 114 71.5 187t178.5 74
q47 0 88.5 -15.5t78.5 -44.5v185q0 24 -8.5 40.5t-26.5 29.5zM611 488h-41q29 31 46.5 57t17.5 42q0 5 -2 8.5t-8 4.5q-24 3 -37.5 18t-13.5 37q0 26 16 43t45 17t47.5 -18.5t18.5 -48.5q0 -38 -24.5 -81.5t-64.5 -78.5z" />
    <glyph glyph-name="Dcroat" unicode="&#x110;" horiz-adv-x="731" 
d="M89 100v261h-89v60h89v179q-1 37 -11.5 59.5t-34.5 40.5q54 3 124.5 6t112.5 3q207 0 311 -96.5t104 -259.5q0 -165 -110 -259t-322 -94h-220q24 17 34.5 39.5t11.5 60.5zM191 619v-198h191v-60h-191v-270q20 -7 39.5 -9t51.5 -2q132 0 215 66t83 203q0 131 -79.5 205.5
t-204.5 74.5q-23 0 -50 -3t-55 -7z" />
    <glyph glyph-name="dcroat" unicode="&#x111;" horiz-adv-x="600" 
d="M409 700h77q17 -1 29 3t24 13v-99h57v-70h-57v-477q0 -25 8 -41.5t27 -28.5h-130v270q0 75 -44 117t-107 42q-69 0 -115.5 -48.5t-46.5 -125.5q0 -84 52 -139t130 -55q34 0 56.5 6.5t43.5 21.5l-44 -75q-12 -18 -29 -23.5t-49 -5.5q-118 1 -191.5 73.5t-72.5 185.5
q-1 114 71 187.5t179 73.5q48 0 88.5 -15.5t78.5 -44.5v102h-205v70h205v13q0 24 -8.5 40.5t-26.5 29.5z" />
    <glyph glyph-name="Emacron" unicode="&#x112;" horiz-adv-x="515" 
d="M43 700h388v-115q-18 20 -43 28t-62 8l-135 -3v-200h144q9 0 18 0.5t18 2.5v-109q-14 14 -32 20t-44 6h-104v-251q32 -4 65.5 -5.5t64.5 -1.5q71 -1 120.5 12.5t88.5 48.5l-51 -141h-436q24 17 35 40t11 60v500q-1 36 -11.5 59t-34.5 41zM61 862h392v-70h-392v70z" />
    <glyph glyph-name="emacron" unicode="&#x113;" horiz-adv-x="559" 
d="M534 257h-403q-4 -85 50 -140.5t162 -55.5q56 -1 104 11.5t94 38.5l-66 -104q-39 -12 -75 -17t-78 -5q-135 0 -215 69t-80 194q-1 112 71.5 184.5t194.5 72.5q115 0 179.5 -70.5t61.5 -177.5zM141 322h279q-5 49 -41 78t-91 29q-57 -1 -97 -30t-50 -77zM88 657h382v-60
h-382v60z" />
    <glyph glyph-name="Edotaccent" unicode="&#x116;" horiz-adv-x="515" 
d="M43 700h388v-115q-18 20 -43 28t-62 8l-135 -3v-200h144q9 0 18 0.5t18 2.5v-109q-14 14 -32 20t-44 6h-104v-251q32 -4 65.5 -5.5t64.5 -1.5q71 -1 120.5 12.5t88.5 48.5l-51 -141h-436q24 17 35 40t11 60v500q-1 36 -11.5 59t-34.5 41zM190 809q0 28 19.5 48t48.5 20
q28 0 48 -20t20 -48q0 -29 -20 -48.5t-48 -19.5q-29 0 -48.5 19.5t-19.5 48.5z" />
    <glyph glyph-name="edotaccent" unicode="&#x117;" horiz-adv-x="559" 
d="M534 257h-403q-4 -85 50 -140.5t162 -55.5q56 -1 104 11.5t94 38.5l-66 -104q-39 -12 -75 -17t-78 -5q-135 0 -215 69t-80 194q-1 112 71.5 184.5t194.5 72.5q115 0 179.5 -70.5t61.5 -177.5zM141 322h279q-5 49 -41 78t-91 29q-57 -1 -97 -30t-50 -77zM224 619
q0 26 18 45t46 19q27 0 45.5 -18.5t18.5 -45.5q0 -28 -18.5 -46t-45.5 -18q-28 0 -46 18.5t-18 45.5z" />
    <glyph glyph-name="Eogonek" unicode="&#x118;" horiz-adv-x="515" 
d="M43 700h388v-115q-18 20 -43 28t-62 8l-135 -3v-200h144q9 0 18 0.5t18 2.5v-109q-14 14 -32 20t-44 6h-104v-251q32 -4 65.5 -5.5t64.5 -1.5q71 -1 120.5 12.5t88.5 48.5l-51 -141h-37q-40 -23 -59 -44t-18 -44q0 -18 9.5 -30t29.5 -12q25 0 47.5 12t38.5 32l25 -32
q-22 -32 -51 -48.5t-64 -16.5q-46 0 -73 24.5t-27 65.5q-1 33 21.5 58t55.5 35h-334q24 17 35 40t11 60v500q-1 36 -11.5 59t-34.5 41z" />
    <glyph glyph-name="eogonek" unicode="&#x119;" horiz-adv-x="558" 
d="M534 257h-403q-4 -85 50 -140.5t162 -55.5q56 -1 104 11.5t94 38.5l-66 -104l-63 -15q-28 -17 -41.5 -37t-13.5 -41q0 -18 12 -30t32 -12q16 0 34 11.5t32 29.5l24 -29q-20 -28 -48 -44t-61 -16q-42 1 -69 21.5t-26 55.5q0 27 12.5 49.5t34.5 34.5h-6h-6
q-136 2 -216 69.5t-79 193.5q-1 112 71.5 184.5t194.5 72.5q115 0 179.5 -70.5t61.5 -177.5zM141 322h279q-5 49 -41 78t-91 29q-57 -1 -97 -30t-50 -77z" />
    <glyph glyph-name="Ecaron" unicode="&#x11a;" horiz-adv-x="515" 
d="M43 700h388v-115q-18 20 -43 28t-62 8l-135 -3v-200h144q9 0 18 0.5t18 2.5v-109q-14 14 -32 20t-44 6h-104v-251q32 -4 65.5 -5.5t64.5 -1.5q71 -1 120.5 12.5t88.5 48.5l-51 -141h-436q24 17 35 40t11 60v500q-1 36 -11.5 59t-34.5 41zM258 725l-195 182
q51 -5 100.5 -21.5t94.5 -44.5q44 28 93.5 44.5t101.5 21.5z" />
    <glyph glyph-name="ecaron" unicode="&#x11b;" horiz-adv-x="559" 
d="M534 257h-403q-4 -85 50 -140.5t162 -55.5q56 -1 104 11.5t94 38.5l-66 -104q-39 -12 -75 -17t-78 -5q-135 0 -215 69t-80 194q-1 112 71.5 184.5t194.5 72.5q115 0 179.5 -70.5t61.5 -177.5zM141 322h279q-5 49 -41 78t-91 29q-57 -1 -97 -30t-50 -77zM279 532l-180 168
q47 -6 92.5 -22.5t87.5 -42.5q41 26 86.5 42.5t93.5 22.5z" />
    <glyph glyph-name="Gcircumflex" unicode="&#x11c;" horiz-adv-x="744" 
d="M626 696v-120q-38 29 -84.5 43t-100.5 14q-128 -1 -209 -75t-81 -192q0 -129 86.5 -214t227.5 -85q34 0 65 4.5t61 14.5v181q0 35 -9 54.5t-26 34.5h143q-4 -8 -5.5 -16t-0.5 -14v-259q-1 -18 0.5 -27t4.5 -19q-61 -20 -119.5 -28t-120.5 -8q-200 0 -311 105t-111 256
q0 167 115.5 268t298.5 101q54 0 102.5 -8.5t73.5 -10.5zM411 913l195 -182q-52 4 -101.5 20.5t-93.5 45.5q-45 -29 -94.5 -45.5t-100.5 -20.5z" />
    <glyph glyph-name="gcircumflex" unicode="&#x11d;" horiz-adv-x="555" 
d="M39 326q0 75 63.5 127t173.5 52q16 0 43.5 -2t19.5 -1q25 -2 45.5 -3t38.5 0q35 0 74.5 3.5t79.5 11.5l-23 -58q-9 -22 -26.5 -25t-58.5 3l-56 7q37 -21 57.5 -54.5t20.5 -74.5q-1 -64 -45.5 -107t-131.5 -55q-60 -8 -74 -15.5t-14 -17.5q-1 -8 7.5 -14.5t22.5 -5.5h40
q158 0 220 -40.5t62 -111.5q0 -82 -86 -135t-213 -53q-131 1 -209.5 43t-79.5 104q0 38 28.5 62t78.5 24q14 0 27.5 -3.5t27.5 -11.5q-21 -1 -32.5 -15t-11.5 -35q0 -42 43.5 -71.5t121.5 -30.5q84 0 137 30t53 84q0 46 -44 70t-132 24q-26 0 -62 -1.5t-47 -1.5
q-28 0 -43 8.5t-27 37.5q-5 9 -6 14.5t-1 10.5q0 9 5.5 17t19.5 15l59 29q-66 10 -106 55t-40 111zM257 438q-50 0 -82 -27.5t-32 -69.5q-1 -53 37.5 -91t94.5 -37q49 -1 80.5 29t31.5 78q0 49 -38.5 83t-91.5 35zM277 705l180 -168q-48 5 -93.5 21.5t-86.5 43.5
q-42 -27 -87.5 -43.5t-92.5 -21.5z" />
    <glyph glyph-name="Gbreve" unicode="&#x11e;" horiz-adv-x="744" 
d="M626 696v-120q-38 29 -84.5 43t-100.5 14q-128 -1 -209 -75t-81 -192q0 -129 86.5 -214t227.5 -85q34 0 65 4.5t61 14.5v181q0 35 -9 54.5t-26 34.5h143q-4 -8 -5.5 -16t-0.5 -14v-259q-1 -18 0.5 -27t4.5 -19q-61 -20 -119.5 -28t-120.5 -8q-200 0 -311 105t-111 256
q0 167 115.5 268t298.5 101q54 0 102.5 -8.5t73.5 -10.5zM222 930h66q4 -46 29.5 -73t68.5 -27q42 0 67.5 27t30.5 73h66q-7 -74 -50 -122t-114 -48q-72 0 -115 48t-49 122z" />
    <glyph glyph-name="gbreve" unicode="&#x11f;" horiz-adv-x="555" 
d="M39 326q0 75 63.5 127t173.5 52q16 0 43.5 -2t19.5 -1q25 -2 45.5 -3t38.5 0q35 0 74.5 3.5t79.5 11.5l-23 -58q-9 -22 -26.5 -25t-58.5 3l-56 7q37 -21 57.5 -54.5t20.5 -74.5q-1 -64 -45.5 -107t-131.5 -55q-60 -8 -74 -15.5t-14 -17.5q-1 -8 7.5 -14.5t22.5 -5.5h40
q158 0 220 -40.5t62 -111.5q0 -82 -86 -135t-213 -53q-131 1 -209.5 43t-79.5 104q0 38 28.5 62t78.5 24q14 0 27.5 -3.5t27.5 -11.5q-21 -1 -32.5 -15t-11.5 -35q0 -42 43.5 -71.5t121.5 -30.5q84 0 137 30t53 84q0 46 -44 70t-132 24q-26 0 -62 -1.5t-47 -1.5
q-28 0 -43 8.5t-27 37.5q-5 9 -6 14.5t-1 10.5q0 9 5.5 17t19.5 15l59 29q-66 10 -106 55t-40 111zM257 438q-50 0 -82 -27.5t-32 -69.5q-1 -53 37.5 -91t94.5 -37q49 -1 80.5 29t31.5 78q0 49 -38.5 83t-91.5 35zM120 725h56q7 -51 33 -75.5t69 -24.5q42 0 68 24.5t34 75.5
h56q-8 -68 -49 -114t-109 -46q-69 0 -110 46t-48 114z" />
    <glyph glyph-name="Gcommaaccent" unicode="&#x122;" horiz-adv-x="744" 
d="M626 696v-120q-38 29 -84.5 43t-100.5 14q-128 -1 -209 -75t-81 -192q0 -129 86.5 -214t227.5 -85q34 0 65 4.5t61 14.5v181q0 35 -9 54.5t-26 34.5h143q-4 -8 -5.5 -16t-0.5 -14v-259q-1 -18 0.5 -27t4.5 -19q-61 -20 -119.5 -28t-120.5 -8q-200 0 -311 105t-111 256
q0 167 115.5 268t298.5 101q54 0 102.5 -8.5t73.5 -10.5zM391 -290h-52q25 25 47 57.5t23 45.5q-1 5 -2 7t-5 2q-28 6 -41.5 21.5t-12.5 40.5q0 29 18 45t47 16q31 0 50 -20.5t19 -54.5q0 -40 -26 -82.5t-65 -77.5z" />
    <glyph glyph-name="gcommaaccent" unicode="&#x123;" horiz-adv-x="555" 
d="M39 326q0 75 63.5 127t173.5 52q16 0 43.5 -2t19.5 -1q25 -2 45.5 -3t38.5 0q35 0 74.5 3.5t79.5 11.5l-23 -58q-9 -22 -26.5 -25t-58.5 3l-56 7q37 -21 57.5 -54.5t20.5 -74.5q-1 -64 -45.5 -107t-131.5 -55q-60 -8 -74 -15.5t-14 -17.5q-1 -8 7.5 -14.5t22.5 -5.5h40
q158 0 220 -40.5t62 -111.5q0 -82 -86 -135t-213 -53q-131 1 -209.5 43t-79.5 104q0 38 28.5 62t78.5 24q14 0 27.5 -3.5t27.5 -11.5q-21 -1 -32.5 -15t-11.5 -35q0 -42 43.5 -71.5t121.5 -30.5q84 0 137 30t53 84q0 46 -44 70t-132 24q-26 0 -62 -1.5t-47 -1.5
q-28 0 -43 8.5t-27 37.5q-5 9 -6 14.5t-1 10.5q0 9 5.5 17t19.5 15l59 29q-66 10 -106 55t-40 111zM257 438q-50 0 -82 -27.5t-32 -69.5q-1 -53 37.5 -91t94.5 -37q49 -1 80.5 29t31.5 78q0 49 -38.5 83t-91.5 35zM301 783h41q-29 -31 -46.5 -57.5t-17.5 -41.5
q0 -6 1.5 -9.5t8.5 -3.5q23 -4 37 -19t14 -36q0 -27 -16.5 -44t-44.5 -16q-30 0 -48 18t-18 49q0 37 24 80.5t65 79.5z" />
    <glyph glyph-name="Hcircumflex" unicode="&#x124;" horiz-adv-x="767" 
d="M191 424h385v176q0 39 -11 60.5t-35 39.5h194q-25 -18 -35.5 -39.5t-10.5 -60.5v-500q0 -40 10.5 -61.5t35.5 -38.5h-194q24 17 35 38.5t11 61.5v244h-385v-244q0 -40 10.5 -61.5t35.5 -38.5h-194q24 17 35 38.5t11 61.5v500q0 39 -11 60.5t-35 39.5h194
q-25 -18 -35.5 -39.5t-10.5 -60.5v-176zM384 912l195 -182q-52 4 -101.5 20.5t-93.5 45.5q-45 -29 -94.5 -45.5t-100.5 -20.5z" />
    <glyph glyph-name="hcircumflex" unicode="&#x125;" horiz-adv-x="560" 
d="M28 700h77q17 0 29 3.5t24 12.5v-282q16 29 60 50t96 21q88 -1 136 -44t49 -114v-277q0 -25 8 -41.5t27 -28.5h-165q18 12 26.5 28.5t8.5 41.5v250q-1 50 -33.5 79.5t-88.5 29.5q-59 0 -91.5 -28.5t-32.5 -86.5v-244q0 -25 8 -41.5t27 -28.5h-165q18 12 26 28.5t9 41.5
v560q0 24 -8.5 40.5t-26.5 29.5zM254 914l180 -168q-48 5 -93.5 21.5t-86.5 43.5q-42 -27 -87.5 -43.5t-92.5 -21.5z" />
    <glyph glyph-name="Imacron" unicode="&#x12a;" horiz-adv-x="280" 
d="M43 700h194q-25 -18 -35.5 -40.5t-10.5 -59.5v-500q-1 -38 10 -60.5t36 -39.5h-194q24 17 34.5 39.5t11.5 60.5v500q-1 37 -11.5 59.5t-34.5 40.5zM-55 862h392v-70h-392v70z" />
    <glyph glyph-name="imacron" unicode="&#x12b;" horiz-adv-x="218" 
d="M30 485h77q17 -1 29 3t24 13v-431q0 -25 8 -41.5t27 -28.5h-165q18 12 26.5 28.5t8.5 41.5v345q0 24 -8.5 40.5t-26.5 29.5zM-81 657h382v-60h-382v60z" />
    <glyph glyph-name="Iogonek" unicode="&#x12e;" horiz-adv-x="280" 
d="M43 700h194q-25 -18 -35.5 -40.5t-10.5 -59.5v-500q-1 -38 10 -60.5t36 -39.5h-22q-40 -23 -58.5 -44t-18.5 -44q-1 -18 9 -30t30 -12q25 0 47.5 12t38.5 32l25 -32q-22 -32 -51 -48t-64 -17q-44 1 -72 23t-28 59q0 35 20.5 63t56.5 38h-107q24 17 34.5 39.5t11.5 60.5
v500q-1 37 -11.5 59.5t-34.5 40.5z" />
    <glyph glyph-name="iogonek" unicode="&#x12f;" horiz-adv-x="218" 
d="M30 485h77q17 -1 29 3t24 13v-431q0 -25 8 -41.5t27 -28.5q-32 -11 -52.5 -34t-20.5 -52q0 -18 12 -30t32 -12q16 0 34 11.5t32 29.5l24 -29q-20 -28 -48 -43.5t-61 -16.5q-42 0 -68.5 21t-26.5 56q-1 36 22.5 63.5t61.5 35.5h-106q18 12 26.5 28.5t8.5 41.5v345
q0 24 -8.5 40.5t-26.5 29.5zM43 619q0 25 19 44t45 20q25 0 44.5 -19.5t19.5 -44.5q0 -26 -19.5 -45t-44.5 -19q-26 -1 -45 18.5t-19 45.5z" />
    <glyph glyph-name="Idotaccent" unicode="&#x130;" horiz-adv-x="280" 
d="M43 700h194q-25 -18 -35.5 -40.5t-10.5 -59.5v-500q-1 -38 10 -60.5t36 -39.5h-194q24 17 34.5 39.5t11.5 60.5v500q-1 37 -11.5 59.5t-34.5 40.5zM72 809q0 28 19.5 48t48.5 20q28 0 48 -20t20 -48q0 -29 -20 -48.5t-48 -19.5q-29 0 -48.5 19.5t-19.5 48.5z" />
    <glyph glyph-name="dotlessi" unicode="&#x131;" horiz-adv-x="218" 
d="M30 485h77q17 -1 29 3t24 13v-431q0 -25 8 -41.5t27 -28.5h-165q18 12 26.5 28.5t8.5 41.5v345q0 24 -8.5 40.5t-26.5 29.5z" />
    <glyph glyph-name="Jcircumflex" unicode="&#x134;" horiz-adv-x="281" 
d="M39 700h201q-25 -18 -36 -40.5t-10 -59.5v-616q0 -60 -6 -82.5t-18 -41.5q-25 -35 -84.5 -62t-120.5 -33q67 41 97 92.5t30 130.5v612q0 39 -14.5 62.5t-38.5 37.5zM142 912l195 -182q-52 4 -101.5 20.5t-93.5 45.5q-45 -29 -94.5 -45.5t-100.5 -20.5z" />
    <glyph glyph-name="jcircumflex" unicode="&#x135;" horiz-adv-x="225" 
d="M33 485h77q17 -1 29 3t24 13v-510q0 -54 -4.5 -76.5t-14.5 -39.5q-20 -32 -71 -55t-114 -29q54 28 81.5 75t27.5 130v419q0 24 -8.5 40.5t-26.5 29.5zM104 705l180 -168q-48 5 -93.5 21.5t-86.5 43.5q-42 -27 -87 -43.5t-93 -21.5z" />
    <glyph glyph-name="Kcommaaccent" unicode="&#x136;" horiz-adv-x="585" 
d="M43 700h194q-25 -18 -35.5 -40.5t-10.5 -59.5v-500q-1 -38 10 -60.5t36 -39.5h-194q24 17 34.5 39.5t11.5 60.5v500q-1 37 -11.5 59.5t-34.5 40.5zM211 363l156 210q24 32 32 48.5t9 29.5q0 15 -10 28t-26 21h192l-243 -315l115 -152q83 -111 128 -156.5t101 -76.5
l-107 -5q-39 -1 -71.5 18t-97.5 108zM282 -288h-52q25 25 47 57.5t23 45.5q-1 5 -2 7t-5 2q-28 6 -41.5 21.5t-12.5 40.5q0 29 18 45t47 16q31 0 50 -20.5t19 -54.5q0 -40 -26 -82.5t-65 -77.5z" />
    <glyph glyph-name="kcommaaccent" unicode="&#x137;" horiz-adv-x="499" 
d="M28 700h77q17 0 29 3.5t24 12.5v-646q0 -25 8 -41.5t27 -28.5h-165q18 12 26 28.5t9 41.5v560q0 24 -8.5 40.5t-26.5 29.5zM178 271l100 109q15 17 28.5 38.5t13.5 33.5q0 8 -5.5 16t-17.5 17h163l-181 -203q10 -10 19 -19.5t19 -20.5l133 -167q18 -24 37 -42t42 -33
l-38 -1q-90 -2 -106 6.5t-31 30.5zM230 -280h-52q25 25 47 57.5t23 45.5q0 5 -1.5 7t-5.5 2q-28 6 -41 21.5t-13 40.5q-1 29 17.5 45t47.5 16q31 1 50 -20t19 -55q0 -40 -26 -82.5t-65 -77.5z" />
    <glyph glyph-name="Lacute" unicode="&#x139;" horiz-adv-x="514" 
d="M43 700h199q-27 -17 -39 -41t-12 -59v-511q30 -5 62 -7.5t53 -1.5q67 0 125.5 16t97.5 49l-56 -145h-430q24 17 34.5 39.5t11.5 60.5v500q-1 37 -11.5 59.5t-34.5 40.5zM354 917l61 -87l-307 -86l-10 10z" />
    <glyph glyph-name="lacute" unicode="&#x13a;" horiz-adv-x="221" 
d="M28 700h77q17 0 29 3.5t24 12.5v-646q0 -25 8 -41.5t27 -28.5h-165q18 12 26 28.5t9 41.5v560q0 24 -8.5 40.5t-26.5 29.5zM216 898l54 -77l-298 -83l-3 3z" />
    <glyph glyph-name="Lcommaaccent" unicode="&#x13b;" horiz-adv-x="514" 
d="M43 700h199q-27 -17 -39 -41t-12 -59v-511q30 -5 62 -7.5t53 -1.5q67 0 125.5 16t97.5 49l-56 -145h-430q24 17 34.5 39.5t11.5 60.5v500q-1 37 -11.5 59.5t-34.5 40.5zM237 -290h-52q25 25 47 57.5t23 45.5q-1 5 -2 7t-5 2q-28 6 -41.5 21.5t-12.5 40.5q0 29 18 45
t47 16q31 0 50 -20.5t19 -54.5q0 -40 -26 -82.5t-65 -77.5z" />
    <glyph glyph-name="lcommaaccent" unicode="&#x13c;" horiz-adv-x="221" 
d="M28 700h77q17 0 29 3.5t24 12.5v-646q0 -25 8 -41.5t27 -28.5h-165q18 12 26 28.5t9 41.5v560q0 24 -8.5 40.5t-26.5 29.5zM92 -280h-52q25 25 47 57.5t23 45.5q0 5 -1.5 7t-5.5 2q-28 6 -41 21.5t-13 40.5q-1 29 17.5 45t47.5 16q31 1 50 -20t19 -55q0 -40 -26 -82.5
t-65 -77.5z" />
    <glyph glyph-name="Lcaron" unicode="&#x13d;" horiz-adv-x="514" 
d="M43 700h199q-27 -17 -39 -41t-12 -59v-511q30 -5 62 -7.5t53 -1.5q67 0 125.5 16t97.5 49l-56 -145h-430q24 17 34.5 39.5t11.5 60.5v500q-1 37 -11.5 59.5t-34.5 40.5zM334 488h-41q29 31 46.5 57t17.5 42q0 5 -2 8.5t-8 4.5q-24 3 -37.5 18t-13.5 37q0 26 16 43t45 17
t47.5 -18.5t18.5 -48.5q0 -38 -24.5 -81.5t-64.5 -78.5z" />
    <glyph glyph-name="lcaron" unicode="&#x13e;" horiz-adv-x="301" 
d="M28 700h77q17 0 29 3.5t24 12.5v-646q0 -25 8 -41.5t27 -28.5h-165q18 12 26 28.5t9 41.5v560q0 24 -8.5 40.5t-26.5 29.5zM235 488h-41q29 31 46.5 57t17.5 42q0 5 -2 8.5t-8 4.5q-24 3 -37.5 18t-13.5 37q0 26 16 43t45 17t47.5 -18.5t18.5 -48.5q0 -38 -24.5 -81.5
t-64.5 -78.5z" />
    <glyph glyph-name="Lslash" unicode="&#x141;" horiz-adv-x="528" 
d="M57 700h199q-27 -17 -39 -41t-12 -59v-131l80 93v-70l-80 -93v-310q30 -5 62 -7t53 -2q67 0 125.5 16t97.5 49l-56 -145h-430q24 17 35 39.5t11 60.5v181l-60 -69v70l60 69v249q-1 37 -11.5 59.5t-34.5 40.5z" />
    <glyph glyph-name="lslash" unicode="&#x142;" horiz-adv-x="240" 
d="M50 700h77q17 -1 29 3t24 13v-228l52 74v-70l-52 -74v-348q0 -25 8 -41.5t27 -28.5h-165q18 12 26 28.5t9 41.5v214l-65 -92v70l65 92v276q0 24 -8.5 40.5t-26.5 29.5z" />
    <glyph glyph-name="Nacute" unicode="&#x143;" horiz-adv-x="777" 
d="M40 700h149q3 -8 7 -15t8 -11l409 -510v436q0 37 -11 59.5t-35 40.5h170q-25 -18 -36 -40.5t-10 -59.5v-628q-40 12 -73.5 34t-82.5 85l-371 464v-455q-1 -38 10 -60.5t36 -39.5h-170q24 17 34.5 39.5t11.5 60.5v500q-1 37 -11.5 59.5t-34.5 40.5zM486 917l61 -87
l-307 -86l-10 10z" />
    <glyph glyph-name="nacute" unicode="&#x144;" horiz-adv-x="562" 
d="M195 0h-165q18 12 26.5 28.5t8.5 41.5v345q0 24 -8.5 40.5t-26.5 29.5h77q17 -1 29 3t24 13v-67q18 33 63 52t93 19q88 0 136.5 -43.5t48.5 -114.5v-277q0 -25 8 -41.5t27 -28.5h-165q18 12 26 28.5t9 41.5v250q0 50 -33 79.5t-89 29.5q-59 0 -91.5 -28.5t-32.5 -86.5
v-244q0 -25 8 -41.5t27 -28.5zM377 710l54 -77l-298 -83l-3 3z" />
    <glyph glyph-name="Ncommaaccent" unicode="&#x145;" horiz-adv-x="777" 
d="M40 700h149q3 -8 7 -15t8 -11l409 -510v436q0 37 -11 59.5t-35 40.5h170q-25 -18 -36 -40.5t-10 -59.5v-628q-40 12 -73.5 34t-82.5 85l-371 464v-455q-1 -38 10 -60.5t36 -39.5h-170q24 17 34.5 39.5t11.5 60.5v500q-1 37 -11.5 59.5t-34.5 40.5zM369 -290h-52
q25 25 47 57.5t23 45.5q-1 5 -2 7t-5 2q-28 6 -41.5 21.5t-12.5 40.5q0 29 18 45t47 16q31 0 50 -20.5t19 -54.5q0 -40 -26 -82.5t-65 -77.5z" />
    <glyph glyph-name="ncommaaccent" unicode="&#x146;" horiz-adv-x="562" 
d="M195 0h-165q18 12 26.5 28.5t8.5 41.5v345q0 24 -8.5 40.5t-26.5 29.5h77q17 -1 29 3t24 13v-67q18 33 63 52t93 19q88 0 136.5 -43.5t48.5 -114.5v-277q0 -25 8 -41.5t27 -28.5h-165q18 12 26 28.5t9 41.5v250q0 50 -33 79.5t-89 29.5q-59 0 -91.5 -28.5t-32.5 -86.5
v-244q0 -25 8 -41.5t27 -28.5zM261 -280h-52q25 25 47 57.5t23 45.5q0 5 -1.5 7t-5.5 2q-28 6 -41 21.5t-13 40.5q-1 29 17.5 45t47.5 16q31 1 50 -20t19 -55q0 -40 -26 -82.5t-65 -77.5z" />
    <glyph glyph-name="Ncaron" unicode="&#x147;" horiz-adv-x="777" 
d="M40 700h149q3 -8 7 -15t8 -11l409 -510v436q0 37 -11 59.5t-35 40.5h170q-25 -18 -36 -40.5t-10 -59.5v-628q-40 12 -73.5 34t-82.5 85l-371 464v-455q-1 -38 10 -60.5t36 -39.5h-170q24 17 34.5 39.5t11.5 60.5v500q-1 37 -11.5 59.5t-34.5 40.5zM389 725l-195 182
q51 -5 100.5 -21.5t94.5 -44.5q44 28 93.5 44.5t101.5 21.5z" />
    <glyph glyph-name="ncaron" unicode="&#x148;" horiz-adv-x="562" 
d="M195 0h-165q18 12 26.5 28.5t8.5 41.5v345q0 24 -8.5 40.5t-26.5 29.5h77q17 -1 29 3t24 13v-67q18 33 63 52t93 19q88 0 136.5 -43.5t48.5 -114.5v-277q0 -25 8 -41.5t27 -28.5h-165q18 12 26 28.5t9 41.5v250q0 50 -33 79.5t-89 29.5q-59 0 -91.5 -28.5t-32.5 -86.5
v-244q0 -25 8 -41.5t27 -28.5zM281 532l-180 168q47 -6 92.5 -22.5t87.5 -42.5q41 26 86.5 42.5t93.5 22.5z" />
    <glyph glyph-name="Omacron" unicode="&#x14c;" horiz-adv-x="840" 
d="M420 715q165 0 274.5 -101t109.5 -264q0 -150 -102.5 -257.5t-281.5 -107.5q-166 0 -275 100.5t-109 264.5q0 149 102 257t282 108zM422 633q-121 -1 -196 -76t-75 -191q-1 -131 74 -215t193 -84q120 0 195.5 75t75.5 192q0 130 -75 214.5t-192 84.5zM224 862h392v-70
h-392v70z" />
    <glyph glyph-name="omacron" unicode="&#x14d;" horiz-adv-x="611" 
d="M309 505q124 -1 199 -78t75 -182q0 -113 -81.5 -186t-201.5 -74q-124 0 -199 77t-74 183q0 112 81 186t201 74zM303 429q-78 0 -125 -50.5t-47 -133.5q0 -76 46 -130t130 -54q77 -1 124.5 49.5t47.5 134.5q-1 75 -47 129.5t-129 54.5zM114 657h382v-60h-382v60z" />
    <glyph glyph-name="Obreve" unicode="&#x14e;" horiz-adv-x="840" 
d="M420 715q165 0 274.5 -101t109.5 -264q0 -150 -102.5 -257.5t-281.5 -107.5q-166 0 -275 100.5t-109 264.5q0 149 102 257t282 108zM422 633q-121 -1 -196 -76t-75 -191q-1 -131 74 -215t193 -84q120 0 195.5 75t75.5 192q0 130 -75 214.5t-192 84.5zM257 930h66
q4 -46 29.5 -73t68.5 -27q42 0 67.5 27t30.5 73h66q-7 -74 -50 -122t-114 -48q-72 0 -115 48t-49 122z" />
    <glyph glyph-name="obreve" unicode="&#x14f;" horiz-adv-x="611" 
d="M309 505q124 -1 199 -78t75 -182q0 -113 -81.5 -186t-201.5 -74q-124 0 -199 77t-74 183q0 112 81 186t201 74zM303 429q-78 0 -125 -50.5t-47 -133.5q0 -76 46 -130t130 -54q77 -1 124.5 49.5t47.5 134.5q-1 75 -47 129.5t-129 54.5zM147 725h56q7 -51 33 -75.5
t69 -24.5q42 0 68 24.5t34 75.5h56q-8 -68 -49 -114t-109 -46q-69 0 -110 46t-48 114z" />
    <glyph glyph-name="Ohungarumlaut" unicode="&#x150;" horiz-adv-x="840" 
d="M420 715q165 0 274.5 -101t109.5 -264q0 -150 -102.5 -257.5t-281.5 -107.5q-166 0 -275 100.5t-109 264.5q0 149 102 257t282 108zM422 633q-121 -1 -196 -76t-75 -191q-1 -131 74 -215t193 -84q120 0 195.5 75t75.5 192q0 130 -75 214.5t-192 84.5zM427 965l87 -61
l-261 -186l-12 6zM631 965l87 -61l-261 -186l-12 6z" />
    <glyph glyph-name="ohungarumlaut" unicode="&#x151;" horiz-adv-x="611" 
d="M309 505q124 -1 199 -78t75 -182q0 -113 -81.5 -186t-201.5 -74q-124 0 -199 77t-74 183q0 112 81 186t201 74zM303 429q-78 0 -125 -50.5t-47 -133.5q0 -76 46 -130t130 -54q77 -1 124.5 49.5t47.5 134.5q-1 75 -47 129.5t-129 54.5zM314 758l77 -54l-252 -180l-4 2z
M518 758l77 -54l-252 -180l-4 2z" />
    <glyph glyph-name="OE" unicode="&#x152;" horiz-adv-x="1100" 
d="M674 96v15q-26 -33 -55 -57t-61 -39q-33 -15 -71 -22.5t-77 -7.5q-162 0 -268 101t-106 264q0 148 99.5 256.5t274.5 108.5q40 0 78 -7.5t71 -21.5q32 -15 60.5 -39t54.5 -56v15q0 33 -12 55.5t-34 38.5h388v-115q-18 20 -43 28t-62 8l-135 -3v-200h144q9 0 18 0.5
t18 2.5v-109q-14 14 -32 20t-44 6h-104v-251q32 -4 65.5 -5.5t64.5 -1.5q71 0 120.5 13t88.5 48l-51 -141h-436q22 15 34 37.5t12 58.5zM412 633q-117 0 -189 -75.5t-72 -191.5q-1 -131 71 -215t186 -84q116 0 188.5 75t72.5 192q-1 130 -72.5 214.5t-184.5 84.5z" />
    <glyph glyph-name="oe" unicode="&#x153;" horiz-adv-x="965" 
d="M948 111l-66 -104q-36 -12 -68 -17t-70 -5q-86 1 -144.5 26.5t-91.5 81.5q-32 -54 -88.5 -81t-132.5 -27q-121 0 -190.5 76t-69.5 184q-1 111 78 185.5t197 74.5q72 -1 124 -28.5t82 -76.5q34 54 86.5 79t120.5 26q111 0 172 -70.5t59 -177.5h-383q-4 -85 48 -140.5
t154 -55.5q52 -1 96.5 11.5t86.5 38.5zM293 429q-73 0 -117.5 -51t-44.5 -133q0 -86 46.5 -135t119.5 -49q72 0 117 50.5t45 133.5q0 85 -47 134.5t-119 49.5zM573 322h259q-4 49 -37.5 78t-84.5 29q-53 0 -90.5 -29.5t-46.5 -77.5z" />
    <glyph glyph-name="Racute" unicode="&#x154;" horiz-adv-x="562" 
d="M43 700q53 0 80 0.5t52 1.5q79 1 81.5 1.5t5.5 0.5q122 -1 186.5 -49t64.5 -133q0 -64 -47.5 -114.5t-125.5 -62.5q77 -122 168.5 -221t153.5 -124q-38 -2 -65.5 -4t-42.5 -2q-63 0 -153.5 100.5t-180.5 270.5q75 7 126.5 46.5t51.5 101.5q0 58 -36.5 87.5t-103.5 29.5
q-23 0 -38 -2t-29 -5v-523q-1 -38 10 -60.5t36 -39.5h-194q24 17 34.5 39.5t11.5 60.5v500q-1 37 -11.5 59.5t-34.5 40.5zM378 917l61 -87l-307 -86l-10 10z" />
    <glyph glyph-name="racute" unicode="&#x155;" horiz-adv-x="314" 
d="M200 0h-170q18 12 26.5 28.5t8.5 41.5v345q0 24 -8.5 40.5t-26.5 29.5h73q16 -1 28 2.5t24 13.5v-80q24 38 58.5 61t76.5 23q8 -1 17 -1.5t18 -2.5v-98q-13 8 -26 12t-29 4q-52 -1 -81 -36.5t-29 -106.5v-206q0 -25 9.5 -41.5t30.5 -28.5zM301 710l54 -77l-298 -83l-3 3z
" />
    <glyph glyph-name="Rcommaaccent" unicode="&#x156;" horiz-adv-x="562" 
d="M43 700q53 0 80 0.5t52 1.5q79 1 81.5 1.5t5.5 0.5q122 -1 186.5 -49t64.5 -133q0 -64 -47.5 -114.5t-125.5 -62.5q77 -122 168.5 -221t153.5 -124q-38 -2 -65.5 -4t-42.5 -2q-63 0 -153.5 100.5t-180.5 270.5q75 7 126.5 46.5t51.5 101.5q0 58 -36.5 87.5t-103.5 29.5
q-23 0 -38 -2t-29 -5v-523q-1 -38 10 -60.5t36 -39.5h-194q24 17 34.5 39.5t11.5 60.5v500q-1 37 -11.5 59.5t-34.5 40.5zM261 -290h-52q25 25 47 57.5t23 45.5q-1 5 -2 7t-5 2q-28 6 -41.5 21.5t-12.5 40.5q0 29 18 45t47 16q31 0 50 -20.5t19 -54.5q0 -40 -26 -82.5
t-65 -77.5z" />
    <glyph glyph-name="rcommaaccent" unicode="&#x157;" horiz-adv-x="315" 
d="M200 0h-170q18 12 26.5 28.5t8.5 41.5v345q0 24 -8.5 40.5t-26.5 29.5h73q16 -1 28 2.5t24 13.5v-80q24 38 58.5 61t76.5 23q8 -1 17 -1.5t18 -2.5v-98q-13 8 -26 12t-29 4q-52 -1 -81 -36.5t-29 -106.5v-206q0 -25 9.5 -41.5t30.5 -28.5zM109 -282h-52q25 25 47 57.5
t23 45.5q0 5 -1.5 7t-5.5 2q-28 6 -41 21.5t-13 40.5q-1 29 17.5 45t47.5 16q31 1 50 -20t19 -55q0 -40 -26 -82.5t-65 -77.5z" />
    <glyph glyph-name="Rcaron" unicode="&#x158;" horiz-adv-x="562" 
d="M43 700q53 0 80 0.5t52 1.5q79 1 81.5 1.5t5.5 0.5q122 -1 186.5 -49t64.5 -133q0 -64 -47.5 -114.5t-125.5 -62.5q77 -122 168.5 -221t153.5 -124q-38 -2 -65.5 -4t-42.5 -2q-63 0 -153.5 100.5t-180.5 270.5q75 7 126.5 46.5t51.5 101.5q0 58 -36.5 87.5t-103.5 29.5
q-23 0 -38 -2t-29 -5v-523q-1 -38 10 -60.5t36 -39.5h-194q24 17 34.5 39.5t11.5 60.5v500q-1 37 -11.5 59.5t-34.5 40.5zM281 725l-195 182q51 -5 100.5 -21.5t94.5 -44.5q44 28 93.5 44.5t101.5 21.5z" />
    <glyph glyph-name="rcaron" unicode="&#x159;" horiz-adv-x="315" 
d="M200 0h-170q18 12 26.5 28.5t8.5 41.5v345q0 24 -8.5 40.5t-26.5 29.5h73q16 -1 28 2.5t24 13.5v-80q24 38 58.5 61t76.5 23q8 -1 17 -1.5t18 -2.5v-98q-13 8 -26 12t-29 4q-52 -1 -81 -36.5t-29 -106.5v-206q0 -25 9.5 -41.5t30.5 -28.5zM190 532l-180 168
q47 -6 92.5 -22.5t87.5 -42.5q41 26 86.5 42.5t93.5 22.5z" />
    <glyph glyph-name="Sacute" unicode="&#x15a;" horiz-adv-x="511" 
d="M449 693v-117q-39 31 -80.5 48t-90.5 17q-69 0 -103 -29t-34 -72q0 -35 28.5 -62.5t147.5 -79.5q122 -55 155.5 -96t33.5 -102q0 -97 -74 -156t-207 -59q-52 0 -98 7t-93 23l-29 132q47 -42 104 -62t122 -20q74 0 118.5 28.5t44.5 78.5q0 39 -26.5 68t-142.5 82
q-124 55 -161.5 99.5t-37.5 106.5q-1 86 66 136.5t196 50.5q43 0 82.5 -5.5t78.5 -16.5zM353 917l61 -87l-307 -86l-10 10z" />
    <glyph glyph-name="sacute" unicode="&#x15b;" horiz-adv-x="430" 
d="M370 487v-89q-37 20 -70.5 29.5t-70.5 10.5q-41 0 -64.5 -15.5t-23.5 -40.5q0 -20 18.5 -36t106.5 -46q94 -33 123.5 -67.5t30.5 -80.5q0 -81 -61 -123.5t-163 -43.5q-40 0 -77 7t-76 22l-38 105q49 -32 99.5 -49.5t91.5 -17.5q60 -1 92.5 19.5t32.5 52.5q0 23 -17 40.5
t-113 55.5q-93 36 -121 67.5t-28 75.5q0 65 49 103t148 39q36 0 67.5 -4.5t63.5 -13.5zM340 710l54 -77l-298 -83l-3 3z" />
    <glyph glyph-name="Scircumflex" unicode="&#x15c;" horiz-adv-x="511" 
d="M449 693v-117q-39 31 -80.5 48t-90.5 17q-69 0 -103 -29t-34 -72q0 -35 28.5 -62.5t147.5 -79.5q122 -55 155.5 -96t33.5 -102q0 -97 -74 -156t-207 -59q-52 0 -98 7t-93 23l-29 132q47 -42 104 -62t122 -20q74 0 118.5 28.5t44.5 78.5q0 39 -26.5 68t-142.5 82
q-124 55 -161.5 99.5t-37.5 106.5q-1 86 66 136.5t196 50.5q43 0 82.5 -5.5t78.5 -16.5zM256 912l195 -182q-52 4 -101.5 20.5t-93.5 45.5q-45 -29 -94.5 -45.5t-100.5 -20.5z" />
    <glyph glyph-name="scircumflex" unicode="&#x15d;" horiz-adv-x="430" 
d="M370 487v-89q-37 20 -70.5 29.5t-70.5 10.5q-41 0 -64.5 -15.5t-23.5 -40.5q0 -20 18.5 -36t106.5 -46q94 -33 123.5 -67.5t30.5 -80.5q0 -81 -61 -123.5t-163 -43.5q-40 0 -77 7t-76 22l-38 105q49 -32 99.5 -49.5t91.5 -17.5q60 -1 92.5 19.5t32.5 52.5q0 23 -17 40.5
t-113 55.5q-93 36 -121 67.5t-28 75.5q0 65 49 103t148 39q36 0 67.5 -4.5t63.5 -13.5zM219 705l180 -168q-48 5 -93.5 21.5t-86.5 43.5q-42 -27 -87.5 -43.5t-92.5 -21.5z" />
    <glyph glyph-name="Scedilla" unicode="&#x15e;" horiz-adv-x="511" 
d="M449 693v-117q-39 31 -80.5 48t-90.5 17q-69 -1 -103 -29.5t-34 -71.5q0 -35 28.5 -62.5t147.5 -79.5q122 -55 155.5 -96t33.5 -102q0 -95 -73 -154.5t-185 -60.5l-24 -33l1 -2q4 1 6.5 1h5.5q37 0 62.5 -20t26.5 -58q0 -44 -37 -71t-85 -27q-29 1 -53.5 12.5t-45.5 34.5
l32 40q14 -18 30.5 -27t38.5 -9q25 0 42 12.5t17 29.5t-15.5 27.5t-44.5 10.5h-8t-20 -2l-11 27l36 54q-42 2 -84.5 8.5t-83.5 21.5l-29 132q47 -42 104 -62t122 -20q74 0 118.5 28.5t44.5 78.5q0 39 -26.5 68t-142.5 82q-124 55 -161.5 99.5t-37.5 106.5q-1 86 66 136.5
t196 50.5q43 0 82.5 -5.5t78.5 -16.5z" />
    <glyph glyph-name="scedilla" unicode="&#x15f;" horiz-adv-x="430" 
d="M370 487v-89q-37 20 -70.5 30t-70.5 10q-41 0 -64.5 -15.5t-23.5 -40.5q0 -20 18.5 -36t106.5 -46q94 -33 124 -67.5t30 -80.5q-1 -74 -53.5 -118.5t-141.5 -48.5l-14 -38q4 1 8 1h9q38 0 61 -18t24 -52q-1 -35 -30 -57.5t-70 -22.5q-31 1 -60 11.5t-55 30.5l34 43
q19 -17 38 -26t37 -9q17 0 28.5 9.5t11.5 23.5q0 15 -9.5 22t-28.5 7q-7 1 -13 0t-12 -3l-28 43l15 35q-32 2 -61 8.5t-67 20.5l-38 105q49 -32 99.5 -49.5t91.5 -17.5q60 -1 92.5 19.5t32.5 52.5q0 23 -17 40.5t-113 55.5q-93 36 -121 67.5t-28 75.5q0 65 49 103t148 39
q36 0 67.5 -4.5t63.5 -13.5z" />
    <glyph glyph-name="Scaron" unicode="&#x160;" horiz-adv-x="511" 
d="M449 693v-117q-39 31 -80.5 48t-90.5 17q-69 0 -103 -29t-34 -72q0 -35 28.5 -62.5t147.5 -79.5q122 -55 155.5 -96t33.5 -102q0 -97 -74 -156t-207 -59q-52 0 -98 7t-93 23l-29 132q47 -42 104 -62t122 -20q74 0 118.5 28.5t44.5 78.5q0 39 -26.5 68t-142.5 82
q-124 55 -161.5 99.5t-37.5 106.5q-1 86 66 136.5t196 50.5q43 0 82.5 -5.5t78.5 -16.5zM256 725l-195 182q51 -5 100.5 -21.5t94.5 -44.5q44 28 93.5 44.5t101.5 21.5z" />
    <glyph glyph-name="scaron" unicode="&#x161;" horiz-adv-x="430" 
d="M370 487v-89q-37 20 -70.5 29.5t-70.5 10.5q-41 0 -64.5 -15.5t-23.5 -40.5q0 -20 18.5 -36t106.5 -46q94 -33 123.5 -67.5t30.5 -80.5q0 -81 -61 -123.5t-163 -43.5q-40 0 -77 7t-76 22l-38 105q49 -32 99.5 -49.5t91.5 -17.5q60 -1 92.5 19.5t32.5 52.5q0 23 -17 40.5
t-113 55.5q-93 36 -121 67.5t-28 75.5q0 65 49 103t148 39q36 0 67.5 -4.5t63.5 -13.5zM219 532l-180 168q47 -6 92.5 -22.5t87.5 -42.5q41 26 86.5 42.5t93.5 22.5z" />
    <glyph glyph-name="Tcedilla" unicode="&#x162;" horiz-adv-x="492" 
d="M295 620v-520q0 -38 10.5 -60.5t35.5 -39.5h-71l-25 -41l1 -2q3 1 7 1h9q38 0 61.5 -21.5t23.5 -56.5q0 -44 -37 -71t-85 -27q-29 1 -53.5 12.5t-45.5 34.5l32 40q14 -18 30.5 -27t38.5 -9q25 0 41.5 12.5t17.5 29.5q0 17 -15.5 28t-44.5 10h-8t-20 -2l-11 27l37 62h-77
q24 17 34.5 39.5t11.5 60.5v520l-119 1q-33 0 -58 -11t-46 -31l40 125q13 -3 25.5 -4t38.5 0h387q13 0 29 1t32 3l-35 -117q-11 18 -29 26t-51 8z" />
    <glyph glyph-name="tcedilla" unicode="&#x163;" horiz-adv-x="308" 
d="M126 640h37v-155h112q8 0 16 0.5t17 3.5v-97q-8 11 -20 17t-31 6h-94v-254q-1 -51 24.5 -78.5t79.5 -27.5q9 0 18.5 1.5t20.5 4.5l-58 -73q-9 -1 -17 -2t-15 -1t-13 0.5t-10 0.5l-14 -39q4 1 8 1h9q38 0 61 -18t24 -52q0 -35 -29.5 -57.5t-70.5 -22.5q-31 0 -60 11
t-55 31l34 43q19 -17 38 -26t37 -9q17 1 28.5 10t11.5 23q0 15 -9.5 22t-28.5 7q-7 1 -13 0t-12 -3l-28 43l20 50q-40 21 -58 58t-18 86v271h-70v36q66 8 99.5 59.5t28.5 129.5z" />
    <glyph glyph-name="Tcaron" unicode="&#x164;" horiz-adv-x="492" 
d="M295 620v-520q0 -38 10.5 -60.5t35.5 -39.5h-194q24 17 34.5 39.5t11.5 60.5v520l-119 1q-33 0 -58 -11t-46 -31l40 125q13 -3 25.5 -4t38.5 0h387q13 0 29 1t32 3l-35 -117q-11 18 -29 26t-51 8zM246 725l-195 182q51 -5 100.5 -21.5t94.5 -44.5q44 28 93.5 44.5
t101.5 21.5z" />
    <glyph glyph-name="tcaron" unicode="&#x165;" horiz-adv-x="306" 
d="M126 640h37v-155h112q8 0 16 0.5t17 3.5v-97q-8 11 -20 17t-31 6h-94v-254q-1 -51 24.5 -78.5t79.5 -27.5q9 0 18.5 1.5t20.5 4.5l-58 -73q-9 -1 -17 -2t-15 -1q-70 0 -109 43.5t-39 115.5v271h-70v36q66 8 99.5 59.5t28.5 129.5zM263 530h-41q29 31 46.5 57t17.5 42
q0 5 -2 8.5t-8 4.5q-24 3 -37.5 18t-13.5 37q0 26 16 43t45 17t47.5 -18.5t18.5 -48.5q0 -38 -24.5 -81.5t-64.5 -78.5z" />
    <glyph glyph-name="Umacron" unicode="&#x16a;" horiz-adv-x="730" 
d="M40 700h194q-25 -18 -35.5 -40.5t-10.5 -59.5v-357q0 -96 44 -136t123 -40q84 0 133.5 42.5t50.5 120.5v370q-1 37 -11.5 59.5t-34.5 40.5h194q-25 -18 -36 -40.5t-10 -59.5v-500q-1 -38 10 -60.5t36 -39.5h-145v67q-41 -43 -91 -62t-112 -20q-125 0 -189 61.5t-64 183.5
v370q-1 37 -11.5 59.5t-34.5 40.5zM169 862h392v-70h-392v70z" />
    <glyph glyph-name="umacron" unicode="&#x16b;" horiz-adv-x="554" 
d="M26 485h77q17 -1 29 3t24 13v-310q-1 -68 31 -99t88 -31q54 -1 88.5 34t34.5 90v230q0 24 -8.5 40.5t-26.5 29.5h77q17 -1 29 3t24 13v-431q0 -25 8 -41.5t27 -28.5h-126v70q-25 -42 -65 -63.5t-95 -21.5q-81 1 -131 48t-50 129v253q0 24 -8.5 40.5t-26.5 29.5zM86 657
h382v-60h-382v60z" />
    <glyph glyph-name="Ubreve" unicode="&#x16c;" horiz-adv-x="730" 
d="M40 700h194q-25 -18 -35.5 -40.5t-10.5 -59.5v-357q0 -96 44 -136t123 -40q84 0 133.5 42.5t50.5 120.5v370q-1 37 -11.5 59.5t-34.5 40.5h194q-25 -18 -36 -40.5t-10 -59.5v-500q-1 -38 10 -60.5t36 -39.5h-145v67q-41 -43 -91 -62t-112 -20q-125 0 -189 61.5t-64 183.5
v370q-1 37 -11.5 59.5t-34.5 40.5zM202 930h66q4 -46 29.5 -73t68.5 -27q42 0 67.5 27t30.5 73h66q-7 -74 -50 -122t-114 -48q-72 0 -115 48t-49 122z" />
    <glyph glyph-name="ubreve" unicode="&#x16d;" horiz-adv-x="554" 
d="M26 485h77q17 -1 29 3t24 13v-310q-1 -68 31 -99t88 -31q54 -1 88.5 34t34.5 90v230q0 24 -8.5 40.5t-26.5 29.5h77q17 -1 29 3t24 13v-431q0 -25 8 -41.5t27 -28.5h-126v70q-25 -42 -65 -63.5t-95 -21.5q-81 1 -131 48t-50 129v253q0 24 -8.5 40.5t-26.5 29.5zM119 725
h56q7 -51 33 -75.5t69 -24.5q42 0 68 24.5t34 75.5h56q-8 -68 -49 -114t-109 -46q-69 0 -110 46t-48 114z" />
    <glyph glyph-name="Uring" unicode="&#x16e;" horiz-adv-x="730" 
d="M40 700h194q-25 -18 -35.5 -40.5t-10.5 -59.5v-357q0 -96 44 -136t123 -40q84 0 133.5 42.5t50.5 120.5v370q-1 37 -11.5 59.5t-34.5 40.5h194q-25 -18 -36 -40.5t-10 -59.5v-500q-1 -38 10 -60.5t36 -39.5h-145v67q-41 -43 -91 -62t-112 -20q-125 0 -189 61.5t-64 183.5
v370q-1 37 -11.5 59.5t-34.5 40.5zM273 819q0 37 27.5 64t64.5 27q36 -1 64 -27.5t28 -63.5q0 -38 -28 -65t-64 -26q-37 0 -64.5 26.5t-27.5 64.5zM325 819q0 -24 11.5 -37t28.5 -13q16 0 28 13t12 37q0 23 -12 36.5t-28 13.5q-17 0 -29 -13.5t-11 -36.5z" />
    <glyph glyph-name="uring" unicode="&#x16f;" horiz-adv-x="554" 
d="M26 485h77q17 -1 29 3t24 13v-310q-1 -68 31 -99t88 -31q54 -1 88.5 34t34.5 90v230q0 24 -8.5 40.5t-26.5 29.5h77q17 -1 29 3t24 13v-431q0 -25 8 -41.5t27 -28.5h-126v70q-25 -42 -65 -63.5t-95 -21.5q-81 1 -131 48t-50 129v253q0 24 -8.5 40.5t-26.5 29.5zM190 619
q0 36 24.5 61t61.5 25q36 0 61 -25t25 -61q0 -37 -25 -61.5t-61 -24.5q-37 0 -61.5 24.5t-24.5 61.5zM236 619q0 -27 11 -41t29 -14q17 0 28.5 14t11.5 41q0 24 -11 39.5t-29 15.5q-19 0 -29.5 -15.5t-10.5 -39.5z" />
    <glyph glyph-name="Uhungarumlaut" unicode="&#x170;" horiz-adv-x="730" 
d="M40 700h194q-25 -18 -35.5 -40.5t-10.5 -59.5v-357q0 -96 44 -136t123 -40q84 0 133.5 42.5t50.5 120.5v370q-1 37 -11.5 59.5t-34.5 40.5h194q-25 -18 -36 -40.5t-10 -59.5v-500q-1 -38 10 -60.5t36 -39.5h-145v67q-41 -43 -91 -62t-112 -20q-125 0 -189 61.5t-64 183.5
v370q-1 37 -11.5 59.5t-34.5 40.5zM372 965l87 -61l-261 -186l-12 6zM576 965l87 -61l-261 -186l-12 6z" />
    <glyph glyph-name="uhungarumlaut" unicode="&#x171;" horiz-adv-x="554" 
d="M26 485h77q17 -1 29 3t24 13v-310q-1 -68 31 -99t88 -31q54 -1 88.5 34t34.5 90v230q0 24 -8.5 40.5t-26.5 29.5h77q17 -1 29 3t24 13v-431q0 -25 8 -41.5t27 -28.5h-126v70q-25 -42 -65 -63.5t-95 -21.5q-81 1 -131 48t-50 129v253q0 24 -8.5 40.5t-26.5 29.5zM286 758
l77 -54l-252 -180l-4 2zM490 758l77 -54l-252 -180l-4 2z" />
    <glyph glyph-name="Uogonek" unicode="&#x172;" horiz-adv-x="730" 
d="M40 700h194q-25 -18 -35.5 -40.5t-10.5 -59.5v-357q0 -96 44 -136t123 -40q84 0 133.5 42.5t50.5 120.5v370q-1 37 -11.5 59.5t-34.5 40.5h194q-25 -18 -36 -40.5t-10 -59.5v-500q-1 -38 10 -60.5t36 -39.5q-40 -2 -69 -30.5t-29 -57.5q0 -18 9.5 -30t29.5 -12
q25 0 47.5 12t38.5 32l25 -32q-22 -32 -51 -48.5t-64 -16.5q-44 0 -72 22.5t-28 59.5q0 35 20.5 63t56.5 38h-59v67q-41 -43 -91 -62t-112 -20q-125 0 -189 61.5t-64 183.5v370q-1 37 -11.5 59.5t-34.5 40.5z" />
    <glyph glyph-name="uogonek" unicode="&#x173;" horiz-adv-x="554" 
d="M26 485h77q17 -1 29 3t24 13v-310q-1 -68 31 -99t88 -31q54 -1 88.5 34t34.5 90v230q0 24 -8.5 40.5t-26.5 29.5h77q17 -1 29 3t24 13v-431q0 -25 8 -41.5t27 -28.5q-35 -9 -55.5 -34.5t-20.5 -51.5q0 -18 12 -30t32 -12q16 0 34 11.5t32 29.5l24 -29q-20 -28 -48 -43.5
t-61 -16.5q-42 0 -68.5 21t-26.5 56q0 36 23 63.5t61 35.5h-64v70q-25 -42 -65 -63.5t-95 -21.5q-81 1 -131 48t-50 129v253q0 24 -8.5 40.5t-26.5 29.5z" />
    <glyph glyph-name="Ydieresis" unicode="&#x178;" horiz-adv-x="571" 
d="M-40 700l130 2q8 0 14.5 -1.5t14.5 -3.5l191 -302l138 214q6 9 10 19.5t4 20.5q0 14 -9.5 28t-24.5 23h173l-258 -387v-213q0 -38 10.5 -60.5t35.5 -39.5h-194q24 17 35 39.5t11 60.5v214l-206 318q-16 24 -34.5 40.5t-40.5 27.5zM113 809q0 28 19.5 48t48.5 20
q28 0 48 -20t20 -48q0 -29 -20 -48.5t-48 -19.5q-29 0 -48.5 19.5t-19.5 48.5zM322 809q0 28 19.5 48t48.5 20q28 -1 48 -20.5t20 -47.5q0 -29 -20 -49t-48 -19q-29 0 -48.5 19.5t-19.5 48.5z" />
    <glyph glyph-name="Zacute" unicode="&#x179;" horiz-adv-x="609" 
d="M99 700h466l-378 -611q81 -5 125 -7t72 -2q71 0 128.5 12t106.5 42l-54 -134h-560l381 615q-38 4 -81.5 7.5t-80.5 3.5q-62 0 -101 -11t-75 -37zM437 917l61 -87l-307 -86l-10 10z" />
    <glyph glyph-name="zacute" unicode="&#x17a;" horiz-adv-x="478" 
d="M83 485h377l-283 -400q35 -5 72 -7t66 -2q60 0 103.5 9t79.5 30l-58 -115h-445l294 404q-26 3 -53 5t-54 2q-54 -1 -89.5 -10t-64.5 -28zM369 710l54 -77l-298 -83l-3 3z" />
    <glyph glyph-name="Zdotaccent" unicode="&#x17b;" horiz-adv-x="609" 
d="M99 700h466l-378 -611q81 -5 125 -7t72 -2q71 0 128.5 12t106.5 42l-54 -134h-560l381 615q-38 4 -81.5 7.5t-80.5 3.5q-62 0 -101 -11t-75 -37zM237 809q0 28 19.5 48t48.5 20q28 0 48 -20t20 -48q0 -29 -20 -48.5t-48 -19.5q-29 0 -48.5 19.5t-19.5 48.5z" />
    <glyph glyph-name="zdotaccent" unicode="&#x17c;" horiz-adv-x="478" 
d="M83 485h377l-283 -400q35 -5 72 -7t66 -2q60 0 103.5 9t79.5 30l-58 -115h-445l294 404q-26 3 -53 5t-54 2q-54 -1 -89.5 -10t-64.5 -28zM195 619q0 26 18 45t46 19q27 0 45.5 -18.5t18.5 -45.5q0 -28 -18.5 -46t-45.5 -18q-28 0 -46 18.5t-18 45.5z" />
    <glyph glyph-name="Zcaron" unicode="&#x17d;" horiz-adv-x="609" 
d="M99 700h466l-378 -611q81 -5 125 -7t72 -2q71 0 128.5 12t106.5 42l-54 -134h-560l381 615q-38 4 -81.5 7.5t-80.5 3.5q-62 0 -101 -11t-75 -37zM305 725l-195 182q51 -5 100.5 -21.5t94.5 -44.5q44 28 93.5 44.5t101.5 21.5z" />
    <glyph glyph-name="zcaron" unicode="&#x17e;" horiz-adv-x="478" 
d="M83 485h377l-283 -400q35 -5 72 -7t66 -2q60 0 103.5 9t79.5 30l-58 -115h-445l294 404q-26 3 -53 5t-54 2q-54 -1 -89.5 -10t-64.5 -28zM257 532l-180 168q47 -6 92.5 -22.5t87.5 -42.5q41 26 86.5 42.5t93.5 22.5z" />
    <glyph glyph-name="florin" unicode="&#x192;" horiz-adv-x="380" 
d="M125 484l9 59q12 79 75.5 125.5t166.5 46.5q17 0 32.5 -1t31.5 -3l-67 -82q-12 6 -24.5 9.5t-28.5 3.5q-37 -1 -59.5 -20t-27.5 -54l-13 -83h126q4 0 9.5 1t11.5 3l-14 -91q-4 9 -12.5 12.5t-24.5 4.5h-107l-69 -421q-18 -106 -79 -154.5t-170 -48.5q-22 0 -36 1.5
t-29 3.5l70 81q13 -6 24.5 -9.5t24.5 -3.5q40 0 63.5 26t31.5 73l74 452h-56z" />
    <glyph glyph-name="Icaron" unicode="&#x1cf;" horiz-adv-x="281" 
d="M43 700h194q-25 -18 -35.5 -40.5t-10.5 -59.5v-500q-1 -38 10 -60.5t36 -39.5h-194q24 17 34.5 39.5t11.5 60.5v500q-1 37 -11.5 59.5t-34.5 40.5zM142 725l-195 182q51 -5 100.5 -21.5t94.5 -44.5q44 28 93.5 44.5t101.5 21.5z" />
    <glyph glyph-name="icaron" unicode="&#x1d0;" horiz-adv-x="218" 
d="M30 485h77q17 -1 29 3t24 13v-431q0 -25 8 -41.5t27 -28.5h-165q18 12 26.5 28.5t8.5 41.5v345q0 24 -8.5 40.5t-26.5 29.5zM110 532l-180 168q47 -6 92.5 -22.5t87.5 -42.5q41 26 86.5 42.5t93.5 22.5z" />
    <glyph glyph-name="eturn" unicode="&#x1dd;" horiz-adv-x="556" 
d="M17 233h404q2 86 -45 141t-138 55q-59 -1 -108.5 -13.5t-93.5 -36.5l66 104q38 12 74.5 17t78.5 5q120 0 195 -69.5t75 -193.5q0 -113 -72.5 -184.5t-193.5 -72.5q-117 0 -181.5 69.5t-60.5 178.5zM411 168h-279q4 -50 40 -78.5t92 -28.5t96 29t51 78z" />
    <glyph glyph-name="Gcaron" unicode="&#x1e6;" horiz-adv-x="744" 
d="M626 696v-120q-38 29 -84.5 43t-100.5 14q-128 -1 -209 -75t-81 -192q0 -129 86.5 -214t227.5 -85q34 0 65 4.5t61 14.5v181q0 35 -9 54.5t-26 34.5h143q-4 -8 -5.5 -16t-0.5 -14v-259q-1 -18 0.5 -27t4.5 -19q-61 -20 -119.5 -28t-120.5 -8q-200 0 -311 105t-111 256
q0 167 115.5 268t298.5 101q54 0 102.5 -8.5t73.5 -10.5zM409 726l-195 182q51 -5 100.5 -21.5t94.5 -44.5q44 28 93.5 44.5t101.5 21.5z" />
    <glyph glyph-name="gcaron" unicode="&#x1e7;" horiz-adv-x="555" 
d="M39 326q0 75 63.5 127t173.5 52q16 0 43.5 -2t19.5 -1q25 -2 45.5 -3t38.5 0q35 0 74.5 3.5t79.5 11.5l-23 -58q-9 -22 -26.5 -25t-58.5 3l-56 7q37 -21 57.5 -54.5t20.5 -74.5q-1 -64 -45.5 -107t-131.5 -55q-60 -8 -74 -15.5t-14 -17.5q-1 -8 7.5 -14.5t22.5 -5.5h40
q158 0 220 -40.5t62 -111.5q0 -82 -86 -135t-213 -53q-131 1 -209.5 43t-79.5 104q0 38 28.5 62t78.5 24q14 0 27.5 -3.5t27.5 -11.5q-21 -1 -32.5 -15t-11.5 -35q0 -42 43.5 -71.5t121.5 -30.5q84 0 137 30t53 84q0 46 -44 70t-132 24q-26 0 -62 -1.5t-47 -1.5
q-28 0 -43 8.5t-27 37.5q-5 9 -6 14.5t-1 10.5q0 9 5.5 17t19.5 15l59 29q-66 10 -106 55t-40 111zM257 438q-50 0 -82 -27.5t-32 -69.5q-1 -53 37.5 -91t94.5 -37q49 -1 80.5 29t31.5 78q0 49 -38.5 83t-91.5 35zM277 532l-180 168q47 -6 92.5 -22.5t87.5 -42.5
q41 26 86.5 42.5t93.5 22.5z" />
    <glyph glyph-name="Scommaaccent" unicode="&#x218;" horiz-adv-x="511" 
d="M449 693v-117q-39 31 -80.5 48t-90.5 17q-69 0 -103 -29t-34 -72q0 -35 28.5 -62.5t147.5 -79.5q122 -55 155.5 -96t33.5 -102q0 -97 -74 -156t-207 -59q-52 0 -98 7t-93 23l-29 132q47 -42 104 -62t122 -20q74 0 118.5 28.5t44.5 78.5q0 39 -26.5 68t-142.5 82
q-124 55 -161.5 99.5t-37.5 106.5q-1 86 66 136.5t196 50.5q43 0 82.5 -5.5t78.5 -16.5zM226 -290h-52q25 25 47 57.5t23 45.5q-1 5 -2 7t-5 2q-28 6 -41.5 21.5t-12.5 40.5q0 29 18 45t47 16q31 0 50 -20.5t19 -54.5q0 -40 -26 -82.5t-65 -77.5z" />
    <glyph glyph-name="scommaaccent" unicode="&#x219;" horiz-adv-x="430" 
d="M370 487v-89q-37 20 -70.5 29.5t-70.5 10.5q-41 0 -64.5 -15.5t-23.5 -40.5q0 -20 18.5 -36t106.5 -46q94 -33 123.5 -67.5t30.5 -80.5q0 -81 -61 -123.5t-163 -43.5q-40 0 -77 7t-76 22l-38 105q49 -32 99.5 -49.5t91.5 -17.5q60 -1 92.5 19.5t32.5 52.5q0 23 -17 40.5
t-113 55.5q-93 36 -121 67.5t-28 75.5q0 65 49 103t148 39q36 0 67.5 -4.5t63.5 -13.5zM195 -280h-52q25 25 47 57.5t23 45.5q0 5 -1.5 7t-5.5 2q-28 6 -41 21.5t-13 40.5q-1 29 17.5 45t47.5 16q31 1 50 -20t19 -55q0 -40 -26 -82.5t-65 -77.5z" />
    <glyph glyph-name="Tcommaaccent" unicode="&#x21a;" horiz-adv-x="492" 
d="M295 620v-520q0 -38 10.5 -60.5t35.5 -39.5h-194q24 17 34.5 39.5t11.5 60.5v520l-119 1q-33 0 -58 -11t-46 -31l40 125q13 -3 25.5 -4t38.5 0h387q13 0 29 1t32 3l-35 -117q-11 18 -29 26t-51 8zM226 -290h-52q25 25 47 57.5t23 45.5q-1 5 -2 7t-5 2q-28 6 -41.5 21.5
t-12.5 40.5q0 29 18 45t47 16q31 0 50 -20.5t19 -54.5q0 -40 -26 -82.5t-65 -77.5z" />
    <glyph glyph-name="tcommaaccent" unicode="&#x21b;" horiz-adv-x="308" 
d="M126 640h37v-155h112q8 0 16 0.5t17 3.5v-97q-8 11 -20 17t-31 6h-94v-254q-1 -51 24.5 -78.5t79.5 -27.5q9 0 18.5 1.5t20.5 4.5l-58 -73q-9 -1 -17 -2t-15 -1q-70 0 -109 43.5t-39 115.5v271h-70v36q66 8 99.5 59.5t28.5 129.5zM149 -280h-52q25 25 47 57.5t23 45.5
q0 5 -1.5 7t-5.5 2q-28 6 -41 21.5t-13 40.5q-1 29 17.5 45t47.5 16q31 1 50 -20t19 -55q0 -40 -26 -82.5t-65 -77.5z" />
    <glyph glyph-name="schwa" unicode="&#x259;" horiz-adv-x="556" 
d="M17 233h404q2 86 -45 141t-138 55q-59 -1 -108.5 -13.5t-93.5 -36.5l66 104q38 12 74.5 17t78.5 5q120 0 195 -69.5t75 -193.5q0 -113 -72.5 -184.5t-193.5 -72.5q-117 0 -181.5 69.5t-60.5 178.5zM411 168h-279q4 -50 40 -78.5t92 -28.5t96 29t51 78z" />
    <glyph glyph-name="afii57929" unicode="&#x2bc;" horiz-adv-x="210" 
d="M81 488h-41q29 31 46.5 57t17.5 42q0 5 -2 8.5t-8 4.5q-24 3 -37.5 18t-13.5 37q0 26 16 43t45 17t47.5 -18.5t18.5 -48.5q0 -38 -24.5 -81.5t-64.5 -78.5z" />
    <glyph glyph-name="circumflex" unicode="&#x2c6;" horiz-adv-x="360" 
d="M180 705l180 -168q-48 5 -93.5 21.5t-86.5 43.5q-42 -27 -87.5 -43.5t-92.5 -21.5z" />
    <glyph glyph-name="caron" unicode="&#x2c7;" horiz-adv-x="360" 
d="M180 532l-180 168q47 -6 92.5 -22.5t87.5 -42.5q41 26 86.5 42.5t93.5 22.5z" />
    <glyph glyph-name="breve" unicode="&#x2d8;" horiz-adv-x="316" 
d="M0 725h56q7 -51 33 -75.5t69 -24.5q42 0 68 24.5t34 75.5h56q-8 -68 -49 -114t-109 -46q-69 0 -110 46t-48 114z" />
    <glyph glyph-name="dotaccent" unicode="&#x2d9;" horiz-adv-x="128" 
d="M0 619q0 26 18 45t46 19q27 0 45.5 -18.5t18.5 -45.5q0 -28 -18.5 -46t-45.5 -18q-28 0 -46 18.5t-18 45.5z" />
    <glyph glyph-name="ring" unicode="&#x2da;" horiz-adv-x="172" 
d="M0 619q0 36 24.5 61t61.5 25q36 0 61 -25t25 -61q0 -37 -25 -61.5t-61 -24.5q-37 0 -61.5 24.5t-24.5 61.5zM46 619q0 -27 11 -41t29 -14q17 0 28.5 14t11.5 41q0 24 -11 39.5t-29 15.5q-19 0 -29.5 -15.5t-10.5 -39.5z" />
    <glyph glyph-name="ogonek" unicode="&#x2db;" horiz-adv-x="204" 
d="M98 2h41q-40 -26 -54.5 -46t-14.5 -42q0 -18 12 -30t32 -12q16 0 34 11.5t32 29.5l24 -29q-20 -28 -48 -44t-61 -16q-42 0 -68.5 21t-26.5 56q0 38 27 68t71 33z" />
    <glyph glyph-name="tilde" unicode="&#x2dc;" horiz-adv-x="382" 
d="M0 553l25 59q13 30 30 42t46 12q21 0 65.5 -11t123.5 -10q29 0 50 6.5t42 23.5l-25 -59q-14 -31 -31 -42.5t-45 -11.5q-22 -1 -66.5 10t-122.5 11q-30 0 -51 -7t-41 -23z" />
    <glyph glyph-name="hungarumlaut" unicode="&#x2dd;" horiz-adv-x="460" 
d="M239 758l77 -54l-252 -180l-4 2zM443 758l77 -54l-252 -180l-4 2z" />
    <glyph glyph-name="accent" unicode="&#x301;" horiz-adv-x="2" 
d="M-153 710l54 -77l-298 -83l-3 3z" />
    <glyph glyph-name="accent" unicode="&#xf400;" horiz-adv-x="2" 
d="M-153 710l54 -77l-298 -83l-3 3z" />
    <glyph glyph-name="uni0313" unicode="&#x313;" horiz-adv-x="210" 
d="M81 488h-41q29 31 46.5 57t17.5 42q0 5 -2 8.5t-8 4.5q-24 3 -37.5 18t-13.5 37q0 26 16 43t45 17t47.5 -18.5t18.5 -48.5q0 -38 -24.5 -81.5t-64.5 -78.5z" />
    <glyph glyph-name="uni0315" unicode="&#x315;" horiz-adv-x="210" 
d="M81 488h-41q29 31 46.5 57t17.5 42q0 5 -2 8.5t-8 4.5q-24 3 -37.5 18t-13.5 37q0 26 16 43t45 17t47.5 -18.5t18.5 -48.5q0 -38 -24.5 -81.5t-64.5 -78.5z" />
    <glyph glyph-name="uni0326" unicode="&#x326;" horiz-adv-x="223" 
d="M92 -280h-52q25 25 47 57.5t23 45.5q0 5 -1.5 7t-5.5 2q-28 6 -41 21.5t-13 40.5q-1 29 17.5 45t47.5 16q31 1 50 -20t19 -55q0 -40 -26 -82.5t-65 -77.5z" />
    <glyph glyph-name="anoteleia" unicode="&#x387;" horiz-adv-x="328" 
d="M80 280q0 35 24 59.5t60 24.5q35 0 59.5 -24.5t24.5 -59.5q-1 -36 -25 -60t-59 -24q-36 -1 -60 23.5t-24 60.5z" />
    <glyph glyph-name="pi" unicode="&#x3c0;" horiz-adv-x="581" 
d="M537 0h-165q18 12 26 28.5t9 41.5v345h-222v-345q0 -25 8 -41.5t27 -28.5h-165q18 12 26 28.5t9 41.5v345h-10q-17 0 -32.5 -6.5t-37.5 -23.5l20 100h526v-70h-54v-345q0 -25 8 -41.5t27 -28.5z" />
    <glyph glyph-name="afii10023" unicode="&#x401;" horiz-adv-x="515" 
d="M43 700h388v-115q-18 20 -43 28t-62 8l-135 -3v-200h144q9 0 18 0.5t18 2.5v-109q-14 14 -32 20t-44 6h-104v-251q32 -4 65.5 -5.5t64.5 -1.5q71 -1 120.5 12.5t88.5 48.5l-51 -141h-436q24 17 35 40t11 60v500q-1 36 -11.5 59t-34.5 41zM85 809q0 28 19.5 47.5
t48.5 20.5q28 0 48 -20t20 -48q0 -29 -20 -48.5t-48 -19.5q-29 0 -48.5 19.5t-19.5 48.5zM294 809q0 28 19.5 48t48.5 20q28 -1 48 -20.5t20 -47.5q0 -29 -20 -48.5t-48 -19.5q-29 0 -48.5 19.5t-19.5 48.5z" />
    <glyph glyph-name="afii10051" unicode="&#x402;" horiz-adv-x="729" 
d="M280 620v-201q46 18 98 29t95 12q111 0 168.5 -80.5t57.5 -230.5q0 -193 -70 -281t-203 -103q74 57 116 151.5t42 228.5q0 118 -36 175.5t-117 57.5q-36 0 -75 -10t-76 -26v-242q-1 -38 10 -60.5t36 -39.5h-194q24 17 35 39.5t11 60.5v520l-104 1q-33 0 -58 -11t-46 -31
l40 125q13 -3 25.5 -4t38.5 0h387q13 0 29 1t32 3l-35 -117q-11 18 -29 26t-51 8z" />
    <glyph glyph-name="afii10052" unicode="&#x403;" horiz-adv-x="458" 
d="M43 700h392q9 0 18 0.5t18 2.5v-124q-18 23 -46.5 32t-96.5 9q-26 0 -60.5 -1.5t-76.5 -2.5v-516q0 -38 12 -61t39 -39h-199q24 17 35 40t11 60v500q-1 36 -11.5 59t-34.5 41zM386 917l61 -87l-307 -86l-10 10z" />
    <glyph glyph-name="afii10053" unicode="&#x404;" horiz-adv-x="666" 
d="M610 688v-122q-51 34 -99.5 50.5t-98.5 16.5q-104 0 -175 -59.5t-86 -155.5h267q9 0 18 0.5t18 2.5v-109q-14 14 -32 20t-44 6h-227q6 -119 81 -195t204 -76q70 0 128.5 18.5t106.5 58.5l-68 -134q-43 -13 -82.5 -19t-91.5 -6q-186 0 -289.5 101t-103.5 259
q0 154 104 261.5t293 108.5q56 0 93 -10.5t84 -16.5z" />
    <glyph glyph-name="afii10054" unicode="&#x405;" horiz-adv-x="511" 
d="M449 693v-117q-39 31 -80.5 48t-90.5 17q-69 0 -103 -29t-34 -72q0 -35 28.5 -62.5t147.5 -79.5q122 -55 155.5 -96t33.5 -102q0 -97 -74 -156t-207 -59q-52 0 -98 7t-93 23l-29 132q47 -42 104 -62t122 -20q74 0 118.5 28.5t44.5 78.5q0 39 -26.5 68t-142.5 82
q-124 55 -161.5 99.5t-37.5 106.5q-1 86 66 136.5t196 50.5q43 0 82.5 -5.5t78.5 -16.5z" />
    <glyph glyph-name="afii10055" unicode="&#x406;" horiz-adv-x="280" 
d="M43 700h194q-25 -18 -35.5 -40.5t-10.5 -59.5v-500q-1 -38 10 -60.5t36 -39.5h-194q24 17 34.5 39.5t11.5 60.5v500q-1 37 -11.5 59.5t-34.5 40.5z" />
    <glyph glyph-name="afii10056" unicode="&#x407;" horiz-adv-x="345" 
d="M76 700h194q-25 -18 -36 -40.5t-10 -59.5v-500q-1 -38 10 -60.5t36 -39.5h-194q24 17 34.5 39.5t11.5 60.5v500q-1 37 -11.5 59.5t-34.5 40.5zM0 809q0 28 19.5 48t48.5 20q28 0 48 -20t20 -48q0 -29 -20 -48.5t-48 -19.5q-29 0 -48.5 19.5t-19.5 48.5zM209 809
q0 28 19.5 48t48.5 20q28 -1 48 -20.5t20 -47.5q0 -29 -20 -49t-48 -19q-29 0 -48.5 19.5t-19.5 48.5z" />
    <glyph glyph-name="afii10057" unicode="&#x408;" horiz-adv-x="280" 
d="M39 700h201q-25 -18 -36 -40.5t-10 -59.5v-616q0 -60 -6 -82.5t-18 -41.5q-25 -35 -84.5 -62t-120.5 -33q67 41 97 92.5t30 130.5v612q0 39 -14.5 62.5t-38.5 37.5z" />
    <glyph glyph-name="afii10058" unicode="&#x409;" horiz-adv-x="961" 
d="M558 600v-167q46 3 79.5 5t51.5 2q122 0 189 -55.5t68 -156.5q-1 -105 -73 -166.5t-220 -61.5h-243q24 17 35 39.5t11 60.5v520h-200l-2 -121q-5 -245 -60.5 -379.5t-170.5 -134.5q-10 0 -19 2t-22 7l-12 116q18 -14 31 -19.5t28 -5.5q68 0 104 131.5t36 316.5
q0 72 -17 112t-56 55h509q-26 -18 -37 -39.5t-10 -60.5zM558 357v-274q26 -5 53 -7t51 -2q78 0 123.5 38t45.5 114q-1 65 -45 101.5t-143 36.5q-21 0 -41 -2t-44 -5z" />
    <glyph glyph-name="afii10059" unicode="&#x40a;" horiz-adv-x="1081" 
d="M191 424h385v176q0 39 -11 60.5t-35 39.5h194q-25 -18 -35.5 -39.5t-10.5 -60.5v-167q46 3 79.5 5t51.5 2q122 0 189.5 -55.5t67.5 -156.5q0 -105 -72.5 -166.5t-220.5 -61.5h-243q24 17 35 39.5t11 60.5v244h-385v-244q0 -40 10.5 -61.5t35.5 -38.5h-194q24 17 35 38.5
t11 61.5v500q0 39 -11 60.5t-35 39.5h194q-25 -18 -35.5 -39.5t-10.5 -60.5v-176zM678 357v-274q26 -5 53 -7t51 -2q78 0 123.5 38t45.5 114q-1 65 -45 101.5t-143 36.5q-21 0 -41 -2t-44 -5z" />
    <glyph glyph-name="afii10060" unicode="&#x40b;" horiz-adv-x="738" 
d="M280 620v-201q54 19 107 29.5t101 11.5q104 -1 158.5 -50t54.5 -143v-167q0 -40 13 -62t44 -38h-217q31 16 44.5 38t13.5 62v135q0 76 -38 109.5t-115 33.5q-40 0 -82 -9.5t-84 -26.5v-242q-1 -38 10 -60.5t36 -39.5h-194q24 17 35 39.5t11 60.5v520l-104 1
q-33 0 -58 -11t-46 -31l40 125q13 -3 25.5 -4t38.5 0h387q13 0 29 1t32 3l-35 -117q-11 18 -29 26t-51 8z" />
    <glyph glyph-name="afii10061" unicode="&#x40c;" horiz-adv-x="585" 
d="M43 700h194q-25 -18 -35.5 -40.5t-10.5 -59.5v-500q-1 -38 10 -60.5t36 -39.5h-194q24 17 34.5 39.5t11.5 60.5v500q-1 37 -11.5 59.5t-34.5 40.5zM211 363l156 210q24 32 32 48.5t9 29.5q0 15 -10 28t-26 21h192l-243 -315l115 -152q83 -111 128 -156.5t101 -76.5
l-107 -5q-39 -1 -71.5 18t-97.5 108zM420 917l61 -87l-307 -86l-10 10z" />
    <glyph glyph-name="afii10062" unicode="&#x40e;" horiz-adv-x="589" 
d="M-20 700h162l195 -418l134 304q6 14 10 31t4 34q0 15 -7.5 28t-21.5 21h153l-251 -558q-37 -82 -89 -117t-124 -35q-33 0 -58 5.5t-50 21.5l67 75q12 -10 25.5 -14t29.5 -4q38 0 68 22t49 59l19 39q-22 14 -37 30.5t-32 51.5l-176 350q-14 27 -31.5 45.5t-38.5 28.5z
M165 889h88q-21 -30 2 -55.5t62 -25.5q38 0 61 25.5t3 55.5h88q2 -60 -41 -101.5t-111 -40.5q-69 0 -111.5 41t-40.5 101z" />
    <glyph glyph-name="afii10145" unicode="&#x40f;" horiz-adv-x="727" 
d="M638 600v-500q0 -40 10.5 -61.5t35.5 -38.5h-269v-105q0 -39 10.5 -60.5t35.5 -39.5h-194q24 18 35 39.5t11 60.5v105h-270q24 17 35 38.5t11 61.5v500q0 39 -11 60.5t-35 39.5h194q-25 -18 -35.5 -39.5t-10.5 -60.5v-520h345v520q0 39 -11 60.5t-35 39.5h194
q-25 -18 -36 -39.5t-10 -60.5z" />
    <glyph glyph-name="afii10017" unicode="&#x410;" horiz-adv-x="658" 
d="M218 700h164l241 -597q17 -43 37 -66t48 -37h-215q25 11 33 30t-3 48l-76 188h-269l-63 -157q-17 -41 -9.5 -66t33.5 -43h-189q29 18 49 45.5t42 81.5l200 506q9 24 2.5 41t-25.5 26zM312 609l-108 -276h217z" />
    <glyph glyph-name="afii10018" unicode="&#x411;" horiz-adv-x="594" 
d="M43 700h427q9 0 18 0.5t18 2.5v-118q-17 18 -40.5 26.5t-64.5 8.5h-210v-197q45 3 79 5t52 2q122 0 189.5 -54.5t67.5 -152.5q0 -103 -72.5 -163t-220.5 -60h-243q24 17 34.5 39.5t11.5 60.5v500q-1 37 -11.5 59.5t-34.5 40.5zM191 351v-268q26 -5 52.5 -7t51.5 -2
q78 0 123 38t46 113q-1 61 -45.5 96t-142.5 35q-14 0 -34.5 -1.5t-50.5 -3.5z" />
    <glyph glyph-name="afii10019" unicode="&#x412;" horiz-adv-x="592" 
d="M43 700l269 5q89 1 145 -41.5t56 -115.5q0 -49 -27.5 -86t-78.5 -56q76 -9 124 -60t48 -128q-1 -98 -72.5 -158t-220.5 -60h-243q24 17 34.5 39.5t11.5 60.5v500q-1 37 -11.5 59.5t-34.5 40.5zM191 625v-204l55 -1q66 -2 109 28t44 84q0 48 -35.5 73.5t-93.5 25.5
q-14 -1 -36 -2.5t-43 -3.5zM191 352v-269q26 -5 53 -7t51 -2q82 0 125 35.5t44 101.5q0 63 -47.5 104t-142.5 41q-11 0 -32 -1.5t-51 -2.5z" />
    <glyph glyph-name="afii10020" unicode="&#x413;" horiz-adv-x="458" 
d="M43 700h392q9 0 18 0.5t18 2.5v-124q-18 23 -46.5 32t-96.5 9q-26 0 -60.5 -1.5t-76.5 -2.5v-516q0 -38 12 -61t39 -39h-199q24 17 35 40t11 60v500q-1 36 -11.5 59t-34.5 41z" />
    <glyph glyph-name="afii10021" unicode="&#x414;" horiz-adv-x="662" 
d="M108 700h509q-25 -18 -35.5 -40.5t-10.5 -59.5v-520h96v-240l-60 -23q3 79 -19 131t-72 52h-400q-51 0 -73 -52t-18 -131l-60 23v240h82q64 102 95 220.5t31 257.5q-1 60 -17 92t-48 50zM469 620h-208q0 -169 -27.5 -299.5t-86.5 -240.5h322v540z" />
    <glyph glyph-name="afii10022" unicode="&#x415;" horiz-adv-x="515" 
d="M43 700h388v-115q-18 20 -43 28t-62 8l-135 -3v-200h144q9 0 18 0.5t18 2.5v-109q-14 14 -32 20t-44 6h-104v-251q32 -4 65.5 -5.5t64.5 -1.5q71 -1 120.5 12.5t88.5 48.5l-51 -141h-436q24 17 35 40t11 60v500q-1 36 -11.5 59t-34.5 41z" />
    <glyph glyph-name="afii10024" unicode="&#x416;" horiz-adv-x="890" 
d="M348 700h194q-25 -18 -35.5 -40.5t-10.5 -59.5v-500q0 -38 10.5 -60.5t35.5 -39.5h-194q24 17 35 39.5t11 60.5v500q-1 37 -11.5 59.5t-34.5 40.5zM516 363l156 210q24 32 32.5 48.5t8.5 29.5q0 15 -10 28t-26 21h192l-243 -315l115 -152q12 -17 27 -36t34 -42
q49 -62 85 -95.5t83 -59.5l-107 -5q-39 -1 -71.5 18t-97.5 108zM374 363l-178 -242q-66 -89 -98.5 -108t-70.5 -18l-107 5q47 26 82.5 59.5t85.5 95.5q18 23 33 42t28 36l115 152l-243 315h192q-17 -8 -27 -21t-9 -28q0 -13 8 -29.5t33 -48.5z" />
    <glyph glyph-name="afii10025" unicode="&#x417;" horiz-adv-x="562" 
d="M47 573l15 126q52 2 95.5 9t98.5 7q125 0 186 -45t61 -124q0 -61 -36.5 -100.5t-98.5 -51.5v-3q76 -1 122.5 -50t46.5 -123q0 -110 -82.5 -171.5t-230.5 -61.5q-60 0 -105.5 9t-91.5 33l-27 136q49 -52 102.5 -74t116.5 -22q94 0 148 37t55 105q0 63 -46.5 98.5
t-124.5 35.5q-33 0 -56.5 -4.5t-42.5 -13.5v104q24 -5 38.5 -6.5t34.5 -1.5q84 -1 123 29.5t40 81.5q0 48 -34.5 74.5t-96.5 26.5q-52 0 -106 -15t-104 -45z" />
    <glyph glyph-name="afii10026" unicode="&#x418;" horiz-adv-x="767" 
d="M191 131l356 530q10 15 17.5 23t17.5 16h142q-25 -18 -35.5 -39.5t-10.5 -60.5v-500q0 -40 10.5 -61.5t35.5 -38.5h-194q24 17 35 38.5t11 61.5v469l-356 -530q-11 -16 -18.5 -24t-16.5 -15h-142q24 17 35 38.5t11 61.5v500q0 39 -11 60.5t-35 39.5h194
q-25 -18 -35.5 -39.5t-10.5 -60.5v-469z" />
    <glyph glyph-name="afii10027" unicode="&#x419;" horiz-adv-x="767" 
d="M191 131l356 530q10 15 17.5 23t17.5 16h142q-25 -18 -35.5 -39.5t-10.5 -60.5v-500q0 -40 10.5 -61.5t35.5 -38.5h-194q24 17 35 38.5t11 61.5v469l-356 -530q-11 -16 -18.5 -24t-16.5 -15h-142q24 17 35 38.5t11 61.5v500q0 39 -11 60.5t-35 39.5h194
q-25 -18 -35.5 -39.5t-10.5 -60.5v-469zM234 889h88q-21 -31 2 -56t60 -25q36 0 59 25t3 56h88q2 -60 -41 -101.5t-109 -40.5q-67 0 -110 41t-40 101z" />
    <glyph glyph-name="afii10028" unicode="&#x41a;" horiz-adv-x="585" 
d="M43 700h194q-25 -18 -35.5 -40.5t-10.5 -59.5v-500q-1 -38 10 -60.5t36 -39.5h-194q24 17 34.5 39.5t11.5 60.5v500q-1 37 -11.5 59.5t-34.5 40.5zM211 363l156 210q24 32 32 48.5t9 29.5q0 15 -10 28t-26 21h192l-243 -315l115 -152q83 -111 128 -156.5t101 -76.5
l-107 -5q-39 -1 -71.5 18t-97.5 108z" />
    <glyph glyph-name="afii10029" unicode="&#x41b;" horiz-adv-x="652" 
d="M562 600v-500q-1 -38 10 -60.5t36 -39.5h-194q24 17 35 39.5t11 60.5v520h-204l-2 -121q-5 -245 -60.5 -379.5t-170.5 -134.5q-10 0 -19 2t-22 7l-12 116q18 -14 31 -19.5t28 -5.5q68 0 104 131.5t36 316.5q0 72 -17 112t-56 55h513q-26 -18 -37 -39.5t-10 -60.5z" />
    <glyph glyph-name="afii10030" unicode="&#x41c;" horiz-adv-x="920" 
d="M84 700h178l202 -523l188 453q6 14 11.5 32.5t9.5 37.5h173q-23 -14 -30 -39.5t-2 -61.5l65 -510q4 -36 16 -55.5t33 -33.5h-194q23 15 33 38.5t3 86.5l-53 470l-247 -605l-28 24q-16 13 -28.5 33t-24.5 51l-196 495l-67 -476q-9 -58 2 -81t38 -36h-174q23 21 35.5 49
t18.5 65l70 482q7 54 -1.5 72t-30.5 32z" />
    <glyph glyph-name="afii10031" unicode="&#x41d;" horiz-adv-x="767" 
d="M191 424h385v176q0 39 -11 60.5t-35 39.5h194q-25 -18 -35.5 -39.5t-10.5 -60.5v-500q0 -40 10.5 -61.5t35.5 -38.5h-194q24 17 35 38.5t11 61.5v244h-385v-244q0 -40 10.5 -61.5t35.5 -38.5h-194q24 17 35 38.5t11 61.5v500q0 39 -11 60.5t-35 39.5h194
q-25 -18 -35.5 -39.5t-10.5 -60.5v-176z" />
    <glyph glyph-name="afii10032" unicode="&#x41e;" horiz-adv-x="840" 
d="M420 715q165 0 274.5 -101t109.5 -264q0 -150 -102.5 -257.5t-281.5 -107.5q-166 0 -275 100.5t-109 264.5q0 149 102 257t282 108zM422 633q-121 -1 -196 -76t-75 -191q-1 -131 74 -215t193 -84q120 0 195.5 75t75.5 192q0 130 -75 214.5t-192 84.5z" />
    <glyph glyph-name="afii10033" unicode="&#x41f;" horiz-adv-x="727" 
d="M89 100v500q0 39 -11 60.5t-35 39.5h641q-25 -18 -36 -39.5t-10 -60.5v-500q0 -40 10.5 -61.5t35.5 -38.5h-194q24 17 35 38.5t11 61.5v520h-345v-520q0 -40 10.5 -61.5t35.5 -38.5h-194q24 17 35 38.5t11 61.5z" />
    <glyph glyph-name="afii10034" unicode="&#x420;" horiz-adv-x="560" 
d="M253 0h-210q24 17 35 38.5t11 61.5v500q-1 37 -11.5 59.5t-34.5 40.5h248q129 -1 189 -50t60 -135t-62 -143.5t-164 -56.5q-19 0 -41 3t-44 10q85 3 140 46t56 121q-1 61 -40.5 96t-109.5 35q-21 -1 -42.5 -3.5t-41.5 -6.5v-500q-1 -45 14.5 -73.5t47.5 -42.5z" />
    <glyph glyph-name="afii10035" unicode="&#x421;" horiz-adv-x="667" 
d="M611 688v-122q-41 28 -92 46t-106 18q-106 0 -184 -68.5t-78 -189.5q0 -138 79 -220t207 -82q74 0 132.5 18t102.5 56l-68 -134q-44 -13 -84.5 -18.5t-90.5 -6.5q-186 0 -290 100.5t-103 259.5q0 153 103.5 261t285.5 109q29 0 56 -3t74 -13q20 -5 31.5 -7.5t24.5 -3.5z
" />
    <glyph glyph-name="afii10036" unicode="&#x422;" horiz-adv-x="492" 
d="M295 620v-520q0 -38 10.5 -60.5t35.5 -39.5h-194q24 17 34.5 39.5t11.5 60.5v520l-119 1q-33 0 -58 -11t-46 -31l40 125q13 -3 25.5 -4t38.5 0h387q13 0 29 1t32 3l-35 -117q-11 18 -29 26t-51 8z" />
    <glyph glyph-name="afii10037" unicode="&#x423;" horiz-adv-x="589" 
d="M-20 700h162l195 -418l134 304q6 14 10 31t4 34q0 15 -7.5 28t-21.5 21h153l-251 -558q-37 -82 -89 -117t-124 -35q-33 0 -58 5.5t-50 21.5l67 75q12 -10 25.5 -14t29.5 -4q38 0 68 22t49 59l19 39q-22 14 -37 30.5t-32 51.5l-176 350q-14 27 -31.5 45.5t-38.5 28.5z" />
    <glyph glyph-name="afii10038" unicode="&#x424;" horiz-adv-x="844" 
d="M326 750h193q-23 -16 -35.5 -39.5t-10.5 -51.5q133 14 234 -59t101 -213q0 -134 -97.5 -214.5t-237.5 -68.5v-10q-1 -35 11 -57t35 -37h-193q23 16 33.5 36.5t11.5 57.5v10q-134 -15 -234.5 58t-100.5 214q0 133 97 213.5t238 69.5q2 27 -10 50.5t-35 40.5zM371 178v407
q-99 6 -159.5 -50.5t-60.5 -146.5q0 -97 60.5 -156.5t159.5 -53.5zM473 585v-407q98 -7 159 49.5t61 147.5q0 96 -61 155.5t-159 54.5z" />
    <glyph glyph-name="afii10039" unicode="&#x425;" horiz-adv-x="646" 
d="M261 374l-175 253q-21 30 -39.5 46.5t-39.5 26.5l85 3q61 2 70.5 -4t38.5 -47l136 -197l116 155q9 13 15 25.5t6 22.5q0 14 -10.5 25t-28.5 17h192l-245 -311l206 -299q22 -33 46 -55t52 -35h-166q-12 11 -21 22t-25 37l-164 248l-153 -202q-15 -20 -21 -33t-6 -22
q0 -17 11 -30.5t30 -19.5h-211q19 19 35.5 38t37.5 46z" />
    <glyph glyph-name="afii10040" unicode="&#x426;" horiz-adv-x="754" 
d="M43 700h194q-25 -18 -35.5 -39.5t-10.5 -60.5v-520h370v520q0 39 -11 60.5t-35 39.5h194q-25 -18 -36 -39.5t-10 -60.5v-520h96v-240l-60 -23q3 79 -19 131t-72 52h-565q24 17 35 38.5t11 61.5v500q0 39 -11 60.5t-35 39.5z" />
    <glyph glyph-name="afii10041" unicode="&#x427;" horiz-adv-x="699" 
d="M77 480v120q-1 39 -14 61t-43 39h217q-32 -17 -45.5 -39t-12.5 -61v-88q-1 -77 39.5 -110t123.5 -33q39 0 81 9t85 27v195q-1 37 -11.5 59.5t-34.5 40.5h194q-25 -18 -35.5 -40.5t-10.5 -59.5v-500q-1 -38 10 -60.5t36 -39.5h-194q24 17 35 39.5t11 60.5v228
q-56 -21 -108.5 -31.5t-99.5 -9.5q-114 0 -168.5 51t-54.5 142z" />
    <glyph glyph-name="afii10042" unicode="&#x428;" horiz-adv-x="1014" 
d="M43 700h194q-25 -18 -35.5 -39.5t-10.5 -60.5v-520h265v520q0 39 -11 60.5t-35 39.5h194q-25 -18 -35.5 -39.5t-10.5 -60.5v-520h265v520q0 39 -11 60.5t-35 39.5h194q-25 -18 -36 -39.5t-10 -60.5v-500q0 -40 10.5 -61.5t35.5 -38.5h-928q24 17 35 38.5t11 61.5v500
q0 39 -11 60.5t-35 39.5z" />
    <glyph glyph-name="afii10043" unicode="&#x429;" horiz-adv-x="1016" 
d="M43 700h194q-25 -18 -35.5 -39.5t-10.5 -60.5v-520h265v520q0 39 -11 60.5t-35 39.5h194q-25 -18 -35.5 -39.5t-10.5 -60.5v-520h265v520q0 39 -11 60.5t-35 39.5h194q-25 -18 -36 -39.5t-10 -60.5v-520h96v-240l-60 -23q3 79 -19 131t-72 52h-827q24 17 35 38.5t11 61.5
v500q0 39 -11 60.5t-35 39.5z" />
    <glyph glyph-name="afii10044" unicode="&#x42a;" horiz-adv-x="696" 
d="M191 620h-117q-33 0 -58.5 -10.5t-45.5 -30.5l40 125q13 -3 25.5 -4t38.5 0h265q-25 -18 -35.5 -40.5t-10.5 -59.5v-167q46 3 79.5 5t51.5 2q122 0 189 -55.5t68 -156.5q0 -105 -72.5 -166.5t-220.5 -61.5h-243q24 17 35 39.5t11 60.5v520zM293 358v-273q26 -5 53 -7
t51 -2q86 0 127.5 41.5t41.5 111.5q0 63 -44.5 99t-143.5 36q-18 0 -40.5 -2t-44.5 -4z" />
    <glyph glyph-name="afii10045" unicode="&#x42b;" horiz-adv-x="867" 
d="M43 700h194q-25 -18 -35.5 -40.5t-10.5 -59.5v-168q35 3 71 5.5t60 2.5q122 0 189.5 -55.5t67.5 -156.5q0 -105 -72.5 -166.5t-220.5 -61.5h-243q24 17 34.5 39.5t11.5 60.5v500q-1 37 -11.5 59.5t-34.5 40.5zM191 358v-273q26 -5 53 -7t51 -2q86 -1 127 41t42 112
q0 63 -44.5 99t-143.5 36q-18 0 -40.5 -2t-44.5 -4zM630 700h194q-25 -18 -35.5 -40.5t-10.5 -59.5v-500q-1 -38 10 -60.5t36 -39.5h-194q24 17 34.5 39.5t11.5 60.5v500q-1 37 -11.5 59.5t-34.5 40.5z" />
    <glyph glyph-name="afii10046" unicode="&#x42c;" horiz-adv-x="594" 
d="M43 700h194q-25 -18 -35.5 -40.5t-10.5 -59.5v-168q35 3 71 5.5t60 2.5q122 0 189.5 -55.5t67.5 -156.5q0 -105 -72.5 -166.5t-220.5 -61.5h-243q24 17 34.5 39.5t11.5 60.5v500q-1 37 -11.5 59.5t-34.5 40.5zM191 358v-273q26 -5 53 -7t51 -2q86 -1 127 41t42 112
q0 63 -44.5 99t-143.5 36q-18 0 -40.5 -2t-44.5 -4z" />
    <glyph glyph-name="afii10047" unicode="&#x42d;" horiz-adv-x="644" 
d="M37 573l15 126q44 2 94.5 9t98.5 7q170 0 266.5 -92t96.5 -248q0 -172 -108 -281t-282 -109q-62 0 -109.5 10t-91.5 32l-12 136q47 -51 100 -73.5t114 -22.5q116 0 192.5 72.5t81.5 188.5h-240q-27 0 -45.5 -7t-30.5 -19v109q8 -2 17 -2.5t19 -0.5h277q-9 105 -76 165
t-167 60q-51 0 -105.5 -15t-104.5 -45z" />
    <glyph glyph-name="afii10048" unicode="&#x42e;" horiz-adv-x="1069" 
d="M191 424h122q22 135 121 213t235 78q156 0 260 -101t104 -264q0 -150 -97.5 -257.5t-266.5 -107.5q-158 0 -261 99.5t-103 259.5h-114v-244q0 -40 10.5 -61.5t35.5 -38.5h-194q24 17 35 38.5t11 61.5v500q0 39 -11 60.5t-35 39.5h194q-25 -18 -35.5 -39.5t-10.5 -60.5
v-176zM671 633q-114 -1 -183 -76t-68 -191q-1 -131 68.5 -215t178.5 -84q110 0 180.5 75.5t70.5 191.5q0 130 -69.5 214.5t-177.5 84.5z" />
    <glyph glyph-name="afii10049" unicode="&#x42f;" horiz-adv-x="588" 
d="M397 100v524q-16 3 -32 4.5t-35 1.5q-69 0 -105.5 -33.5t-36.5 -93.5q0 -62 52.5 -99t127.5 -31q-100 -181 -189 -280t-150 -99q-13 0 -36 1.5t-73 4.5q66 29 150 116.5t173 219.5q-81 14 -126 61.5t-44 109.5q0 95 63.5 146t189.5 51q4 0 9 -0.5t78 -1.5
q21 -1 44.5 -1.5t87.5 -0.5q-25 -18 -35.5 -40.5t-10.5 -59.5v-500q-1 -38 10 -60.5t36 -39.5h-194q24 17 34.5 39.5t11.5 60.5z" />
    <glyph glyph-name="afii10065" unicode="&#x430;" horiz-adv-x="490" 
d="M85 392l63 104q24 4 47 6.5t44 2.5q90 0 135.5 -42t46.5 -130v-195q-1 -37 16 -53.5t56 -17.5q4 -1 9 -1t10 1l-48 -67h-6.5h-8.5q-67 0 -95 30t-28 82v157q-14 -9 -28 -15t-78 -21q-56 -14 -78.5 -34.5t-22.5 -53.5q-1 -38 25.5 -61t75.5 -23q20 0 42 3t45 10l-64 -80
q-16 -4 -32 -6.5t-32 -2.5q-73 0 -117.5 43.5t-44.5 114.5q0 52 31 86t139 59q98 22 116.5 37.5t18.5 40.5q0 29 -24 46t-68 17q-37 0 -75 -9.5t-70 -27.5z" />
    <glyph glyph-name="afii10066" unicode="&#x431;" horiz-adv-x="602" 
d="M529 718l-51 -107q-58 -8 -123 -8t-104 -12q-66 -20 -100.5 -79.5t-38.5 -148.5q28 62 85 94t129 32q107 -1 178 -67t71 -178q0 -117 -76.5 -188t-194.5 -71q-127 0 -197.5 81t-70.5 226q0 121 34.5 211.5t95.5 138.5q41 33 93.5 45t151.5 13h62q23 0 35 4t21 14z
M311 413q-79 0 -125.5 -49t-45.5 -123q0 -82 46 -131t124 -49q69 0 115 44t46 123q0 84 -43.5 134t-116.5 51z" />
    <glyph glyph-name="afii10067" unicode="&#x432;" horiz-adv-x="471" 
d="M30 485l248 3q65 0 105 -31.5t40 -81.5q0 -40 -28.5 -68t-75.5 -33v-3q59 0 99 -35t40 -90q-1 -66 -53 -106t-160 -40h-215q18 12 26.5 28.5t8.5 41.5v345q0 24 -8.5 40.5t-26.5 29.5zM160 423v-131l51 -1q50 -1 79 18.5t29 54.5q0 30 -21.5 47t-64.5 17q-19 0 -37 -1.5
t-36 -3.5zM160 233v-166q23 -4 44.5 -5.5t40.5 -1.5q53 0 81 22.5t28 63.5q-1 41 -31 66t-93 25q-11 0 -28 -1t-42 -3z" />
    <glyph glyph-name="afii10068" unicode="&#x433;" horiz-adv-x="358" 
d="M160 415v-345q0 -25 8 -41.5t27 -28.5h-165q18 12 26.5 28.5t8.5 41.5v345q0 24 -8.5 40.5t-26.5 29.5h296q8 -1 19.5 0t22.5 3v-96q-9 12 -21 17.5t-35 5.5h-152z" />
    <glyph glyph-name="afii10069" unicode="&#x434;" horiz-adv-x="530" 
d="M89 485h398q-19 -13 -27 -29.5t-8 -40.5v-345h78v-205l-50 -28q2 87 -20 125t-76 38h-257q-52 0 -72.5 -42t-17.5 -121l-50 28v205h60q44 64 66.5 138.5t22.5 171.5q0 43 -11.5 67.5t-35.5 37.5zM357 415h-145q1 -13 1 -26.5t1 -32.5q0 -69 -21.5 -146.5t-59.5 -139.5
h224v345z" />
    <glyph glyph-name="afii10070" unicode="&#x435;" horiz-adv-x="558" 
d="M534 257h-403q-4 -85 50 -140.5t162 -55.5q56 -1 104 11.5t94 38.5l-66 -104q-39 -12 -75 -17t-78 -5q-135 0 -215 69t-80 194q-1 112 71.5 184.5t194.5 72.5q115 0 179.5 -70.5t61.5 -177.5zM141 322h279q-5 49 -41 78t-91 29q-57 -1 -97 -30t-50 -77z" />
    <glyph glyph-name="afii10072" unicode="&#x436;" horiz-adv-x="780" 
d="M458 256l110 126q22 25 31.5 41.5t10.5 28.5q0 8 -5.5 16t-17.5 17h163l-191 -213l15 -15t23 -25l133 -159q21 -27 39.5 -43t40.5 -30l-39 -1q-83 -2 -99 3t-38 34zM308 485h165q-19 -13 -27 -29.5t-8 -40.5v-345q0 -25 8 -41.5t27 -28.5h-165q18 12 26.5 28.5t8.5 41.5
v345q0 24 -8.5 40.5t-26.5 29.5zM322 256l-176 -220q-23 -29 -39 -34t-98 -3l-39 1q22 14 40 30t40 43l133 159q15 18 22 25t16 15l-191 213h163q-13 -9 -18 -17t-5 -16q0 -12 9.5 -28.5t32.5 -41.5z" />
    <glyph glyph-name="afii10073" unicode="&#x437;" horiz-adv-x="438" 
d="M47 381l18 111q41 2 71 7.5t76 5.5q92 -1 137.5 -32t45.5 -88q0 -42 -31 -73t-80 -36v-3q57 -1 96.5 -34.5t39.5 -92.5q-1 -76 -68 -118t-176 -43q-67 0 -107.5 18t-57.5 74l-16 50q34 -33 78.5 -49.5t100.5 -16.5q72 -1 107 24.5t35 67.5q0 37 -28 55.5t-75 18.5
q-23 0 -41 -4.5t-36 -14.5v92q9 -2 19 -2.5t22 -0.5q54 -1 83.5 16.5t30.5 52.5q0 31 -22 50t-66 19q-40 -1 -76 -13t-80 -41z" />
    <glyph glyph-name="afii10074" unicode="&#x438;" horiz-adv-x="570" 
d="M158 111l232 347q7 11 12.5 16.5t12.5 10.5h125q-19 -13 -27 -29.5t-8 -40.5v-345q0 -25 8 -41.5t27 -28.5h-165q18 12 26 28.5t9 41.5v304l-232 -347q-8 -12 -13.5 -17.5t-11.5 -9.5h-125q18 12 26 28.5t9 41.5v345q0 24 -8.5 40.5t-26.5 29.5h165q-19 -13 -27.5 -29.5
t-7.5 -40.5v-304z" />
    <glyph glyph-name="afii10075" unicode="&#x439;" horiz-adv-x="570" 
d="M158 111l232 347q7 11 12.5 16.5t12.5 10.5h125q-19 -13 -27 -29.5t-8 -40.5v-345q0 -25 8 -41.5t27 -28.5h-165q18 12 26 28.5t9 41.5v304l-232 -347q-8 -12 -13.5 -17.5t-11.5 -9.5h-125q18 12 26 28.5t9 41.5v345q0 24 -8.5 40.5t-26.5 29.5h165q-19 -13 -27.5 -29.5
t-7.5 -40.5v-304zM132 700h88q-21 -32 2 -57.5t62 -25.5q38 0 61 25.5t3 57.5h88q2 -58 -41 -99t-111 -41q-69 0 -112 41t-40 99z" />
    <glyph glyph-name="afii10076" unicode="&#x43a;" horiz-adv-x="502" 
d="M30 485h165q-19 -13 -27 -29.5t-8 -40.5v-345q0 -25 8 -41.5t27 -28.5h-165q18 12 26.5 28.5t8.5 41.5v345q0 24 -8.5 40.5t-26.5 29.5zM180 256l110 126q22 25 32 41.5t10 28.5q-1 8 -6 16t-17 17h163l-191 -213l15 -15t23 -25l133 -159q21 -27 39.5 -43t40.5 -30
l-39 -1q-83 -2 -99 3t-38 34z" />
    <glyph glyph-name="afii10077" unicode="&#x43b;" horiz-adv-x="512" 
d="M447 415v-345q0 -25 8 -41.5t27 -28.5h-165q18 12 26.5 28.5t8.5 41.5v345h-158v-61q0 -194 -40.5 -281.5t-121.5 -87.5q-10 0 -21 2.5t-22 6.5l-11 98q14 -11 28.5 -17t27.5 -6q43 -1 63.5 75t20.5 227q0 48 -11.5 74t-36.5 40h412q-19 -13 -27.5 -29.5t-7.5 -40.5z" />
    <glyph glyph-name="afii10078" unicode="&#x43c;" horiz-adv-x="678" 
d="M37 485h164l144 -332l121 284q5 11 8.5 23.5t6.5 24.5h168q-19 -13 -28 -31t-7 -39l22 -345q1 -26 9 -42t27 -28h-167q17 12 26 28.5t8 41.5l-18 334l-181 -419l-19 17q-11 9 -18 19t-19 39l-147 344l-25 -334q-2 -24 7 -41t27 -29h-140q14 9 25 29t13 41l28 345
q1 21 -8 39t-27 31z" />
    <glyph glyph-name="afii10079" unicode="&#x43d;" horiz-adv-x="562" 
d="M160 303h242v112q0 24 -8.5 40.5t-26.5 29.5h165q-19 -13 -27.5 -29.5t-7.5 -40.5v-345q0 -25 8 -41.5t27 -28.5h-165q18 12 26.5 28.5t8.5 41.5v163h-242v-163q0 -25 8 -41.5t27 -28.5h-165q18 12 26.5 28.5t8.5 41.5v345q0 24 -8.5 40.5t-26.5 29.5h165
q-19 -13 -27 -29.5t-8 -40.5v-112z" />
    <glyph glyph-name="afii10080" unicode="&#x43e;" horiz-adv-x="610" 
d="M309 505q124 -1 199 -78t75 -182q0 -113 -81.5 -186t-201.5 -74q-124 0 -199 77t-74 183q0 112 81 186t201 74zM303 429q-78 0 -125 -50.5t-47 -133.5q0 -76 46 -130t130 -54q77 -1 124.5 49.5t47.5 134.5q-1 75 -47 129.5t-129 54.5z" />
    <glyph glyph-name="afii10081" unicode="&#x43f;" horiz-adv-x="542" 
d="M30 485h482q-19 -13 -27 -29.5t-8 -40.5v-345q0 -25 8 -41.5t27 -28.5h-165q18 12 26.5 28.5t8.5 41.5v345h-222v-345q0 -25 8 -41.5t27 -28.5h-165q18 12 26.5 28.5t8.5 41.5v345q0 24 -8.5 40.5t-26.5 29.5z" />
    <glyph glyph-name="afii10082" unicode="&#x440;" horiz-adv-x="612" 
d="M198 -221h-170q18 13 26 29.5t9 40.5v566q0 24 -8.5 40.5t-26.5 29.5h73q17 -1 29 3t24 13v-79q33 42 78.5 62.5t100.5 20.5q110 0 181 -64.5t71 -178.5q0 -118 -67.5 -197.5t-191.5 -79.5q-21 0 -41 3t-40 8l-61 89q28 -13 55.5 -18.5t64.5 -5.5q86 0 131 50.5t46 140.5
q0 76 -45 124t-124 48q-75 0 -115 -39t-39 -103v-433q0 -24 9.5 -40.5t30.5 -29.5z" />
    <glyph glyph-name="afii10083" unicode="&#x441;" horiz-adv-x="508" 
d="M446 491v-110q-28 22 -61.5 34.5t-71.5 13.5q-83 0 -132.5 -49t-49.5 -125q0 -88 57 -141t160 -53q51 0 91.5 11t73.5 35q-44 -83 -75 -102t-114 -20q-85 0 -138.5 20t-91.5 61q-34 34 -50.5 79t-16.5 96q-1 55 19.5 102.5t55.5 82.5q41 41 94.5 60t131.5 19q37 -1 59 -6
t59 -8z" />
    <glyph glyph-name="afii10084" unicode="&#x442;" horiz-adv-x="397" 
d="M243 415v-345q0 -25 8 -41.5t27 -28.5h-165q18 12 26.5 28.5t8.5 41.5v345h-77q-32 -1 -53 -9.5t-38 -28.5l32 116q8 -4 16 -6t30 -2h311q15 0 26 1.5t22 6.5l-24 -111q-9 16 -24 24t-42 9h-84z" />
    <glyph glyph-name="afii10085" unicode="&#x443;" horiz-adv-x="472" 
d="M-57 485l87 3q42 1 48 0t12 -4l164 -370l107 260q7 18 11 33t4 30q-1 15 -8 28t-20 20h156l-237 -541q-36 -81 -88 -117t-123 -36q-37 0 -70.5 7.5t-65.5 19.5l93 68q13 -10 28 -14.5t32 -4.5q37 1 63 21t48 68l26 59q-19 17 -32 34.5t-21 37.5l-147 326
q-12 27 -28.5 45.5t-38.5 26.5z" />
    <glyph glyph-name="afii10086" unicode="&#x444;" horiz-adv-x="765" 
d="M300 700h77q17 -1 29 3t24 13v-215q127 20 217.5 -46t90.5 -195q0 -142 -89 -216.5t-219 -54.5v-140q0 -24 8 -40.5t27 -29.5h-165q18 13 26 29.5t9 40.5v140q-14 -2 -24 -3t-19 -1q-117 1 -191 66t-74 179q-1 125 72.5 199.5t192.5 75.5q9 0 19 -1t24 -3v129
q0 24 -8.5 40.5t-26.5 29.5zM335 61v368q-12 3 -25.5 4.5t-25.5 1.5q-72 0 -112.5 -52.5t-40.5 -135.5q0 -86 48.5 -139t128.5 -53q4 0 9.5 1t17.5 5zM430 429v-368q11 -4 24.5 -5.5t26.5 -0.5q71 0 112 52t41 136q0 100 -63.5 155.5t-140.5 30.5z" />
    <glyph glyph-name="afii10087" unicode="&#x445;" horiz-adv-x="507" 
d="M1 485l60 2q60 2 71.5 -1.5t29.5 -26.5l104 -138l81 94q8 10 12.5 19t4.5 17q0 10 -7 18.5t-19 15.5h172l-199 -223l149 -194q19 -25 37.5 -41.5t39.5 -26.5l-120 -2q-15 0 -24.5 5t-17.5 17l-128 175l-106 -120q-12 -14 -18 -24.5t-5 -18.5q0 -9 6 -18.5t16 -13.5h-170
l231 256l-114 149q-22 27 -43.5 47t-42.5 33z" />
    <glyph glyph-name="afii10088" unicode="&#x446;" horiz-adv-x="575" 
d="M30 485h165q-19 -13 -27 -29.5t-8 -40.5v-345h242v345q0 24 -8.5 40.5t-26.5 29.5h165q-19 -13 -27.5 -29.5t-7.5 -40.5v-345h78v-205l-50 -28q2 79 -19 121t-74 42h-402q18 12 26.5 28.5t8.5 41.5v345q0 24 -8.5 40.5t-26.5 29.5z" />
    <glyph glyph-name="afii10089" unicode="&#x447;" horiz-adv-x="516" 
d="M15 485h165q-19 -13 -27.5 -29.5t-7.5 -40.5v-61q-1 -53 23 -76t71 -23q32 -1 62 7.5t55 24.5v128q0 24 -8.5 40.5t-26.5 29.5h165q-19 -13 -27.5 -29.5t-7.5 -40.5v-345q0 -25 8 -41.5t27 -28.5h-170q20 12 30 28.5t10 41.5v157q-36 -25 -74 -37t-77 -11
q-80 0 -118 43.5t-37 113.5v79q0 24 -8.5 40.5t-26.5 29.5z" />
    <glyph glyph-name="afii10090" unicode="&#x448;" horiz-adv-x="779" 
d="M30 485h165q-19 -13 -27 -29.5t-8 -40.5v-345h182v345q0 24 -8.5 40.5t-26.5 29.5h165q-19 -13 -27.5 -29.5t-7.5 -40.5v-345h182v345q0 24 -8.5 40.5t-26.5 29.5h165q-19 -13 -27.5 -29.5t-7.5 -40.5v-345q0 -25 8 -41.5t27 -28.5h-719q18 12 26.5 28.5t8.5 41.5v345
q0 24 -8.5 40.5t-26.5 29.5z" />
    <glyph glyph-name="afii10091" unicode="&#x449;" horiz-adv-x="792" 
d="M30 485h165q-19 -13 -27 -29.5t-8 -40.5v-345h182v345q0 24 -8.5 40.5t-26.5 29.5h165q-19 -13 -27.5 -29.5t-7.5 -40.5v-345h182v345q0 24 -8.5 40.5t-26.5 29.5h165q-19 -13 -27.5 -29.5t-7.5 -40.5v-345h78v-205l-50 -28q2 84 -20 123.5t-78 39.5h-614
q18 12 26.5 28.5t8.5 41.5v345q0 24 -8.5 40.5t-26.5 29.5z" />
    <glyph glyph-name="afii10092" unicode="&#x44a;" horiz-adv-x="538" 
d="M140 415h-88q-24 0 -41 -7.5t-31 -20.5l27 101q11 -2 21.5 -2.5t23.5 -0.5h218q-19 -13 -27 -29.5t-8 -40.5v-338q16 -4 32 -5.5t33 -1.5q58 0 88.5 27t30.5 74q0 40 -31.5 65.5t-90.5 25.5q-14 -1 -27 -2.5t-26 -3.5l44 69q14 3 28 5t28 2q80 0 129.5 -40t49.5 -111
q0 -81 -55.5 -131t-167.5 -50h-195q18 12 26 28.5t9 41.5v345z" />
    <glyph glyph-name="afii10093" unicode="&#x44b;" horiz-adv-x="686" 
d="M30 485h165q-19 -13 -27 -29.5t-8 -40.5v-338q16 -4 32 -5.5t33 -1.5q58 0 88.5 27t30.5 74q0 40 -31.5 65.5t-90.5 25.5q-14 -1 -27 -2.5t-26 -3.5l44 69q14 3 28 5t28 2q80 0 129.5 -40t49.5 -111q0 -81 -55.5 -131t-167.5 -50h-195q18 12 26.5 28.5t8.5 41.5v345
q0 24 -8.5 40.5t-26.5 29.5zM491 485h165q-19 -13 -27.5 -29.5t-7.5 -40.5v-345q0 -25 8 -41.5t27 -28.5h-165q18 12 26.5 28.5t8.5 41.5v345q0 24 -8.5 40.5t-26.5 29.5z" />
    <glyph glyph-name="afii10094" unicode="&#x44c;" horiz-adv-x="463" 
d="M30 485h165q-19 -13 -27 -29.5t-8 -40.5v-338q16 -4 32 -5.5t33 -1.5q58 0 88.5 27t30.5 74q0 40 -31.5 65.5t-90.5 25.5q-14 -1 -27 -2.5t-26 -3.5l44 69q14 3 28 5t28 2q80 0 129.5 -40t49.5 -111q0 -81 -55.5 -131t-167.5 -50h-195q18 12 26.5 28.5t8.5 41.5v345
q0 24 -8.5 40.5t-26.5 29.5z" />
    <glyph glyph-name="afii10095" unicode="&#x44d;" horiz-adv-x="494" 
d="M193 297h166q-7 63 -53.5 100t-111.5 38q-40 0 -79 -14t-73 -40l18 111q33 1 68 7t79 6q117 0 188.5 -66.5t71.5 -173.5q0 -113 -79 -196.5t-217 -83.5q-67 0 -107.5 18t-57.5 74l-16 50q33 -32 77 -49t101 -17q77 -1 133.5 44t61.5 122h-130q-27 0 -45 -6t-31 -20v99
q8 -2 17 -2.5t19 -0.5z" />
    <glyph glyph-name="afii10096" unicode="&#x44e;" horiz-adv-x="808" 
d="M160 303h92q21 94 95.5 147.5t172.5 54.5q113 0 187 -75t74 -185q-1 -113 -78.5 -186t-197.5 -74q-107 1 -182 69.5t-78 178.5h-85v-163q0 -25 8 -41.5t27 -28.5h-165q18 12 26.5 28.5t8.5 41.5v345q0 24 -8.5 40.5t-26.5 29.5h165q-19 -13 -27 -29.5t-8 -40.5v-112z
M511 429q-73 0 -117.5 -51t-44.5 -133q-1 -86 46 -135.5t120 -48.5q72 0 117 50.5t45 133.5q0 85 -47 134.5t-119 49.5z" />
    <glyph glyph-name="afii10097" unicode="&#x44f;" horiz-adv-x="470" 
d="M310 70v342q-20 2 -38 3.5t-28 1.5q-49 0 -73.5 -21t-24.5 -58q0 -49 34 -76.5t93 -24.5q-80 -134 -130.5 -187.5t-101.5 -53.5q-13 0 -34 1t-67 3q54 24 104.5 74.5t115.5 138.5q-54 9 -86 44t-32 84q0 73 50.5 109.5t148.5 36.5q4 0 9 -0.5t51 -0.5q25 -1 54.5 -1h84.5
q-19 -13 -27.5 -29.5t-7.5 -40.5v-345q0 -25 8 -41.5t27 -28.5h-165q18 12 26 28.5t9 41.5z" />
    <glyph glyph-name="afii10071" unicode="&#x451;" horiz-adv-x="558" 
d="M534 257h-403q-4 -85 50 -140.5t162 -55.5q56 -1 104 11.5t94 38.5l-66 -104q-39 -12 -75 -17t-78 -5q-135 0 -215 69t-80 194q-1 112 71.5 184.5t194.5 72.5q115 0 179.5 -70.5t61.5 -177.5zM141 322h279q-5 49 -41 78t-91 29q-57 -1 -97 -30t-50 -77zM125 619
q0 25 19 44.5t45 19.5q25 0 44.5 -19.5t19.5 -44.5q0 -26 -19.5 -45.5t-44.5 -18.5q-26 0 -45 19t-19 45zM315 619q0 25 19 44.5t45 19.5q25 0 44.5 -19.5t19.5 -44.5q0 -26 -19.5 -45t-44.5 -19q-26 0 -45 19t-19 45z" />
    <glyph glyph-name="afii10099" unicode="&#x452;" horiz-adv-x="557" 
d="M33 700h77q17 -1 29 3t24 13v-99h224v-60h-224v-123q18 32 63.5 51t92.5 20q98 0 145.5 -80.5t47.5 -238.5q0 -224 -55 -306t-175 -89q68 49 97 134t29 256q0 134 -29 190.5t-92 57.5q-58 0 -91.5 -29t-32.5 -86v-244q0 -25 8 -41.5t27 -28.5h-165q18 12 26.5 28.5
t8.5 41.5v487h-63v60h63v13q0 24 -8.5 40.5t-26.5 29.5z" />
    <glyph glyph-name="afii10100" unicode="&#x453;" horiz-adv-x="357" 
d="M160 415v-345q0 -25 8 -41.5t27 -28.5h-165q18 12 26.5 28.5t8.5 41.5v345q0 24 -8.5 40.5t-26.5 29.5h296q8 -1 19.5 0t22.5 3v-96q-9 12 -21 17.5t-35 5.5h-152zM330 710l54 -77l-298 -83l-3 3z" />
    <glyph glyph-name="afii10101" unicode="&#x454;" horiz-adv-x="491" 
d="M444 491v-110q-31 24 -64.5 36t-68.5 12q-69 0 -119 -36.5t-61 -95.5h169q9 0 18 0.5t18 2.5v-99q-14 14 -32 20t-44 6h-129q6 -76 61 -121t139 -45q50 0 92 11.5t73 34.5q-43 -82 -73.5 -102t-113.5 -20q-82 1 -132 21.5t-87 62.5q-30 33 -46.5 76.5t-16.5 94.5
q0 50 18 98.5t55 86.5q41 43 92.5 61.5t125.5 18.5q39 0 66.5 -5.5t59.5 -8.5z" />
    <glyph glyph-name="afii10102" unicode="&#x455;" horiz-adv-x="430" 
d="M370 487v-89q-37 20 -70.5 29.5t-70.5 10.5q-41 0 -64.5 -15.5t-23.5 -40.5q0 -20 18.5 -36t106.5 -46q94 -33 123.5 -67.5t30.5 -80.5q0 -81 -61 -123.5t-163 -43.5q-40 0 -77 7t-76 22l-38 105q49 -32 99.5 -49.5t91.5 -17.5q60 -1 92.5 19.5t32.5 52.5q0 23 -17 40.5
t-113 55.5q-93 36 -121 67.5t-28 75.5q0 65 49 103t148 39q36 0 67.5 -4.5t63.5 -13.5z" />
    <glyph glyph-name="afii10103" unicode="&#x456;" horiz-adv-x="218" 
d="M30 485h77q17 -1 29 3t24 13v-431q0 -25 8 -41.5t27 -28.5h-165q18 12 26.5 28.5t8.5 41.5v345q0 24 -8.5 40.5t-26.5 29.5zM43 619q0 25 19 44t45 20q25 0 44.5 -19.5t19.5 -44.5q0 -26 -19.5 -45t-44.5 -19q-26 -1 -45 18.5t-19 45.5z" />
    <glyph glyph-name="afii10104" unicode="&#x457;" horiz-adv-x="251" 
d="M43 485h77q17 -1 29 3t24 13v-431q0 -25 8 -41.5t27 -28.5h-165q18 12 26 28.5t9 41.5v345q0 24 -8.5 40.5t-26.5 29.5zM5 619q-1 27 15 45t40 19q23 0 39 -18.5t16 -45.5q-1 -28 -16.5 -46.5t-38.5 -17.5q-24 0 -39.5 18t-15.5 46zM136 619q0 27 15.5 45.5t39.5 18.5
q23 0 39 -18.5t16 -45.5q0 -28 -16 -46t-39 -18q-24 0 -39.5 18t-15.5 46z" />
    <glyph glyph-name="afii10105" unicode="&#x458;" horiz-adv-x="220" 
d="M34 485h77q17 -1 29 3t24 13v-510q0 -54 -4.5 -76.5t-14.5 -39.5q-20 -32 -71 -55t-114 -29q54 28 81.5 75t27.5 130v419q0 24 -8.5 40.5t-26.5 29.5zM47 619q0 25 19 44.5t45 19.5q25 0 44.5 -19.5t19.5 -44.5q-1 -26 -20 -45t-44 -19q-26 0 -45.5 19t-18.5 45z" />
    <glyph glyph-name="afii10106" unicode="&#x459;" horiz-adv-x="750" 
d="M447 415v-338q16 -4 32 -5.5t33 -1.5q58 0 88.5 27t30.5 74q0 40 -31.5 65.5t-90.5 25.5q-14 -1 -27 -2.5t-26 -3.5l44 69q14 3 28 5t28 2q80 0 129 -40t50 -111q0 -81 -55.5 -131t-167.5 -50h-195q18 12 26.5 28.5t8.5 41.5v345h-158v-61q0 -194 -40.5 -281.5
t-121.5 -87.5q-10 0 -21 2.5t-22 6.5l-11 98q14 -11 28.5 -17t27.5 -6q43 -1 63.5 75t20.5 227q0 48 -11.5 74t-36.5 40h412q-19 -13 -27.5 -29.5t-7.5 -40.5z" />
    <glyph glyph-name="afii10107" unicode="&#x45a;" horiz-adv-x="815" 
d="M160 303h242v112q0 24 -8.5 40.5t-26.5 29.5h165q-19 -13 -27.5 -29.5t-7.5 -40.5v-338q16 -4 32 -5.5t33 -1.5q58 0 88.5 27t30.5 74q0 40 -31.5 65.5t-90.5 25.5q-14 0 -27 -2l-26 -4l44 69q14 3 28 5t28 2q80 0 129.5 -40t49.5 -111q0 -81 -55.5 -131t-167.5 -50h-195
q18 12 26.5 28.5t8.5 41.5v163h-242v-163q0 -25 8 -41.5t27 -28.5h-165q18 12 26.5 28.5t8.5 41.5v345q0 24 -8.5 40.5t-26.5 29.5h165q-19 -13 -27 -29.5t-8 -40.5v-112z" />
    <glyph glyph-name="afii10108" unicode="&#x45b;" horiz-adv-x="565" 
d="M33 700h77q17 -1 29 3t24 13v-99h224v-60h-224v-123q18 33 63 52t93 19q88 0 136.5 -43.5t48.5 -114.5v-277q0 -25 8 -41.5t27 -28.5h-165q18 12 26 28.5t9 41.5v250q-1 50 -33.5 79.5t-88.5 29.5q-59 0 -91.5 -28.5t-32.5 -86.5v-244q0 -25 8 -41.5t27 -28.5h-165
q18 12 26.5 28.5t8.5 41.5v487h-63v60h63v13q0 24 -8.5 40.5t-26.5 29.5z" />
    <glyph glyph-name="afii10109" unicode="&#x45c;" horiz-adv-x="502" 
d="M30 485h165q-19 -13 -27 -29.5t-8 -40.5v-345q0 -25 8 -41.5t27 -28.5h-165q18 12 26.5 28.5t8.5 41.5v345q0 24 -8.5 40.5t-26.5 29.5zM180 256l110 126q22 25 32 41.5t10 28.5q-1 8 -6 16t-17 17h163l-191 -213l15 -15t23 -25l133 -159q21 -27 39.5 -43t40.5 -30
l-39 -1q-83 -2 -99 3t-38 34zM347 710l54 -77l-298 -83l-3 3z" />
    <glyph glyph-name="afii10110" unicode="&#x45e;" horiz-adv-x="472" 
d="M-57 485l87 3q42 1 48 0t12 -4l164 -370l107 260q7 18 11 33t4 30q-1 15 -8 28t-20 20h156l-237 -541q-36 -81 -88 -117t-123 -36q-37 0 -70.5 7.5t-65.5 19.5l93 68q13 -10 28 -14.5t32 -4.5q37 1 63 21t48 68l26 59q-19 17 -32 34.5t-21 37.5l-147 326
q-12 27 -28.5 45.5t-38.5 26.5zM93 700h88q-21 -32 2 -57.5t62 -25.5q38 0 61 25.5t3 57.5h88q2 -58 -41 -99t-111 -41q-69 0 -111.5 41t-40.5 99z" />
    <glyph glyph-name="afii10193" unicode="&#x45f;" horiz-adv-x="559" 
d="M529 0h-202v-90q0 -24 8 -40.5t27 -29.5h-165q18 13 26.5 29.5t8.5 40.5v90h-202q18 12 26.5 28.5t8.5 41.5v345q0 24 -8.5 40.5t-26.5 29.5h165q-19 -13 -27 -29.5t-8 -40.5v-345h239v345q0 24 -8.5 40.5t-26.5 29.5h165q-19 -13 -27.5 -29.5t-7.5 -40.5v-345
q0 -25 8 -41.5t27 -28.5z" />
    <glyph glyph-name="afii10050" unicode="&#x490;" horiz-adv-x="458" 
d="M43 700h285q62 0 94 12t49 42v-152q-23 10 -56.5 14t-86.5 4q-25 0 -64 -1t-73 -1v-518q0 -38 12 -61t39 -39h-199q24 17 35 40t11 60v500q-1 36 -11.5 59t-34.5 41z" />
    <glyph glyph-name="afii10098" unicode="&#x491;" horiz-adv-x="333" 
d="M160 415v-345q0 -25 8 -41.5t27 -28.5h-165q18 12 26.5 28.5t8.5 41.5v345q0 24 -8.5 40.5t-26.5 29.5h247q20 0 37.5 8.5t28.5 27.5v-119q-10 7 -22.5 10t-33.5 3h-127z" />
    <glyph glyph-name="cyrZetail" unicode="&#x498;" horiz-adv-x="562" 
d="M47 573l15 126q52 2 95.5 9t98.5 7q125 0 186 -45t61 -124q0 -61 -36.5 -100.5t-98.5 -51.5v-3q76 -1 122.5 -50t46.5 -123q0 -96 -65 -157t-180 -73v-93q0 -39 10.5 -60.5t35.5 -39.5h-194q24 18 34.5 39.5t11.5 60.5v90q-44 1 -85 11t-78 31l-27 136q49 -52 102.5 -74
t116.5 -22q94 0 148 37t55 105q0 63 -46.5 98.5t-124.5 35.5q-33 0 -56.5 -4.5t-42.5 -13.5v104q24 -5 38.5 -6.5t34.5 -1.5q84 -1 123 29.5t40 81.5q0 48 -34.5 74.5t-96.5 26.5q-52 0 -106 -15t-104 -45z" />
    <glyph glyph-name="cyrzetail" unicode="&#x499;" horiz-adv-x="438" 
d="M47 381l18 111q41 2 71 7.5t76 5.5q92 -1 137.5 -32t45.5 -88q0 -42 -31 -73t-80 -36v-3q57 -1 96.5 -34.5t39.5 -92.5q0 -67 -48 -107.5t-125 -53.5v-75q0 -24 8 -40.5t27 -29.5h-165q18 13 26.5 29.5t8.5 40.5v75q-60 1 -92.5 21t-48.5 71l-16 50q34 -33 78.5 -49.5
t100.5 -16.5q72 -1 107 24.5t35 67.5q0 37 -28 55.5t-75 18.5q-23 0 -41 -4.5t-36 -14.5v92q9 -2 19 -2.5t22 -0.5q54 -1 83.5 16.5t30.5 52.5q0 31 -22 50t-66 19q-40 -1 -76 -13t-80 -41z" />
    <glyph glyph-name="cyrEstail" unicode="&#x4aa;" horiz-adv-x="667" 
d="M611 688v-122q-50 34 -99 50.5t-99 16.5q-120 0 -191 -75t-71 -186q0 -141 78.5 -223t207.5 -82q70 0 128.5 18.5t106.5 58.5l-68 -134q-42 -13 -82.5 -19t-80.5 -6v-90q0 -39 10.5 -60.5t35.5 -39.5h-194q24 18 35 39.5t11 60.5v96q-132 16 -217.5 114t-85.5 240
q0 153 103.5 261t285.5 109q29 0 56 -3t74 -13q20 -5 31.5 -7.5t24.5 -3.5z" />
    <glyph glyph-name="cyrestail" unicode="&#x4ab;" horiz-adv-x="508" 
d="M446 491v-110q-28 22 -61.5 34.5t-71.5 13.5q-83 0 -132.5 -49t-49.5 -125q0 -88 57 -141t160 -53q51 0 91.5 11t73.5 35q-45 -84 -78 -104.5t-95 -17.5v-75q0 -24 8 -40.5t27 -29.5h-165q18 13 26.5 29.5t8.5 40.5v80q-46 7 -85 26.5t-66 49.5q-34 34 -50.5 79t-16.5 96
q0 55 20 102.5t55 82.5q41 41 94.5 60t131.5 19q37 0 59 -5.5t59 -8.5z" />
    <glyph glyph-name="cyrstraightU" unicode="&#x4ae;" horiz-adv-x="571" 
d="M-40 700l130 2q8 0 14.5 -1.5t14.5 -3.5l191 -302l138 214q6 9 10 19.5t4 20.5q0 14 -9.5 28t-24.5 23h173l-258 -387v-213q0 -38 10.5 -60.5t35.5 -39.5h-194q24 17 35 39.5t11 60.5v214l-206 318q-16 24 -34.5 40.5t-40.5 27.5z" />
    <glyph glyph-name="cyrstraightu" unicode="&#x4af;" horiz-adv-x="490" 
d="M-40 485h94q16 0 29.5 3.5t24.5 13.5q1 -11 3.5 -22t6.5 -18l147 -351l118 265q8 18 12 32.5t5 24.5q-1 16 -10 30t-24 22h154l-216 -469v-167q-1 -24 9 -40.5t31 -29.5h-170q18 13 26.5 29.5t8.5 40.5v143l-175 415q-11 24 -29.5 44t-44.5 34z" />
    <glyph glyph-name="cyrstraightUbar" unicode="&#x4b0;" horiz-adv-x="571" 
d="M-40 700l130 2q8 0 14.5 -1.5t14.5 -3.5l191 -302l138 214q6 9 10 19.5t4 20.5q0 14 -9.5 28t-24.5 23h173l-258 -387v-16h109v-60h-109v-137q0 -38 10.5 -60.5t35.5 -39.5h-194q24 17 35 39.5t11 60.5v137h-114v60h114v17l-206 318q-16 24 -34.5 40.5t-40.5 27.5z" />
    <glyph glyph-name="cyrstraightubar" unicode="&#x4b1;" horiz-adv-x="490" 
d="M-40 485h94q16 0 29.5 3.5t24.5 13.5q1 -11 3.5 -22t6.5 -18l147 -351l118 265q8 18 12 32.5t5 24.5q-1 16 -10 30t-24 22h154l-204 -444h106v-60h-118v-132q-1 -24 9 -40.5t31 -29.5h-170q18 13 26.5 29.5t8.5 40.5v132h-121v60h100l-154 366q-11 24 -29.5 44t-44.5 34z
" />
    <glyph glyph-name="cyrh" unicode="&#x4bb;" horiz-adv-x="560" 
d="M28 700h77q17 0 29 3.5t24 12.5v-282q18 33 63 52t93 19q88 0 136.5 -43.5t48.5 -114.5v-277q0 -25 8 -41.5t27 -28.5h-165q18 12 26.5 28.5t8.5 41.5v250q-1 50 -33.5 79.5t-88.5 29.5q-59 0 -91.5 -28.5t-32.5 -86.5v-244q0 -25 8 -41.5t27 -28.5h-165q18 12 26 28.5
t9 41.5v560q0 24 -8.5 40.5t-26.5 29.5z" />
    <glyph glyph-name="cyrAcyrbreve" unicode="&#x4d0;" horiz-adv-x="658" 
d="M218 700h164l241 -597q17 -43 37 -66t48 -37h-215q25 11 33 30t-3 48l-76 188h-269l-63 -157q-17 -41 -9.5 -66t33.5 -43h-189q29 18 49 45.5t42 81.5l200 506q9 24 2.5 41t-25.5 26zM312 609l-108 -276h217zM162 886h88q-21 -30 2 -55.5t62 -25.5q38 0 61 25.5t3 55.5
h88q2 -60 -41 -101.5t-111 -40.5q-69 0 -111.5 41t-40.5 101z" />
    <glyph glyph-name="cyracyrbreve" unicode="&#x4d1;" horiz-adv-x="490" 
d="M85 392l63 104q24 4 47 6.5t44 2.5q90 0 135.5 -42t46.5 -130v-195q-1 -37 16 -53.5t56 -17.5q4 -1 9 -1t10 1l-48 -67h-6.5h-8.5q-67 0 -95 30t-28 82v157q-14 -9 -28 -15t-78 -21q-56 -14 -78.5 -34.5t-22.5 -53.5q-1 -38 25.5 -61t75.5 -23q20 0 42 3t45 10l-64 -80
q-16 -4 -32 -6.5t-32 -2.5q-73 0 -117.5 43.5t-44.5 114.5q0 52 31 86t139 59q98 22 116.5 37.5t18.5 40.5q0 29 -24 46t-68 17q-37 0 -75 -9.5t-70 -27.5zM93 700h88q-21 -32 2 -57.5t62 -25.5q38 0 61 25.5t3 57.5h88q2 -58 -41 -99t-111 -41q-69 0 -111.5 41t-40.5 99z
" />
    <glyph glyph-name="cyrAdieresis" unicode="&#x4d2;" horiz-adv-x="658" 
d="M218 700h164l241 -597q17 -43 37 -66t48 -37h-215q25 11 33 30t-3 48l-76 188h-269l-63 -157q-17 -41 -9.5 -66t33.5 -43h-189q29 18 49 45.5t42 81.5l200 506q9 24 2.5 41t-25.5 26zM312 609l-108 -276h217zM148 810q0 28 19.5 48t48.5 20q28 0 48 -20t20 -48
q0 -29 -20 -48.5t-48 -19.5q-29 0 -48.5 19.5t-19.5 48.5zM357 810q0 28 19.5 48t48.5 20q28 -1 48 -20.5t20 -47.5q0 -29 -20 -49t-48 -19q-29 0 -48.5 19.5t-19.5 48.5z" />
    <glyph glyph-name="cyradieresis" unicode="&#x4d3;" horiz-adv-x="490" 
d="M85 392l63 104q24 4 47 6.5t44 2.5q90 0 135.5 -42t46.5 -130v-195q-1 -37 16 -53.5t56 -17.5q4 -1 9 -1t10 1l-48 -67h-6.5h-8.5q-67 0 -95 30t-28 82v157q-14 -9 -28 -15t-78 -21q-56 -14 -78.5 -34.5t-22.5 -53.5q-1 -38 25.5 -61t75.5 -23q20 0 42 3t45 10l-64 -80
q-16 -4 -32 -6.5t-32 -2.5q-73 0 -117.5 43.5t-44.5 114.5q0 52 31 86t139 59q98 22 116.5 37.5t18.5 40.5q0 29 -24 46t-68 17q-37 0 -75 -9.5t-70 -27.5zM86 619q0 25 19 44t45 20q25 0 44.5 -19.5t19.5 -44.5q0 -26 -19.5 -45t-44.5 -19q-26 -1 -45 18.5t-19 45.5z
M276 619q0 25 19 44.5t45 19.5q25 0 44.5 -19.5t19.5 -44.5q0 -26 -19.5 -45t-44.5 -19q-26 0 -45 19t-19 45z" />
    <glyph glyph-name="cyrAE" unicode="&#x4d4;" horiz-adv-x="872" 
d="M373 700h415v-115q-18 20 -43 28t-62 8l-135 -3v-200h144q9 0 18 0.5t18 2.5v-109q-14 14 -32 20t-44 6h-104v-251q32 -4 65.5 -5.5t64.5 -1.5q71 0 120.5 13t88.5 48l-51 -141h-436q24 17 35 40t11 60v238h-178l-177 -244q-13 -18 -17.5 -30t-4.5 -22q0 -14 8 -24.5
t24 -17.5h-211q28 19 55.5 47t46.5 55l385 518q11 15 16 25.5t5 20.5q0 9 -6 17t-19 17zM446 418v126q0 17 0.5 31.5t2.5 30.5q-6 -16 -13.5 -32.5t-17.5 -29.5l-92 -126h120z" />
    <glyph glyph-name="cyrae" unicode="&#x4d5;" horiz-adv-x="821" 
d="M85 392l63 104q24 4 47 6.5t44 2.5q62 0 101.5 -18.5t55.5 -51.5q27 33 69.5 51.5t105.5 18.5q112 0 172.5 -70t58.5 -178h-383q-4 -85 48 -140.5t154 -55.5q52 0 96.5 12t86.5 38l-61 -104q-37 -12 -71 -17t-74 -5q-127 0 -205 68.5t-78 189.5v7.5t1 11.5
q-14 -7 -25.5 -11t-71.5 -18q-54 -13 -77 -33.5t-23 -54.5q0 -38 26 -61t75 -23q20 0 42 3t45 10l-64 -80q-16 -4 -30.5 -6.5t-28.5 -2.5q-77 0 -122 44t-45 114q0 52 31 86t139 59q98 22 116.5 37.5t18.5 40.5q0 29 -24 46t-68 17q-37 0 -75 -9.5t-70 -27.5zM429 322h259
q-4 49 -37.5 78t-84.5 29q-53 -1 -90.5 -30t-46.5 -77z" />
    <glyph glyph-name="cyrIecyrbreve" unicode="&#x4d6;" horiz-adv-x="515" 
d="M43 700h388v-115q-18 20 -43 28t-62 8l-135 -3v-200h144q9 0 18 0.5t18 2.5v-109q-14 14 -32 20t-44 6h-104v-251q32 -4 65.5 -5.5t64.5 -1.5q71 -1 120.5 12.5t88.5 48.5l-51 -141h-436q24 17 35 40t11 60v500q-1 36 -11.5 59t-34.5 41zM94 930h66q4 -46 29.5 -73
t68.5 -27q42 0 67.5 27t30.5 73h66q-7 -74 -50 -122t-114 -48q-72 0 -115 48t-49 122z" />
    <glyph glyph-name="cyriecyrbreve" unicode="&#x4d7;" horiz-adv-x="559" 
d="M534 257h-403q-4 -85 50 -140.5t162 -55.5q56 -1 104 11.5t94 38.5l-66 -104q-39 -12 -75 -17t-78 -5q-135 0 -215 69t-80 194q-1 112 71.5 184.5t194.5 72.5q115 0 179.5 -70.5t61.5 -177.5zM141 322h279q-5 49 -41 78t-91 29q-57 -1 -97 -30t-50 -77zM135 700h88
q-21 -32 2 -57.5t62 -25.5q38 0 61 25.5t3 57.5h88q2 -58 -41 -99t-111 -41q-69 0 -111.5 41t-40.5 99z" />
    <glyph glyph-name="cyrinve" unicode="&#x4d9;" horiz-adv-x="552" 
d="M17 233h404q2 86 -45 141t-138 55q-59 -1 -108.5 -13.5t-93.5 -36.5l66 104q38 12 74.5 17t78.5 5q120 0 195 -69.5t75 -193.5q0 -113 -72.5 -184.5t-193.5 -72.5q-117 0 -181.5 69.5t-60.5 178.5zM411 168h-279q4 -50 40 -78.5t92 -28.5t96 29t51 78z" />
    <glyph glyph-name="cyrinvedieresis" unicode="&#x4db;" horiz-adv-x="556" 
d="M17 233h404q2 86 -45 141t-138 55q-59 -1 -108.5 -13.5t-93.5 -36.5l66 104q38 12 74.5 17t78.5 5q120 0 195 -69.5t75 -193.5q0 -113 -72.5 -184.5t-193.5 -72.5q-117 0 -181.5 69.5t-60.5 178.5zM411 168h-279q4 -50 40 -78.5t92 -28.5t96 29t51 78zM111 619
q0 25 19 44t45 20q25 0 44.5 -19.5t19.5 -44.5q0 -26 -19.5 -45t-44.5 -19q-26 -1 -45 18.5t-19 45.5zM301 619q0 25 19 44.5t45 19.5q25 0 44.5 -19.5t19.5 -44.5q0 -26 -19.5 -45t-44.5 -19q-26 0 -45 19t-19 45z" />
    <glyph glyph-name="cyrZhedieresis" unicode="&#x4dc;" horiz-adv-x="890" 
d="M348 700h194q-25 -18 -35.5 -40.5t-10.5 -59.5v-500q0 -38 10.5 -60.5t35.5 -39.5h-194q24 17 35 39.5t11 60.5v500q-1 37 -11.5 59.5t-34.5 40.5zM516 363l156 210q24 32 32.5 48.5t8.5 29.5q0 15 -10 28t-26 21h192l-243 -315l115 -152q12 -17 27 -36t34 -42
q49 -62 85 -95.5t83 -59.5l-107 -5q-39 -1 -71.5 18t-97.5 108zM374 363l-178 -242q-66 -89 -98.5 -108t-70.5 -18l-107 5q47 26 82.5 59.5t85.5 95.5q18 23 33 42t28 36l115 152l-243 315h192q-17 -8 -27 -21t-9 -28q0 -13 8 -29.5t33 -48.5zM273 809q0 28 19.5 48t48.5 20
q28 0 48 -20t20 -48q0 -29 -20 -48.5t-48 -19.5q-29 0 -48.5 19.5t-19.5 48.5zM482 809q0 28 19.5 48t48.5 20q28 -1 48 -20.5t20 -47.5q0 -29 -20 -49t-48 -19q-29 0 -48.5 19.5t-19.5 48.5z" />
    <glyph glyph-name="cyrzhedieresis" unicode="&#x4dd;" horiz-adv-x="780" 
d="M458 256l110 126q22 25 31.5 41.5t10.5 28.5q0 8 -5.5 16t-17.5 17h163l-191 -213l15 -15t23 -25l133 -159q21 -27 39.5 -43t40.5 -30l-39 -1q-83 -2 -99 3t-38 34zM308 485h165q-19 -13 -27 -29.5t-8 -40.5v-345q0 -25 8 -41.5t27 -28.5h-165q18 12 26.5 28.5t8.5 41.5
v345q0 24 -8.5 40.5t-26.5 29.5zM322 256l-176 -220q-23 -29 -39 -34t-98 -3l-39 1q22 14 40 30t40 43l133 159q15 18 22 25t16 15l-191 213h163q-13 -9 -18 -17t-5 -16q0 -12 9.5 -28.5t32.5 -41.5zM231 619q0 25 19 44t45 20q25 0 44.5 -19.5t19.5 -44.5q0 -26 -19.5 -45
t-44.5 -19q-26 -1 -45 18.5t-19 45.5zM421 619q0 25 19 44.5t45 19.5q25 0 44.5 -19.5t19.5 -44.5q0 -26 -19.5 -45t-44.5 -19q-26 0 -45 19t-19 45z" />
    <glyph glyph-name="cyrZedieresis" unicode="&#x4de;" horiz-adv-x="562" 
d="M47 573l15 126q52 2 95.5 9t98.5 7q125 0 186 -45t61 -124q0 -61 -36.5 -100.5t-98.5 -51.5v-3q76 -1 122.5 -50t46.5 -123q0 -110 -82.5 -171.5t-230.5 -61.5q-60 0 -105.5 9t-91.5 33l-27 136q49 -52 102.5 -74t116.5 -22q94 0 148 37t55 105q0 63 -46.5 98.5
t-124.5 35.5q-33 0 -56.5 -4.5t-42.5 -13.5v104q24 -5 38.5 -6.5t34.5 -1.5q84 -1 123 29.5t40 81.5q0 48 -34.5 74.5t-96.5 26.5q-52 0 -106 -15t-104 -45zM99 809q0 28 19.5 48t48.5 20q28 0 48 -20t20 -48q0 -29 -20 -48.5t-48 -19.5q-29 0 -48.5 19.5t-19.5 48.5z
M308 809q0 28 19.5 48t48.5 20q28 -1 48 -20.5t20 -47.5q0 -29 -20 -49t-48 -19q-29 0 -48.5 19.5t-19.5 48.5z" />
    <glyph glyph-name="cyrzedieresis" unicode="&#x4df;" horiz-adv-x="428" 
d="M47 381l18 111q41 2 71 7.5t76 5.5q92 -1 137.5 -32t45.5 -88q0 -42 -31 -73t-80 -36v-3q57 -1 96.5 -34.5t39.5 -92.5q-1 -76 -68 -118t-176 -43q-67 0 -107.5 18t-57.5 74l-16 50q34 -33 78.5 -49.5t100.5 -16.5q72 -1 107 24.5t35 67.5q0 37 -28 55.5t-75 18.5
q-23 0 -41 -4.5t-36 -14.5v92q9 -2 19 -2.5t22 -0.5q54 -1 83.5 16.5t30.5 52.5q0 31 -22 50t-66 19q-40 -1 -76 -13t-80 -41zM55 619q0 25 19 44t45 20q25 0 44.5 -19.5t19.5 -44.5q0 -26 -19.5 -45t-44.5 -19q-26 -1 -45 18.5t-19 45.5zM245 619q0 25 19 44.5t45 19.5
q25 0 44.5 -19.5t19.5 -44.5q0 -26 -19.5 -45t-44.5 -19q-26 0 -45 19t-19 45z" />
    <glyph glyph-name="cyrImacron" unicode="&#x4e2;" horiz-adv-x="767" 
d="M191 131l356 530q10 15 17.5 23t17.5 16h142q-25 -18 -35.5 -39.5t-10.5 -60.5v-500q0 -40 10.5 -61.5t35.5 -38.5h-194q24 17 35 38.5t11 61.5v469l-356 -530q-11 -16 -18.5 -24t-16.5 -15h-142q24 17 35 38.5t11 61.5v500q0 39 -11 60.5t-35 39.5h194
q-25 -18 -35.5 -39.5t-10.5 -60.5v-469zM187 862h392v-70h-392v70z" />
    <glyph glyph-name="cyrimacron" unicode="&#x4e3;" horiz-adv-x="570" 
d="M158 111l232 347q7 11 12.5 16.5t12.5 10.5h125q-19 -13 -27 -29.5t-8 -40.5v-345q0 -25 8 -41.5t27 -28.5h-165q18 12 26 28.5t9 41.5v304l-232 -347q-8 -12 -13.5 -17.5t-11.5 -9.5h-125q18 12 26 28.5t9 41.5v345q0 24 -8.5 40.5t-26.5 29.5h165q-19 -13 -27.5 -29.5
t-7.5 -40.5v-304zM94 657h382v-60h-382v60z" />
    <glyph glyph-name="cyrIdieresis" unicode="&#x4e4;" horiz-adv-x="767" 
d="M191 131l356 530q10 15 17.5 23t17.5 16h142q-25 -18 -35.5 -39.5t-10.5 -60.5v-500q0 -40 10.5 -61.5t35.5 -38.5h-194q24 17 35 38.5t11 61.5v469l-356 -530q-11 -16 -18.5 -24t-16.5 -15h-142q24 17 35 38.5t11 61.5v500q0 39 -11 60.5t-35 39.5h194
q-25 -18 -35.5 -39.5t-10.5 -60.5v-469zM211 809q0 28 19.5 48t48.5 20q28 0 48 -20t20 -48q0 -29 -20 -48.5t-48 -19.5q-29 0 -48.5 19.5t-19.5 48.5zM420 809q0 28 19.5 48t48.5 20q28 -1 48 -20.5t20 -47.5q0 -29 -20 -49t-48 -19q-29 0 -48.5 19.5t-19.5 48.5z" />
    <glyph glyph-name="cyridieresis" unicode="&#x4e5;" horiz-adv-x="570" 
d="M158 111l232 347q7 11 12.5 16.5t12.5 10.5h125q-19 -13 -27 -29.5t-8 -40.5v-345q0 -25 8 -41.5t27 -28.5h-165q18 12 26 28.5t9 41.5v304l-232 -347q-8 -12 -13.5 -17.5t-11.5 -9.5h-125q18 12 26 28.5t9 41.5v345q0 24 -8.5 40.5t-26.5 29.5h165q-19 -13 -27.5 -29.5
t-7.5 -40.5v-304zM133 619q0 25 19 44t45 20q25 0 44.5 -19.5t19.5 -44.5q0 -26 -19.5 -45t-44.5 -19q-26 -1 -45 18.5t-19 45.5zM323 619q0 25 19 44.5t45 19.5q25 0 44.5 -19.5t19.5 -44.5q0 -26 -19.5 -45t-44.5 -19q-26 0 -45 19t-19 45z" />
    <glyph glyph-name="cyrOdieresis" unicode="&#x4e6;" horiz-adv-x="840" 
d="M420 715q165 0 274.5 -101t109.5 -264q0 -150 -102.5 -257.5t-281.5 -107.5q-166 0 -275 100.5t-109 264.5q0 149 102 257t282 108zM422 633q-121 -1 -196 -76t-75 -191q-1 -131 74 -215t193 -84q120 0 195.5 75t75.5 192q0 130 -75 214.5t-192 84.5zM248 809
q0 28 19.5 48t48.5 20q28 0 48 -20t20 -48q0 -29 -20 -48.5t-48 -19.5q-29 0 -48.5 19.5t-19.5 48.5zM457 809q0 28 19.5 48t48.5 20q28 -1 48 -20.5t20 -47.5q0 -29 -20 -49t-48 -19q-29 0 -48.5 19.5t-19.5 48.5z" />
    <glyph glyph-name="cyrodieresis" unicode="&#x4e7;" horiz-adv-x="611" 
d="M309 505q124 -1 199 -78t75 -182q0 -113 -81.5 -186t-201.5 -74q-124 0 -199 77t-74 183q0 112 81 186t201 74zM303 429q-78 0 -125 -50.5t-47 -133.5q0 -76 46 -130t130 -54q77 -1 124.5 49.5t47.5 134.5q-1 75 -47 129.5t-129 54.5zM146 619q0 25 19 44t45 20
q25 0 44.5 -19.5t19.5 -44.5q0 -26 -19.5 -45t-44.5 -19q-26 -1 -45 18.5t-19 45.5zM336 619q0 25 19 44.5t45 19.5q25 0 44.5 -19.5t19.5 -44.5q0 -26 -19.5 -45t-44.5 -19q-26 0 -45 19t-19 45z" />
    <glyph glyph-name="cyrUmacron" unicode="&#x4ee;" horiz-adv-x="589" 
d="M-20 700h162l195 -418l134 304q6 14 10 31t4 34q0 15 -7.5 28t-21.5 21h153l-251 -558q-37 -82 -89 -117t-124 -35q-33 0 -58 5.5t-50 21.5l67 75q12 -10 25.5 -14t29.5 -4q38 0 68 22t49 59l19 39q-22 14 -37 30.5t-32 51.5l-176 350q-14 27 -31.5 45.5t-38.5 28.5z
M114 862h392v-70h-392v70z" />
    <glyph glyph-name="cyrumacron" unicode="&#x4ef;" horiz-adv-x="472" 
d="M-57 485l87 3q42 1 48 0t12 -4l164 -370l107 260q7 18 11 33t4 30q-1 15 -8 28t-20 20h156l-237 -541q-36 -81 -88 -117t-123 -36q-37 0 -70.5 7.5t-65.5 19.5l93 68q13 -10 28 -14.5t32 -4.5q37 1 63 21t48 68l26 59q-19 17 -32 34.5t-21 37.5l-147 326
q-12 27 -28.5 45.5t-38.5 26.5zM45 657h382v-60h-382v60z" />
    <glyph glyph-name="cyrUdieresis" unicode="&#x4f0;" horiz-adv-x="589" 
d="M-20 700h162l195 -418l134 304q6 14 10 31t4 34q0 15 -7.5 28t-21.5 21h153l-251 -558q-37 -82 -89 -117t-124 -35q-33 0 -58 5.5t-50 21.5l67 75q12 -10 25.5 -14t29.5 -4q38 0 68 22t49 59l19 39q-22 14 -37 30.5t-32 51.5l-176 350q-14 27 -31.5 45.5t-38.5 28.5z
M141 809q0 28 19.5 48t48.5 20q28 0 48 -20t20 -48q0 -29 -20 -48.5t-48 -19.5q-29 0 -48.5 19.5t-19.5 48.5zM350 809q0 28 19.5 48t48.5 20q28 -1 48 -20.5t20 -47.5q0 -29 -20 -49t-48 -19q-29 0 -48.5 19.5t-19.5 48.5z" />
    <glyph glyph-name="cyrudieresis" unicode="&#x4f1;" horiz-adv-x="472" 
d="M-57 485l87 3q42 1 48 0t12 -4l164 -370l107 260q7 18 11 33t4 30q-1 15 -8 28t-20 20h156l-237 -541q-36 -81 -88 -117t-123 -36q-37 0 -70.5 7.5t-65.5 19.5l93 68q13 -10 28 -14.5t32 -4.5q37 1 63 21t48 68l26 59q-19 17 -32 34.5t-21 37.5l-147 326
q-12 27 -28.5 45.5t-38.5 26.5zM77 619q0 25 19 44t45 20q25 0 44.5 -19.5t19.5 -44.5q0 -26 -19.5 -45t-44.5 -19q-26 -1 -45 18.5t-19 45.5zM267 619q0 25 19 44.5t45 19.5q25 0 44.5 -19.5t19.5 -44.5q0 -26 -19.5 -45t-44.5 -19q-26 0 -45 19t-19 45z" />
    <glyph glyph-name="cyrUdblacute" unicode="&#x4f2;" horiz-adv-x="592" 
d="M-20 700h162l195 -418l134 304q6 14 10 31t4 34q0 15 -7.5 28t-21.5 21h153l-251 -558q-37 -82 -89 -117t-124 -35q-33 0 -58 5.5t-50 21.5l67 75q12 -10 25.5 -14t29.5 -4q38 0 68 22t49 59l19 39q-22 14 -37 30.5t-32 51.5l-176 350q-14 27 -31.5 45.5t-38.5 28.5z
M337 965l87 -61l-261 -186l-12 6zM541 965l87 -61l-261 -186l-12 6z" />
    <glyph glyph-name="cyrudblacute" unicode="&#x4f3;" horiz-adv-x="472" 
d="M-57 485l87 3q42 1 48 0t12 -4l164 -370l107 260q7 18 11 33t4 30q-1 15 -8 28t-20 20h156l-237 -541q-36 -81 -88 -117t-123 -36q-37 0 -70.5 7.5t-65.5 19.5l93 68q13 -10 28 -14.5t32 -4.5q37 1 63 21t48 68l26 59q-19 17 -32 34.5t-21 37.5l-147 326
q-12 27 -28.5 45.5t-38.5 26.5zM245 758l77 -54l-252 -180l-4 2zM449 758l77 -54l-252 -180l-4 2z" />
    <glyph glyph-name="cyrChedieresis" unicode="&#x4f4;" horiz-adv-x="722" 
d="M77 480v120q-1 39 -14 61t-43 39h217q-32 -17 -45.5 -39t-12.5 -61v-88q-1 -77 39.5 -110t123.5 -33q39 0 81 9t85 27v195q-1 37 -11.5 59.5t-34.5 40.5h194q-25 -18 -35.5 -40.5t-10.5 -59.5v-500q-1 -38 10 -60.5t36 -39.5h-194q24 17 35 39.5t11 60.5v228
q-56 -21 -108.5 -31.5t-99.5 -9.5q-114 0 -168.5 51t-54.5 142zM200 809q0 28 19.5 48t48.5 20q28 0 48 -20t20 -48q0 -29 -20 -48.5t-48 -19.5q-29 0 -48.5 19.5t-19.5 48.5zM409 809q0 28 19.5 48t48.5 20q28 -1 48 -20.5t20 -47.5q0 -29 -20 -49t-48 -19
q-29 0 -48.5 19.5t-19.5 48.5z" />
    <glyph glyph-name="cyrchedieresis" unicode="&#x4f5;" horiz-adv-x="516" 
d="M15 485h165q-19 -13 -27.5 -29.5t-7.5 -40.5v-61q-1 -53 23 -76t71 -23q32 -1 62 7.5t55 24.5v128q0 24 -8.5 40.5t-26.5 29.5h165q-19 -13 -27.5 -29.5t-7.5 -40.5v-345q0 -25 8 -41.5t27 -28.5h-170q20 12 30 28.5t10 41.5v157q-36 -25 -74 -37t-77 -11
q-80 0 -118 43.5t-37 113.5v79q0 24 -8.5 40.5t-26.5 29.5zM97 619q0 25 19 44t45 20q25 0 44.5 -19.5t19.5 -44.5q0 -26 -19.5 -45t-44.5 -19q-26 -1 -45 18.5t-19 45.5zM287 619q0 25 19 44.5t45 19.5q25 0 44.5 -19.5t19.5 -44.5q0 -26 -19.5 -45t-44.5 -19q-26 0 -45 19
t-19 45z" />
    <glyph glyph-name="cyrYerudieresis" unicode="&#x4f8;" horiz-adv-x="867" 
d="M43 700h194q-25 -18 -35.5 -40.5t-10.5 -59.5v-168q35 3 71 5.5t60 2.5q122 0 189.5 -55.5t67.5 -156.5q0 -105 -72.5 -166.5t-220.5 -61.5h-243q24 17 34.5 39.5t11.5 60.5v500q-1 37 -11.5 59.5t-34.5 40.5zM191 358v-273q26 -5 53 -7t51 -2q86 -1 127 41t42 112
q0 63 -44.5 99t-143.5 36q-18 0 -40.5 -2t-44.5 -4zM630 700h194q-25 -18 -35.5 -40.5t-10.5 -59.5v-500q-1 -38 10 -60.5t36 -39.5h-194q24 17 34.5 39.5t11.5 60.5v500q-1 37 -11.5 59.5t-34.5 40.5zM261 809q0 28 19.5 48t48.5 20q28 0 48 -20t20 -48q0 -29 -20 -48.5
t-48 -19.5q-29 0 -48.5 19.5t-19.5 48.5zM470 809q0 28 19.5 48t48.5 20q28 -1 48 -20.5t20 -47.5q0 -29 -20 -49t-48 -19q-29 0 -48.5 19.5t-19.5 48.5z" />
    <glyph glyph-name="cyryerudieresis" unicode="&#x4f9;" horiz-adv-x="686" 
d="M30 485h165q-19 -13 -27 -29.5t-8 -40.5v-338q16 -4 32 -5.5t33 -1.5q58 0 88.5 27t30.5 74q0 40 -31.5 65.5t-90.5 25.5q-14 -1 -27 -2.5t-26 -3.5l44 69q14 3 28 5t28 2q80 0 129.5 -40t49.5 -111q0 -81 -55.5 -131t-167.5 -50h-195q18 12 26.5 28.5t8.5 41.5v345
q0 24 -8.5 40.5t-26.5 29.5zM491 485h165q-19 -13 -27.5 -29.5t-7.5 -40.5v-345q0 -25 8 -41.5t27 -28.5h-165q18 12 26.5 28.5t8.5 41.5v345q0 24 -8.5 40.5t-26.5 29.5zM184 619q0 25 19 44t45 20q25 0 44.5 -19.5t19.5 -44.5q0 -26 -19.5 -45t-44.5 -19q-26 -1 -45 18.5
t-19 45.5zM374 619q0 25 19 44.5t45 19.5q25 0 44.5 -19.5t19.5 -44.5q0 -26 -19.5 -45t-44.5 -19q-26 0 -45 19t-19 45z" />
    <glyph glyph-name="endash" unicode="&#x2013;" horiz-adv-x="638" 
d="M477 274h-313q-33 -1 -62.5 -7t-61.5 -20l51 68q14 19 25.5 25.5t45.5 7.5h312q39 0 62 5t62 22l-50 -68q-15 -21 -27.5 -27.5t-43.5 -5.5z" />
    <glyph glyph-name="emdash" unicode="&#x2014;" horiz-adv-x="994" 
d="M753 274h-509q-33 -1 -62.5 -7t-61.5 -20l51 68q14 19 25.5 26t45.5 7h508q39 0 62 5t62 22l-50 -68q-15 -21 -27.5 -27.5t-43.5 -5.5z" />
    <glyph glyph-name="quoteleft" unicode="&#x2018;" horiz-adv-x="210" 
d="M129 812h41q-29 -31 -46.5 -57.5t-17.5 -41.5q0 -6 1.5 -9.5t8.5 -3.5q23 -4 37 -19t14 -36q0 -27 -16.5 -44t-44.5 -16q-30 0 -48 18t-18 49q0 37 24 80.5t65 79.5z" />
    <glyph glyph-name="quoteright" unicode="&#x2019;" horiz-adv-x="210" 
d="M81 488h-41q29 31 46.5 57t17.5 42q0 5 -2 8.5t-8 4.5q-24 3 -37.5 18t-13.5 37q0 26 16 43t45 17t47.5 -18.5t18.5 -48.5q0 -38 -24.5 -81.5t-64.5 -78.5z" />
    <glyph glyph-name="quotesinglbase" unicode="&#x201a;" horiz-adv-x="223" 
d="M92 -110h-52q25 25 47 57.5t23 45.5q0 5 -1.5 6.5t-5.5 2.5q-28 5 -41 20.5t-13 41.5q0 28 18 44.5t47 16.5q31 0 50 -21t19 -54q0 -41 -26 -83t-65 -77z" />
    <glyph glyph-name="quotedblleft" unicode="&#x201c;" horiz-adv-x="400" 
d="M129 812h41q-29 -31 -46.5 -57.5t-17.5 -41.5q0 -6 1.5 -9.5t8.5 -3.5q23 -4 37 -19t14 -36q0 -27 -16.5 -44t-44.5 -16q-30 0 -48 18t-18 49q0 37 24 80.5t65 79.5zM319 812h41q-29 -31 -47 -57.5t-17 -41.5q0 -6 1.5 -9.5t8.5 -3.5q23 -4 37 -19t14 -36
q0 -27 -16.5 -43.5t-44.5 -16.5q-30 0 -48 18t-18 49q0 37 24 80.5t65 79.5z" />
    <glyph glyph-name="quotedblright" unicode="&#x201d;" horiz-adv-x="400" 
d="M81 585h-41q29 31 46.5 57t17.5 42q0 5 -2 8.5t-8 4.5q-24 3 -37.5 18t-13.5 37q0 26 16 43t45 17t47.5 -18.5t18.5 -48.5q0 -38 -24.5 -81.5t-64.5 -78.5zM271 585h-41q29 31 46.5 57t17.5 42q0 5 -2 8.5t-8 4.5q-24 3 -38 18t-13 37q0 26 16 43t45 17t47.5 -18.5
t18.5 -48.5q0 -38 -24.5 -81.5t-64.5 -78.5z" />
    <glyph glyph-name="quotedblbase" unicode="&#x201e;" horiz-adv-x="400" 
d="M81 -112h-41q29 32 46 58t18 41q0 6 -2 9.5t-8 3.5q-24 3 -37.5 18t-13.5 37q0 26 16 43t45 17t47.5 -18.5t18.5 -48.5q0 -38 -24.5 -81t-64.5 -79zM271 -112h-41q29 32 46.5 58t17.5 41q0 6 -2 9.5t-8 3.5q-24 3 -37.5 18t-13.5 37q0 26 16 43t45 17q29 -1 47 -19
t19 -48q0 -38 -24.5 -81t-64.5 -79z" />
    <glyph glyph-name="dagger" unicode="&#x2020;" horiz-adv-x="582" 
d="M194 700h194q-25 -18 -36 -40.5t-10 -59.5v-134h97q32 -1 48 4.5t32 19.5q5 4 10 9.5t10 12.5v-172q-18 24 -40.5 34.5t-59.5 11.5h-97v-495q-1 -37 10 -59.5t36 -40.5h-194q24 18 34.5 40.5t11.5 59.5v495h-97q-38 -1 -60.5 -11.5t-39.5 -34.5v172q4 -7 9 -12.5t11 -9.5
q15 -14 31 -19t49 -5h97v134q-1 37 -11.5 59.5t-34.5 40.5z" />
    <glyph glyph-name="daggerdbl" unicode="&#x2021;" horiz-adv-x="582" 
d="M194 700h194q-25 -18 -36 -40.5t-10 -59.5v-134h97q32 -1 48 4.5t32 19.5q5 4 10 9.5t10 12.5v-172q-18 24 -40.5 34.5t-59.5 11.5h-97v-160h97q37 -1 59.5 10t40.5 36v-172q-18 24 -40.5 34.5t-59.5 11.5h-97v-255q-1 -37 10 -59.5t36 -40.5h-194q24 18 34.5 40.5
t11.5 59.5v255h-97q-38 -1 -60.5 -11.5t-39.5 -34.5v172q17 -25 39.5 -35.5t60.5 -10.5h97v160h-97q-38 -1 -60.5 -11.5t-39.5 -34.5v172q4 -7 9 -12.5t11 -9.5q15 -14 31 -19t49 -5h97v134q-1 37 -11.5 59.5t-34.5 40.5z" />
    <glyph glyph-name="bullet" unicode="&#x2022;" horiz-adv-x="468" 
d="M100 280q-1 55 38.5 94.5t95.5 39.5q55 0 94.5 -39.5t39.5 -94.5q-1 -56 -40 -95t-94 -39q-56 0 -95.5 39t-38.5 95z" />
    <glyph glyph-name="ellipsis" unicode="&#x2026;" horiz-adv-x="776" 
d="M40 51q0 27 19 46.5t47 19.5q27 0 46.5 -19.5t19.5 -46.5q0 -28 -19.5 -47t-46.5 -19q-28 0 -47 19t-19 47zM322 51q0 27 19 46t47 20q27 0 46.5 -19.5t19.5 -46.5q-1 -28 -20 -47t-46 -19q-28 0 -47 19t-19 47zM604 51q0 27 19 46.5t47 19.5q27 -1 46.5 -20t19.5 -46
q0 -28 -19.5 -46.5t-46.5 -19.5q-28 1 -47 19.5t-19 46.5z" />
    <glyph glyph-name="perthousand" unicode="&#x2030;" horiz-adv-x="1033" 
d="M477 700h60l-327 -700h-60zM188 700q64 -1 106.5 -45t42.5 -119q-1 -72 -42.5 -116.5t-104.5 -44.5q-68 0 -109 44t-41 115q0 74 41 120t107 46zM187 645q-35 -1 -51 -29.5t-16 -80.5q0 -50 18 -77.5t52 -27.5t50.5 28.5t16.5 75.5q0 49 -17.5 79.5t-52.5 31.5zM505 325
q64 0 106 -44.5t43 -119.5q0 -72 -42 -116.5t-105 -44.5q-68 0 -109 44t-41 115q0 74 41 120t107 46zM504 270q-35 0 -51 -29t-16 -81q-1 -50 17.5 -78t52.5 -27q34 0 50.5 28.5t16.5 75.5q-1 49 -18 80t-52 31zM844 325q64 0 106.5 -44.5t42.5 -119.5q0 -72 -42 -116.5
t-105 -44.5q-68 0 -109 44t-41 115q0 74 41 120t107 46zM843 270q-35 0 -51 -29t-16 -81q0 -50 18 -77.5t52 -27.5t50.5 28.5t16.5 75.5q-1 49 -18 80t-52 31z" />
    <glyph glyph-name="guilsinglleft" unicode="&#x2039;" horiz-adv-x="232" 
d="M126 263l66 -181h-35l-117 181l117 181h35z" />
    <glyph glyph-name="guilsinglright" unicode="&#x203a;" horiz-adv-x="232" 
d="M106 263l-66 181h35l117 -181l-117 -181h-35z" />
    <glyph glyph-name="zerosuperior" unicode="&#x2070;" horiz-adv-x="426" 
d="M215 709q77 0 126 -64.5t49 -163.5q-1 -98 -49.5 -159t-129.5 -61q-78 0 -127 64t-48 164q0 97 48.5 158.5t130.5 61.5zM212 320q42 0 70.5 40.5t28.5 111.5q0 79 -26 128.5t-70 49.5q-43 -1 -71.5 -41.5t-28.5 -110.5q-1 -78 24.5 -128t72.5 -50z" />
    <glyph glyph-name="foursuperior" unicode="&#x2074;" horiz-adv-x="374" 
d="M191 700h93v-282q17 1 37 7t43 17l-34 -87h-46v-20q-1 -23 8 -38.5t28 -26.5h-144q19 9 28.5 24t9.5 41v20h-224zM214 627l-121 -209q18 -3 38.5 -4.5t39.5 -0.5q10 0 20.5 0.5t22.5 1.5v212z" />
    <glyph glyph-name="fivesuperior" unicode="&#x2075;" horiz-adv-x="356" 
d="M58 700h241v-85q-23 13 -46.5 19.5t-56.5 6.5q-20 0 -37.5 -1t-33.5 -2l-6 -95q13 3 27.5 4.5t31.5 1.5q77 0 117.5 -38.5t40.5 -94.5q0 -67 -50.5 -111t-143.5 -44q-23 0 -44 2.5t-43 8.5l-35 80q28 -17 58.5 -24.5t59.5 -7.5q55 0 87 24t32 64q0 38 -29.5 59.5
t-76.5 22.5q-27 0 -54 -6.5t-52 -17.5z" />
    <glyph glyph-name="sixsuperior" unicode="&#x2076;" horiz-adv-x="405" 
d="M328 711l-36 -48q-82 -23 -132.5 -84t-50.5 -135q-1 -58 28 -91t74 -33q38 0 61.5 23t23.5 63q0 44 -25.5 69.5t-65.5 25.5q-18 0 -36 -5.5t-33 -14.5l28 55q11 11 27.5 16t40.5 5q63 0 103 -38.5t40 -98.5q0 -72 -49 -115.5t-122 -43.5q-79 0 -126.5 54t-47.5 130
q0 99 83.5 176t214.5 90z" />
    <glyph glyph-name="sevensuperior" unicode="&#x2077;" horiz-adv-x="319" 
d="M35 700h284l-139 -333q-11 -26 -16 -42.5t-5 -23.5q0 -10 4.5 -18t15.5 -13h-121l160 366q-20 4 -39.5 6t-38.5 2q-39 -1 -72.5 -8t-62.5 -23z" />
    <glyph glyph-name="eightsuperior" unicode="&#x2078;" horiz-adv-x="402" 
d="M113 497q-34 15 -52.5 42t-18.5 56q0 49 41.5 81.5t115.5 32.5q75 0 114.5 -30t40.5 -78q0 -28 -18.5 -53t-55.5 -42q58 -29 77.5 -53t19.5 -60q0 -60 -49 -96t-127 -36q-79 0 -128 33t-48 91q-1 40 21.5 65.5t66.5 46.5zM181 545l51 -18q28 16 40.5 33t12.5 35
q0 30 -25 48.5t-66 18.5q-37 0 -57.5 -14.5t-20.5 -37.5q-1 -22 14.5 -37.5t50.5 -27.5zM219 455l-51 17q-32 -12 -49.5 -33t-17.5 -47q0 -36 29 -59t70 -22q46 0 73.5 19.5t27.5 50.5q0 24 -16 40.5t-66 33.5z" />
    <glyph glyph-name="ninesuperior" unicode="&#x2079;" horiz-adv-x="405" 
d="M77 259l36 48q81 22 132 83t51 136q0 57 -29 90.5t-73 33.5q-39 0 -62 -23.5t-23 -62.5q-1 -45 24.5 -70t66.5 -25q17 0 35 5t34 15l-28 -55q-12 -12 -28.5 -16.5t-39.5 -4.5q-64 0 -103.5 38t-39.5 99q0 71 48.5 114.5t122.5 44.5q78 0 125.5 -54.5t48.5 -129.5
q0 -100 -84 -177t-214 -89z" />
    <glyph glyph-name="nsuperior" unicode="&#x207f;" horiz-adv-x="386" 
d="M30 699h59q12 -1 20.5 3t16.5 13v-41q15 18 37 27.5t52 9.5q53 0 84 -27.5t32 -72.5v-162q-1 -16 6.5 -27.5t22.5 -19.5h-125q4 2 8.5 5.5t8.5 8.5q6 7 9 14.5t3 18.5v146q-1 27 -18.5 43.5t-49.5 16.5q-35 -1 -53 -16.5t-17 -47.5v-142q0 -11 2.5 -18.5t9.5 -14.5
q3 -5 7.5 -8.5t9.5 -5.5h-125q14 8 21.5 19.5t7.5 27.5v203q0 15 -7.5 26.5t-21.5 20.5z" />
    <glyph glyph-name="zeroinferior" unicode="&#x2080;" horiz-adv-x="426" 
d="M215 439q77 0 126 -64.5t49 -163.5q0 -98 -49 -159t-130 -61q-78 0 -126.5 64t-48.5 164q-1 97 48 158.5t131 61.5zM212 50q42 0 70.5 40.5t28.5 111.5q0 79 -26 128.5t-70 49.5q-43 -1 -71.5 -41.5t-28.5 -110.5q0 -78 25 -128t72 -50z" />
    <glyph glyph-name="oneinferior" unicode="&#x2081;" horiz-adv-x="229" 
d="M153 462v-397q-1 -23 8 -38.5t28 -26.5h-144q19 9 28.5 24t9.5 41v269h-83q51 23 87.5 53t65.5 75z" />
    <glyph glyph-name="twoinferior" unicode="&#x2082;" horiz-adv-x="315" 
d="M24 335l37 83q20 7 42.5 10.5t49.5 3.5q62 0 96.5 -28.5t34.5 -70.5q0 -20 -6.5 -38.5t-30.5 -53.5l-124 -181q23 -3 40.5 -3.5t33.5 -0.5q42 -1 72 6t66 24l-38 -86h-297l178 261q11 16 17 31t6 27q0 23 -18 37.5t-46 15.5q-21 0 -50 -10t-63 -27z" />
    <glyph glyph-name="threeinferior" unicode="&#x2083;" horiz-adv-x="354" 
d="M45 347l34 81q20 5 39.5 8t38.5 3q67 0 108 -29.5t41 -78.5q0 -32 -19 -55.5t-54 -33.5q40 -6 67.5 -37.5t28.5 -74.5q0 -59 -52 -99t-147 -40q-21 1 -41.5 3t-44.5 7l-34 91q39 -23 69 -32.5t60 -9.5q49 0 79.5 22t31.5 58q0 36 -28 56.5t-73 20.5q-12 0 -25 -1.5
t-26 -3.5v64q21 -3 31.5 -3.5t16.5 -0.5q37 0 58.5 17t22.5 43q0 24 -21 41t-58 17q-22 0 -48 -8.5t-55 -24.5z" />
    <glyph glyph-name="fourinferior" unicode="&#x2084;" horiz-adv-x="374" 
d="M191 430h93v-282q17 1 37 7t43 17l-34 -87h-46v-20q-1 -23 8 -38.5t28 -26.5h-144q19 9 28.5 24t9.5 41v20h-224zM214 357l-121 -209q18 -3 38.5 -4t39.5 -1q10 0 20.5 0.5t22.5 1.5v212z" />
    <glyph glyph-name="fiveinferior" unicode="&#x2085;" horiz-adv-x="356" 
d="M58 430h241v-85q-23 13 -46.5 19.5t-56.5 6.5q-20 0 -37.5 -1t-33.5 -2l-6 -95q13 3 27.5 4.5t31.5 1.5q77 0 117.5 -38.5t40.5 -94.5q0 -67 -50.5 -111t-143.5 -44q-23 0 -44 3t-43 8l-35 80q28 -17 58.5 -24.5t59.5 -7.5q55 0 87 24t32 64q0 38 -29.5 60t-76.5 22
q-27 0 -54 -6.5t-52 -17.5z" />
    <glyph glyph-name="sixinferior" unicode="&#x2086;" horiz-adv-x="405" 
d="M328 441l-36 -48q-82 -23 -132.5 -84t-50.5 -135q0 -58 28.5 -91t73.5 -33q38 0 61.5 23t23.5 63q0 44 -25.5 69.5t-65.5 25.5q-18 0 -36 -5.5t-33 -14.5l28 55q11 11 27.5 16t40.5 5q63 0 102.5 -38.5t40.5 -98.5q0 -72 -49 -115.5t-122 -43.5q-79 0 -126.5 54
t-47.5 130q0 99 83.5 176t214.5 90z" />
    <glyph glyph-name="seveninferior" unicode="&#x2087;" horiz-adv-x="319" 
d="M35 430h284l-139 -333q-11 -26 -16 -42.5t-5 -23.5q0 -10 4.5 -18t15.5 -13h-121l160 366q-20 4 -39.5 6t-38.5 2q-39 -1 -72.5 -8t-62.5 -23z" />
    <glyph glyph-name="eightinferior" unicode="&#x2088;" horiz-adv-x="402" 
d="M113 227q-34 15 -53 42t-18 56q0 49 41.5 81.5t115.5 32.5q75 0 115 -30t40 -78q0 -28 -18.5 -53t-55.5 -42q58 -29 77.5 -53t19.5 -60q0 -60 -49 -96t-127 -36q-81 0 -128.5 33t-47.5 91q0 39 18.5 62t69.5 50zM181 275l51 -18q28 16 40 33t13 35q0 30 -25 48.5
t-66 18.5q-37 0 -57.5 -14.5t-20.5 -37.5q0 -22 15 -37.5t50 -27.5zM219 185l-51 17q-32 -12 -49.5 -33t-17.5 -47q0 -36 29 -58.5t70 -22.5q46 0 73.5 19.5t27.5 50.5q-1 24 -16.5 40.5t-65.5 33.5z" />
    <glyph glyph-name="nineinferior" unicode="&#x2089;" horiz-adv-x="405" 
d="M77 -11l36 48q81 22 132 83t51 136q0 57 -29 90.5t-73 33.5q-39 0 -62 -23.5t-23 -62.5q0 -45 25 -70t66 -25q17 0 35 5t34 15l-28 -55q-12 -12 -28.5 -16.5t-39.5 -4.5q-64 0 -103.5 38t-39.5 99q0 71 48.5 115t122.5 44q78 0 126 -54.5t48 -129.5q0 -100 -84 -177
t-214 -89z" />
    <glyph glyph-name="Euro" unicode="&#x20ac;" horiz-adv-x="734" 
d="M632 443l-19 -54h-394q-1 -8 -1 -11.5v-5.5v-26t1 -13h373l-19 -54h-345q23 -101 98 -155t178 -54q74 0 132.5 18t102.5 56l-68 -134q-44 -13 -84.5 -19t-90.5 -6q-160 0 -262.5 77t-124.5 217h-73l19 54h49q-1 6 -1 8v4q0 16 0.5 25.5t2.5 18.5h-70l19 54h61
q27 118 125.5 195t250.5 77q29 0 56.5 -3t73.5 -13q32 -8 53 -11t45 -4l-42 -118q-41 28 -92 46t-106 18q-91 0 -161 -50.5t-92 -136.5h405z" />
    <glyph glyph-name="afii61352" unicode="&#x2116;" horiz-adv-x="1192" 
d="M40 700h149q3 -8 7 -15t8 -11l409 -510v436q0 37 -11 59.5t-35 40.5h170q-25 -18 -36 -40.5t-10 -59.5v-628q-40 12 -73.5 34t-82.5 85l-371 464v-455q-1 -38 10 -60.5t36 -39.5h-170q24 17 34.5 39.5t11.5 60.5v500q-1 37 -11.5 59.5t-34.5 40.5zM942 225
q-75 0 -128.5 53.5t-52.5 130.5q0 77 53 131t128 54q74 -1 127 -54.5t53 -130.5t-53 -131t-127 -53zM940 287q45 0 74.5 31t29.5 92q-1 58 -30 90t-74 32q-48 -1 -74.5 -35t-26.5 -87q0 -58 28 -90.5t73 -32.5zM771 82v74h341v-74h-341z" />
    <glyph glyph-name="trademark" unicode="&#x2122;" horiz-adv-x="718" 
d="M183 656v-224q0 -20 7.5 -31t21.5 -17h-110q12 8 19 19t7 29v224h-47q-15 0 -30.5 -9t-25.5 -25l24 80q32 -3 31.5 -2.5t0.5 0.5h170h15.5t17.5 2l-20 -69q-5 11 -14 16.5t-23 6.5h-44zM299 700h91l85 -221l77 187q7 18 8.5 22.5t2.5 11.5h89q-12 -11 -17 -22t-2 -27
l29 -222q1 -16 9 -27.5t22 -17.5h-112q14 9 20 20.5t3 38.5l-22 185l-102 -252l-18 14q-6 4 -13 15.5t-11 23.5l-79 200l-26 -191q-4 -24 2 -35.5t20 -18.5h-98q12 10 19.5 24t10.5 31l31 211q3 23 -2 33.5t-17 16.5z" />
    <glyph glyph-name="Omega" unicode="&#x2126;" horiz-adv-x="768" 
d="M263 79v36q-96 18 -160 94.5t-63 180.5q0 133 91.5 228.5t252.5 96.5q148 -1 246 -89.5t98 -235.5q0 -104 -63.5 -180.5t-159.5 -94.5v-36h25q72 0 122.5 15.5t79.5 50.5l-36 -145h-278v180q80 3 137.5 59t57.5 152q-1 97 -61.5 169t-165.5 73q-110 0 -170.5 -69
t-60.5 -173q0 -97 56 -152.5t139 -58.5v-180h-278l-36 145q28 -35 78.5 -50.5t123.5 -15.5h25z" />
    <glyph glyph-name="onethird" unicode="&#x2153;" horiz-adv-x="697" 
d="M154 732v-397q-1 -23 8 -38.5t28 -26.5h-145q19 9 28.5 24t9.5 41v269h-83q52 23 89 53.5t65 74.5zM399 715h54l-279 -738h-54zM388 347l34 81q20 5 39.5 8t38.5 3q67 0 108 -29.5t41 -78.5q-1 -32 -19.5 -55.5t-53.5 -33.5q40 -6 68 -37.5t28 -74.5q-1 -59 -52.5 -98.5
t-146.5 -40.5q-21 0 -41.5 2.5t-44.5 7.5l-34 91q39 -23 69 -33t60 -9q49 0 80 22t31 58t-28 56.5t-73 20.5q-12 0 -25 -1.5t-26 -3.5v64q21 -3 31.5 -3.5t16.5 -0.5q37 0 59 17t22 43q0 24 -21 41t-58 17q-22 0 -48 -8.5t-55 -24.5z" />
    <glyph glyph-name="twothirds" unicode="&#x2154;" horiz-adv-x="783" 
d="M24 605l37 83q20 7 42.5 10.5t49.5 3.5q62 0 96.5 -28.5t34.5 -70.5q0 -20 -6.5 -38.5t-30.5 -53.5l-124 -181q23 -3 40.5 -3.5t33.5 -0.5q42 0 72 6.5t66 23.5l-38 -86h-297l178 261q11 16 17 31t6 27q0 23 -18 38t-46 15q-21 0 -50 -10t-63 -27zM513 715h54l-279 -738
h-54zM474 347l34 81q20 5 39.5 8t38.5 3q67 0 108 -29.5t41 -78.5q0 -32 -19 -55.5t-54 -33.5q40 -6 68 -37.5t28 -74.5q0 -59 -52 -99t-147 -40q-21 0 -41.5 2.5t-44.5 7.5l-34 91q39 -23 69 -32.5t60 -9.5q49 -1 80 21.5t31 58.5t-28 56.5t-73 20.5q-12 0 -25 -1.5
t-26 -3.5v64q21 -3 31.5 -3.5t16.5 -0.5q37 0 59 17t22 43q0 24 -21 41t-58 17q-22 0 -48 -8.5t-55 -24.5z" />
    <glyph glyph-name="oneeighth" unicode="&#x215b;" horiz-adv-x="758" 
d="M154 732v-397q-1 -23 8 -38.5t28 -26.5h-145q19 9 28.5 24t9.5 41v269h-83q52 23 89 53.5t65 74.5zM418 715h54l-279 -738h-54zM469 227q-34 15 -52.5 42t-18.5 56q0 49 41.5 81.5t115.5 32.5q75 0 115 -30t40 -78q0 -28 -18.5 -53t-55.5 -42q58 -29 77.5 -53t19.5 -60
q0 -60 -49 -96t-127 -36q-79 0 -127.5 33t-48.5 91q0 40 22 65.5t66 46.5zM537 275l51 -18q28 16 40.5 33t12.5 35q0 30 -25 48.5t-66 18.5q-37 0 -58 -14.5t-20 -37.5q0 -22 15 -37.5t50 -27.5zM575 185l-51 17q-32 -12 -49.5 -33t-17.5 -47q-1 -36 28.5 -58.5t70.5 -22.5
q46 0 73 19.5t28 50.5q0 24 -16 40.5t-66 33.5z" />
    <glyph glyph-name="threeeighths" unicode="&#x215c;" horiz-adv-x="882" 
d="M45 617l34 81q20 5 39.5 8t38.5 3q67 0 108 -29.5t41 -78.5q0 -32 -19 -55.5t-54 -33.5q40 -6 67.5 -37.5t28.5 -74.5q-1 -59 -52.5 -99t-146.5 -40q-21 -1 -41.5 1.5t-44.5 8.5l-34 91q39 -23 69 -33t60 -9q49 0 80 22t31 58q-1 36 -28.5 56.5t-72.5 20.5
q-12 0 -25 -1.5t-26 -3.5v64q21 -3 31.5 -3.5t16.5 -0.5q37 0 59 17t22 43q0 24 -21 41t-58 17q-22 0 -48 -8.5t-55 -24.5zM537 715h54l-279 -738h-54zM593 227q-34 15 -52.5 42t-18.5 56q0 49 41.5 81.5t115.5 32.5q75 0 115 -30t40 -78q-1 -28 -19 -53t-55 -42
q58 -29 77.5 -53t19.5 -60q0 -60 -49 -96t-127 -36q-79 1 -127.5 33.5t-48.5 90.5q0 40 22 65.5t66 46.5zM661 275l51 -18q28 16 40.5 33t12.5 35q0 30 -25 48.5t-66 18.5q-37 0 -57.5 -14.5t-20.5 -37.5q0 -22 15 -37.5t50 -27.5zM699 185l-51 17q-32 -12 -49.5 -33
t-17.5 -47q0 -36 29 -59t70 -22q46 0 73.5 19.5t27.5 50.5q0 24 -16 40.5t-66 33.5z" />
    <glyph glyph-name="fiveeighths" unicode="&#x215d;" horiz-adv-x="884" 
d="M58 700h241v-85q-23 13 -46.5 19.5t-56.5 6.5q-20 0 -37.5 -1t-33.5 -2l-6 -95q13 3 27.5 4.5t31.5 1.5q77 0 117.5 -38.5t40.5 -94.5q0 -67 -50.5 -111t-143.5 -44q-23 0 -44 2.5t-43 8.5l-35 80q28 -17 58.5 -24.5t59.5 -7.5q55 0 87 24t32 64q0 38 -29.5 59.5
t-76.5 22.5q-27 0 -54 -6.5t-52 -17.5zM536 715h54l-279 -738h-54zM595 227q-34 15 -52.5 42t-18.5 56q0 49 41.5 81.5t115.5 32.5q75 0 114.5 -30t40.5 -78q0 -28 -18.5 -53t-55.5 -42q58 -29 77.5 -53t19.5 -60q0 -60 -49 -96t-127 -36q-79 0 -127.5 33t-48.5 91
q0 40 22 65.5t66 46.5zM663 275l51 -18q28 16 40.5 33t12.5 35q0 30 -25 48.5t-66 18.5q-37 0 -58 -14.5t-20 -37.5q0 -22 15 -37.5t50 -27.5zM701 185l-51 17q-32 -12 -49.5 -33t-17.5 -47q0 -36 29 -58.5t70 -22.5q46 0 73.5 19.5t27.5 50.5q0 24 -16 40.5t-66 33.5z" />
    <glyph glyph-name="seveneighths" unicode="&#x215e;" horiz-adv-x="828" 
d="M35 700h284l-139 -333q-11 -26 -16 -42.5t-5 -23.5q0 -10 4.5 -18t15.5 -13h-121l160 366q-20 4 -39.5 6t-38.5 2q-39 -1 -72.5 -8t-62.5 -23zM469 715h54l-279 -738h-54zM539 227q-34 15 -52.5 42t-18.5 56q0 49 41.5 81.5t115.5 32.5q75 0 115 -30t40 -78
q0 -28 -18.5 -53t-55.5 -42q58 -29 77.5 -53t19.5 -60q0 -60 -49 -96t-127 -36q-79 0 -127.5 33t-48.5 91q0 40 22 65.5t66 46.5zM607 275l51 -18q28 16 40.5 33t12.5 35q-1 30 -25.5 48.5t-65.5 18.5q-37 0 -57.5 -14.5t-20.5 -37.5q-1 -22 14.5 -37.5t50.5 -27.5zM645 185
l-51 17q-32 -12 -49.5 -33t-17.5 -47q0 -36 29 -58.5t70 -22.5q46 0 73.5 19.5t27.5 50.5q-1 24 -16.5 40.5t-65.5 33.5z" />
    <glyph glyph-name="partialdiff" unicode="&#x2202;" horiz-adv-x="606" 
d="M163 684l36 41q158 -11 262.5 -123t104.5 -300q0 -148 -74.5 -232t-203.5 -85q-117 0 -189.5 66t-71.5 179q-1 119 70 189t179 70q61 0 105 -19.5t74 -55.5q-18 99 -96.5 173.5t-195.5 96.5zM291 413q-74 0 -117 -50.5t-43 -134.5q0 -79 45.5 -123t115.5 -44
q77 0 123.5 49t46.5 131q0 74 -46.5 122.5t-124.5 49.5z" />
    <glyph glyph-name="Delta" unicode="&#x2206;" horiz-adv-x="623" 
d="M203 700h164l286 -700h-683l256 633q9 24 2.5 41t-25.5 26zM297 609l-209 -534h420z" />
    <glyph glyph-name="product" unicode="&#x220f;" horiz-adv-x="727" 
d="M89 100v500q0 39 -11 60.5t-35 39.5h641q-25 -18 -36 -39.5t-10 -60.5v-500q0 -40 10.5 -61.5t35.5 -38.5h-194q24 17 35 38.5t11 61.5v520h-345v-520q0 -40 10.5 -61.5t35.5 -38.5h-194q24 17 35 38.5t11 61.5z" />
    <glyph glyph-name="summation" unicode="&#x2211;" horiz-adv-x="481" 
d="M17 700h439v-115q-18 20 -43 28t-62 8l-152 -3l155 -262l-183 -267q26 -4 61 -6.5t64 -2.5q55 0 101 14t84 47l-42 -141h-439q19 16 40 41t45 59l164 236l-154 264q-15 24 -37.5 53t-40.5 47z" />
    <glyph glyph-name="minus" unicode="&#x2212;" 
d="M38 323v54h564v-54h-564z" />
    <glyph glyph-name="division" unicode="&#x2215;" horiz-adv-x="128" 
d="M169 715h54l-279 -738h-54z" />
    <glyph glyph-name="radical" unicode="&#x221a;" horiz-adv-x="725" 
d="M5 427h249l169 -438l157 769h140v-41h-107l-189 -928h-18l-245 597h-156v41z" />
    <glyph glyph-name="infinity" unicode="&#x221e;" horiz-adv-x="752" 
d="M30 350q0 66 46.5 111.5t115.5 45.5q45 0 87 -24.5t97 -91.5q55 68 96 91.5t88 24.5q72 0 117 -47t45 -110q-1 -67 -47.5 -112t-114.5 -45q-46 0 -88 24t-96 92q-56 -69 -97 -92.5t-87 -23.5q-73 -1 -117.5 46t-44.5 111zM100 350q0 -46 25.5 -76.5t66.5 -30.5
q35 0 76 27.5t78 79.5q-37 51 -78 79t-76 28q-41 -1 -66.5 -31.5t-25.5 -75.5zM652 350q-1 45 -26.5 76t-65.5 31q-36 0 -77 -28t-77 -79q36 -52 77 -79.5t77 -27.5q40 0 66 30.5t26 76.5z" />
    <glyph glyph-name="integral" unicode="&#x222b;" horiz-adv-x="439" 
d="M234 570l69 -559q2 -23 3.5 -37.5t1.5 -26.5q0 -47 -15 -82t-45 -63q-29 -24 -65.5 -37.5t-81.5 -13.5q-29 0 -48.5 5t-37.5 15l20 98q22 -30 49.5 -48t51.5 -18q34 1 52.5 23t19.5 72q-1 17 -1.5 31t-1.5 25l-69 559q-3 23 -4 37.5t-1 26.5q0 47 14.5 82t45.5 63
q28 24 64.5 37.5t82.5 13.5q28 0 47.5 -5t38.5 -15l-20 -98q-21 28 -50 47t-51 19q-35 0 -53.5 -22.5t-18.5 -72.5q-1 -17 0 -31t3 -25z" />
    <glyph glyph-name="approxequal" unicode="&#x2248;" 
d="M111 371l-34 17q31 57 67.5 83.5t86.5 27.5q26 0 51.5 -7.5t85.5 -40.5q23 -13 41 -18.5t36 -5.5q22 0 44 19t41 59l34 -16q-34 -63 -66.5 -89t-73.5 -26q-26 -1 -48.5 5.5t-83.5 39.5q-36 19 -51.5 24t-32.5 5q-28 0 -51 -18.5t-46 -58.5zM111 191l-34 17q31 57 67.5 84
t86.5 27q26 0 51.5 -7.5t85.5 -40.5q23 -13 41 -18.5t36 -5.5q22 -1 44 18.5t41 59.5l34 -16q-34 -63 -66.5 -89t-73.5 -26q-26 0 -48.5 6t-83.5 39q-36 19 -51.5 24t-32.5 5q-28 0 -51 -18.5t-46 -58.5z" />
    <glyph glyph-name="notequal" unicode="&#x2260;" 
d="M39 467h328l110 158l45 -31l-89 -127h169v-55h-207l-87 -124h294v-55h-333l-108 -156l-45 32l87 124h-164v55h202l86 124h-288v55z" />
    <glyph glyph-name="lessequal" unicode="&#x2264;" 
d="M77 406l501 317l26 -40l-434 -277l433 -277l-26 -40zM35 269l26 40l501 -317l-26 -40z" />
    <glyph glyph-name="greaterequal" unicode="&#x2265;" 
d="M563 406l-500 -317l-26 40l435 277l-435 277l26 40zM605 269l-501 -317l-26 40l501 317z" />
    <glyph glyph-name="starcentered" unicode="&#x22c6;" horiz-adv-x="439" 
d="M238 393l90 37l41 38l30 -94l-54 7l-93 -23l61 -74l49 -27l-80 -58l-10 54l-51 81l-51 -81l-11 -55l-79 58l48 27l61 73l-93 23l-56 -6l31 93l41 -37l88 -36l-7 95l-23 51h98l-23 -51z" />
    <glyph glyph-name="diameter" unicode="&#x2300;" horiz-adv-x="664" 
d="M45 -38l89 109q-41 39 -62.5 90t-21.5 110q0 116 82.5 198t199.5 82q44 0 85.5 -14t76.5 -37l90 108l35 -30l-90 -108q39 -40 60.5 -90.5t22.5 -108.5q0 -120 -82 -201t-198 -81q-49 0 -90 12.5t-72 38.5l-88 -107zM168 109l292 351q-26 20 -58.5 30t-69.5 10
q-97 0 -164 -67.5t-67 -161.5q0 -43 16.5 -85.5t50.5 -76.5zM495 430l-292 -351q26 -21 59 -30t70 -9q94 0 161.5 67t67.5 164q0 47 -17 87t-49 72z" />
    <glyph glyph-name="lozenge" unicode="&#x25ca;" horiz-adv-x="458" 
d="M360 350l-131 196l-131 -196l131 -196zM435 350l-206 -293l-206 293l206 293z" />
    <glyph glyph-name="lefthalfblackcircle" unicode="&#x25d6;" horiz-adv-x="843" 
d="M332 428l89 274l90 -274h287l-233 -169l89 -273l-233 169l-232 -169l88 273l-232 169h287zM365 384h-187l151 -109l-57 -175l149 110l148 -105l-55 170l151 109h-187l-56 174z" />
    <glyph glyph-name="openbullet" unicode="&#x25e6;" horiz-adv-x="311" 
d="M45 590q-1 45 31.5 77.5t78.5 32.5q45 0 77.5 -32.5t32.5 -77.5q0 -46 -32.5 -78t-77.5 -32q-46 0 -78 32t-32 78zM87 590q0 -29 19.5 -48.5t48.5 -19.5q28 0 48 19.5t20 48.5q0 28 -20 48t-48 20q-29 -1 -48.5 -20.5t-19.5 -47.5z" />
    <glyph glyph-name="DieresisAcute" unicode="&#x26cc;" horiz-adv-x="418" 
d="M0 818q0 28 19.5 47.5t48.5 20.5q28 0 48 -20t20 -48q0 -29 -20 -48.5t-48 -19.5q-29 0 -48.5 19.5t-19.5 48.5zM316 1012l87 -61l-262 -186l-12 6zM282 818q0 28 19.5 48t48.5 20q28 0 47.5 -20t20.5 -48q-1 -29 -20.5 -48.5t-47.5 -19.5q-29 0 -48.5 19.5t-19.5 48.5z
" />
    <glyph glyph-name="DieresisGrave" unicode="&#x26cd;" horiz-adv-x="418" 
d="M0 818q0 28 19.5 47.5t48.5 20.5q28 0 48 -20t20 -48q0 -29 -20 -48.5t-48 -19.5q-29 0 -48.5 19.5t-19.5 48.5zM282 818q0 28 19.5 48t48.5 20q28 0 47.5 -20t20.5 -48q-1 -29 -20.5 -48.5t-47.5 -19.5q-29 0 -48.5 19.5t-19.5 48.5zM102 1012l187 -241l-12 -6l-262 186
z" />
    <glyph glyph-name="Accent" unicode="&#xf401;" horiz-adv-x="2" 
d="M-232 917l61 -87l-307 -86l-10 10z" />
    <glyph glyph-name="accentbefore" unicode="&#xf402;" horiz-adv-x="2" 
d="M418 710l54 -77l-298 -83l-3 3z" />
    <glyph glyph-name="Accentbefore" unicode="&#xf403;" horiz-adv-x="2" 
d="M509 917l61 -87l-307 -86l-10 10z" />
    <glyph glyph-name="Breve" unicode="&#xf406;" horiz-adv-x="328" 
d="M0 930h66q4 -46 29.5 -73t68.5 -27q42 0 67.5 27t30.5 73h66q-7 -74 -50 -122t-114 -48q-72 0 -115 48t-49 122z" />
    <glyph glyph-name="Cedilla" unicode="&#xf407;" horiz-adv-x="221" 
d="M99 -13h46l-26 -36l1 -2q44 6 72.5 -16t28.5 -61q0 -44 -37 -71t-85 -27q-29 0 -53.5 12t-45.5 35l32 40q14 -18 30.5 -27t38.5 -9q25 0 42 12.5t17 29.5t-15.5 27.5t-44.5 10.5h-8t-20 -2l-11 27z" />
    <glyph glyph-name="Circumflex" unicode="&#xf408;" horiz-adv-x="390" 
d="M195 912l195 -182q-52 4 -101.5 20.5t-93.5 45.5q-45 -29 -94.5 -45.5t-100.5 -20.5z" />
    <glyph glyph-name="Commaaccent" unicode="&#xf409;" horiz-adv-x="223" 
d="M92 -290h-52q25 25 47 57.5t23 45.5q-1 5 -2 7t-5 2q-28 6 -41.5 21.5t-12.5 40.5q0 29 18 45t47 16q31 0 50 -20.5t19 -54.5q0 -40 -26 -82.5t-65 -77.5z" />
    <glyph glyph-name="Apostrophe" unicode="&#xf40a;" horiz-adv-x="210" 
d="M81 488h-41q29 31 46.5 57t17.5 42q0 5 -2 8.5t-8 4.5q-24 3 -37.5 18t-13.5 37q0 26 16 43t45 17t47.5 -18.5t18.5 -48.5q0 -38 -24.5 -81.5t-64.5 -78.5z" />
    <glyph glyph-name="Dotaccent" unicode="&#xf40b;" horiz-adv-x="136" 
d="M0 809q0 28 19.5 48t48.5 20q28 0 48 -20t20 -48q0 -29 -20 -48.5t-48 -19.5q-29 0 -48.5 19.5t-19.5 48.5z" />
    <glyph glyph-name="Ring" unicode="&#xf40c;" horiz-adv-x="184" 
d="M0 819q0 37 27.5 64t64.5 27q36 -1 64 -27.5t28 -63.5q0 -38 -28 -65t-64 -26q-37 0 -64.5 26.5t-27.5 64.5zM52 819q0 -24 11.5 -37t28.5 -13q16 0 28 13t12 37q0 23 -12 36.5t-28 13.5q-17 0 -29 -13.5t-11 -36.5z" />
    <glyph glyph-name="Tilde" unicode="&#xf40d;" horiz-adv-x="412" 
d="M0 732l34 77q18 42 46 52t98 0l40 -6q31 -5 52 -7t35 -2q35 0 58 9.5t49 30.5l-34 -77q-19 -43 -47 -53t-97 1l-40 6q-32 4 -53 6.5t-34 2.5q-36 0 -59 -10t-48 -30z" />
    <glyph glyph-name="Ogonek" unicode="&#xf40e;" horiz-adv-x="215" 
d="M103 5h47q-48 -27 -67 -48.5t-18 -44.5q0 -18 9.5 -30t29.5 -12q25 0 47.5 12t38.5 32l25 -32q-22 -32 -51 -48.5t-64 -16.5q-44 0 -72 22.5t-28 59.5q0 40 28.5 71t74.5 35z" />
    <glyph glyph-name="Udotaccent" unicode="&#xf47e;" horiz-adv-x="730" 
d="M40 700h194q-25 -18 -35.5 -40.5t-10.5 -59.5v-357q0 -96 44 -136t123 -40q84 0 133.5 42.5t50.5 120.5v370q-1 37 -11.5 59.5t-34.5 40.5h194q-25 -18 -36 -40.5t-10 -59.5v-500q-1 -38 10 -60.5t36 -39.5h-145v67q-41 -43 -91 -62t-112 -20q-125 0 -189 61.5t-64 183.5
v370q-1 37 -11.5 59.5t-34.5 40.5zM297 809q0 28 19.5 48t48.5 20q28 0 48 -20t20 -48q0 -29 -20 -48.5t-48 -19.5q-29 0 -48.5 19.5t-19.5 48.5z" />
    <glyph glyph-name="udotaccent" unicode="&#xf47f;" horiz-adv-x="554" 
d="M26 485h77q17 -1 29 3t24 13v-310q-1 -68 31 -99t88 -31q54 -1 88.5 34t34.5 90v230q0 24 -8.5 40.5t-26.5 29.5h77q17 -1 29 3t24 13v-431q0 -25 8 -41.5t27 -28.5h-126v70q-25 -42 -65 -63.5t-95 -21.5q-81 1 -131 48t-50 129v253q0 24 -8.5 40.5t-26.5 29.5zM213 619
q0 26 18 45t46 19q27 0 45.5 -18.5t18.5 -45.5q0 -28 -18.5 -46t-45.5 -18q-28 0 -46 18.5t-18 45.5z" />
    <glyph glyph-name="Germandbls" unicode="&#xf485;" horiz-adv-x="1022" 
d="M449 693v-117q-39 31 -80.5 48t-90.5 17q-69 0 -103 -29t-34 -72q0 -35 28.5 -62.5t147.5 -79.5q122 -55 155.5 -96t33.5 -102q0 -97 -74 -156t-207 -59q-52 0 -98 7t-93 23l-29 132q47 -42 104 -62t122 -20q74 0 118.5 28.5t44.5 78.5q0 39 -26.5 68t-142.5 82
q-124 55 -161.5 99.5t-37.5 106.5q-1 86 66 136.5t196 50.5q43 0 82.5 -5.5t78.5 -16.5zM960 693v-117q-39 31 -80.5 48t-90.5 17q-69 0 -103 -29t-34 -72q0 -35 28.5 -62.5t147.5 -79.5q122 -55 155.5 -96t33.5 -102q0 -97 -74 -156t-207 -59q-52 0 -98 7t-93 23l-29 132
q47 -42 104 -62t122 -20q74 0 118.5 28.5t44.5 78.5q0 39 -26.5 68t-142.5 82q-124 55 -162 99.5t-37 106.5q0 86 66.5 136t195.5 51q43 0 82.5 -5.5t78.5 -16.5z" />
    <glyph glyph-name="cyrTecedilla" unicode="&#xf4c4;" horiz-adv-x="492" 
d="M295 620v-520q0 -38 10.5 -60.5t35.5 -39.5h-64l-25 -35l1 -2q4 1 6.5 1h5.5q37 0 63 -20t26 -58q0 -44 -37 -71t-85 -27q-29 0 -53.5 12t-45.5 35l32 40q14 -18 30.5 -27t38.5 -9q25 0 42 12.5t17 29.5t-15.5 27.5t-44.5 10.5h-8t-20 -2l-11 27l37 56h-84
q24 17 34.5 39.5t11.5 60.5v520l-119 1q-33 0 -58 -11t-46 -31l40 125q13 -3 25.5 -4t38.5 0h387q13 0 29 1t32 3l-35 -117q-11 18 -29 26t-51 8z" />
    <glyph glyph-name="cyrtecedilla" unicode="&#xf4c5;" horiz-adv-x="397" 
d="M243 415v-345q0 -25 8 -41.5t27 -28.5h-49l-15 -40q4 1 8 1h9q38 0 61.5 -18t23.5 -52q-1 -35 -30 -57.5t-70 -22.5q-31 0 -60 11t-55 31l34 43q19 -17 38 -26t37 -9q17 0 28.5 9.5t11.5 23.5q0 15 -9.5 22t-28.5 7q-7 1 -13 0t-12 -3l-28 43l16 37h-62q18 12 26.5 28.5
t8.5 41.5v345h-77q-32 -1 -53 -9.5t-38 -28.5l32 116q8 -4 16 -6t30 -2h311q15 0 26 1.5t22 6.5l-24 -111q-9 16 -24 24t-42 9h-84z" />
    </font>
</defs>
</svg>
