<?xml version="1.0"?>
<svg height="48" width="48" viewBox="0 0 48 48" xmlns="http://www.w3.org/2000/svg" xmlns:xlink="http://www.w3.org/1999/xlink">
<linearGradient id="a" x1="-2247" x2="-2225.6" y1="365.76" y2="324.21" gradientTransform="matrix(1 0 0 -1 2229.2 311.64)" gradientUnits="userSpaceOnUse">
<stop stop-color="#5b779e" offset="0"/>
<stop stop-color="#2d3b50" offset=".399"/>
<stop stop-color="#0c0e14" offset="1"/>
</linearGradient>
<linearGradient id="b">
<stop stop-opacity="0" offset="0"/>
<stop stop-opacity=".62" offset="1"/>
</linearGradient>
<linearGradient id="c" x1="-2269.2" x2="-2262.7" y1="408.9" y2="394.7" gradientTransform="matrix(1 0 0 -1 2259.2 363.86)" gradientUnits="userSpaceOnUse" xlink:href="#b"/>
<linearGradient id="d">
<stop stop-color="#e6f1fd" offset="0"/>
<stop stop-color="#bdd9f9" offset="0"/>
<stop stop-color="#bdd9f9" offset=".065"/>
<stop stop-color="#1c3556" stop-opacity=".1" offset="1"/>
</linearGradient>
<radialGradient id="e" cx="-2580.2" cy="505.22" r="7.5" gradientTransform="matrix(3.7445 -.7613 -.396 -1.9477 9848.5 -1026.2)" gradientUnits="userSpaceOnUse" xlink:href="#d"/>
<linearGradient id="f" x1="-2286.3" x2="-2275" y1="410.38" y2="386.13" gradientTransform="matrix(1 0 0 -1 2259.2 363.86)" gradientUnits="userSpaceOnUse" xlink:href="#b"/>
<radialGradient id="g" cx="-2579.1" cy="509.85" r="7.5" gradientTransform="matrix(3.7445 -.7613 -.396 -1.9477 9841.2 -1010.4)" gradientUnits="userSpaceOnUse" xlink:href="#d"/>
<linearGradient id="h" x1="-2191.4" x2="-2185.1" y1="412.55" y2="406.98" gradientTransform="matrix(1 0 0 -1 2229.4 417.58)" gradientUnits="userSpaceOnUse">
<stop stop-color="#fdec97" offset="0"/>
<stop stop-color="#fdec97" offset=".353"/>
<stop stop-color="#fdec97" offset=".513"/>
<stop stop-color="#db990f" offset=".628"/>
<stop stop-color="#db990f" offset="1"/>
</linearGradient>
<linearGradient id="i">
<stop stop-color="#ffdc76" offset="0"/>
<stop stop-color="#e4903b" offset=".327"/>
<stop stop-color="#ca4400" offset=".451"/>
<stop stop-color="#fdec97" offset=".58"/>
<stop stop-color="#db990f" offset=".704"/>
<stop stop-color="#db990f" offset="1"/>
</linearGradient>
<linearGradient id="j" x1="-2190.9" x2="-2184.3" y1="374.29" y2="381.04" gradientTransform="matrix(1 0 0 -1 2229.4 417.58)" gradientUnits="userSpaceOnUse" xlink:href="#i"/>
<linearGradient id="k" x1="-2221.4" x2="-2225.8" y1="375.5" y2="380.36" gradientTransform="matrix(1 0 0 -1 2229.4 417.58)" gradientUnits="userSpaceOnUse" xlink:href="#i"/>
<linearGradient id="l" x1="-2225.7" x2="-2219.7" y1="406.59" y2="412.52" gradientTransform="matrix(1 0 0 -1 2229.4 417.58)" gradientUnits="userSpaceOnUse">
<stop stop-color="#ca4400" offset="0"/>
<stop stop-color="#ca4400" offset=".353"/>
<stop stop-color="#fdec97" offset=".513"/>
<stop stop-color="#db990f" offset=".628"/>
<stop stop-color="#db990f" offset="1"/>
</linearGradient>
<linearGradient id="m" x1="-2217.4" x2="-2211.9" y1="406.21" y2="381.96" gradientTransform="matrix(1 0 0 -1 2229.4 417.58)" gradientUnits="userSpaceOnUse">
<stop stop-color="#da940f" offset="0"/>
<stop stop-color="#efd11a" offset=".235"/>
<stop stop-color="#efd11a" offset=".75"/>
<stop stop-color="#efd11a" offset=".908"/>
<stop stop-color="#d3900e" offset="1"/>
</linearGradient>
<linearGradient id="n" x1="-2214" x2="-2209.2" y1="406.28" y2="383.42" gradientTransform="matrix(1 0 0 -1 2229.4 417.58)" gradientUnits="userSpaceOnUse">
<stop stop-color="#c63000" offset="0"/>
<stop stop-color="#db9000" offset=".491"/>
<stop stop-color="#db9000" offset=".8"/>
<stop stop-color="#c43b00" offset="1"/>
</linearGradient>
<linearGradient id="o" x1="-2204.5" x2="-2208" y1="395.47" y2="380.78" gradientTransform="matrix(1 0 0 -1 2229.4 417.58)" gradientUnits="userSpaceOnUse">
<stop stop-color="#ad2f00" offset="0"/>
<stop stop-color="#cb7500" offset="1"/>
</linearGradient>
<linearGradient id="p" x1="-2204.5" x2="-2209.6" y1="402.45" y2="386.98" gradientTransform="matrix(1 0 0 -1 2229.4 417.58)" gradientUnits="userSpaceOnUse">
<stop stop-color="#ecd500" offset="0"/>
<stop stop-color="#ecd500" offset=".869"/>
<stop stop-color="#ffef57" offset="1"/>
</linearGradient>
<linearGradient id="q">
<stop stop-color="#ffd511" offset="0"/>
<stop stop-color="#fdf8dc" offset="1"/>
</linearGradient>
<linearGradient id="r" x1="-2215.5" x2="-2214.2" y1="406.48" y2="403.82" gradientTransform="matrix(1 0 0 -1 2229.4 417.58)" gradientUnits="userSpaceOnUse" xlink:href="#q"/>
<linearGradient id="s" x1="-2206.4" x2="-2200.6" y1="402.91" y2="382.79" gradientTransform="matrix(1 0 0 -1 2229.4 417.58)" gradientUnits="userSpaceOnUse">
<stop stop-color="#bd3300" offset="0"/>
<stop stop-color="#bd3300" offset=".188"/>
<stop stop-color="#cb8500" offset=".411"/>
<stop stop-color="#c26f00" offset="1"/>
</linearGradient>
<linearGradient id="t" x1="-2206.6" x2="-2202.7" y1="395.11" y2="381.73" gradientTransform="matrix(1 0 0 -1 2229.4 417.58)" gradientUnits="userSpaceOnUse">
<stop stop-color="#ffd303" offset="0"/>
<stop stop-color="#ffd303" offset=".902"/>
<stop stop-color="#d27e00" offset="1"/>
</linearGradient>
<linearGradient id="u" x1="-2193.9" x2="-2198.3" y1="406.83" y2="380.5" gradientTransform="matrix(1 0 0 -1 2229.4 417.58)" gradientUnits="userSpaceOnUse">
<stop stop-color="#a51f00" offset="0"/>
<stop stop-color="#c67200" offset=".288"/>
<stop stop-color="#c67200" offset=".644"/>
<stop stop-color="#c25500" offset="1"/>
</linearGradient>
<linearGradient id="v" x1="-2197.3" x2="-2201.7" y1="406.26" y2="382.99" gradientTransform="matrix(1 0 0 -1 2229.4 417.58)" gradientUnits="userSpaceOnUse">
<stop stop-color="#cd7c00" offset="0"/>
<stop stop-color="#eed700" offset=".314"/>
<stop stop-color="#eed700" offset="1"/>
</linearGradient>
<linearGradient id="w" x1="-2195.8" x2="-2194.7" y1="406.48" y2="404.2" gradientTransform="matrix(1 0 0 -1 2229.4 417.58)" gradientUnits="userSpaceOnUse" xlink:href="#q"/>
<linearGradient id="x" x1="-2230.5" x2="-2178.7" y1="383.14" y2="404.68" gradientTransform="matrix(1 0 0 -1 2229.4 417.58)" gradientUnits="userSpaceOnUse">
<stop stop-color="#51290e" offset="0"/>
<stop stop-color="#d08e29" offset=".346"/>
<stop stop-color="#e1d02d" offset=".417"/>
<stop stop-color="#f6e57f" offset=".498"/>
<stop stop-color="#f6e57f" offset=".537"/>
<stop stop-color="#e1d02d" offset=".605"/>
<stop stop-color="#d08e29" offset=".687"/>
<stop stop-color="#452a15" offset="1"/>
</linearGradient>
<linearGradient id="y" x1="-2192.4" x2="-2219.2" y1="375.16" y2="413.07" gradientTransform="matrix(1 0 0 -1 2228.8 416.57)" gradientUnits="userSpaceOnUse">
<stop stop-color="#ffe12b" offset="0"/>
<stop stop-color="#fff7c7" stop-opacity="0" offset=".136"/>
<stop stop-color="#fff7c7" stop-opacity="0" offset=".819"/>
<stop stop-color="#ffe12b" offset="1"/>
</linearGradient>
<g transform="translate(29.75,53.719)">
<path d="m14.715-29.794c3e-3 11.346-8.94 20.547-19.976 20.55-11.036 4e-3 -19.986-9.192-19.989-20.538v-0.013c-3e-3 -11.347 8.94-20.548 19.976-20.551s19.985 9.191 19.989 20.538z" fill="url(#a)"/>
<path d="m-3.312-50.062-8 0.5a1.056 1.056 0 0 0 -0.5 0.156l-7 4.5a1.058 1.058 0 0 0 -0.031 1.781c0.923 0.622 1.837 1.338 2.094 2 0.553 1.466 1.181 3.614 1.719 5.469a74.9 74.9 0 0 0 0.75 2.469c0.113 0.342 0.206 0.648 0.312 0.906s0.173 0.454 0.438 0.75c0.04 0.034 0.081 0.065 0.125 0.094 0.473 0.385 0.966 0.596 1.562 0.781s1.284 0.331 1.938 0.438 1.281 0.146 1.844 0.156 0.96 0.133 1.625-0.281c0.032-0.019 0.064-0.04 0.094-0.062 0.285-0.227 0.314-0.379 0.375-0.5s0.113-0.222 0.156-0.344c0.087-0.244 0.166-0.518 0.25-0.844a32.922 32.922 0 0 0 0.844 -4.781c0.072-0.708 0.158-1.177 0-1.812-8e-3 -0.033 0.01-0.06 0-0.094h-0.033c-0.16-0.773-0.57-1.892-1.281-3.156a9.806 9.806 0 0 0 -2.5 -2.906c0.036-0.038 0.117-0.106 0.312-0.188l3.907 0.03c0.117-1e-3 0.233-0.023 0.344-0.062 0.092-0.03 0.189 0.034 0.656-0.188 0.234-0.11 0.52-0.364 0.656-0.625s0.193-0.482 0.219-0.719l0.25-2.281a1.06 1.06 0 0 0 -1.125 -1.187z" fill="url(#c)"/>
<path id="z" d="m-3.25-49-0.25 2.278c-0.07 0.648-0.343 0.49-0.823 0.646l-4.116-0.015c-1.214 0.39-1.347 1.036-1.265 1.588 2.306 1.282 3.746 4.921 3.955 6.002 0.296 1.042-0.845 6.927-1.25 7.25-0.683 0.425-4.73-0.17-5.75-1-0.548-0.615-1.837-6.167-3-9.25-0.428-1.103-1.576-1.878-2.5-2.5l7-4.5z" fill="url(#e)"/>
<path d="m-23.219-37.406a0.93 0.93 0 0 0 -0.812 0.688l-2.406 8.219a0.928 0.928 0 0 0 0.375 1.031c0.923 0.621 1.878 1.346 2.156 2.062a0.886 0.886 0 0 0 0.094 0.156c8e-3 0.027 0.019 0.039 0.031 0.094 0.043 0.186 0.093 0.509 0.156 0.875 0.127 0.732 0.302 1.725 0.531 2.75s0.511 2.084 0.938 3 0.998 1.764 2 2.094c-0.243-0.08-0.041 0.01 0.094 0.094s0.312 0.199 0.531 0.344c0.438 0.29 0.998 0.654 1.562 1.031s1.131 0.777 1.594 1.062c0.231 0.143 0.441 0.248 0.625 0.344 0.092 0.048 0.175 0.085 0.281 0.125s0.168 0.139 0.594 0.062c0.49-0.088 0.641-0.361 0.719-0.5s0.095-0.244 0.125-0.344c0.059-0.199 0.12-0.398 0.156-0.625 0.073-0.455 0.126-1.016 0.188-1.562s0.125-1.099 0.188-1.469c0.026-0.152 0.046-0.219 0.062-0.281 0.069-0.059 0.167-0.051 0.219-0.125 0.204-0.287 0.227-0.585 0.219-0.812-0.017-0.455-0.162-0.803-0.344-1.188-0.364-0.771-0.96-1.658-1.625-2.594-1.283-1.807-2.75-3.586-3.406-4.312-0.055-0.18-0.086-0.365-0.156-0.562-0.087-0.246-0.185-0.514-0.25-0.75 1.383 0.59 2.816 1.122 4.406 1.312a0.916 0.916 0 0 0 0.281 -0.031 5.827 5.827 0 0 0 1.438 -0.438c0.27-0.122 0.556-0.247 0.812-0.469s0.541-0.578 0.594-1.062a0.93 0.93 0 0 0 -0.156 -0.625c-1.777-2.656-4.331-3.335-7-4.312l-1.533-1.876a0.928 0.928 0 0 0 -0.344 -0.25l-2.469-1.062a0.912 0.912 0 0 0 -0.468 -0.094z" fill="url(#f)"/>
<path id="A" d="m-18.975-33.338c2.82 1.052 5.133 1.588 6.779 4.048-0.07 0.647-1.486 1.083-2.061 1.177-1.708-0.205-3.28-0.818-4.823-1.518-1.526-0.329-0.198 2.363-0.116 2.915 1.09 1.186 6.496 7.814 5.012 7.994-0.364 0.045-0.521 4.395-0.86 4.455s-4.462-2.938-4.832-3.059c-2.377-0.783-2.767-8.199-3.155-8.421-0.427-1.103-1.576-1.878-2.5-2.5l2.404-8.212 2.482 1.061z" fill="url(#g)"/>
</g>
<g fill-opacity=".32">
<path d="m44.333 13.145-0.031-6.938a1.235 1.235 0 0 0 -1.25 -1.25l-6.344-0.062a1.24 1.24 0 0 0 -0.906 2.094l6.375 7c0.345 0.381 0.89 0.509 1.37 0.322a1.24 1.24 0 0 0 0.786 -1.166z"/>
<path d="m43.916 13.146-0.031-6.938a0.823 0.823 0 0 0 -0.812 -0.812l-6.344-0.062a0.828 0.828 0 0 0 -0.625 1.375l6.375 7a0.827 0.827 0 0 0 1.437 -0.563z"/>
<path d="m43.646 13.145-0.031-6.938a0.557 0.557 0 0 0 -0.161 -0.401 0.56 0.56 0 0 0 -0.401 -0.162l-6.344-0.062a0.555 0.555 0 0 0 -0.407 0.937l6.375 7a0.554 0.554 0 0 0 0.969 -0.374z"/>
</g>
<path d="m43.34 13.15-0.031-6.938a0.26 0.26 0 0 0 -0.031 -0.094 0.27 0.27 0 0 0 -0.062 -0.094 0.302 0.302 0 0 0 -0.031 -0.031 0.255 0.255 0 0 0 -0.125 -0.031 0.302 0.302 0 0 0 -0.031 -0.031l-6.344-0.062a0.257 0.257 0 0 0 -0.062 0.031 0.267 0.267 0 0 0 -0.094 0.031 0.28 0.28 0 0 0 -0.062 0.062 0.281 0.281 0 0 0 -0.031 0.094 0.26 0.26 0 0 0 0 0.156 0.28 0.28 0 0 0 0.062 0.094l6.375 7a0.27 0.27 0 0 0 0.219 0.062 0.266 0.266 0 0 0 0.125 -0.031c0.012-0.01 0.021-0.02 0.031-0.031a0.257 0.257 0 0 0 0.062 -0.094 0.282 0.282 0 0 0 0.03 -0.093z" fill-opacity=".33"/>
<path d="m37.086 6.255 5.928-0.026-0.057 6.369z" fill="url(#h)"/>
<g fill-opacity=".32">
<path d="m37.125 42.594 6.938-0.031a1.236 1.236 0 0 0 1.25 -1.25l0.062-6.344a1.238 1.238 0 0 0 -2.094 -0.906l-7 6.375a1.238 1.238 0 0 0 0.844 2.156z"/>
<path d="m37.146 42.178 6.938-0.031a0.824 0.824 0 0 0 0.812 -0.812l0.062-6.344a0.827 0.827 0 0 0 -1.375 -0.625l-7 6.375a0.826 0.826 0 0 0 0.563 1.437z"/>
<path d="m37.125 41.907 6.938-0.031a0.557 0.557 0 0 0 0.562 -0.562l0.062-6.344a0.551 0.551 0 0 0 -0.937 -0.407l-7 6.375a0.554 0.554 0 1 0 0.375 0.969z"/>
</g>
<path d="m37.097 41.606 6.938-0.031a0.267 0.267 0 0 0 0.094 -0.031 0.27 0.27 0 0 0 0.094 -0.062 0.302 0.302 0 0 0 0.031 -0.031 0.257 0.257 0 0 0 0.031 -0.125 0.302 0.302 0 0 0 0.031 -0.031l0.062-6.344a0.3 0.3 0 0 0 -0.031 -0.062 0.289 0.289 0 0 0 -0.031 -0.094 0.28 0.28 0 0 0 -0.062 -0.062 0.281 0.281 0 0 0 -0.094 -0.031 0.26 0.26 0 0 0 -0.156 0 0.27 0.27 0 0 0 -0.094 0.062l-7 6.375a0.27 0.27 0 0 0 -0.062 0.219c0 0.044 0.011 0.087 0.031 0.125 9e-3 0.012 0.021 0.021 0.031 0.031a0.25 0.25 0 0 0 0.094 0.062 0.26 0.26 0 0 0 0.093 0.03z" fill-opacity=".33"/>
<path d="m43.996 34.143 0.021 7.094h-6.807z" fill="url(#j)"/>
<g fill-opacity=".32">
<path d="m2.625 34.344 0.031 6.938a1.238 1.238 0 0 0 1.25 1.25l6.344 0.062c0.498 5e-3 0.949-0.289 1.147-0.746a1.24 1.24 0 0 0 -0.241 -1.348l-6.375-7a1.24 1.24 0 0 0 -2.156 0.844z"/>
<path d="m3.062 34.365 0.031 6.938a0.824 0.824 0 0 0 0.813 0.812l6.344 0.062a0.824 0.824 0 0 0 0.625 -1.375l-6.375-7a0.828 0.828 0 0 0 -0.913 -0.215 0.828 0.828 0 0 0 -0.525 0.778z"/>
<path d="m3.313 34.344 0.031 6.938a0.549 0.549 0 0 0 0.162 0.4c0.106 0.107 0.25 0.165 0.401 0.162l6.344 0.062a0.551 0.551 0 0 0 0.406 -0.937l-6.375-7a0.554 0.554 0 0 0 -0.969 0.375z"/>
</g>
<path d="m3.589 34.321 0.031 6.938a0.267 0.267 0 0 0 0.031 0.094 0.28 0.28 0 0 0 0.062 0.094c9e-3 0.012 0.02 0.021 0.031 0.031a0.257 0.257 0 0 0 0.125 0.031c9e-3 0.012 0.02 0.021 0.031 0.031l6.344 0.062a0.277 0.277 0 0 0 0.062 -0.031 0.289 0.289 0 0 0 0.094 -0.031 0.28 0.28 0 0 0 0.062 -0.062 0.281 0.281 0 0 0 0.031 -0.094 0.26 0.26 0 0 0 0 -0.156 0.29 0.29 0 0 0 -0.062 -0.094l-6.375-7a0.265 0.265 0 0 0 -0.219 -0.062 0.269 0.269 0 0 0 -0.125 0.031 0.227 0.227 0 0 0 -0.031 0.031 0.266 0.266 0 0 0 -0.062 0.094 0.26 0.26 0 0 0 -0.03 0.093z" fill-opacity=".33"/>
<path d="m10.408 41.214h-6.408v-6.982z" fill="url(#k)"/>
<g fill-opacity=".32">
<path d="m11.938 4.969-6.938 0.031a1.238 1.238 0 0 0 -1.25 1.25l-0.062 6.344a1.238 1.238 0 0 0 2.094 0.906l7-6.375a1.237 1.237 0 0 0 -0.844 -2.156z"/>
<path d="m11.938 5.407-6.938 0.031a0.824 0.824 0 0 0 -0.812 0.812l-0.062 6.344a0.827 0.827 0 0 0 1.374 0.625l7-6.375a0.826 0.826 0 0 0 -0.562 -1.437z"/>
<path d="m11.938 5.657-6.938 0.031a0.553 0.553 0 0 0 -0.562 0.562l-0.062 6.344a0.553 0.553 0 0 0 0.937 0.406l7-6.375a0.554 0.554 0 0 0 -0.375 -0.968z"/>
</g>
<path d="M 11.938,5.938 5,5.969 A 0.26,0.26 0 0 0 4.906,6 0.268,0.268 0 0 0 4.812,6.063 0.227,0.227 0 0 0 4.781,6.094 0.275,0.275 0 0 0 4.75,6.219 0.227,0.227 0 0 0 4.719,6.25 l -0.062,6.344 a 0.24,0.24 0 0 0 0.031,0.062 0.26,0.26 0 0 0 0.031,0.094 0.28,0.28 0 0 0 0.062,0.062 0.26,0.26 0 0 0 0.094,0.031 0.26,0.26 0 0 0 0.156,0 0.27,0.27 0 0 0 0.094,-0.062 l 7,-6.375 A 0.264,0.264 0 0 0 12.187,6.187 0.275,0.275 0 0 0 12.156,6.062 0.227,0.227 0 0 0 12.125,6.031 0.261,0.261 0 0 0 12.031,5.969 0.262,0.262 0 0 0 11.938,5.938 Z" fill-opacity=".33"/>
<path id="B" d="m4.95 12.598 0.037-6.333 6.946-0.031z" fill="url(#l)"/>
<g transform="translate(0 .219)" fill-opacity=".29">
<path d="m10.969 10.594c-0.116 0.012-0.221 0.074-0.288 0.17s-0.087 0.217-0.056 0.33l0.688 2.406 4.75 21.125-0.438 2.312a0.397 0.397 0 0 0 0.375 0.468h6.906a0.4 0.4 0 0 0 0.375 -0.5l-0.438-2.219 1.188-4.531 1.469 4.595-0.656 2.125a0.398 0.398 0 0 0 0.375 0.531l7.781 0.032a0.397 0.397 0 0 0 0.375 -0.531l-0.906-2.438 3.562-20.469 1.344-2.844a0.398 0.398 0 0 0 -0.343 -0.563h-6.782a0.398 0.398 0 0 0 -0.406 0.469l0.406 2.312-2.344 13.219-3.656-14.124a0.398 0.398 0 0 0 -0.75 0l-3.531 14.031-2.938-13.125 0.375-2.312a0.398 0.398 0 0 0 -0.125 -0.344 0.394 0.394 0 0 0 -0.281 -0.125h-6a0.16 0.16 0 0 0 -0.031 0z"/>
<path d="m10.844 10.281a0.725 0.725 0 0 0 -0.531 0.906l0.687 2.375h-0.031l4.75 21.062-0.438 2.25a0.729 0.729 0 0 0 0.719 0.844h6.906a0.73 0.73 0 0 0 0.719 -0.875l-0.438-2.125 0.875-3.344 1.094 3.375-0.625 2.031c-0.065 0.219-0.023 0.455 0.111 0.64s0.348 0.294 0.576 0.298l7.782 0.032a0.73 0.73 0 0 0 0.688 -0.969l-0.875-2.375 3.531-20.25 1.344-2.844a0.731 0.731 0 0 0 -0.656 -1.031h-6.782a0.729 0.729 0 0 0 -0.719 0.843l0.375 2.25-2.031 11.626-3.281-12.625a0.73 0.73 0 0 0 -1.438 0l-3.187 12.625-2.594-11.719 0.344-2.156a0.727 0.727 0 0 0 -0.719 -0.843h-6a0.74 0.74 0 0 0 -0.156 -1e-3z"/>
<path d="m10.781 9.969a1.038 1.038 0 0 0 -0.781 1.313l0.688 2.344v0.062l4.719 20.875-0.438 2.25c-0.053 0.304 0.031 0.615 0.23 0.852 0.199 0.234 0.493 0.369 0.801 0.367h6.906a1.04 1.04 0 0 0 1.031 -1.25l-0.437-2.126 0.594-2.188 0.719 2.281-0.594 1.938a1.04 1.04 0 0 0 1 1.344l7.781 0.031a1.04 1.04 0 0 0 0.969 -1.375l-0.844-2.281 3.531-20.188 1.312-2.781a1.039 1.039 0 0 0 -0.937 -1.469h-6.781a1.037 1.037 0 0 0 -1.031 1.219l0.375 2.188-1.812 10.188-2.906-11.25a1.039 1.039 0 0 0 -2 0l-2.876 11.437-2.312-10.406 0.344-2.188a1.036 1.036 0 0 0 -1.032 -1.187h-6a1.002 1.002 0 0 0 -0.219 0z"/>
<path d="m10.844 9.594a1.414 1.414 0 0 0 -1.219 1.781l0.688 2.344v0.062l4.719 20.844-0.406 2.094a1.413 1.413 0 0 0 1.375 1.687h6.906c0.459 2e-3 0.89-0.221 1.156-0.594 0.266 0.373 0.697 0.596 1.156 0.594l7.781 0.032c0.461-4e-3 0.891-0.232 1.151-0.612s0.321-0.862 0.161-1.294l-0.781-2.156 3.469-20 1.312-2.75c0.213-0.44 0.184-0.958-0.076-1.372a1.418 1.418 0 0 0 -1.205 -0.66h-6.781a1.414 1.414 0 0 0 -1.406 1.656l0.375 2.125-1.5 8.406-2.469-9.562a1.413 1.413 0 0 0 -2.75 0l-2.469 9.844-1.969-8.75 0.344-2.094a1.413 1.413 0 0 0 -1.406 -1.625h-6a1.353 1.353 0 0 0 -0.156 0zm13.281 24.25 0.312 0.938-0.344 1.062-0.219-1.062z"/>
<path id="C" d="m10.992 11 0.711 2.398 4.766 21.203l-0.469 2.407h6.914l-0.477-2.32 1.57-5.953 1.891 6.031-0.672 2.242 7.789 0.016-0.957-2.543 3.58-20.532 1.392-2.953-6.78 4e-3 0.393 2.386-2.646 15.083-4.121-15.906-3.938 15.625-3.312-14.875 0.374-2.313z"/>
</g>
<path d="m11 11.219 3.379 2.496 4.523 21.035-2.906 2.477 0.473-2.414-4.75-21.188z" fill="url(#m)"/>
<path d="m18.906 34.75-2.91 2.477 6.926-8e-3 -2.672-2.453z" fill="#792100"/>
<path d="m16.984 11.242-2.602 2.48 4.523 21.027 1.332 0.012-0.268-6.542-3.219-14.594z" fill="url(#n)"/>
<path d="m22.918 37.227-2.664-2.457 3.738-14.363 0.016 8.539-1.57 5.961z" fill="url(#o)"/>
<path d="M 23.875,12.75 24,20.344 20.246,34.778 20,28.281 Z" fill="url(#p)"/>
<path d="m10.992 11.219 3.391 2.5l2.617-2.492z" fill="url(#r)"/>
<path d="m23.867 12.766 0.125 7.633 3.441 14.381 2.146 0.011z" fill="url(#s)"/>
<path d="m23.992 20.407 0.016 8.523 1.896 6.051-0.672 2.236 2.221-2.428z" fill="url(#t)"/>
<path d="m29.57 34.778-2.109 8e-3 -2.244 2.441 7.793 0.014z" fill="#792100"/>
<path d="m35.631 14.135 1.393-2.899-3.752 2.122-3.717 21.426 3.463 2.464-0.959-2.546z" fill="url(#u)"/>
<path d="m30.643 13.594-0.404-2.352 3.037 2.102-3.721 21.418-1.561-6.078z" fill="url(#v)"/>
<path d="m30.235 11.235 3.022 2.132 3.783-2.145z" fill="url(#w)"/>
<path d="m24 1.157c-12.593 0-22.812 10.233-22.812 22.844s10.219 22.843 22.812 22.843c12.594 0 22.812-10.233 22.812-22.844s-10.218-22.843-22.812-22.843zm-0.094 3.937c10.329 0 18.688 8.379 18.688 18.75s-8.359 18.781-18.688 18.781-18.719-8.41-18.719-18.781c1e-3 -10.371 8.39-18.75 18.719-18.75z" fill-opacity=".26"/>
<path d="m24 0.813c-12.781 0-23.156 10.39-23.156 23.188 0 12.797 10.375 23.188 23.156 23.188s23.156-10.391 23.156-23.188c0-12.798-10.375-23.188-23.156-23.188zm-0.094 4.625c10.141 0 18.344 8.222 18.344 18.406s-8.203 18.438-18.344 18.438c-10.14 0-18.375-8.254-18.375-18.438 0-10.183 8.234-18.406 18.375-18.406z" fill-opacity=".28"/>
<path d="m24 0.25c-13.085 0-23.719 10.649-23.719 23.75s10.634 23.75 23.719 23.75c13.086 0 23.719-10.649 23.719-23.75s-10.633-23.75-23.719-23.75zm-0.094 5.75c9.837 0 17.781 7.962 17.781 17.844s-7.947 17.875-17.781 17.875-17.812-7.996-17.812-17.875 7.975-17.844 17.812-17.844z" fill-opacity=".41"/>
<path id="D" d="m24 1.5c-12.41 0-22.469 10.073-22.469 22.5 0 12.428 10.059 22.5 22.469 22.5s22.469-10.072 22.469-22.5c0-12.427-10.059-22.5-22.469-22.5zm-0.094 3.25c10.513 0 19.031 8.541 19.031 19.094s-8.519 19.125-19.031 19.125-19.062-8.572-19.062-19.125 8.55-19.094 19.062-19.094z" fill="url(#x)"/>
<path d="m23.433 1.647c-11.782 0-21.312 9.543-21.312 21.344s9.531 21.344 21.312 21.344 21.313-9.543 21.313-21.344-9.531-21.344-21.313-21.344zm-0.094 0.937c11.141 0 20.188 9.072 20.188 20.25s-9.044 20.281-20.188 20.281-20.218-9.1-20.218-20.281 9.077-20.25 20.218-20.25z" fill="url(#y)"/>
</svg>
