<?xml version="1.0" standalone="no"?>
<!DOCTYPE svg PUBLIC "-//W3C//DTD SVG 1.1//EN" "http://www.w3.org/Graphics/SVG/1.1/DTD/svg11.dtd" >
<svg xmlns="http://www.w3.org/2000/svg" xmlns:xlink="http://www.w3.org/1999/xlink" version="1.1">
<metadata>
Created by FontForge 20170731 at Tue Nov 23 11:41:18 2021
 By Aleksey,,,
Copyright 1997 International Typeface Corporation. All rights reserved.
</metadata>
<defs>
<font id="FrizQuadrataStd-Regular" horiz-adv-x="1310" >
  <font-face 
    font-family="Friz Quadrata Std"
    font-weight="400"
    font-stretch="normal"
    units-per-em="2048"
    panose-1="2 0 5 5 5 0 0 2 0 4"
    ascent="1638"
    descent="-410"
    x-height="997"
    cap-height="1423"
    bbox="-285 -512 2269 1976"
    underline-thickness="153"
    underline-position="-373"
    unicode-range="U+0020-FB02"
  />
<missing-glyph horiz-adv-x="1024" 
d="M25 0v1362h972v-1362h-972zM180 1266l332 -498l330 498h-662zM123 1178v-992q0 -1 82.5 123t164.5 249l83 124zM901 1178l-332 -496l332 -498v994zM842 98l-330 496l-332 -496h662z" />
    <glyph glyph-name="f_i" unicode="fi" horiz-adv-x="1189" 
d="M178 854h-108l108 143v105q0 89 28 151.5t91 116.5q118 103 348 103q61 0 146 -15l-154 -168q-53 35 -111 35q-95 0 -133 -63q-20 -29 -20 -127v-138h530q89 0 127 41v-825q0 -104 12.5 -136.5t69.5 -76.5h-358q57 44 69.5 76.5t12.5 136.5v428q0 79 -5 109.5t-24 54.5
q-23 31 -47 40t-82 9h-305v-567q0 -100 5.5 -143t24.5 -76q15 -28 27 -41.5t35 -26.5h-369q57 42 69.5 75.5t12.5 137.5v641zM932 1397q54 0 92.5 -39.5t38.5 -93.5q0 -57 -39 -96.5t-96 -39.5q-56 0 -94.5 39.5t-38.5 96.5q0 55 40 94t97 39z" />
    <glyph glyph-name="f_l" unicode="fl" horiz-adv-x="1187" 
d="M373 997h219q35 0 76 13v-191q-20 23 -39.5 29t-75.5 6h-180v-567q0 -100 5.5 -143t24.5 -76q15 -28 27 -41.5t35 -26.5h-369q57 42 69.5 75.5t12.5 137.5v641h-108l108 143v105q0 100 39.5 171t122.5 124q115 69 328 69q79 0 182 -16q55 -8 78 -8q51 0 100 37v-1266
q0 -104 12.5 -136.5t69.5 -76.5h-360q59 44 71.5 76.5t12.5 136.5v1087q-95 41 -236 41q-109 0 -168 -38.5t-59 -110.5q0 -17 2 -29v-28v-138z" />
    <glyph glyph-name=".notdef" horiz-adv-x="1024" 
d="M25 0v1362h972v-1362h-972zM180 1266l332 -498l330 498h-662zM123 1178v-992q0 -1 82.5 123t164.5 249l83 124zM901 1178l-332 -496l332 -498v994zM842 98l-330 496l-332 -496h662z" />
    <glyph glyph-name=".null" horiz-adv-x="0" 
 />
    <glyph glyph-name="nonmarkingreturn" horiz-adv-x="682" 
 />
    <glyph glyph-name="space" unicode=" " horiz-adv-x="534" 
 />
    <glyph glyph-name="exclam" unicode="!" horiz-adv-x="872" 
d="M440 236q54 0 92.5 -40t38.5 -94q0 -57 -38.5 -96t-94.5 -39q-57 0 -96 39t-39 96q0 56 40 95t97 39zM510 358h-154l-32 758l-9 146q-3 88 -18 124t-61 62h323z" />
    <glyph glyph-name="quotedbl" unicode="&#x22;" 
d="M561 852h-147l-35 571h215zM895 852h-147l-33 571h215z" />
    <glyph glyph-name="numbersign" unicode="#" 
d="M551 999h295l67 422h131l-63 -422h303l-18 -125h-308l-49 -335h305l-20 -125h-303l-66 -414h-135l68 414h-299l-64 -414h-133l64 414h-299l20 125h297l53 335h-299l19 125h299l67 422h133zM530 874l-51 -335h297l51 335h-297z" />
    <glyph glyph-name="dollar" unicode="$" horiz-adv-x="1138" 
d="M133 33v254q93 -72 181 -104t204 -33v536q-161 68 -239 119q-164 108 -164 270q0 141 108 233t295 111v172h117v-172q145 -6 274 -49v-227q-106 106 -274 121v-398q4 -3 51 -26q129 -63 168 -87t88 -71q119 -116 119 -272q0 -160 -111 -264t-315 -138v-192h-117v190
q-210 0 -385 27zM635 631v-467q105 31 163 91.5t58 139.5q0 91 -84 156q-47 36 -137 80zM518 909v355q-80 -8 -121 -33q-36 -20 -58 -56t-22 -75q0 -56 43 -96.5t158 -94.5z" />
    <glyph glyph-name="percent" unicode="%" horiz-adv-x="1511" 
d="M385 1438q127 0 214 -96t87 -236q0 -141 -89 -238.5t-218 -97.5q-132 0 -219.5 94t-87.5 236q0 147 89 242.5t224 95.5zM377 1325q-66 0 -102.5 -59t-36.5 -166q0 -101 37.5 -158t103.5 -57q69 0 105 56t36 161q0 107 -37 165t-106 58zM1165 1423l-698 -1423h-129
l700 1423h127zM1141 651q127 0 214 -96t87 -236q0 -141 -89 -238t-218 -97q-132 0 -220 93.5t-88 235.5q0 146 89.5 242t224.5 96zM1133 539q-66 0 -102 -59t-36 -165q0 -103 37.5 -160t104.5 -57t103 56t36 161q0 107 -37 165.5t-106 58.5z" />
    <glyph glyph-name="ampersand" unicode="&#x26;" horiz-adv-x="1744" 
d="M750 840q393 -387 604.5 -555.5t447.5 -284.5q-158 -6 -241 -6q-120 0 -215.5 48t-241.5 181q-89 -137 -192.5 -194.5t-260.5 -57.5q-218 0 -352.5 115t-134.5 301q0 128 65.5 230.5t231.5 234.5q-98 101 -136 168.5t-38 140.5q0 121 99.5 206t242.5 85q135 0 223 -82.5
t88 -208.5q0 -88 -38 -152.5t-152 -168.5zM627 967q139 107 139 217q0 59 -43 97t-109 38q-62 0 -101.5 -35t-39.5 -90q0 -50 34.5 -101t119.5 -126zM590 719q-197 -144 -197 -320q0 -123 83 -200.5t214 -77.5q193 0 326 180q-270 241 -426 418z" />
    <glyph glyph-name="quotesingle" unicode="'" horiz-adv-x="872" 
d="M512 852h-147l-35 571h215z" />
    <glyph glyph-name="parenleft" unicode="(" horiz-adv-x="659" 
d="M414 1423h166q-271 -424 -271 -876q0 -239 71 -466.5t200 -406.5h-166q-293 440 -293 879q0 308 135 596q50 103 158 274z" />
    <glyph glyph-name="parenright" unicode=")" horiz-adv-x="665" 
d="M78 1423h172q108 -167 160 -274q135 -288 135 -596q0 -440 -295 -879h-172q131 179 201.5 405.5t70.5 467.5q0 455 -272 876z" />
    <glyph glyph-name="asterisk" unicode="*" 
d="M535 741l-168 125q53 18 83 43t95 101l30 43l-57 18q-26 8 -74.5 15.5t-78.5 7.5q-25 0 -76 -11l69 201q67 -70 195 -113l51 -16v55q0 116 -59 213h215q-51 -80 -51 -213v-55l51 16q95 36 127 56.5t65 64.5l68 -194q-23 2 -47 2q-64 0 -176 -31l-52 -16l35 -39
q55 -71 88 -99.5t84 -48.5l-172 -125q-9 54 -27 94t-65 111l-33 43l-30 -43q-75 -114 -90 -205z" />
    <glyph glyph-name="plus" unicode="+" 
d="M1128 793v-148h-399v-407h-147v407h-400v148h400v409h147v-409h399z" />
    <glyph glyph-name="comma" unicode="," horiz-adv-x="526" 
d="M102 -217q67 61 113.5 119.5t46.5 81.5q0 10 -7 14t-38 12q-37 9 -61.5 42t-24.5 73q0 52 37.5 88.5t91.5 36.5q59 0 97 -42t38 -108q0 -67 -38.5 -143.5t-106.5 -142.5q-40 -37 -66 -37q-18 0 -82 6z" />
    <glyph glyph-name="hyphen" unicode="-" horiz-adv-x="804" 
d="M72 430l123 154q17 23 35.5 30t58.5 7h229q93 0 130 5t87 25l-117 -155q-19 -25 -35 -32t-57 -7h-258q-77 0 -111.5 -5t-84.5 -22z" />
    <glyph glyph-name="period" unicode="." horiz-adv-x="526" 
d="M266 250q54 0 92.5 -39.5t38.5 -93.5q0 -57 -38.5 -96t-94.5 -39q-57 0 -96 39t-39 96q0 55 40 94t97 39z" />
    <glyph glyph-name="slash" unicode="/" horiz-adv-x="880" 
d="M-35 -297l682 1720h156l-676 -1720h-162z" />
    <glyph glyph-name="zero" unicode="0" 
d="M668 1460q162 0 290 -94.5t199.5 -264t71.5 -382.5q0 -217 -73.5 -390t-205 -269.5t-297.5 -96.5q-101 0 -199.5 40.5t-164.5 109.5q-98 101 -153.5 260.5t-55.5 337.5q0 217 75 388t209 266t304 95zM643 1282q-149 0 -240.5 -151t-91.5 -400q0 -264 95.5 -427
t250.5 -163q157 0 249.5 149.5t92.5 401.5q0 262 -99 426t-257 164z" />
    <glyph glyph-name="one" unicode="1" 
d="M573 1141h-251q140 51 269.5 157.5t201.5 229.5v-1247q0 -95 6.5 -132t29.5 -75q26 -44 70 -74h-453q55 35 80.5 66t36 78.5t10.5 136.5v860z" />
    <glyph glyph-name="two" unicode="2" 
d="M1104 0h-995l561 813q73 105 98 160.5t25 111.5q0 91 -66 147t-172 56q-88 0 -172 -30.5t-205 -106.5l129 266q160 41 281 41q196 0 325 -93.5t129 -234.5q0 -59 -19.5 -114.5t-74.5 -151.5q-67 -114 -117 -184l-362 -500q183 -24 307 -24q244 0 447 102z" />
    <glyph glyph-name="three" unicode="3" 
d="M389 682v180q64 -6 98 -6q152 0 232 53q43 28 69.5 73.5t26.5 92.5q0 91 -80 152t-198 61q-150 0 -332 -106l90 229q125 47 285 47q204 0 334 -94.5t130 -243.5q0 -112 -64.5 -186.5t-201.5 -118.5q90 -20 146.5 -44t101.5 -62q60 -50 92.5 -122t32.5 -157
q0 -97 -43.5 -181.5t-124.5 -144.5q-86 -64 -228 -101.5t-298 -37.5q-79 0 -226 17l-106 260q201 -101 399 -101q169 0 278 84.5t109 216.5q0 123 -93 193t-257 70q-88 0 -172 -23z" />
    <glyph glyph-name="four" unicode="4" 
d="M780 295h-753l671 1128h289v-960q92 6 154.5 27t120.5 67l-105 -262h-170v-86q0 -149 96 -209h-407q61 28 82.5 65t21.5 117v113zM788 1288l-464 -809q147 -18 344 -18q65 0 116 2z" />
    <glyph glyph-name="five" unicode="5" 
d="M1040 1423v-260q-57 51 -134.5 71.5t-215.5 20.5q-130 0 -235 -14l-23 -356q105 28 209 28q235 0 380.5 -126t145.5 -330q0 -218 -178.5 -355t-462.5 -137q-126 0 -280 35l-101 221q181 -94 377 -94q183 0 296.5 89.5t113.5 232.5q0 132 -106.5 211t-286.5 79
q-172 0 -326 -65l47 749h780z" />
    <glyph glyph-name="six" unicode="6" 
d="M1075 1464l-102 -137q-215 -39 -416 -219q-117 -106 -178.5 -242t-61.5 -288q0 -206 104.5 -335.5t270.5 -129.5q141 0 227.5 91t86.5 240q0 161 -92.5 258t-247.5 97q-61 0 -116.5 -16t-127.5 -54l135 170q57 28 98 37.5t101 9.5q199 0 327.5 -130t128.5 -333
q0 -221 -155 -369.5t-387 -148.5q-163 0 -295.5 78.5t-207.5 216.5t-75 309q0 239 148 446.5t405 327.5q187 87 430 121z" />
    <glyph glyph-name="seven" unicode="7" 
d="M262 1423h932l-303 -700q-244 -564 -244 -639q0 -23 13.5 -42t46.5 -42h-361l545 1243q-155 31 -318 31q-132 0 -226 -25.5t-183 -85.5z" />
    <glyph glyph-name="eight" unicode="8" 
d="M891 778q94 -45 136.5 -69.5t84.5 -59.5q60 -45 92.5 -114.5t32.5 -147.5q0 -189 -160.5 -305.5t-421.5 -116.5q-254 0 -414.5 114t-160.5 294q0 122 80 214t246 161q-275 120 -275 335q0 161 147.5 268t368.5 107q222 0 365 -99.5t143 -254.5q0 -98 -63.5 -176.5
t-200.5 -149.5zM758 834q95 54 145.5 117.5t50.5 129.5q0 105 -94.5 174.5t-238.5 69.5q-121 0 -197 -56t-76 -145q0 -92 96 -160.5t314 -129.5zM539 682q-238 -110 -238 -289q0 -119 109 -211q51 -43 107.5 -61.5t139.5 -18.5q160 0 257.5 69t97.5 183q0 112 -102.5 183
t-370.5 145z" />
    <glyph glyph-name="nine" unicode="9" 
d="M233 -45l107 135q129 31 223 80.5t185 134.5q251 236 251 543q0 197 -104 327t-262 130q-138 0 -230 -93t-92 -231q0 -154 92.5 -252t237.5 -98q116 0 231 63l-147 -180q-52 -19 -87.5 -25t-88.5 -6q-193 0 -323 131t-130 326q0 143 73.5 262.5t201.5 188.5t282 69
q246 0 407 -166.5t161 -421.5q0 -220 -115 -410t-326 -319q-123 -76 -242.5 -117.5t-304.5 -70.5z" />
    <glyph glyph-name="colon" unicode=":" horiz-adv-x="526" 
d="M266 963q54 0 92.5 -40t38.5 -94q0 -57 -38.5 -96t-94.5 -39q-57 0 -96 39t-39 96q0 56 39.5 95t97.5 39zM266 250q54 0 92.5 -39.5t38.5 -93.5q0 -57 -38.5 -96t-94.5 -39q-57 0 -96 39t-39 96q0 55 40 94t97 39z" />
    <glyph glyph-name="semicolon" unicode=";" horiz-adv-x="526" 
d="M258 963q54 0 92.5 -40t38.5 -94q0 -57 -39 -96t-96 -39q-56 0 -94.5 39t-38.5 96q0 56 39.5 95t97.5 39zM102 -217q67 61 113.5 119.5t46.5 81.5q0 10 -7 14t-38 12q-37 9 -61.5 42t-24.5 73q0 52 37.5 88.5t91.5 36.5q59 0 97 -42t38 -108q0 -67 -38.5 -143.5
t-106.5 -142.5q-40 -37 -66 -37q-18 0 -82 6z" />
    <glyph glyph-name="less" unicode="&#x3c;" horiz-adv-x="1067" 
d="M997 1251v-194l-716 -336l716 -336v-192l-925 446v166z" />
    <glyph glyph-name="equal" unicode="=" 
d="M1128 940v-147h-946v147h946zM1128 631v-148h-946v148h946z" />
    <glyph glyph-name="greater" unicode="&#x3e;" horiz-adv-x="1067" 
d="M72 190v195l716 336l-716 336v194l925 -446v-168z" />
    <glyph glyph-name="question" unicode="?" horiz-adv-x="1089" 
d="M483 233q53 0 92 -39.5t39 -93.5q0 -56 -40 -95.5t-95 -39.5q-56 0 -94.5 39t-38.5 96q0 55 40 94t97 39zM549 340l-168 -18q-10 49 -10 84q0 87 38.5 152t141.5 155q106 92 150 162.5t44 148.5q0 120 -89.5 200.5t-221.5 80.5q-65 0 -119.5 -17.5t-171.5 -75.5l123 201
q62 26 109 35.5t108 9.5q211 0 345.5 -109.5t134.5 -279.5q0 -103 -49.5 -187.5t-178.5 -199.5q-81 -72 -114 -102.5t-56 -62.5t-25.5 -48t-2.5 -53q0 -34 12 -76z" />
    <glyph glyph-name="at" unicode="@" horiz-adv-x="1820" 
d="M1391 260l-31 -141q-95 -63 -231 -98t-279 -35q-185 0 -333 87.5t-231 243.5t-83 351q0 171 59 317t163 248.5t253 160.5t323 58q292 0 456.5 -143.5t164.5 -399.5q0 -149 -62.5 -284.5t-166 -217t-217.5 -81.5q-69 0 -116.5 44.5t-47.5 110.5q0 56 14 121l68 316
q-54 51 -158 51q-102 0 -169 -80t-67 -203q0 -93 46.5 -141.5t136.5 -48.5q49 0 102 18l-88 -137q-59 -15 -86 -15q-121 0 -197.5 86.5t-76.5 221.5q0 109 48 208.5t130 157.5q94 66 227 66q52 0 135 -17q74 -18 103 -18q32 0 75 20l29 15l-102 -479q-13 -67 -13 -95
q0 -26 17 -42.5t43 -16.5q63 0 120 60.5t91.5 161.5t34.5 212q0 197 -130.5 309.5t-357.5 112.5q-284 0 -460.5 -175t-176.5 -458q0 -261 159 -418t423 -157q247 0 459 143z" />
    <glyph glyph-name="A" unicode="A" horiz-adv-x="1570" 
d="M1032 537h-547l-123 -330q-24 -65 -24 -111q0 -30 17.5 -51t60.5 -45h-398q75 47 111 99t90 192l381 950q25 67 25 98q0 28 -14.5 46.5t-51.5 37.5h344l455 -1132q52 -129 94.5 -189t114.5 -102h-449q50 30 64 45t14 41q0 27 -37 121zM977 676l-219 565l-221 -565h440z
" />
    <glyph glyph-name="B" unicode="B" horiz-adv-x="1296" 
d="M526 1425h68q112 0 179 -11t120 -40q83 -43 129.5 -113t46.5 -153q0 -69 -33 -130t-92 -99q-40 -26 -92 -50q101 -26 162 -61q91 -51 141.5 -135t50.5 -184q0 -122 -73 -227t-199 -163q-70 -32 -151 -44.5t-218 -14.5h-151h-308q60 32 78.5 85t18.5 191v871
q0 138 -18.5 191t-78.5 85h308q53 0 112 2zM414 1274v-424q39 -4 82 -4q154 0 248 62t94 165q0 97 -76 155t-201 58q-63 0 -147 -12zM414 705v-533q97 -20 190 -20q172 0 266.5 70t94.5 198q0 141 -101 219q-53 41 -118 58.5t-168 17.5q-82 0 -164 -10z" />
    <glyph glyph-name="C" unicode="C" horiz-adv-x="1372" 
d="M1237 1403v-248q-208 119 -393 119q-227 0 -371.5 -148.5t-144.5 -380.5q0 -167 72 -306.5t197 -219.5t275 -80q112 0 222 33t252 109l-109 -252q-88 -35 -163 -49.5t-173 -14.5q-245 0 -431 92t-287 261t-101 391q0 160 58 299t159 238t243.5 155.5t305.5 56.5t389 -55z
" />
    <glyph glyph-name="D" unicode="D" horiz-adv-x="1521" 
d="M455 0h-349q50 45 60.5 57.5t17.5 38.5q19 56 19 191v860q0 138 -18.5 191t-78.5 85h218q84 0 143 2q66 2 170 2q184 0 317.5 -42.5t243.5 -135.5q117 -95 179.5 -230t62.5 -292q0 -214 -112.5 -392t-301.5 -263q-88 -40 -215.5 -56t-355.5 -16zM420 1257v-1081
q77 -14 160 -14q142 0 240 24.5t171 79.5q211 155 211 439q0 118 -39 226t-110 185q-73 79 -185.5 121.5t-249.5 42.5q-77 0 -198 -23z" />
    <glyph glyph-name="E" unicode="E" horiz-adv-x="1126" 
d="M420 696v-514q137 -22 266 -22q140 0 237 28.5t185 94.5l-100 -283h-902q60 32 78.5 85.5t18.5 193.5v868q0 137 -19 191t-78 85h719q44 0 82 13v-252q-53 51 -106.5 68.5t-157.5 17.5q-129 0 -223 -15v-403h289q41 0 73 14v-229q-26 34 -62.5 46.5t-107.5 12.5h-192z
" />
    <glyph glyph-name="F" unicode="F" horiz-adv-x="960" 
d="M420 696v-420q0 -139 18 -191.5t78 -84.5h-410q60 32 78.5 85t18.5 191v871q0 138 -18.5 191t-78.5 85h719q44 0 82 13v-250q-53 50 -106 67t-156 17q-126 0 -225 -15v-403h289q41 0 73 14v-229q-25 34 -62 46.5t-108 12.5h-192z" />
    <glyph glyph-name="G" unicode="G" horiz-adv-x="1624" 
d="M1317 1421v-247q-73 69 -164.5 100t-220.5 31q-174 0 -312 -73.5t-215 -204.5t-77 -296q0 -166 84 -307t228.5 -223t315.5 -82q77 0 161.5 12t135.5 31v287q0 139 -18 191.5t-78 84.5h326q-13 -44 -13 -127v-459q0 -70 13 -110q-32 -2 -76 -13q-150 -29 -243.5 -40
t-198.5 -11q-345 0 -572 152q-149 101 -230 253.5t-81 331.5q0 184 86 340.5t246 262.5q227 153 561 153q160 0 342 -37z" />
    <glyph glyph-name="H" unicode="H" horiz-adv-x="1619" 
d="M1198 686h-778v-410q0 -139 18 -191.5t78 -84.5h-410q60 32 78.5 85t18.5 191v871q0 138 -18.5 191t-78.5 85h410q-60 -32 -78 -84.5t-18 -191.5v-295h778v295q0 137 -18.5 190.5t-77.5 85.5h409q-59 -32 -77.5 -86t-18.5 -190v-871q0 -136 18.5 -190t77.5 -86h-409
q59 32 77.5 86t18.5 190v410z" />
    <glyph glyph-name="I" unicode="I" horiz-adv-x="622" 
d="M203 276v871q0 138 -18.5 191t-78.5 85h410q-60 -32 -78 -84.5t-18 -191.5v-871q0 -139 18 -191.5t78 -84.5h-410q60 32 78.5 85t18.5 191z" />
    <glyph glyph-name="J" unicode="J" horiz-adv-x="593" 
d="M406 1147v-1147q0 -141 -2 -172t-11 -64q-19 -60 -69 -106t-144 -90q-68 -33 -123.5 -47.5t-132.5 -18.5q73 45 121.5 89.5t83.5 99.5t47 118.5t12 190.5v1147q0 136 -18.5 190t-77.5 86h410q-60 -32 -78 -84.5t-18 -191.5z" />
    <glyph glyph-name="K" unicode="K" horiz-adv-x="1345" 
d="M420 1147v-871q0 -139 18 -191.5t78 -84.5h-410q60 32 78.5 85t18.5 191v871q0 138 -18.5 191t-78.5 85h410q-60 -32 -78 -84.5t-18 -191.5zM457 741l299 398q49 62 77.5 114.5t28.5 77.5q0 50 -65 92h389l-498 -639q243 -329 308.5 -414.5t129.5 -158.5q72 -84 258 -211
q-92 -10 -206 -10q-46 0 -74 3t-64 20.5t-61.5 40t-72 77.5t-91.5 115.5t-123 169.5q-70 104 -184 260q-25 28 -51 65z" />
    <glyph glyph-name="L" unicode="L" horiz-adv-x="1130" 
d="M420 1147v-971q151 -22 291 -22q117 0 202 29t191 104l-115 -287h-883q60 32 78.5 85t18.5 191v871q0 138 -18.5 191t-78.5 85h410q-60 -32 -78 -84.5t-18 -191.5z" />
    <glyph glyph-name="M" unicode="M" horiz-adv-x="2054" 
d="M1047 371l350 897q31 75 36 94.5t5 60.5h374q-67 -33 -67 -135q0 -38 6 -78l133 -954q12 -112 33.5 -159t81.5 -97h-418q49 22 69.5 59.5t20.5 104.5q0 29 -10 121l-115 925l-485 -1239q-77 65 -109 108t-69 130l-424 1001l-127 -954q-10 -85 -10 -113q0 -49 18 -79
t68 -64h-355q52 51 77.5 114t39.5 171l125 909q12 88 12 111q0 36 -16.5 61.5t-59.5 56.5h379q0 -23 21 -75z" />
    <glyph glyph-name="N" unicode="N" horiz-adv-x="1613" 
d="M362 1118v-864q0 -106 23.5 -158.5t89.5 -95.5h-385q69 44 92 95t23 159v915q0 106 -23.5 158.5t-89.5 95.5h316q10 -25 51 -80l801 -1019v845q0 107 -23.5 158t-91.5 96h387q-69 -44 -92 -95t-23 -159v-1239q-89 29 -160 83.5t-137 144.5z" />
    <glyph glyph-name="O" unicode="O" horiz-adv-x="1753" 
d="M899 1460q154 0 301 -56.5t250 -156.5q101 -98 160 -239t59 -287q0 -208 -106 -381.5t-289.5 -274t-403.5 -100.5q-162 0 -308 58t-251.5 156.5t-167 235.5t-61.5 290q0 212 106.5 385t294 271.5t416.5 98.5zM868 1305q-109 0 -215 -43t-178 -117q-69 -72 -109 -180.5
t-40 -225.5q0 -125 45.5 -245.5t128.5 -212.5q146 -162 379 -162q243 0 393.5 157.5t150.5 409.5q0 250 -147 430q-158 189 -408 189z" />
    <glyph glyph-name="P" unicode="P" horiz-adv-x="1181" 
d="M420 1257v-1003q0 -106 23 -159.5t89 -94.5h-426q60 32 78.5 85t18.5 191v871q0 138 -18.5 191t-78.5 85h207q66 0 242 2h68q172 0 284 -53q100 -50 159.5 -137t59.5 -188q0 -167 -140.5 -286.5t-336.5 -119.5q-51 0 -81.5 6t-73.5 23q100 12 162.5 35.5t115.5 68.5
q113 98 113 234q0 125 -84 196.5t-230 71.5q-71 0 -151 -19z" />
    <glyph glyph-name="Q" unicode="Q" horiz-adv-x="1751" 
d="M1968 -279h25q-124 -112 -273 -112q-117 0 -280 89t-412 288q-116 -21 -180 -21q-159 0 -301 58t-244 157t-161.5 237t-59.5 292q0 157 62.5 296t169.5 238.5t257.5 157t319.5 57.5q218 0 396.5 -95.5t280 -262.5t101.5 -371q0 -146 -59 -288t-160 -240q-34 -34 -68 -58
t-98 -59q387 -363 684 -363zM868 1305q-104 0 -201 -37t-171 -103q-170 -153 -170 -413q0 -251 145 -441q149 -192 412 -192q238 0 389 159t151 410q0 118 -40.5 232t-112.5 202q-152 183 -402 183z" />
    <glyph glyph-name="R" unicode="R" horiz-adv-x="1296" 
d="M420 1274v-998q0 -139 18 -191.5t78 -84.5h-410q60 32 78.5 85t18.5 191v871q0 138 -18.5 191t-78.5 85h314q53 0 100 2q37 2 92 2q205 0 320 -84q66 -50 104.5 -124t38.5 -152q0 -125 -98 -229t-252 -142q243 -325 386.5 -476.5t272.5 -219.5q-160 -12 -198 -12
q-93 0 -159.5 42.5t-174.5 172.5q-205 242 -379 538q361 61 361 310q0 106 -73 172.5t-190 66.5q-63 0 -151 -16z" />
    <glyph glyph-name="S" unicode="S" horiz-adv-x="1187" 
d="M983 1411v-246q-69 68 -158 105t-184 37q-127 0 -206 -56t-79 -147q0 -79 63 -134.5t257 -144.5q138 -64 202 -99.5t113 -74.5q117 -91 117 -235q0 -163 -133 -293q-168 -160 -453 -160q-194 0 -381 68l-65 268q217 -172 475 -172q138 0 230.5 63.5t92.5 157.5
q0 42 -19 83t-52 71q-36 31 -89.5 60t-187.5 91q-128 57 -190.5 93t-108.5 79q-52 46 -82 112.5t-30 137.5q0 175 146 279t392 104q163 0 330 -47z" />
    <glyph glyph-name="T" unicode="T" horiz-adv-x="1101" 
d="M1116 1438l-69 -258q-25 47 -67.5 64.5t-135.5 17.5q-31 0 -152 -7h-35v-1001q0 -107 23 -157.5t92 -96.5h-428q58 31 77 85t19 191v979q-75 7 -174 7q-104 0 -158.5 -16t-121.5 -66l80 258q47 -15 110 -15h813q18 1 38 2t31 1.5t15 0.5q19 3 43 11z" />
    <glyph glyph-name="U" unicode="U" horiz-adv-x="1540" 
d="M1128 0v150q-153 -185 -428 -185q-156 0 -275.5 63t-176.5 175q-31 58 -41 121t-10 194v629q0 138 -18.5 191t-78.5 85h410q-59 -32 -77.5 -85.5t-18.5 -190.5v-629q0 -109 15.5 -166.5t59.5 -109.5q47 -57 119 -88t156 -31q95 0 178 40t133 109q26 35 35.5 72.5
t9.5 99.5v703q0 137 -18.5 190.5t-77.5 85.5h410q-59 -33 -78 -86t-19 -190v-871q0 -137 19 -190t78 -86h-306z" />
    <glyph glyph-name="V" unicode="V" horiz-adv-x="1341" 
d="M707 256l305 801q65 167 65 243q0 89 -78 123h328l-577 -1486q-109 71 -152 107.5t-68.5 81t-58.5 140.5l-293 791q-36 101 -52.5 143.5t-33.5 84.5t-31.5 61.5t-28 34.5t-42.5 42h315q-2 -10 -2 -24q0 -42 49 -176z" />
    <glyph glyph-name="W" unicode="W" horiz-adv-x="2052" 
d="M1049 1030l-336 -1091q-61 46 -101 69q-86 58 -114.5 98.5t-65.5 155.5l-272 848q-49 154 -80.5 210.5t-91.5 102.5h315q-4 -24 -4 -26q0 -23 23 -103l335 -1044l269 860q37 126 37 182q0 74 -86 131h299q-7 -32 -7 -41q0 -60 31 -149l313 -977l263 831q27 91 35 125
t8 64q0 51 -31 89.5t-86 57.5h326l-457 -1484q-19 13 -78 53q-100 66 -130 106.5t-71 163.5z" />
    <glyph glyph-name="X" unicode="X" horiz-adv-x="1478" 
d="M715 618l-316 -419q-47 -62 -47 -105q0 -54 78 -94h-420q11 11 80 86l158 201l362 471l-293 420q-73 114 -121.5 165.5t-109.5 79.5l219 9q18 2 37 2q42 0 58.5 -13t70.5 -90l289 -411l231 311q51 66 51 119q0 28 -19.5 44.5t-68.5 28.5h398l-492 -641l361 -536
q83 -125 127 -169.5t118 -76.5l-206 -12h-39q-62 0 -85.5 16t-74.5 94z" />
    <glyph glyph-name="Y" unicode="Y" horiz-adv-x="1306" 
d="M768 623v-369q0 -104 20 -149.5t89 -104.5h-418q60 41 76 90.5t16 185.5v347l-373 600q-57 90 -91 125.5t-101 74.5l219 9h26q49 0 68 -14.5t63 -88.5l326 -532l273 413q40 59 40 105q0 29 -21.5 59t-55.5 49h374z" />
    <glyph glyph-name="Z" unicode="Z" horiz-adv-x="1339" 
d="M1307 274l-113 -274h-1143l797 1247q-165 23 -354 23q-128 0 -189 -16.5t-164 -77.5l105 247h956l-790 -1241q264 -22 456 -22q130 0 226.5 25t212.5 89z" />
    <glyph glyph-name="bracketleft" unicode="[" horiz-adv-x="681" 
d="M379 -203h217v-123h-483q52 40 67 84.5t15 163.5v1266q0 107 -14 147.5t-68 87.5h483v-116h-217v-1510z" />
    <glyph glyph-name="backslash" unicode="\" horiz-adv-x="765" 
d="M858 -297h-160l-678 1720h156z" />
    <glyph glyph-name="bracketright" unicode="]" horiz-adv-x="671" 
d="M303 -203v1510h-217v116h473q-46 -46 -59 -87.5t-13 -147.5v-1266q0 -120 13 -165t59 -83h-473v123h217z" />
    <glyph glyph-name="asciicircum" unicode="^" horiz-adv-x="1067" 
d="M248 758h-209l367 672h256l366 -672h-209l-287 516z" />
    <glyph glyph-name="underscore" unicode="_" horiz-adv-x="1067" 
d="M0 -143h1067v-154h-1067v154z" />
    <glyph glyph-name="grave" unicode="`" horiz-adv-x="1067" 
d="M688 1120l-534 236l131 135z" />
    <glyph glyph-name="a" unicode="a" horiz-adv-x="1116" 
d="M725 262v279q-57 -26 -94 -37t-182 -45q-156 -38 -156 -166q0 -83 60.5 -129.5t168.5 -46.5q74 0 162 28l-127 -161q-61 -13 -119 -13q-163 0 -256 84q-52 45 -81 109t-29 131q0 68 33 127t88 90q45 25 105 43t179 41q144 28 194 58t50 89q0 61 -57.5 99.5t-149.5 38.5
q-69 0 -129 -17.5t-166 -68.5l143 217q71 14 150 14q276 0 365 -145q28 -44 35.5 -89.5t7.5 -168.5v-279q0 -94 9 -125t46 -57q40 -32 129 -35l-94 -141q-83 6 -125.5 16t-77.5 33q-49 31 -65.5 76t-16.5 151z" />
    <glyph glyph-name="b" unicode="b" horiz-adv-x="1204" 
d="M395 817l119 182q85 27 148 27q195 0 326.5 -143.5t131.5 -354.5q0 -251 -169 -404t-447 -153q-260 0 -416 39q40 26 53 56t13 96v1048q0 105 -12 136.5t-70 76.5h149q48 0 76 9t51 32v-1314q108 -25 184 -25q169 0 268 97t99 263q0 169 -89 275t-230 106
q-50 0 -88.5 -10.5t-96.5 -38.5z" />
    <glyph glyph-name="c" unicode="c" horiz-adv-x="1067" 
d="M934 999v-223q-108 105 -270 105q-163 0 -262 -98t-99 -259q0 -175 126 -291t316 -116q167 0 330 104l-127 -211q-98 -39 -276 -39q-170 0 -304.5 64.5t-210 180.5t-75.5 263q0 231 176 393q88 80 193.5 117t246.5 37q114 0 236 -27z" />
    <glyph glyph-name="d" unicode="d" horiz-adv-x="1277" 
d="M928 899v311q0 104 -12.5 137.5t-69.5 75.5h149q89 0 127 41v-1251q0 -104 12.5 -136.5t69.5 -76.5h-276v492q0 123 -11.5 173.5t-50.5 100.5q-43 57 -107 88t-138 31q-138 0 -228 -99.5t-90 -253.5q0 -177 107 -294t268 -117q55 0 95.5 12.5t94.5 46.5l-125 -194
q-56 -15 -108 -15q-196 0 -326 86q-110 73 -168.5 187t-58.5 252q0 147 66.5 269t183 191.5t256.5 69.5q100 0 179 -29.5t161 -97.5z" />
    <glyph glyph-name="e" unicode="e" horiz-adv-x="1191" 
d="M1110 520h-795q7 -189 122.5 -296t310.5 -107q108 0 193 26t169 86l-117 -206q-135 -52 -299 -52q-270 0 -441 148t-171 381q0 112 47 219t129 182q140 125 360 125q212 0 352 -133.5t140 -337.5v-35zM324 655h559q-46 242 -275 242q-110 0 -184.5 -64t-99.5 -178z" />
    <glyph glyph-name="f" unicode="f" horiz-adv-x="681" 
d="M373 854v-567q0 -100 5.5 -143t24.5 -76q15 -28 27 -41.5t35 -26.5h-369q57 42 69.5 75.5t12.5 137.5v641h-108l108 143v105q0 89 28 151.5t91 116.5q118 103 346 103q59 0 148 -15l-154 -168q-53 35 -111 35q-95 0 -133 -63q-20 -29 -20 -127v-138h219q35 0 76 13v-191
q-20 23 -39.5 29t-75.5 6h-180z" />
    <glyph glyph-name="g" unicode="g" horiz-adv-x="1267" 
d="M1262 1026l-62 -139q-15 -27 -61 -27q-61 0 -238 31q83 -59 121.5 -122.5t38.5 -145.5q0 -100 -63 -176t-183 -119q-75 -29 -215 -43q-86 -16 -86 -56q0 -41 90 -41q151 -2 223.5 -8t137.5 -26q58 -17 112 -52.5t88 -78.5q47 -65 47 -158q0 -144 -108 -230
q-185 -147 -481 -147q-165 0 -300.5 41t-213.5 112t-78 158q0 80 53.5 126t146.5 46q56 0 117 -26q-51 -9 -73.5 -33t-22.5 -68q0 -107 99.5 -170t269.5 -63q172 0 277.5 65.5t105.5 171.5q0 207 -439 207q-65 0 -104 -2q-18 -2 -49 -2q-63 0 -103 37q-20 19 -35.5 54.5
t-15.5 62.5q0 31 32 52.5t140 64.5q-58 15 -90.5 31t-65.5 46q-56 49 -87 117t-31 141q0 157 127.5 263t316.5 106q38 0 188 -10q106 -8 207 -8q123 0 267 18zM578 901q-95 0 -159.5 -58.5t-64.5 -146.5q0 -115 81.5 -195.5t197.5 -80.5q97 0 157 60.5t60 158.5
q0 110 -79 186t-193 76z" />
    <glyph glyph-name="h" unicode="h" horiz-adv-x="1206" 
d="M354 1464v-575q47 63 135 100t189 37q100 0 183 -37.5t130 -103.5q30 -42 41.5 -90.5t11.5 -132.5v-449q0 -103 12.5 -136t69.5 -77h-360q42 30 57.5 52t21 54t5.5 107v383q0 77 -8 114.5t-33 69.5q-70 92 -209 92q-64 0 -118.5 -23t-88.5 -63q-26 -32 -32.5 -61.5
t-6.5 -116.5v-395q0 -104 12.5 -136.5t71.5 -76.5h-360q58 45 70 76.5t12 136.5v997q0 59 -1.5 85t-11 51t-23.5 38.5t-46 38.5h149q89 0 127 41z" />
    <glyph glyph-name="i" unicode="i" horiz-adv-x="524" 
d="M362 1038v-825q0 -104 12.5 -136.5t69.5 -76.5h-358q58 45 70 76.5t12 136.5v571q0 105 -12 136.5t-70 76.5h150q88 0 126 41zM264 1397q54 0 92.5 -39.5t38.5 -93.5q0 -57 -39 -96.5t-96 -39.5q-56 0 -94.5 39.5t-38.5 96.5q0 56 39.5 94.5t97.5 38.5z" />
    <glyph glyph-name="j" unicode="j" horiz-adv-x="520" 
d="M362 1038v-1085q0 -157 -12 -209.5t-61 -97.5q-60 -59 -137.5 -89.5t-204.5 -45.5q90 56 136.5 111.5t65.5 133.5t19 207v821q0 104 -12.5 137.5t-69.5 75.5h150q49 0 76 9t50 32zM258 1401q54 0 92.5 -39.5t38.5 -93.5q0 -57 -38.5 -96t-94.5 -39q-57 0 -96 39t-39 96
q0 56 39.5 94.5t97.5 38.5z" />
    <glyph glyph-name="k" unicode="k" horiz-adv-x="1081" 
d="M78 1423h149q89 0 127 41v-1251q0 -104 12.5 -136.5t69.5 -76.5h-358q58 45 70 76.5t12 136.5v997q0 59 -1.5 85t-11 51t-23.5 38.5t-46 38.5zM973 997l-363 -417q98 -121 279 -357q77 -101 116 -141t101 -82q-82 -6 -174 -6q-84 0 -121.5 22t-97.5 107q-86 123 -174 242
q-83 116 -123 161q-5 9 -23 31l197 217q96 104 96 156q0 30 -43 67h330z" />
    <glyph glyph-name="l" unicode="l" horiz-adv-x="516" 
d="M436 0h-358q58 45 70 76.5t12 136.5v997q0 59 -1.5 85t-11 51t-23.5 38.5t-46 38.5h149q89 0 127 41v-1251q0 -104 12.5 -136.5t69.5 -76.5z" />
    <glyph glyph-name="m" unicode="m" horiz-adv-x="1896" 
d="M352 1038v-182q68 92 140 131t176 39q112 0 189.5 -45t139.5 -145q78 104 154.5 147t185.5 43q110 0 201 -43t135 -115q29 -50 40 -107t11 -161v-387q0 -107 18.5 -147.5t78.5 -65.5h-375q42 30 57.5 52t21 54t5.5 107v334q0 89 -13 142.5t-42 92.5q-33 39 -84 61.5
t-109 22.5q-70 0 -129 -32.5t-88 -88.5q-15 -29 -19 -57t-4 -106v-369q0 -104 12.5 -136.5t71.5 -76.5h-360q57 43 69.5 75.5t12.5 137.5v352q0 152 -66 221q-32 34 -80.5 53t-99.5 19q-63 0 -118.5 -26t-84.5 -70q-22 -32 -29.5 -66.5t-7.5 -99.5v-383q0 -105 12.5 -137.5
t69.5 -75.5h-358q58 45 70 76.5t12 136.5v571q0 105 -12 136.5t-70 76.5h150q81 0 116 41z" />
    <glyph glyph-name="n" unicode="n" horiz-adv-x="1214" 
d="M352 1038v-180q77 92 150.5 130t169.5 38q104 0 195 -42.5t137 -111.5q29 -46 40 -107t11 -185v-367q0 -104 12.5 -136.5t69.5 -76.5h-361q58 44 71 77t13 136v344q0 87 -10.5 135t-36.5 82q-32 41 -91.5 66.5t-125.5 25.5q-64 0 -119 -25.5t-86 -68.5q-29 -39 -29 -123
v-436q0 -104 12.5 -136.5t69.5 -76.5h-358q58 45 70 76.5t12 136.5v571q0 105 -12 136.5t-70 76.5h139q89 0 127 41z" />
    <glyph glyph-name="o" unicode="o" horiz-adv-x="1292" 
d="M668 1026q223 0 374 -139q81 -74 124.5 -173.5t43.5 -207.5q0 -148 -75 -271t-207.5 -193.5t-292.5 -70.5q-238 0 -395.5 149.5t-157.5 373.5q0 121 54 230t149 183q82 62 173.5 90.5t209.5 28.5zM633 881q-146 0 -238 -100.5t-92 -260.5q0 -173 99.5 -288t250.5 -115
q149 0 242.5 99t93.5 259q0 183 -98 294.5t-258 111.5z" />
    <glyph glyph-name="p" unicode="p" horiz-adv-x="1284" 
d="M518 0l-117 176q126 -59 242 -59q161 0 249.5 98t88.5 277q0 173 -91 281t-237 108q-74 0 -141 -31t-111 -86q-29 -37 -41 -82t-12 -119v-796q0 -71 6.5 -107t23 -58.5t52.5 -43.5h-358q53 31 67.5 68t14.5 141v1017q0 105 -12 136.5t-70 76.5h149q89 0 127 41v-168
q60 72 155.5 114t201.5 42q98 0 195 -40.5t165 -108.5q66 -67 101.5 -162t35.5 -201q0 -233 -148 -388t-372 -155q-85 0 -164 29z" />
    <glyph glyph-name="q" unicode="q" horiz-adv-x="1280" 
d="M866 152l-104 -156q-64 -25 -144 -25q-235 0 -384.5 137t-149.5 351q0 136 67 257.5t181 192.5q148 90 356 90l283 -2h229q-57 -44 -69.5 -76.5t-12.5 -136.5v-1011q0 -76 5 -107t19.5 -51.5t57.5 -56.5h-358q43 36 57.5 56.5t19.5 51.5t5 107v1046q-145 43 -242 43
q-170 0 -274.5 -100t-104.5 -264q0 -169 109 -275t284 -106q54 0 89 7.5t81 27.5z" />
    <glyph glyph-name="r" unicode="r" horiz-adv-x="714" 
d="M444 0h-358q58 45 70 76.5t12 136.5v571q0 105 -12 136.5t-70 76.5h150q88 0 126 41v-178q87 166 259 166q28 0 75 -8v-199q-38 35 -102 35q-57 0 -107 -23.5t-79 -64.5q-46 -64 -46 -197v-356q0 -104 12.5 -136.5t69.5 -76.5z" />
    <glyph glyph-name="s" unicode="s" horiz-adv-x="956" 
d="M784 997v-184q-140 84 -266 84q-89 0 -144 -33.5t-55 -87.5q0 -46 50.5 -79.5t179.5 -73.5q122 -39 173.5 -63.5t96.5 -63.5q84 -78 84 -189q0 -153 -130 -244.5t-347 -91.5q-83 0 -146 11.5t-145 42.5l-74 213q120 -74 211 -104t193 -30q100 0 166.5 43.5t66.5 108.5
q0 62 -49 98q-25 18 -61 33t-146 55q-185 66 -254 128.5t-69 164.5q0 136 113 213.5t311 77.5q135 0 241 -29z" />
    <glyph glyph-name="t" unicode="t" horiz-adv-x="710" 
d="M397 854v-459q0 -91 8 -132t31 -70q61 -74 166 -74q42 0 90 18l-112 -153q-40 -13 -78 -13q-129 0 -221 95q-49 52 -63.5 109t-14.5 202v477h-148v78q111 19 178 94q80 86 80 266v27h84v-322h168q92 0 127 13v-195q-26 23 -53 31t-82 8h-160z" />
    <glyph glyph-name="u" unicode="u" horiz-adv-x="1206" 
d="M858 0v141q-78 -99 -143.5 -134.5t-169.5 -35.5q-107 0 -192 40t-132 112q-33 50 -47 113t-14 161v387q0 105 -12 136.5t-70 76.5h147q50 0 78.5 9t50.5 32v-602q0 -146 54 -215q32 -38 83 -60t109 -22q114 0 182 70.5t68 187.5v387q0 104 -12.5 137.5t-69.5 75.5h152
q48 0 75 9t49 32v-825q0 -104 12.5 -136.5t69.5 -76.5h-268z" />
    <glyph glyph-name="v" unicode="v" horiz-adv-x="1163" 
d="M627 184l258 578q37 80 37 127q0 35 -13.5 55t-56.5 53h307l-491 -1077q-126 73 -168.5 118t-85.5 152l-254 584q-50 110 -76 142t-109 81h144q64 0 93 7t64 32q3 -43 27 -100z" />
    <glyph glyph-name="w" unicode="w" horiz-adv-x="1705" 
d="M866 711l-295 -768q-109 56 -151 99.5t-76 135.5l-231 604q-39 108 -59 140.5t-70 74.5h127q55 0 79 6t54 27q6 -62 39 -143l243 -647l209 542q31 82 31 127q0 25 -13 43.5t-48 44.5h284q-2 -25 -2 -30q0 -17 23 -80l231 -647l211 542q24 59 28.5 74.5t4.5 40.5
q0 29 -15.5 50t-58.5 50h291l-432 -1054q-96 53 -138 100t-71 135z" />
    <glyph glyph-name="x" unicode="x" horiz-adv-x="1130" 
d="M547 393l-219 -256q-37 -42 -37 -76q0 -19 9 -30.5t38 -30.5h-348l463 518l-197 258q-72 97 -109.5 136.5t-101.5 84.5l193 9h24q45 -2 62 -13t61 -69l201 -269l157 189q41 47 41 82q0 42 -57 71h360l-405 -465l254 -335q67 -85 112 -128.5t93 -68.5l-193 -12h-33
q-51 0 -70 11.5t-59 66.5z" />
    <glyph glyph-name="y" unicode="y" horiz-adv-x="1148" 
d="M639 193l227 575q33 84 33 131q0 30 -14.5 52t-48.5 46h303l-461 -1099q-40 -96 -76 -149.5t-90 -96.5q-119 -94 -293 -94q-65 0 -120.5 12t-141.5 43l195 141q62 -37 122 -37q81 0 142 59t112 187l21 57q-52 52 -67 73.5t-44 86.5l-286 625q-41 90 -73.5 128.5
t-88.5 63.5l209 9q47 0 65 -7q18 -3 45 -63z" />
    <glyph glyph-name="z" unicode="z" horiz-adv-x="1058" 
d="M940 0h-917l614 842q-146 14 -242 14q-109 0 -177.5 -17t-129.5 -59l107 217h768l-588 -833q169 -17 342 -17q114 0 187.5 18.5t156.5 67.5z" />
    <glyph glyph-name="braceleft" unicode="{" horiz-adv-x="681" 
d="M90 471v154q63 22 84 44.5t21 69.5v449q2 141 3.5 167.5t8.5 39.5q20 28 69 28h320v-116h-102q-78 0 -96.5 -18.5t-18.5 -96.5v-471q0 -74 -19 -108.5t-77 -63.5q58 -31 77 -65t19 -109v-469q0 -78 18 -96.5t95 -18.5h104v-117h-320q-55 0 -73 37q-6 16 -8 199v446
q0 50 -20 71.5t-85 43.5z" />
    <glyph glyph-name="bar" unicode="|" horiz-adv-x="454" 
d="M301 -512h-147v2048h147v-2048z" />
    <glyph glyph-name="braceright" unicode="}" horiz-adv-x="681" 
d="M592 625v-154q-66 -22 -85.5 -43t-19.5 -72v-446q-2 -141 -3.5 -167.5t-10.5 -39.5q-17 -29 -70 -29h-317v117h102q78 0 96.5 18.5t18.5 96.5v469q0 74 19 108.5t77 65.5q-57 29 -76.5 64t-19.5 108v471q0 78 -18.5 96.5t-96.5 18.5h-102v116h317q58 0 76 -37
q6 -16 8 -198v-449q0 -49 20 -70.5t85 -43.5z" />
    <glyph glyph-name="asciitilde" unicode="~" 
d="M1171 823q-36 -75 -66 -117t-69 -73q-83 -64 -184 -64q-42 0 -100 19.5t-201 81.5q-75 30 -123 30q-53 0 -92 -33.5t-82 -115.5l-115 74q46 96 82 147q89 115 219 115q76 0 236 -68q95 -40 128.5 -50.5t69.5 -10.5q58 0 96.5 28t84.5 105z" />
    <glyph glyph-name="uni00A0" unicode="&#xa0;" horiz-adv-x="534" 
 />
    <glyph glyph-name="exclamdown" unicode="&#xa1;" horiz-adv-x="872" 
d="M438 1022q54 0 92.5 -39.5t38.5 -93.5q0 -57 -38.5 -96t-94.5 -39q-57 0 -96 39t-39 96q0 55 40 94t97 39zM362 655h156l33 -759v-1q7 -208 18 -250q10 -39 41 -62q8 -5 27 -17h-287q-23 0 -30 3.5t-7 14.5v19z" />
    <glyph glyph-name="cent" unicode="&#xa2;" horiz-adv-x="1110" 
d="M911 1264v-201q-32 37 -82.5 57.5t-107.5 20.5v-721q66 3 123.5 29t132.5 86l-53 -224q-81 -34 -203 -37v-202h-129v202q-209 34 -330 168t-121 332q0 125 56 235t157 185q51 39 105 59.5t133 30.5v211h129v-211q114 0 190 -20zM592 432v703q-119 -22 -180.5 -108.5
t-61.5 -231.5q0 -146 63.5 -241.5t178.5 -121.5z" />
    <glyph glyph-name="sterling" unicode="&#xa3;" horiz-adv-x="1153" 
d="M455 680h-242v123h152q-2 5 -9 13l-6 9q-63 89 -84.5 144.5t-21.5 126.5q0 160 115 260t298 100q67 0 123 -12.5t148 -48.5l6 -219q-83 69 -139 95.5t-119 26.5q-86 0 -146.5 -52.5t-60.5 -127.5q0 -50 26 -100t138 -215h285v-123h-211q57 -126 57 -238q0 -61 -16 -112
t-56 -121q62 -43 133 -43q118 0 217 57v-211q-119 -43 -219 -43q-69 0 -127 20.5t-131 71.5q-60 -49 -115.5 -70.5t-123.5 -21.5q-94 0 -151.5 44t-57.5 116q0 77 64 126.5t163 49.5q78 0 191 -39q22 56 22 129q0 135 -102 285zM451 139q-60 51 -138 51q-33 0 -56.5 -18.5
t-23.5 -44.5q0 -25 23.5 -41t60.5 -16q43 0 74 15.5t60 53.5z" />
    <glyph glyph-name="currency" unicode="&#xa4;" 
d="M111 240l180 184q-90 125 -90 264t92 262l-187 185l97 96l184 -184q125 92 268 92q139 0 265 -90l184 182l94 -96l-182 -181q51 -76 71.5 -135.5t20.5 -130.5q0 -73 -20.5 -133.5t-69.5 -130.5l184 -182l-94 -97l-184 183q-130 -90 -267 -90q-70 0 -132 21t-138 69
l-182 -183zM651 983q-120 0 -205.5 -87t-85.5 -210q0 -122 86 -208.5t209 -86.5t209 86t86 209q0 126 -86.5 211.5t-212.5 85.5z" />
    <glyph glyph-name="yen" unicode="&#xa5;" 
d="M223 442v115h352v80l-38 68h-357v114h291l-248 449q-35 60 -70.5 93t-95.5 62h232q65 0 81 -10.5t48 -71.5l291 -548l223 407q26 50 34.5 73.5t8.5 49.5q0 31 -15.5 54t-52.5 46h344l-370 -612h284v-115h-352l-41 -63v-76h350v-115h-350v-217q0 -91 22 -139.5t80 -85.5
h-395q57 32 76.5 74.5t19.5 136.5v231h-352z" />
    <glyph glyph-name="brokenbar" unicode="&#xa6;" horiz-adv-x="454" 
d="M301 666h-147v716h147v-716zM301 -358h-147v716h147v-716z" />
    <glyph glyph-name="section" unicode="&#xa7;" 
d="M1016 1409v-223q-93 125 -277 125q-97 0 -155 -40.5t-58 -107.5q0 -54 40 -91t151 -87q218 -98 298.5 -181.5t80.5 -211.5q0 -90 -37.5 -163t-122.5 -148q80 -88 80 -209q0 -173 -130.5 -285.5t-332.5 -112.5q-179 0 -340 68v227q143 -78 204 -99.5t142 -21.5
q106 0 174 55.5t68 143.5q0 63 -46 106t-210 130q-182 95 -255 177t-73 191q0 88 42 157t140 142q-45 43 -63.5 85.5t-18.5 103.5q0 149 112.5 235t305.5 86q149 0 281 -51zM834 365q73 79 73 170q0 73 -56 127.5t-204 125.5q-105 52 -137 68q-49 -41 -69.5 -77.5
t-20.5 -82.5q0 -66 44 -108.5t193 -122.5q133 -73 177 -100z" />
    <glyph glyph-name="dieresis" unicode="&#xa8;" horiz-adv-x="1067" 
d="M354 1434q51 0 87 -37t36 -88q0 -54 -36 -90.5t-89 -36.5q-54 0 -90.5 36.5t-36.5 90.5q0 52 37.5 88.5t91.5 36.5zM719 1434q50 0 86.5 -37.5t36.5 -89.5q0 -51 -37 -88t-88 -37q-53 0 -90 37t-37 90q0 51 37.5 88t91.5 37z" />
    <glyph glyph-name="copyright" unicode="&#xa9;" horiz-adv-x="1667" 
d="M842 1458q150 0 287 -59.5t236.5 -159.5t158.5 -238.5t59 -289.5q0 -152 -59.5 -290t-160 -238t-240 -159t-292.5 -59t-291.5 59t-238.5 159t-159.5 238t-59.5 290q0 206 101 377.5t275.5 270.5t383.5 99zM825 1370q-129 0 -248 -53t-205.5 -141.5t-138 -210.5
t-51.5 -254q0 -133 52 -255t139.5 -210t208 -140.5t252.5 -52.5q176 0 326 88.5t237.5 240t87.5 329.5q0 136 -51.5 258t-139.5 210t-210.5 139.5t-258.5 51.5zM1147 1133v-164q-136 75 -252 75q-138 0 -225.5 -85.5t-87.5 -219.5q0 -147 96 -248.5t235 -101.5
q72 0 142 20.5t168 69.5l-78 -168q-101 -41 -215 -41q-236 0 -375 122t-139 329q0 197 132.5 321.5t342.5 124.5q123 0 256 -34z" />
    <glyph glyph-name="ordfeminine" unicode="&#xaa;" horiz-adv-x="872" 
d="M508 674l-84 -115q-44 -6 -68 -6q-104 0 -169.5 55.5t-65.5 143.5q0 41 21.5 77.5t56.5 55.5q52 28 176 51q84 15 113.5 31t29.5 47q0 32 -31.5 50.5t-83.5 18.5q-47 0 -86 -11t-118 -48l106 156q52 8 94 8q176 0 234 -90q17 -28 21.5 -54t4.5 -100v-164q0 -54 5.5 -71
t25.5 -31q24 -18 88 -21l-67 -96q-117 8 -153 40t-36 130v154q-40 -18 -88 -29q-93 -21 -123 -37q-35 -25 -35 -69q0 -43 35 -68t95 -25q39 0 102 17z" />
    <glyph glyph-name="guillemotleft" unicode="&#xab;" horiz-adv-x="780" 
d="M86 528l250 359h63l-127 -359l127 -362h-63zM375 528l252 359h61l-127 -359l127 -362h-63z" />
    <glyph glyph-name="logicalnot" unicode="&#xac;" 
d="M1128 483h-147v310h-797v147h944v-457z" />
    <glyph glyph-name="uni00AD" unicode="&#xad;" horiz-adv-x="804" 
d="M72 430l123 154q17 23 35.5 30t58.5 7h229q93 0 130 5t87 25l-117 -155q-19 -25 -35 -32t-57 -7h-258q-77 0 -111.5 -5t-84.5 -22z" />
    <glyph glyph-name="registered" unicode="&#xae;" horiz-adv-x="1667" 
d="M842 1458q150 0 287 -59.5t236.5 -159.5t158.5 -238.5t59 -289.5q0 -152 -59.5 -290t-160 -238t-240 -159t-292.5 -59t-291.5 59t-238.5 159t-159.5 238t-59.5 290q0 206 101 377.5t275.5 270.5t383.5 99zM825 1370q-129 0 -248 -53t-205.5 -141.5t-138 -210.5
t-51.5 -254q0 -133 52 -255t139.5 -210t208 -140.5t252.5 -52.5q176 0 326 88.5t237.5 240t87.5 329.5q0 136 -51.5 258t-139.5 210t-210.5 139.5t-258.5 51.5zM711 1030v-581q0 -88 14 -117.5t68 -52.5h-312q54 23 68 52t14 118v514q0 88 -14 116.5t-68 53.5h224h61
q29 2 63 2q129 0 209 -61t80 -159q0 -75 -57 -134.5t-156 -88.5q146 -186 222 -259.5t171 -123.5q-91 -16 -122 -16q-56 0 -99.5 25.5t-109.5 97.5q-68 72 -136.5 160.5t-105.5 150.5q117 20 172 63.5t55 116.5q0 59 -43 96t-110 37q-42 0 -88 -10z" />
    <glyph glyph-name="macron" unicode="&#xaf;" horiz-adv-x="1067" 
d="M217 1378h633v-137h-633v137z" />
    <glyph glyph-name="degree" unicode="&#xb0;" horiz-adv-x="1372" 
d="M690 1444q120 0 207.5 -88t87.5 -211t-87 -210t-210 -87t-211 87.5t-88 211.5t87.5 210.5t213.5 86.5zM686 1327q-73 0 -125.5 -53t-52.5 -127t53.5 -127t128.5 -53q74 0 126 52.5t52 125.5q0 76 -53.5 129t-128.5 53z" />
    <glyph glyph-name="plusminus" unicode="&#xb1;" 
d="M1128 793v-148h-399v-407h-147v407h-400v148h400v409h147v-409h399zM1128 98v-153h-946v153h946z" />
    <glyph glyph-name="twosuperior" unicode="&#xb2;" horiz-adv-x="860" 
d="M717 569h-645l362 490q72 100 72 155q0 46 -37.5 75.5t-97.5 29.5t-111 -17t-149 -69l96 186q113 25 182 25q129 0 214 -56.5t85 -142.5q0 -52 -23 -96t-118 -176l-203 -281q96 -12 162 -12q157 0 299 68z" />
    <glyph glyph-name="threesuperior" unicode="&#xb3;" horiz-adv-x="860" 
d="M256 969v129q46 -6 72 -6q88 0 140 32.5t52 87.5q0 47 -48 80t-118 33q-52 0 -101 -16t-122 -56l68 162q86 29 182 29q135 0 221 -58t86 -149q0 -123 -149 -176q215 -56 215 -230q0 -127 -122 -204.5t-323 -77.5q-65 0 -149 12l-78 176q140 -63 266 -63q103 0 168.5 46.5
t65.5 119.5q0 67 -55.5 105t-153.5 38q-51 0 -117 -14z" />
    <glyph glyph-name="acute" unicode="&#xb4;" horiz-adv-x="1069" 
d="M383 1120l405 371l130 -135z" />
    <glyph glyph-name="mu" unicode="&#xb5;" horiz-adv-x="1067" 
d="M788 0v141q-76 -98 -141.5 -134t-165.5 -36q-72 0 -120 20.5t-95 71.5l23 -505h-199v1226q0 105 -12 136.5t-70 76.5h148q50 0 78.5 9t50.5 32v-602q0 -148 53 -215q32 -38 83 -60t109 -22q114 0 182 70.5t68 187.5v387q0 104 -12.5 137.5t-69.5 75.5h152q48 0 75.5 9
t49.5 32v-825q0 -104 12.5 -136.5t69.5 -76.5h-269z" />
    <glyph glyph-name="paragraph" unicode="&#xb6;" horiz-adv-x="1296" 
d="M1038 -356h-159v1691h-84v-1691h-160v1691q-53 -1 -87.5 -20.5t-64.5 -63.5q-63 -99 -63 -301q0 -131 41 -204t139 -119q-56 -13 -98 -13q-183 0 -300.5 116.5t-117.5 297.5q0 95 35 175.5t98 131.5q66 51 148.5 69.5t242.5 18.5h522q-53 -40 -75 -98q-11 -26 -14 -60.5
t-3 -123.5v-1497z" />
    <glyph glyph-name="periodcentered" unicode="&#xb7;" horiz-adv-x="526" 
d="M266 690q54 0 92.5 -39.5t38.5 -93.5q0 -57 -38.5 -96t-94.5 -39q-57 0 -96 39t-39 96q0 55 40 94t97 39z" />
    <glyph glyph-name="cedilla" unicode="&#xb8;" horiz-adv-x="1067" 
d="M666 0l-45 -115q38 6 51 6q72 0 115.5 -35.5t43.5 -95.5q0 -68 -55 -113.5t-137 -45.5q-126 0 -229 75l65 84q84 -65 148 -65q32 0 53.5 17.5t21.5 45.5q0 26 -17.5 41t-47.5 15q-19 0 -53 -11l-62 82l45 115h103z" />
    <glyph glyph-name="onesuperior" unicode="&#xb9;" horiz-adv-x="860" 
d="M369 1243h-191q116 40 189 93.5t161 164.5v-760q0 -76 15.5 -108t68.5 -64h-344q69 38 85 65.5t16 106.5v502z" />
    <glyph glyph-name="ordmasculine" unicode="&#xba;" horiz-adv-x="872" 
d="M449 1190q141 0 238 -90.5t97 -222.5q0 -135 -103.5 -229.5t-252.5 -94.5q-146 0 -244 90.5t-98 224.5q0 138 103.5 230t259.5 92zM428 1085q-83 0 -135.5 -56.5t-52.5 -145.5q0 -95 57.5 -161.5t140.5 -66.5q82 0 137.5 56t55.5 139q0 106 -56 170.5t-147 64.5z" />
    <glyph glyph-name="guillemotright" unicode="&#xbb;" horiz-adv-x="780" 
d="M408 528l-250 -362h-64l127 362l-127 359h62zM696 528l-250 -362h-63l127 362l-127 359h61z" />
    <glyph glyph-name="onequarter" unicode="&#xbc;" horiz-adv-x="1978" 
d="M1346 1423l-699 -1423h-129l701 1423h127zM313 1243h-190q116 40 189 93.5t161 164.5v-760q0 -76 15.5 -108t68.5 -64h-344q69 38 84.5 65t15.5 107v502zM1563 174h-482l441 680h186v-567q59 3 98.5 17.5t83.5 49.5l-78 -180h-104v-43q0 -52 17 -80t63 -51h-320
q60 22 77.5 43t17.5 72v59zM1569 743l-275 -448q85 -10 201 -10q39 0 68 2z" />
    <glyph glyph-name="onehalf" unicode="&#xbd;" horiz-adv-x="1978" 
d="M1362 1423l-698 -1423h-129l700 1423h127zM330 1243h-191q116 40 189 93.5t161 164.5v-760q0 -76 15.5 -108t68.5 -64h-344q69 38 85 65.5t16 106.5v502zM1794 0h-645l362 489q72 97 72 156q0 46 -37.5 75.5t-97.5 29.5q-59 0 -112 -17.5t-146 -68.5l94 184
q110 26 182 26q131 0 216 -56t85 -142q0 -53 -23 -97t-120 -176l-203 -280q96 -12 162 -12q160 0 299 67z" />
    <glyph glyph-name="threequarters" unicode="&#xbe;" horiz-adv-x="1978" 
d="M1401 1423l-699 -1423h-129l701 1423h127zM242 969v129q47 -6 71 -6q88 0 140.5 32.5t52.5 87.5q0 47 -48 80t-118 33q-52 0 -101 -16t-122 -56l67 162q86 29 183 29q135 0 221 -58t86 -149q0 -122 -150 -176q215 -56 215 -230q0 -128 -121.5 -205t-322.5 -77
q-66 0 -150 12l-77 176q140 -63 266 -63q103 0 168 46.5t65 119.5q0 67 -55.5 105t-153.5 38q-50 0 -116 -14zM1579 174h-481l440 680h186v-567q59 3 99 17.5t84 49.5l-78 -180h-105v-43q0 -51 17.5 -79.5t62.5 -51.5h-319q60 22 77 43t17 72v59zM1585 743l-274 -448
q85 -10 200 -10q39 0 68 2z" />
    <glyph glyph-name="questiondown" unicode="&#xbf;" horiz-adv-x="1089" 
d="M612 1022q54 0 92.5 -39.5t38.5 -93.5q0 -57 -39 -96t-96 -39q-56 0 -94.5 39t-38.5 96q0 55 40 94t97 39zM543 647l168 19q10 -49 10 -84q0 -88 -38.5 -154.5t-141.5 -155.5q-106 -93 -150.5 -163t-44.5 -148q0 -118 89 -199t220 -81q68 0 123.5 18t169.5 76l-123 -201
q-62 -26 -109 -35.5t-108 -9.5q-210 0 -344.5 109.5t-134.5 279.5q0 104 48.5 186.5t176.5 198.5q67 60 96 88t56 55t33.5 45t10 34t3.5 46q0 32 -10 76z" />
    <glyph glyph-name="Agrave" unicode="&#xc0;" horiz-adv-x="1570" 
d="M1032 537h-547l-123 -330q-24 -65 -24 -111q0 -30 17.5 -51t60.5 -45h-398q75 47 111 99t90 192l381 950q25 67 25 98q0 28 -14.5 46.5t-51.5 37.5h344l455 -1132q52 -129 94.5 -189t114.5 -102h-449q50 30 64 45t14 41q0 27 -37 121zM977 676l-219 565l-221 -565h440z
M944 1538l-590 176l119 160z" />
    <glyph glyph-name="Aacute" unicode="&#xc1;" horiz-adv-x="1570" 
d="M1032 537h-547l-123 -330q-24 -65 -24 -111q0 -30 17.5 -51t60.5 -45h-398q75 47 111 99t90 192l381 950q25 67 25 98q0 28 -14.5 46.5t-51.5 37.5h344l455 -1132q52 -129 94.5 -189t114.5 -102h-449q50 30 64 45t14 41q0 27 -37 121zM977 676l-219 565l-221 -565h440z
M631 1538l471 336l119 -160z" />
    <glyph glyph-name="Acircumflex" unicode="&#xc2;" horiz-adv-x="1570" 
d="M1032 537h-547l-123 -330q-24 -65 -24 -111q0 -30 17.5 -51t60.5 -45h-398q75 47 111 99t90 192l381 950q25 67 25 98q0 28 -14.5 46.5t-51.5 37.5h344l455 -1132q52 -129 94.5 -189t114.5 -102h-449q50 30 64 45t14 41q0 27 -37 121zM977 676l-219 565l-221 -565h440z
M786 1855l351 -305q-151 3 -351 105q-89 -49 -183.5 -77t-172.5 -28z" />
    <glyph glyph-name="Atilde" unicode="&#xc3;" horiz-adv-x="1570" 
d="M1032 537h-547l-123 -330q-24 -65 -24 -111q0 -30 17.5 -51t60.5 -45h-398q75 47 111 99t90 192l381 950q25 67 25 98q0 28 -14.5 46.5t-51.5 37.5h344l455 -1132q52 -129 94.5 -189t114.5 -102h-449q50 30 64 45t14 41q0 27 -37 121zM977 676l-219 565l-221 -565h440z
M1161 1847q-4 -15 -13.5 -39.5t-12.5 -35.5q-32 -90 -60 -125q-50 -60 -139 -60q-53 0 -160 37q-138 47 -205 47q-45 0 -73.5 -14t-91.5 -66q32 91 42.5 117t22.5 45q43 66 127 66q29 0 45.5 -3.5t85.5 -23.5q35 -10 141 -41q62 -16 88 -16q39 0 83.5 24t119.5 88z" />
    <glyph glyph-name="Adieresis" unicode="&#xc4;" horiz-adv-x="1570" 
d="M1032 537h-547l-123 -330q-24 -65 -24 -111q0 -30 17.5 -51t60.5 -45h-398q75 47 111 99t90 192l381 950q25 67 25 98q0 28 -14.5 46.5t-51.5 37.5h344l455 -1132q52 -129 94.5 -189t114.5 -102h-449q50 30 64 45t14 41q0 27 -37 121zM977 676l-219 565l-221 -565h440z
M588 1835q52 0 89.5 -38t37.5 -91q0 -54 -37.5 -92.5t-91.5 -38.5q-56 0 -93.5 37.5t-37.5 93.5q0 54 38.5 91.5t94.5 37.5zM985 1837q52 0 89.5 -38t37.5 -91q0 -56 -38 -93.5t-93 -37.5q-54 0 -91.5 38.5t-37.5 92.5t38.5 91.5t94.5 37.5z" />
    <glyph glyph-name="Aring" unicode="&#xc5;" horiz-adv-x="1570" 
d="M1032 537h-547l-123 -330q-24 -65 -24 -111q0 -30 17.5 -51t60.5 -45h-398q75 47 111 99t90 192l381 950q25 67 25 98q0 28 -14.5 46.5t-51.5 37.5h344l455 -1132q52 -129 94.5 -189t114.5 -102h-449q50 30 64 45t14 41q0 27 -37 121zM977 676l-219 565l-221 -565h440z
M774 1976q91 0 156 -66.5t65 -158.5q0 -94 -65.5 -159.5t-159.5 -65.5t-159.5 66t-65.5 161q0 94 67 158.5t162 64.5zM770 1868q-49 0 -83 -34.5t-34 -82.5q0 -50 34 -84.5t85 -34.5q50 0 83.5 34t33.5 85q0 49 -34.5 83t-84.5 34z" />
    <glyph glyph-name="AE" unicode="&#xc6;" horiz-adv-x="2031" 
d="M1325 698v-516q153 -22 270 -22q139 0 233.5 28.5t184.5 96.5l-98 -285h-903q59 32 77.5 86t18.5 190v422h-352l-357 -499q-36 -51 -45.5 -69.5t-9.5 -39.5q0 -24 13 -41.5t53 -48.5h-437q50 33 69 47.5t65.5 66t95.5 115.5t164 217l548 740q71 91 87 118t16 56
q0 40 -51 63h766q44 0 79 13v-250q-53 50 -105.5 67t-154.5 17q-130 0 -225 -15v-403h289q42 0 74 14v-227q-25 34 -62.5 46.5t-109.5 12.5h-193zM1114 836l4 403l-262 -403h258z" />
    <glyph glyph-name="Ccedilla" unicode="&#xc7;" horiz-adv-x="1372" 
d="M1237 1403v-248q-208 119 -393 119q-227 0 -371.5 -148.5t-144.5 -380.5q0 -167 72 -306.5t197 -219.5t275 -80q112 0 222 33t252 109l-109 -252q-88 -35 -164 -49.5t-176 -14.5h-59l-43 -100q44 10 73 10q72 0 115 -40.5t43 -108.5q0 -71 -59 -117.5t-150 -46.5
q-128 0 -229 76l67 83q45 -33 74 -44t68 -11q41 0 63.5 16t22.5 44q0 26 -16.5 40.5t-45.5 14.5t-63 -17l-76 101l43 110q-163 39 -250 78q-179 79 -286 258t-107 398q0 160 58 299t159 238t243.5 155.5t305.5 56.5t389 -55z" />
    <glyph glyph-name="Egrave" unicode="&#xc8;" horiz-adv-x="1126" 
d="M420 696v-514q137 -22 266 -22q140 0 237 28.5t185 94.5l-100 -283h-902q60 32 78.5 85.5t18.5 193.5v868q0 137 -19 191t-78 85h719q44 0 82 13v-252q-53 51 -106.5 68.5t-157.5 17.5q-129 0 -223 -15v-403h289q41 0 73 14v-229q-26 34 -62.5 46.5t-107.5 12.5h-192z
M752 1538l-590 176l119 160z" />
    <glyph glyph-name="Eacute" unicode="&#xc9;" horiz-adv-x="1126" 
d="M420 696v-514q137 -22 266 -22q140 0 237 28.5t185 94.5l-100 -283h-902q60 32 78.5 85.5t18.5 193.5v868q0 137 -19 191t-78 85h719q44 0 82 13v-252q-53 51 -106.5 68.5t-157.5 17.5q-129 0 -223 -15v-403h289q41 0 73 14v-229q-26 34 -62.5 46.5t-107.5 12.5h-192z
M397 1538l471 336l119 -160z" />
    <glyph glyph-name="Ecircumflex" unicode="&#xca;" horiz-adv-x="1126" 
d="M420 696v-514q137 -22 266 -22q140 0 237 28.5t185 94.5l-100 -283h-902q60 32 78.5 85.5t18.5 193.5v868q0 137 -19 191t-78 85h719q44 0 82 13v-252q-53 51 -106.5 68.5t-157.5 17.5q-129 0 -223 -15v-403h289q41 0 73 14v-229q-26 34 -62.5 46.5t-107.5 12.5h-192z
M565 1855l350 -305q-150 3 -350 105q-89 -49 -183.5 -77t-172.5 -28z" />
    <glyph glyph-name="Edieresis" unicode="&#xcb;" horiz-adv-x="1126" 
d="M420 696v-514q137 -22 266 -22q140 0 237 28.5t185 94.5l-100 -283h-902q60 32 78.5 85.5t18.5 193.5v868q0 137 -19 191t-78 85h719q44 0 82 13v-252q-53 51 -106.5 68.5t-157.5 17.5q-129 0 -223 -15v-403h289q41 0 73 14v-229q-26 34 -62.5 46.5t-107.5 12.5h-192z
M369 1835q52 0 89.5 -38t37.5 -91q0 -54 -37.5 -92.5t-91.5 -38.5q-55 0 -93 37.5t-38 93.5q0 54 38.5 91.5t94.5 37.5zM766 1837q52 0 89.5 -38t37.5 -91q0 -56 -37.5 -93.5t-93.5 -37.5q-54 0 -91.5 38.5t-37.5 92.5t38.5 91.5t94.5 37.5z" />
    <glyph glyph-name="Igrave" unicode="&#xcc;" horiz-adv-x="622" 
d="M203 276v871q0 138 -18.5 191t-78.5 85h410q-60 -32 -78 -84.5t-18 -191.5v-871q0 -139 18 -191.5t78 -84.5h-410q60 32 78.5 85t18.5 191zM514 1538l-532 176l118 160z" />
    <glyph glyph-name="Iacute" unicode="&#xcd;" horiz-adv-x="622" 
d="M203 276v871q0 138 -18.5 191t-78.5 85h410q-60 -32 -78 -84.5t-18 -191.5v-871q0 -139 18 -191.5t78 -84.5h-410q60 32 78.5 85t18.5 191zM117 1538l413 336l119 -160z" />
    <glyph glyph-name="Icircumflex" unicode="&#xce;" horiz-adv-x="622" 
d="M203 276v871q0 137 -19 190t-78 86h410q-59 -32 -77.5 -85.5t-18.5 -190.5v-871q0 -137 18.5 -190.5t77.5 -85.5h-410q59 33 78 86t19 190zM315 1868l328 -332q-67 0 -131.5 26.5t-196.5 106.5q-204 -136 -335 -133z" />
    <glyph glyph-name="Idieresis" unicode="&#xcf;" horiz-adv-x="622" 
d="M203 276v871q0 138 -18.5 191t-78.5 85h410q-60 -32 -78 -84.5t-18 -191.5v-871q0 -139 18 -191.5t78 -84.5h-410q60 32 78.5 85t18.5 191zM137 1806q51 0 89 -38.5t38 -90.5q0 -54 -37.5 -92.5t-91.5 -38.5q-55 0 -93 38t-38 93q0 54 38.5 91.5t94.5 37.5zM492 1808
q52 0 89 -38t37 -91q0 -55 -38 -93t-93 -38q-54 0 -91.5 38t-37.5 93q0 54 39 91.5t95 37.5z" />
    <glyph glyph-name="Eth" unicode="&#xd0;" horiz-adv-x="1521" 
d="M203 668h-197v141h197v338q0 137 -19 190t-78 86h560q167 0 293.5 -41.5t236.5 -132.5q118 -98 180 -231.5t62 -290.5q0 -215 -112 -392.5t-300 -262.5q-89 -40 -216.5 -56t-354.5 -16h-349q58 55 66 67q6 10 12 29q19 62 19 191v381zM420 809h414v-141h-414v-490
q88 -16 160 -16q267 0 411 104q209 156 209 439q0 119 -39.5 227.5t-109.5 183.5q-74 80 -185.5 122t-247.5 42q-81 0 -198 -25v-446z" />
    <glyph glyph-name="Ntilde" unicode="&#xd1;" horiz-adv-x="1613" 
d="M362 1118v-864q0 -106 23.5 -158.5t89.5 -95.5h-385q69 44 92 95t23 159v915q0 106 -23.5 158.5t-89.5 95.5h316q10 -25 51 -80l801 -1019v845q0 107 -23.5 158t-91.5 96h387q-69 -44 -92 -95t-23 -159v-1239q-89 29 -160 83.5t-137 144.5zM1227 1847q-4 -15 -13.5 -39.5
t-13.5 -35.5q-33 -92 -59 -125q-23 -28 -61 -44t-79 -16q-52 0 -159 37q-138 47 -205 47q-45 0 -74.5 -14t-91.5 -66q45 130 66 162q43 66 127 66q29 0 45.5 -3.5t85.5 -23.5q35 -10 141 -41q62 -16 88 -16q39 0 83.5 24t119.5 88z" />
    <glyph glyph-name="Ograve" unicode="&#xd2;" horiz-adv-x="1753" 
d="M899 1460q154 0 301 -56.5t250 -156.5q101 -98 160 -239t59 -287q0 -208 -106 -381.5t-289.5 -274t-403.5 -100.5q-162 0 -308 58t-251.5 156.5t-167 235.5t-61.5 290q0 212 106.5 385t294 271.5t416.5 98.5zM868 1305q-109 0 -215 -43t-178 -117q-69 -72 -109 -180.5
t-40 -225.5q0 -125 45.5 -245.5t128.5 -212.5q146 -162 379 -162q243 0 393.5 157.5t150.5 409.5q0 250 -147 430q-158 189 -408 189zM1063 1538l-590 176l119 160z" />
    <glyph glyph-name="Oacute" unicode="&#xd3;" horiz-adv-x="1753" 
d="M899 1460q154 0 301 -56.5t250 -156.5q101 -98 160 -239t59 -287q0 -208 -106 -381.5t-289.5 -274t-403.5 -100.5q-162 0 -308 58t-251.5 156.5t-167 235.5t-61.5 290q0 212 106.5 385t294 271.5t416.5 98.5zM868 1305q-109 0 -215 -43t-178 -117q-69 -72 -109 -180.5
t-40 -225.5q0 -125 45.5 -245.5t128.5 -212.5q146 -162 379 -162q243 0 393.5 157.5t150.5 409.5q0 250 -147 430q-158 189 -408 189zM709 1538l471 336l118 -160z" />
    <glyph glyph-name="Ocircumflex" unicode="&#xd4;" horiz-adv-x="1753" 
d="M899 1460q154 0 301 -56.5t250 -156.5q101 -98 160 -239t59 -287q0 -208 -106 -381.5t-289.5 -274t-403.5 -100.5q-162 0 -308 58t-251.5 156.5t-167 235.5t-61.5 290q0 212 106.5 385t294 271.5t416.5 98.5zM868 1305q-109 0 -215 -43t-178 -117q-69 -72 -109 -180.5
t-40 -225.5q0 -125 45.5 -245.5t128.5 -212.5q146 -162 379 -162q243 0 393.5 157.5t150.5 409.5q0 250 -147 430q-158 189 -408 189zM879 1855l350 -305q-150 3 -350 105q-89 -49 -184 -77t-173 -28z" />
    <glyph glyph-name="Otilde" unicode="&#xd5;" horiz-adv-x="1753" 
d="M899 1460q154 0 301 -56.5t250 -156.5q101 -98 160 -239t59 -287q0 -208 -106 -381.5t-289.5 -274t-403.5 -100.5q-162 0 -308 58t-251.5 156.5t-167 235.5t-61.5 290q0 212 106.5 385t294 271.5t416.5 98.5zM868 1305q-109 0 -215 -43t-178 -117q-69 -72 -109 -180.5
t-40 -225.5q0 -125 45.5 -245.5t128.5 -212.5q146 -162 379 -162q243 0 393.5 157.5t150.5 409.5q0 250 -147 430q-158 189 -408 189zM1274 1847q-4 -15 -13.5 -39.5t-13.5 -35.5q-33 -92 -59 -125q-50 -60 -139 -60q-53 0 -160 37q-138 47 -205 47q-45 0 -74.5 -14
t-91.5 -66q45 130 66 162q43 66 127 66q29 0 45.5 -3.5t85.5 -23.5q35 -10 141 -41q62 -16 88 -16q39 0 83.5 24t119.5 88z" />
    <glyph glyph-name="Odieresis" unicode="&#xd6;" horiz-adv-x="1753" 
d="M899 1460q154 0 301 -56.5t250 -156.5q101 -98 160 -239t59 -287q0 -208 -106 -381.5t-289.5 -274t-403.5 -100.5q-162 0 -308 58t-251.5 156.5t-167 235.5t-61.5 290q0 212 106.5 385t294 271.5t416.5 98.5zM868 1305q-109 0 -215 -43t-178 -117q-69 -72 -109 -180.5
t-40 -225.5q0 -125 45.5 -245.5t128.5 -212.5q146 -162 379 -162q243 0 393.5 157.5t150.5 409.5q0 250 -147 430q-158 189 -408 189zM680 1835q52 0 89.5 -38t37.5 -91q0 -54 -37.5 -92.5t-91.5 -38.5q-56 0 -93.5 37.5t-37.5 93.5q0 54 38.5 91.5t94.5 37.5zM1077 1837
q52 0 89.5 -38t37.5 -91q0 -56 -38 -93.5t-93 -37.5q-54 0 -91.5 38.5t-37.5 92.5t38.5 91.5t94.5 37.5z" />
    <glyph glyph-name="multiply" unicode="&#xd7;" 
d="M1071 410l-104 -105l-312 311l-317 -317l-105 104l318 318l-311 311l104 105l311 -312l318 318l104 -105l-317 -317z" />
    <glyph glyph-name="Oslash" unicode="&#xd8;" horiz-adv-x="1753" 
d="M408 102l-140 -161h-178l211 247q-116 126 -167.5 247t-51.5 267q0 158 63.5 298.5t172 241.5t260.5 159.5t323 58.5q124 0 223 -28t201 -91l127 144h193l-209 -228q60 -55 89.5 -92.5t61.5 -99.5q84 -173 84 -340q0 -151 -68.5 -301.5t-183.5 -253.5
q-107 -98 -252 -151.5t-303 -53.5q-128 0 -232.5 31.5t-223.5 105.5zM442 344l758 856q-136 109 -332 109q-238 0 -394.5 -161t-156.5 -405q0 -219 125 -399zM1298 1102l-763 -864q84 -68 159 -95.5t180 -27.5q252 0 407 158t155 417q0 120 -32 215t-106 197z" />
    <glyph glyph-name="Ugrave" unicode="&#xd9;" horiz-adv-x="1540" 
d="M1128 0v150q-153 -185 -428 -185q-156 0 -275.5 63t-176.5 175q-31 58 -41 121t-10 194v629q0 138 -18.5 191t-78.5 85h410q-59 -32 -77.5 -85.5t-18.5 -190.5v-629q0 -109 15.5 -166.5t59.5 -109.5q47 -57 119 -88t156 -31q95 0 178 40t133 109q26 35 35.5 72.5
t9.5 99.5v703q0 137 -18.5 190.5t-77.5 85.5h410q-59 -33 -78 -86t-19 -190v-871q0 -137 19 -190t78 -86h-306zM930 1538l-590 176l119 160z" />
    <glyph glyph-name="Uacute" unicode="&#xda;" horiz-adv-x="1540" 
d="M1128 0v150q-153 -185 -428 -185q-156 0 -275.5 63t-176.5 175q-31 58 -41 121t-10 194v629q0 138 -18.5 191t-78.5 85h410q-59 -32 -77.5 -85.5t-18.5 -190.5v-629q0 -109 15.5 -166.5t59.5 -109.5q47 -57 119 -88t156 -31q95 0 178 40t133 109q26 35 35.5 72.5
t9.5 99.5v703q0 137 -18.5 190.5t-77.5 85.5h410q-59 -33 -78 -86t-19 -190v-871q0 -137 19 -190t78 -86h-306zM618 1538l472 336l118 -160z" />
    <glyph glyph-name="Ucircumflex" unicode="&#xdb;" horiz-adv-x="1540" 
d="M1128 0v150q-153 -185 -428 -185q-156 0 -275.5 63t-176.5 175q-31 58 -41 121t-10 194v629q0 138 -18.5 191t-78.5 85h410q-59 -32 -77.5 -85.5t-18.5 -190.5v-629q0 -109 15.5 -166.5t59.5 -109.5q47 -57 119 -88t156 -31q95 0 178 40t133 109q26 35 35.5 72.5
t9.5 99.5v703q0 137 -18.5 190.5t-77.5 85.5h410q-59 -33 -78 -86t-19 -190v-871q0 -137 19 -190t78 -86h-306zM774 1855l350 -305q-150 3 -350 105q-89 -49 -183.5 -77t-172.5 -28z" />
    <glyph glyph-name="Udieresis" unicode="&#xdc;" horiz-adv-x="1540" 
d="M1128 0v150q-153 -185 -428 -185q-156 0 -275.5 63t-176.5 175q-31 58 -41 121t-10 194v629q0 138 -18.5 191t-78.5 85h410q-59 -32 -77.5 -85.5t-18.5 -190.5v-629q0 -109 15.5 -166.5t59.5 -109.5q47 -57 119 -88t156 -31q95 0 178 40t133 109q26 35 35.5 72.5
t9.5 99.5v703q0 137 -18.5 190.5t-77.5 85.5h410q-59 -33 -78 -86t-19 -190v-871q0 -137 19 -190t78 -86h-306zM575 1835q52 0 89.5 -38t37.5 -91q0 -54 -37.5 -92.5t-91.5 -38.5q-55 0 -93 37.5t-38 93.5q0 54 38.5 91.5t94.5 37.5zM973 1837q52 0 89.5 -38t37.5 -91
q0 -56 -38 -93.5t-93 -37.5q-54 0 -91.5 38.5t-37.5 92.5t38.5 91.5t94.5 37.5z" />
    <glyph glyph-name="Yacute" unicode="&#xdd;" horiz-adv-x="1306" 
d="M768 623v-369q0 -104 20 -149.5t89 -104.5h-418q60 41 76 90.5t16 185.5v347l-373 600q-57 90 -91 125.5t-101 74.5l219 9h26q49 0 68 -14.5t63 -88.5l326 -532l273 413q40 59 40 105q0 29 -21.5 59t-55.5 49h374zM502 1538l471 336l119 -160z" />
    <glyph glyph-name="Thorn" unicode="&#xde;" horiz-adv-x="1181" 
d="M420 973v-719q0 -106 23 -159.5t89 -94.5h-426q60 32 78.5 85t18.5 191v871q0 138 -18.5 191t-78.5 85h410q-58 -29 -77 -85.5t-19 -198.5h135q146 0 215 -10.5t137 -41.5q99 -46 159 -134t60 -189q0 -167 -140.5 -287.5t-336.5 -120.5q-51 0 -81.5 6t-73.5 23
q100 12 162.5 35.5t115.5 68.5q113 98 113 234q0 125 -84 196.5t-230 71.5q-75 0 -151 -18z" />
    <glyph glyph-name="germandbls" unicode="&#xdf;" horiz-adv-x="1220" 
d="M506 35l-57 209q82 -64 145 -90.5t131 -26.5q92 0 152.5 60.5t60.5 154.5q0 144 -143 240q-92 64 -209 112q-62 25 -85.5 48.5t-23.5 60.5q0 36 19.5 63t74.5 66q172 127 172 231q0 71 -51 117.5t-129 46.5q-101 0 -155 -75t-54 -216v-823q0 -104 12.5 -136.5t69.5 -76.5
h-358q32 25 46 38.5t23.5 38.5t11 51t1.5 85v643h-80l80 141v31q0 194 112.5 309t302.5 115q161 0 264 -82t103 -211q0 -78 -43 -134.5t-160 -129.5q-45 -26 -45 -51q0 -28 56 -51q204 -86 295.5 -194t91.5 -263q0 -161 -107.5 -263t-277.5 -102q-127 0 -246 64z" />
    <glyph glyph-name="agrave" unicode="&#xe0;" horiz-adv-x="1116" 
d="M725 262v279q-57 -26 -94 -37t-182 -45q-156 -38 -156 -166q0 -83 60.5 -129.5t168.5 -46.5q74 0 162 28l-127 -161q-61 -13 -119 -13q-163 0 -256 84q-52 45 -81 109t-29 131q0 68 33 127t88 90q45 25 105 43t179 41q144 28 194 58t50 89q0 61 -57.5 99.5t-149.5 38.5
q-69 0 -129 -17.5t-166 -68.5l143 217q71 14 150 14q276 0 365 -145q28 -44 35.5 -89.5t7.5 -168.5v-279q0 -94 9 -125t46 -57q40 -32 129 -35l-94 -141q-83 6 -125.5 16t-77.5 33q-49 31 -65.5 76t-16.5 151zM711 1120l-535 236l131 135z" />
    <glyph glyph-name="aacute" unicode="&#xe1;" horiz-adv-x="1116" 
d="M725 262v279q-57 -26 -94 -37t-182 -45q-156 -38 -156 -166q0 -83 60.5 -129.5t168.5 -46.5q74 0 162 28l-127 -161q-61 -13 -119 -13q-163 0 -256 84q-52 45 -81 109t-29 131q0 68 33 127t88 90q45 25 105 43t179 41q144 28 194 58t50 89q0 61 -57.5 99.5t-149.5 38.5
q-69 0 -129 -17.5t-166 -68.5l143 217q71 14 150 14q276 0 365 -145q28 -44 35.5 -89.5t7.5 -168.5v-279q0 -94 9 -125t46 -57q40 -32 129 -35l-94 -141q-83 6 -125.5 16t-77.5 33q-49 31 -65.5 76t-16.5 151zM436 1120l406 371l129 -135z" />
    <glyph glyph-name="acircumflex" unicode="&#xe2;" horiz-adv-x="1116" 
d="M725 262v279q-57 -26 -94 -37t-182 -45q-156 -38 -156 -166q0 -83 60.5 -129.5t168.5 -46.5q74 0 162 28l-127 -161q-61 -13 -119 -13q-163 0 -256 84q-52 45 -81 109t-29 131q0 68 33 127t88 90q45 25 105 43t179 41q144 28 194 58t50 89q0 61 -57.5 99.5t-149.5 38.5
q-69 0 -129 -17.5t-166 -68.5l143 217q71 14 150 14q276 0 365 -145q28 -44 35.5 -89.5t7.5 -168.5v-279q0 -94 9 -125t46 -57q40 -32 129 -35l-94 -141q-83 6 -125.5 16t-77.5 33q-49 31 -65.5 76t-16.5 151zM561 1462l326 -329q-144 12 -326 149q-174 -137 -332 -149z" />
    <glyph glyph-name="atilde" unicode="&#xe3;" horiz-adv-x="1116" 
d="M725 262v279q-57 -26 -94 -37t-182 -45q-156 -38 -156 -166q0 -83 60.5 -129.5t168.5 -46.5q74 0 162 28l-127 -161q-61 -13 -119 -13q-163 0 -256 84q-52 45 -81 109t-29 131q0 68 33 127t88 90q45 25 105 43t179 41q144 28 194 58t50 89q0 61 -57.5 99.5t-149.5 38.5
q-69 0 -129 -17.5t-166 -68.5l143 217q71 14 150 14q276 0 365 -145q28 -44 35.5 -89.5t7.5 -168.5v-279q0 -94 9 -125t46 -57q40 -32 129 -35l-94 -141q-83 6 -125.5 16t-77.5 33q-49 31 -65.5 76t-16.5 151zM895 1434q-49 -242 -195 -242q-53 0 -151 33q-97 33 -124 40
t-58 7q-37 0 -69 -15.5t-83 -56.5q24 77 34.5 103t26.5 49q43 61 109 61q42 0 150 -33q104 -32 128.5 -38.5t43.5 -6.5q77 0 188 99z" />
    <glyph glyph-name="adieresis" unicode="&#xe4;" horiz-adv-x="1116" 
d="M725 262v279q-57 -26 -94 -37t-182 -45q-156 -38 -156 -166q0 -83 60.5 -129.5t168.5 -46.5q74 0 162 28l-127 -161q-61 -13 -119 -13q-163 0 -256 84q-52 45 -81 109t-29 131q0 68 33 127t88 90q45 25 105 43t179 41q144 28 194 58t50 89q0 61 -57.5 99.5t-149.5 38.5
q-69 0 -129 -17.5t-166 -68.5l143 217q71 14 150 14q276 0 365 -145q28 -44 35.5 -89.5t7.5 -168.5v-279q0 -94 9 -125t46 -57q40 -32 129 -35l-94 -141q-83 6 -125.5 16t-77.5 33q-49 31 -65.5 76t-16.5 151zM379 1434q51 0 87 -37t36 -88q0 -54 -36 -90.5t-89 -36.5
q-54 0 -90.5 36.5t-36.5 90.5q0 52 37.5 88.5t91.5 36.5zM743 1434q50 0 86.5 -37.5t36.5 -89.5q0 -51 -37 -88t-88 -37q-53 0 -90 37t-37 90q0 51 37.5 88t91.5 37z" />
    <glyph glyph-name="aring" unicode="&#xe5;" horiz-adv-x="1116" 
d="M725 262v279q-57 -26 -94 -37t-182 -45q-156 -38 -156 -166q0 -83 60.5 -129.5t168.5 -46.5q74 0 162 28l-127 -161q-61 -13 -119 -13q-163 0 -256 84q-52 45 -81 109t-29 131q0 68 33 127t88 90q45 25 105 43t179 41q144 28 194 58t50 89q0 61 -57.5 99.5t-149.5 38.5
q-69 0 -129 -17.5t-166 -68.5l143 217q71 14 150 14q276 0 365 -145q28 -44 35.5 -89.5t7.5 -168.5v-279q0 -94 9 -125t46 -57q40 -32 129 -35l-94 -141q-83 6 -125.5 16t-77.5 33q-49 31 -65.5 76t-16.5 151zM541 1563q86 0 148.5 -63.5t62.5 -149.5q0 -89 -63 -152
t-152 -63t-151 63t-62 152t63 151t154 62zM537 1460q-45 0 -78 -33t-33 -79t33.5 -79.5t79.5 -33.5q47 0 79.5 33.5t32.5 79.5q0 47 -33.5 79.5t-80.5 32.5z" />
    <glyph glyph-name="ae" unicode="&#xe6;" horiz-adv-x="1814" 
d="M1733 532h-764q3 -93 20 -148t60 -114q119 -153 313 -153q108 0 196 28t175 91l-105 -201q-72 -35 -137.5 -49.5t-151.5 -14.5q-204 0 -347 80.5t-204 231.5q-23 60 -30.5 109t-7.5 140q-37 -19 -59 -26t-109 -27q-162 -38 -225.5 -79.5t-63.5 -110.5q0 -72 65 -122
t160 -50q66 0 124.5 20.5t127.5 67.5l-94 -185q-92 -49 -211 -49q-167 0 -280 91t-113 225q0 65 27.5 120.5t78.5 92.5q49 35 89 47t229 49q149 31 203.5 60.5t54.5 80.5q0 62 -64.5 103t-161.5 41q-129 0 -290 -84l147 200q119 29 182 29q210 0 330 -147q83 76 169 111.5
t187 35.5q217 0 347 -134t133 -360zM985 659h524q-18 72 -45 121q-31 54 -88.5 85.5t-126.5 31.5q-101 0 -175 -67t-89 -171z" />
    <glyph glyph-name="ccedilla" unicode="&#xe7;" horiz-adv-x="1067" 
d="M934 999v-223q-108 105 -270 105q-163 0 -262 -98t-99 -259q0 -175 126 -291t316 -116q167 0 330 104l-127 -213q-97 -41 -246 -41q-27 0 -47 2l-30 -82q44 7 53 7q70 0 114 -36.5t44 -95.5q0 -68 -56 -113.5t-139 -45.5q-124 0 -227 75l65 84q82 -65 146 -65
q35 0 56 17.5t21 45.5q0 25 -17 40.5t-46 15.5q-21 0 -55 -11l-62 82l31 88q-214 34 -342.5 171t-128.5 331q0 233 176 395q88 80 193.5 117t246.5 37q114 0 236 -27z" />
    <glyph glyph-name="egrave" unicode="&#xe8;" horiz-adv-x="1191" 
d="M1124 520h-794q7 -189 122 -296t310 -107q108 0 193 26t169 86l-116 -206q-135 -52 -299 -52q-270 0 -441.5 148t-171.5 381q0 112 47 219t129 182q140 125 359 125q214 0 353.5 -133.5t139.5 -337.5v-35zM324 655h559q-46 242 -275 242q-110 0 -184.5 -64t-99.5 -178z
M793 1120l-535 236l129 135z" />
    <glyph glyph-name="eacute" unicode="&#xe9;" horiz-adv-x="1191" 
d="M1110 520h-795q7 -189 122.5 -296t310.5 -107q108 0 193 26t169 86l-117 -206q-135 -52 -299 -52q-270 0 -441 148t-171 381q0 112 47 219t129 182q140 125 360 125q212 0 352 -133.5t140 -337.5v-35zM324 655h559q-46 242 -275 242q-110 0 -184.5 -64t-99.5 -178z
M446 1120l406 371l129 -135z" />
    <glyph glyph-name="ecircumflex" unicode="&#xea;" horiz-adv-x="1191" 
d="M1110 520h-795q7 -189 122.5 -296t310.5 -107q108 0 193 26t169 86l-117 -206q-135 -52 -299 -52q-270 0 -441 148t-171 381q0 112 47 219t129 182q140 125 360 125q212 0 352 -133.5t140 -337.5v-35zM324 655h559q-46 242 -275 242q-110 0 -184.5 -64t-99.5 -178z
M627 1462l325 -329q-143 12 -325 149q-174 -137 -332 -149z" />
    <glyph glyph-name="edieresis" unicode="&#xeb;" horiz-adv-x="1191" 
d="M1110 520h-795q7 -189 122.5 -296t310.5 -107q108 0 193 26t169 86l-117 -206q-135 -52 -299 -52q-270 0 -441 148t-171 381q0 112 47 219t129 182q140 125 360 125q212 0 352 -133.5t140 -337.5v-35zM324 655h559q-46 242 -275 242q-110 0 -184.5 -64t-99.5 -178z
M444 1434q51 0 87 -37t36 -88q0 -54 -36 -90.5t-89 -36.5q-54 0 -90.5 36.5t-36.5 90.5q0 52 37.5 88.5t91.5 36.5zM809 1434q50 0 86.5 -37.5t36.5 -89.5q0 -51 -37 -88t-88 -37q-53 0 -90 37t-37 90q0 51 37.5 88t91.5 37z" />
    <glyph glyph-name="igrave" unicode="&#xec;" horiz-adv-x="524" 
d="M362 1038v-825q0 -104 12.5 -136.5t69.5 -76.5h-358q57 44 69.5 76.5t12.5 136.5v571q0 104 -12.5 136.5t-69.5 76.5h150q88 0 126 41zM416 1120l-510 223l125 130z" />
    <glyph glyph-name="iacute" unicode="&#xed;" horiz-adv-x="524" 
d="M362 1038v-825q0 -104 12.5 -136.5t69.5 -76.5h-358q58 45 70 76.5t12 136.5v571q0 105 -12 136.5t-70 76.5h150q88 0 126 41zM113 1120l383 353l125 -130z" />
    <glyph glyph-name="icircumflex" unicode="&#xee;" horiz-adv-x="524" 
d="M362 1038v-825q0 -104 12.5 -136.5t69.5 -76.5h-358q57 42 69.5 75.5t12.5 137.5v571q0 104 -12.5 137.5t-69.5 75.5h150q88 0 126 41zM264 1462l311 -329q-138 12 -311 149q-165 -137 -317 -149z" />
    <glyph glyph-name="idieresis" unicode="&#xef;" horiz-adv-x="524" 
d="M362 1038v-825q0 -104 12.5 -136.5t69.5 -76.5h-358q58 45 70 76.5t12 136.5v571q0 105 -12 136.5t-70 76.5h150q88 0 126 41zM98 1430q49 0 85 -36.5t36 -86.5q0 -53 -36.5 -89t-88.5 -36q-51 0 -87 36.5t-36 88.5t36.5 87.5t90.5 35.5zM436 1430q49 0 85 -37t36 -88
t-36 -87t-87 -36q-52 0 -88.5 36t-36.5 89q0 51 37 87t90 36z" />
    <glyph glyph-name="eth" unicode="&#xf0;" horiz-adv-x="1275" 
d="M477 1262l166 71q-4 7 -12 19.5t-8 13.5l-56 76l-20 31l106 65q55 -71 111 -145l176 77l45 -98l-162 -69q197 -276 284 -465t87 -342q0 -143 -75.5 -264t-206 -191t-285.5 -70q-152 0 -277 69t-196.5 189.5t-71.5 266.5q0 144 73.5 266t200 193t275.5 71
q72 0 128.5 -21.5t119.5 -72.5q-28 64 -82 158t-97 153l-178 -78zM625 883q-140 0 -231 -102.5t-91 -260.5q0 -170 98.5 -287.5t241.5 -117.5q141 0 236.5 100t95.5 248q0 188 -96.5 304t-253.5 116z" />
    <glyph glyph-name="ntilde" unicode="&#xf1;" horiz-adv-x="1214" 
d="M352 1038v-180q77 92 150.5 130t169.5 38q104 0 195 -42.5t137 -111.5q29 -46 40 -107t11 -185v-367q0 -104 12.5 -136.5t69.5 -76.5h-361q58 44 71 77t13 136v344q0 87 -10.5 135t-36.5 82q-32 41 -91.5 66.5t-125.5 25.5q-64 0 -119 -25.5t-86 -68.5q-29 -39 -29 -123
v-436q0 -104 12.5 -136.5t69.5 -76.5h-358q58 45 70 76.5t12 136.5v571q0 105 -12 136.5t-70 76.5h139q89 0 127 41zM973 1434q-49 -242 -195 -242q-53 0 -151 33q-96 33 -123.5 40t-59.5 7q-36 0 -68 -15t-83 -57q24 77 34.5 103t26.5 49q43 61 109 61q41 0 149 -33
q104 -32 128.5 -38.5t43.5 -6.5q78 0 189 99z" />
    <glyph glyph-name="ograve" unicode="&#xf2;" horiz-adv-x="1292" 
d="M668 1026q223 0 374 -139q81 -74 124.5 -173.5t43.5 -207.5q0 -148 -75 -271t-207.5 -193.5t-292.5 -70.5q-238 0 -395.5 149.5t-157.5 373.5q0 121 54 230t149 183q82 62 173.5 90.5t209.5 28.5zM633 881q-146 0 -238 -100.5t-92 -260.5q0 -173 99.5 -288t250.5 -115
q149 0 242.5 99t93.5 259q0 183 -98 294.5t-258 111.5zM799 1120l-535 236l131 135z" />
    <glyph glyph-name="oacute" unicode="&#xf3;" horiz-adv-x="1292" 
d="M668 1026q223 0 374 -139q81 -74 124.5 -173.5t43.5 -207.5q0 -148 -75 -271t-207.5 -193.5t-292.5 -70.5q-238 0 -395.5 149.5t-157.5 373.5q0 121 54 230t149 183q82 62 173.5 90.5t209.5 28.5zM633 881q-146 0 -238 -100.5t-92 -260.5q0 -173 99.5 -288t250.5 -115
q149 0 242.5 99t93.5 259q0 183 -98 294.5t-258 111.5zM496 1120l405 371l129 -135z" />
    <glyph glyph-name="ocircumflex" unicode="&#xf4;" horiz-adv-x="1292" 
d="M668 1026q223 0 374 -139q81 -74 124.5 -173.5t43.5 -207.5q0 -148 -75 -271t-207.5 -193.5t-292.5 -70.5q-238 0 -395.5 149.5t-157.5 373.5q0 121 54 230t149 183q82 62 173.5 90.5t209.5 28.5zM633 881q-146 0 -238 -100.5t-92 -260.5q0 -173 99.5 -288t250.5 -115
q149 0 242.5 99t93.5 259q0 183 -98 294.5t-258 111.5zM649 1462l326 -329q-144 12 -326 149q-174 -137 -332 -149z" />
    <glyph glyph-name="otilde" unicode="&#xf5;" horiz-adv-x="1292" 
d="M668 1026q223 0 374 -139q81 -74 124.5 -173.5t43.5 -207.5q0 -148 -75 -271t-207.5 -193.5t-292.5 -70.5q-238 0 -395.5 149.5t-157.5 373.5q0 121 54 230t149 183q82 62 173.5 90.5t209.5 28.5zM633 881q-146 0 -238 -100.5t-92 -260.5q0 -173 99.5 -288t250.5 -115
q149 0 242.5 99t93.5 259q0 183 -98 294.5t-258 111.5zM999 1434q-49 -242 -194 -242q-54 0 -152 33q-97 33 -124 40t-58 7q-37 0 -69 -15.5t-83 -56.5q23 75 34.5 102t27.5 50q43 61 108 61q42 0 150 -33q104 -32 128.5 -38.5t43.5 -6.5q77 0 188 99z" />
    <glyph glyph-name="odieresis" unicode="&#xf6;" horiz-adv-x="1292" 
d="M668 1026q223 0 374 -139q81 -74 124.5 -173.5t43.5 -207.5q0 -148 -75 -271t-207.5 -193.5t-292.5 -70.5q-238 0 -395.5 149.5t-157.5 373.5q0 121 54 230t149 183q82 62 173.5 90.5t209.5 28.5zM633 881q-146 0 -238 -100.5t-92 -260.5q0 -173 99.5 -288t250.5 -115
q149 0 242.5 99t93.5 259q0 183 -98 294.5t-258 111.5zM467 1434q51 0 87 -37t36 -88q0 -54 -36 -90.5t-89 -36.5q-54 0 -90.5 36.5t-36.5 90.5q0 52 37.5 88.5t91.5 36.5zM831 1434q50 0 86.5 -37.5t36.5 -89.5q0 -51 -37 -88t-88 -37q-53 0 -90 37t-37 90q0 51 37.5 88
t91.5 37z" />
    <glyph glyph-name="divide" unicode="&#xf7;" 
d="M662 1186q43 0 74.5 -32.5t31.5 -78.5q0 -45 -32 -76.5t-77 -31.5q-44 0 -77 33t-33 77t33.5 76.5t79.5 32.5zM1128 797v-154h-946v154h946zM662 475q43 0 74.5 -32.5t31.5 -77.5t-32 -77t-77 -32q-44 0 -77 33.5t-33 77.5t33.5 76t79.5 32z" />
    <glyph glyph-name="oslash" unicode="&#xf8;" horiz-adv-x="1292" 
d="M344 43l-111 -129h-143l160 195q-168 171 -168 387q0 227 165.5 378.5t414.5 151.5q92 0 160 -18t145 -62l112 123h150l-176 -195q80 -85 117.5 -173t37.5 -193q0 -150 -75.5 -273.5t-207.5 -193.5t-294 -70q-80 0 -142 15.5t-145 56.5zM924 725l-465 -549
q85 -61 192 -61q149 0 243.5 99t94.5 257q0 72 -15 130t-50 124zM381 258l471 551q-55 42 -101 58t-112 16q-149 0 -242.5 -101t-93.5 -262q0 -149 78 -262z" />
    <glyph glyph-name="ugrave" unicode="&#xf9;" horiz-adv-x="1206" 
d="M858 0v141q-78 -99 -143.5 -134.5t-169.5 -35.5q-107 0 -192 40t-132 112q-33 50 -47 113t-14 161v387q0 105 -12 136.5t-70 76.5h147q50 0 78.5 9t50.5 32v-602q0 -146 54 -215q32 -38 83 -60t109 -22q114 0 182 70.5t68 187.5v387q0 104 -12.5 137.5t-69.5 75.5h152
q48 0 75 9t49 32v-825q0 -104 12.5 -136.5t69.5 -76.5h-268zM756 1120l-535 236l131 135z" />
    <glyph glyph-name="uacute" unicode="&#xfa;" horiz-adv-x="1206" 
d="M858 0v141q-78 -99 -143.5 -134.5t-169.5 -35.5q-107 0 -192 40t-132 112q-33 50 -47 113t-14 161v387q0 105 -12 136.5t-70 76.5h147q50 0 78.5 9t50.5 32v-602q0 -146 54 -215q32 -38 83 -60t109 -22q114 0 182 70.5t68 187.5v387q0 104 -12.5 137.5t-69.5 75.5h152
q48 0 75 9t49 32v-825q0 -104 12.5 -136.5t69.5 -76.5h-268zM453 1120l405 371l129 -135z" />
    <glyph glyph-name="ucircumflex" unicode="&#xfb;" horiz-adv-x="1206" 
d="M858 0v141q-78 -99 -143.5 -134.5t-169.5 -35.5q-107 0 -192 40t-132 112q-33 50 -47 113t-14 161v387q0 105 -12 136.5t-70 76.5h147q50 0 78.5 9t50.5 32v-602q0 -146 54 -215q32 -38 83 -60t109 -22q114 0 182 70.5t68 187.5v387q0 104 -12.5 137.5t-69.5 75.5h152
q48 0 75 9t49 32v-825q0 -104 12.5 -136.5t69.5 -76.5h-268zM606 1462l326 -329q-144 12 -326 149q-174 -137 -332 -149z" />
    <glyph glyph-name="udieresis" unicode="&#xfc;" horiz-adv-x="1206" 
d="M858 0v141q-78 -99 -143.5 -134.5t-169.5 -35.5q-107 0 -192 40t-132 112q-33 50 -47 113t-14 161v387q0 105 -12 136.5t-70 76.5h147q50 0 78.5 9t50.5 32v-602q0 -146 54 -215q32 -38 83 -60t109 -22q114 0 182 70.5t68 187.5v387q0 104 -12.5 137.5t-69.5 75.5h152
q48 0 75 9t49 32v-825q0 -104 12.5 -136.5t69.5 -76.5h-268zM438 1434q51 0 87 -37t36 -88q0 -54 -36 -90.5t-89 -36.5q-54 0 -90.5 36.5t-36.5 90.5q0 52 37.5 88.5t91.5 36.5zM803 1434q50 0 86.5 -37.5t36.5 -89.5q0 -51 -37 -88t-88 -37q-53 0 -90 37t-37 90
q0 51 37.5 88t91.5 37z" />
    <glyph glyph-name="yacute" unicode="&#xfd;" horiz-adv-x="1148" 
d="M639 193l227 575q33 84 33 131q0 30 -14.5 52t-48.5 46h303l-461 -1099q-40 -96 -76 -149.5t-90 -96.5q-119 -94 -293 -94q-65 0 -120.5 12t-141.5 43l195 141q62 -37 122 -37q81 0 142 59t112 187l21 57q-52 52 -67 73.5t-44 86.5l-286 625q-41 90 -73.5 128.5
t-88.5 63.5l209 9q47 0 65 -7q18 -3 45 -63zM438 1120l406 371l129 -135z" />
    <glyph glyph-name="thorn" unicode="&#xfe;" horiz-adv-x="1284" 
d="M518 0l-117 176q126 -59 242 -59q160 0 249 98.5t89 276.5q0 169 -91 274.5t-237 105.5q-74 0 -141 -30t-111 -82q-29 -37 -41 -81t-12 -116v-794q0 -105 13.5 -140t68.5 -73h-358q56 40 69 74t13 139v1441q0 59 -1.5 85t-11 51t-23.5 38.5t-46 38.5h149q89 0 127 41
v-594q60 72 155.5 114t201.5 42q98 0 195 -40.5t165 -108.5q66 -67 101.5 -161.5t35.5 -201.5q0 -233 -148 -388t-372 -155q-85 0 -164 29z" />
    <glyph glyph-name="ydieresis" unicode="&#xff;" horiz-adv-x="1148" 
d="M639 193l227 575q33 84 33 131q0 30 -14.5 52t-48.5 46h303l-461 -1099q-40 -96 -76 -149.5t-90 -96.5q-119 -94 -293 -94q-65 0 -120.5 12t-141.5 43l195 141q62 -37 122 -37q81 0 142 59t112 187l21 57q-52 52 -67 73.5t-44 86.5l-286 625q-41 90 -73.5 128.5
t-88.5 63.5l209 9q47 0 65 -7q18 -3 45 -63zM416 1434q51 0 87 -37t36 -88q0 -54 -36 -90.5t-89 -36.5q-54 0 -90.5 36.5t-36.5 90.5q0 52 37.5 88.5t91.5 36.5zM780 1434q50 0 86.5 -37.5t36.5 -89.5q0 -51 -37 -88t-88 -37q-52 0 -89.5 37t-37.5 90q0 51 37.5 88t91.5 37z
" />
    <glyph glyph-name="dotlessi" unicode="&#x131;" horiz-adv-x="524" 
d="M362 1038v-825q0 -104 12.5 -136.5t69.5 -76.5h-358q58 45 70 76.5t12 136.5v571q0 105 -12 136.5t-70 76.5h150q88 0 126 41z" />
    <glyph glyph-name="Lslash" unicode="&#x141;" horiz-adv-x="1130" 
d="M203 561l-150 -106v159l150 101v432q0 137 -19 190t-78 86h410q-59 -31 -77.5 -84.5t-18.5 -191.5v-313l383 268v-154l-383 -266v-506q151 -22 291 -22q117 0 203 29t190 104l-115 -287h-885q61 32 80 85t19 191v285z" />
    <glyph glyph-name="lslash" unicode="&#x142;" horiz-adv-x="567" 
d="M547 954l-156 -155v-586q0 -104 12.5 -137.5t69.5 -75.5h-360q59 44 71.5 76.5t12.5 136.5v461l-156 -152v148l156 149v391q0 104 -12.5 136.5t-71.5 76.5h151q48 0 76 9t51 32v-522l156 158v-146z" />
    <glyph glyph-name="OE" unicode="&#x152;" horiz-adv-x="2289" 
d="M1587 700v-520q148 -24 266 -24q119 0 205.5 23.5t210.5 90.5l-104 -270h-875q55 38 77 79t22 107v33q-44 -59 -78 -91.5t-84 -64.5q-77 -46 -178 -72t-203 -26q-163 0 -305 57t-242.5 155.5t-158.5 237.5t-58 298q0 157 57.5 296t157 238t238.5 156t296 57
q169 0 299.5 -58.5t253.5 -189.5q3 70 -21.5 125t-72.5 86h649q65 3 86 7q9 0 39 6v-260q-40 53 -98 71.5t-184 18.5q-83 0 -195 -13v-405h250q63 0 102 14v-207q-26 26 -57 35.5t-88 9.5h-207zM840 1305q-104 0 -202.5 -38t-164.5 -104q-145 -148 -145 -420
q0 -150 44.5 -275t127.5 -204q67 -67 165.5 -106t198.5 -39q106 0 215.5 43t175.5 110q67 69 103.5 174.5t36.5 233.5q0 289 -149.5 457t-405.5 168z" />
    <glyph glyph-name="oe" unicode="&#x153;" horiz-adv-x="2064" 
d="M1982 522h-768q6 -192 112.5 -298.5t289.5 -106.5q104 0 189.5 28t176.5 91l-108 -205q-131 -60 -295 -60q-166 0 -281 54.5t-194 171.5q-96 -116 -207 -171t-252 -55q-243 0 -403 147t-160 371q0 233 162.5 385t412.5 152q148 0 256.5 -56t190.5 -175q79 118 182 174.5
t240 56.5q209 0 332.5 -137t123.5 -367zM1225 657h532q-16 81 -39 123q-31 55 -86.5 86t-124.5 31q-212 0 -282 -240zM643 883q-154 0 -247 -99.5t-93 -265.5q0 -186 95.5 -294.5t258.5 -108.5q161 0 255 93.5t94 254.5q0 188 -100 304t-263 116z" />
    <glyph glyph-name="Scaron" unicode="&#x160;" horiz-adv-x="1187" 
d="M983 1411v-246q-69 68 -158 105t-184 37q-127 0 -206 -56t-79 -147q0 -79 63 -134.5t257 -144.5q138 -64 202 -99.5t113 -74.5q117 -91 117 -235q0 -163 -133 -293q-168 -160 -453 -160q-194 0 -381 68l-65 268q217 -172 475 -172q138 0 230.5 63.5t92.5 157.5
q0 42 -19 83t-52 71q-36 31 -89.5 60t-187.5 91q-128 57 -190.5 93t-108.5 79q-52 46 -82 112.5t-30 137.5q0 175 146 279t392 104q163 0 330 -47zM627 1550l-351 305q150 -3 351 -104q185 101 356 104z" />
    <glyph glyph-name="scaron" unicode="&#x161;" horiz-adv-x="956" 
d="M784 997v-184q-140 84 -266 84q-89 0 -144 -33.5t-55 -87.5q0 -46 50.5 -79.5t179.5 -73.5q122 -39 173.5 -63.5t96.5 -63.5q84 -78 84 -189q0 -153 -130 -244.5t-347 -91.5q-83 0 -146 11.5t-145 42.5l-74 213q120 -74 211 -104t193 -30q100 0 166.5 43.5t66.5 108.5
q0 62 -49 98q-25 18 -61 33t-146 55q-185 66 -254 128.5t-69 164.5q0 136 113 213.5t311 77.5q135 0 241 -29zM500 1133l-324 329q149 -15 324 -149q175 137 334 149z" />
    <glyph glyph-name="Ydieresis" unicode="&#x178;" horiz-adv-x="1306" 
d="M768 623v-369q0 -104 20 -149.5t89 -104.5h-418q60 41 76 90.5t16 185.5v347l-373 600q-57 90 -91 125.5t-101 74.5l219 9h26q49 0 68 -14.5t63 -88.5l326 -532l273 413q40 59 40 105q0 29 -21.5 59t-55.5 49h374zM479 1835q52 0 89.5 -38t37.5 -91q0 -54 -37.5 -92.5
t-91.5 -38.5q-55 0 -93 37.5t-38 93.5q0 54 38.5 91.5t94.5 37.5zM877 1837q52 0 89.5 -38t37.5 -91q0 -55 -38 -93t-94 -38q-54 0 -91.5 38.5t-37.5 92.5t39 91.5t95 37.5z" />
    <glyph glyph-name="Zcaron" unicode="&#x17d;" horiz-adv-x="1339" 
d="M1307 274l-113 -274h-1143l797 1247q-165 23 -354 23q-128 0 -189 -16.5t-164 -77.5l105 247h956l-790 -1241q264 -22 456 -22q130 0 226.5 25t212.5 89zM709 1550l-351 305q150 -3 351 -104q185 101 356 104z" />
    <glyph glyph-name="zcaron" unicode="&#x17e;" horiz-adv-x="1058" 
d="M940 0h-917l614 842q-146 14 -242 14q-109 0 -177.5 -17t-129.5 -59l107 217h768l-588 -833q169 -17 342 -17q114 0 187.5 18.5t156.5 67.5zM553 1133l-324 329q149 -15 324 -149q175 137 334 149z" />
    <glyph glyph-name="florin" unicode="&#x192;" horiz-adv-x="1196" 
d="M805 971h180q29 0 82 20l-35 -166q-45 23 -74 23h-176l-153 -817q-29 -159 -65 -242t-99 -137q-51 -44 -127.5 -69t-159.5 -25q-116 0 -233 53l145 143q32 -27 57.5 -37t61.5 -10q61 0 98.5 31t64.5 104.5t54 216.5l149 789h-108l131 133l16 70q26 126 52 189.5t69 109.5
q47 52 122 81t161 29q125 0 233 -57l-137 -137q-46 49 -110 49q-80 0 -118 -59.5t-73 -241.5z" />
    <glyph glyph-name="circumflex" unicode="&#x2c6;" horiz-adv-x="1067" 
d="M537 1462l325 -329q-143 12 -325 149q-174 -137 -332 -149z" />
    <glyph glyph-name="caron" unicode="&#x2c7;" horiz-adv-x="1067" 
d="M528 1133l-323 329q148 -15 323 -149q175 137 334 149z" />
    <glyph glyph-name="uni02C9" unicode="&#x2c9;" horiz-adv-x="1067" 
d="M217 1378h633v-137h-633v137z" />
    <glyph glyph-name="breve" unicode="&#x2d8;" horiz-adv-x="1067" 
d="M205 1438h121q38 -80 83.5 -113t118.5 -33q83 0 126.5 30t86.5 116h121q-32 -109 -69 -158q-88 -123 -265 -123q-205 0 -288 174q-17 40 -35 107z" />
    <glyph glyph-name="dotaccent" unicode="&#x2d9;" horiz-adv-x="1067" 
d="M537 1440q53 0 91 -38.5t38 -92.5q0 -55 -38.5 -94t-92.5 -39q-56 0 -95 39t-39 94t39.5 93t96.5 38z" />
    <glyph glyph-name="ring" unicode="&#x2da;" horiz-adv-x="1067" 
d="M537 1563q86 0 148.5 -63.5t62.5 -149.5q0 -89 -63.5 -152t-152.5 -63t-151 63t-62 152t63.5 151t154.5 62zM532 1460q-44 0 -77 -33t-33 -79t33.5 -79.5t79.5 -33.5q47 0 79.5 33.5t32.5 79.5q0 47 -33.5 79.5t-81.5 32.5z" />
    <glyph glyph-name="ogonek" unicode="&#x2db;" horiz-adv-x="1067" 
d="M803 0h80q-40 -56 -54 -85.5t-14 -59.5q0 -34 24 -52t68 -18q33 0 51 2l-104 -125q-43 0 -70 8q-47 14 -76.5 49.5t-29.5 79.5q0 53 34 108t91 93z" />
    <glyph glyph-name="tilde" unicode="&#x2dc;" horiz-adv-x="1067" 
d="M872 1434q-49 -242 -194 -242q-54 0 -152 33q-97 33 -124 40t-58 7q-36 0 -68 -15t-83 -57q24 77 34.5 103t26.5 49q43 61 108 61q42 0 150 -33q104 -32 128.5 -38.5t43.5 -6.5q77 0 188 99z" />
    <glyph glyph-name="hungarumlaut" unicode="&#x2dd;" horiz-adv-x="1067" 
d="M160 1108l332 360l129 -143zM551 1108l332 360l129 -143z" />
    <glyph glyph-name="uni03A9" unicode="&#x3a9;" horiz-adv-x="1671" 
d="M1567 0h-580v190q50 38 89.5 73t88 91t80.5 114.5t54 139t22 168.5q0 132 -54 239.5t-165 173.5t-262 66q-138 0 -250.5 -58.5t-179 -170t-66.5 -256.5q0 -86 22.5 -166t55 -138.5t80.5 -114.5t87.5 -90.5t88.5 -70.5v-190h-582v190h369q-54 33 -102.5 71.5t-99 96
t-86 122.5t-58.5 151.5t-23 181.5q0 139 54 258.5t150.5 204.5t234.5 133.5t301 48.5q179 0 321 -50.5t231 -138.5t135 -202.5t46 -247.5q0 -209 -108.5 -372t-270.5 -257h377v-190z" />
    <glyph glyph-name="uni03BC" unicode="&#x3bc;" horiz-adv-x="1067" 
d="M788 0v141q-76 -98 -141.5 -134t-165.5 -36q-72 0 -120 20.5t-95 71.5l23 -505h-199v1226q0 105 -12 136.5t-70 76.5h148q50 0 78.5 9t50.5 32v-602q0 -148 53 -215q32 -38 83 -60t109 -22q114 0 182 70.5t68 187.5v387q0 104 -12.5 137.5t-69.5 75.5h152q48 0 75.5 9
t49.5 32v-825q0 -104 12.5 -136.5t69.5 -76.5h-269z" />
    <glyph glyph-name="pi" unicode="&#x3c0;" horiz-adv-x="1687" 
d="M1497 174l43 -154q-71 -38 -186 -38q-150 0 -222.5 84t-72.5 227v559h-418v-561q0 -179 -39 -291h-240q46 127 46 305v547q-54 -2 -122.5 -17t-111.5 -36q-7 16 -32.5 75.5t-32.5 75.5q53 30 146.5 52t197.5 22h1081v-172h-242v-528q0 -168 127 -168q42 0 78 18z" />
    <glyph glyph-name="endash" unicode="&#x2013;" horiz-adv-x="1011" 
d="M68 430l118 150q21 27 40.5 34t72.5 7h428q93 0 130 5t87 25l-115 -155q-19 -26 -38.5 -32.5t-83.5 -6.5h-443q-83 0 -113.5 -4t-82.5 -23z" />
    <glyph glyph-name="emdash" unicode="&#x2014;" horiz-adv-x="1730" 
d="M1661 647l-115 -147q-23 -29 -40.5 -34t-96.5 -5h-1141q-83 0 -110.5 -4t-85.5 -23l116 141q20 25 42.5 33t72.5 8h1141q92 0 129 5.5t88 25.5z" />
    <glyph glyph-name="quoteleft" unicode="&#x2018;" horiz-adv-x="489" 
d="M334 1481l47 -13q-70 -77 -96.5 -115t-26.5 -61q0 -19 25 -22q51 -7 79.5 -37t28.5 -74q0 -51 -36.5 -87t-88.5 -36q-57 0 -97 41.5t-40 100.5q0 109 121 256q26 33 36.5 42t24.5 9q3 0 23 -4z" />
    <glyph glyph-name="quoteright" unicode="&#x2019;" horiz-adv-x="489" 
d="M160 1010l-49 12q122 133 122 176q0 17 -24 23q-52 7 -80.5 36.5t-28.5 75.5q0 51 36.5 86t90.5 35q57 0 97.5 -41.5t40.5 -99.5q0 -112 -121 -256q-27 -33 -38.5 -42t-25.5 -9q-4 0 -20 4z" />
    <glyph glyph-name="quotesinglbase" unicode="&#x201a;" horiz-adv-x="489" 
d="M160 -195l-49 13q122 136 122 178q0 17 -24 20q-52 7 -80.5 37t-28.5 76q0 51 36.5 86t90.5 35q57 0 97.5 -41.5t40.5 -99.5q0 -46 -23.5 -105.5t-60.5 -105.5q-59 -71 -72.5 -83t-34.5 -12q-10 0 -14 2z" />
    <glyph glyph-name="quotedblleft" unicode="&#x201c;" horiz-adv-x="845" 
d="M334 1481l47 -13q-70 -77 -96.5 -115t-26.5 -61q0 -19 25 -22q51 -7 79.5 -37t28.5 -74q0 -51 -36.5 -87t-88.5 -36q-57 0 -97 41.5t-40 100.5q0 46 23.5 105t60.5 106q58 71 70.5 82.5t33.5 11.5q13 0 17 -2zM688 1481l49 -13q-68 -74 -95.5 -113.5t-27.5 -62.5
q0 -19 25 -22q51 -7 80 -37t29 -74q0 -51 -36.5 -87t-88.5 -36q-58 0 -99 41.5t-41 100.5q0 61 32 123.5t108 154.5q24 27 51 27q10 0 14 -2z" />
    <glyph glyph-name="quotedblright" unicode="&#x201d;" horiz-adv-x="845" 
d="M160 1010l-49 12q122 133 122 176q0 17 -24 23q-52 7 -80.5 36.5t-28.5 75.5q0 51 36 86t89 35q57 0 97 -41.5t40 -101.5t-32 -123t-107 -154q-21 -26 -49 -26q-10 0 -14 2zM514 1010l-47 12q68 74 95.5 113.5t27.5 62.5q0 17 -25 23q-52 7 -80 36.5t-28 75.5q0 51 36 86
t89 35q57 0 97 -41t40 -100q0 -62 -31.5 -125.5t-107.5 -153.5q-23 -26 -50 -26q-12 0 -16 2z" />
    <glyph glyph-name="quotedblbase" unicode="&#x201e;" horiz-adv-x="845" 
d="M160 -195l-49 13q122 136 122 178q0 17 -24 20q-52 7 -80.5 37t-28.5 76q0 51 36.5 86t90.5 35q57 0 97.5 -41.5t40.5 -99.5q0 -46 -23.5 -105.5t-60.5 -105.5q-59 -71 -72.5 -83t-34.5 -12q-10 0 -14 2zM514 -195l-47 13q69 77 96 115.5t27 62.5q0 17 -25 20
q-52 7 -80 37t-28 76q0 50 36.5 85.5t88.5 35.5q57 0 97 -41t40 -100q0 -46 -23.5 -105.5t-60.5 -105.5q-59 -72 -72 -83.5t-33 -11.5q-10 0 -16 2z" />
    <glyph glyph-name="dagger" unicode="&#x2020;" 
d="M510 1423h293q-55 -76 -55 -225v-278h176q86 0 130 9t107 40v-279q-60 35 -103.5 45t-133.5 10h-176v-780q0 -117 9 -161t46 -101h-293q37 57 46 101.5t9 160.5v780h-178q-87 0 -132 -10.5t-105 -44.5v279q63 -31 107.5 -40t129.5 -9h178v278q0 145 -55 225z" />
    <glyph glyph-name="daggerdbl" unicode="&#x2021;" 
d="M510 1423h293q-55 -76 -55 -223v-203h176q85 0 129 9.5t108 40.5v-279q-61 34 -105 44.5t-132 10.5h-176v-436h161q95 0 147 11t105 42v-274q-66 32 -110 41.5t-129 9.5h-174v-252q0 -117 9 -160t46 -102h-293q37 57 46 101.5t9 160.5v252h-176q-85 0 -129 -9.5
t-110 -41.5v274q53 -31 105 -42t148 -11h162v436h-178q-87 0 -132 -10.5t-105 -44.5v279q63 -31 108 -40.5t129 -9.5h178v203q0 143 -55 223z" />
    <glyph glyph-name="bullet" unicode="&#x2022;" horiz-adv-x="1423" 
d="M719 1020q118 0 204.5 -87.5t86.5 -207.5q0 -123 -86.5 -210t-208.5 -87q-123 0 -210 86.5t-87 208.5q0 124 87.5 210.5t213.5 86.5z" />
    <glyph glyph-name="ellipsis" unicode="&#x2026;" horiz-adv-x="1576" 
d="M266 250q54 0 92.5 -39.5t38.5 -93.5q0 -57 -38.5 -96t-94.5 -39q-57 0 -96 39t-39 96q0 55 40 94t97 39zM793 250q54 0 92.5 -39.5t38.5 -93.5q0 -57 -38.5 -96t-94.5 -39q-57 0 -96.5 39t-39.5 96q0 55 40.5 94t97.5 39zM1317 250q54 0 92.5 -39.5t38.5 -93.5
q0 -57 -38.5 -96t-94.5 -39q-57 0 -96 39t-39 96q0 55 40 94t97 39z" />
    <glyph glyph-name="perthousand" unicode="&#x2030;" horiz-adv-x="2224" 
d="M385 1438q127 0 214 -96t87 -236q0 -141 -89 -238.5t-218 -97.5q-132 0 -219.5 94t-87.5 236q0 147 89 242.5t224 95.5zM377 1325q-66 0 -102.5 -59t-36.5 -166q0 -101 37.5 -158t103.5 -57q69 0 105 56t36 161q0 107 -37 165t-106 58zM1165 1423l-698 -1423h-129
l700 1423h127zM1141 651q127 0 214 -96t87 -236q0 -141 -89 -238t-218 -97q-132 0 -220 93.5t-88 235.5q0 146 89.5 242t224.5 96zM1133 539q-66 0 -102 -59t-36 -165q0 -103 37.5 -160t104.5 -57t103 56t36 161q0 107 -37 165.5t-106 58.5zM1853 651q127 0 214 -96t87 -236
q0 -141 -89 -238t-218 -97q-132 0 -219.5 93.5t-87.5 235.5q0 146 89 242t224 96zM1843 539q-66 0 -101.5 -59t-35.5 -165q0 -103 37 -160t104 -57t103.5 56.5t36.5 160.5q0 107 -37.5 165.5t-106.5 58.5z" />
    <glyph glyph-name="guilsinglleft" unicode="&#x2039;" horiz-adv-x="491" 
d="M86 528l250 359h63l-127 -359l127 -362h-63z" />
    <glyph glyph-name="guilsinglright" unicode="&#x203a;" horiz-adv-x="491" 
d="M408 528l-250 -362h-64l127 362l-127 359h62z" />
    <glyph glyph-name="fraction" unicode="&#x2044;" horiz-adv-x="258" 
d="M543 1423l-699 -1423h-129l701 1423h127z" />
    <glyph glyph-name="Euro" unicode="&#x20ac;" horiz-adv-x="1196" 
d="M1149 264l-6 -239q-158 -62 -320 -62q-134 0 -241.5 44.5t-179 124t-116 177.5t-65.5 215h-160v115h148q-2 16 -2 72q0 36 4 86h-150v114h162q23 136 83.5 243t144.5 172.5t181.5 99.5t201.5 34q136 0 292 -61l7 -240q-148 123 -299 123q-143 0 -247.5 -90.5
t-133.5 -280.5h510v-114h-521q-4 -36 -4 -66q0 -69 2 -92h523v-115h-512q18 -111 54.5 -188.5t88 -118.5t107.5 -58.5t124 -17.5q72 0 159.5 29.5t164.5 93.5z" />
    <glyph glyph-name="litre" unicode="&#x2113;" horiz-adv-x="1171" 
d="M989 117q-62 -59 -149.5 -103.5t-188.5 -44.5q-134 0 -213 82q-40 42 -61 111.5t-21 142.5v164l-129 -123q-11 16 -73 113q92 85 202 192v420q0 193 81 306.5t233 113.5q62 0 109.5 -22.5t73.5 -59t39 -77.5t13 -83q0 -138 -65 -262t-189 -260q-63 -67 -82 -92v-303
q0 -197 146 -197q90 0 196 101q55 -85 78 -119zM756 1217q0 51 -20.5 79.5t-57.5 28.5q-55 0 -82 -57.5t-27 -155.5v-289q36 42 54 68q64 84 98.5 170t34.5 156z" />
    <glyph glyph-name="trademark" unicode="&#x2122;" horiz-adv-x="1679" 
d="M608 1436l-49 -168q-19 39 -37.5 49t-70.5 10q-21 0 -68 -2h-23v-479q0 -57 15 -81t67 -52h-297q51 20 64.5 44.5t13.5 98.5v469l-18 2h-39h-12q-64 0 -96 -10t-85 -45l56 162q33 -11 65 -11h430l29 2h22zM1143 928l176 415q14 33 17 44.5t3 35.5h250q-35 -10 -50 -26.5
t-15 -44.5q0 -7 4 -39l69 -465q7 -60 20 -82t58 -53h-293q47 14 63.5 32t16.5 58q0 15 -4 55l-55 412l-246 -578q-53 39 -71 60.5t-39 66.5l-209 453l-62 -428q-6 -35 -6 -51q0 -26 13 -41t53 -39h-242q36 30 51.5 60.5t22.5 88.5l65 443q6 37 6 53q0 19 -11 31t-48 34h242
q2 -22 12 -41z" />
    <glyph glyph-name="Omega" unicode="&#x2126;" horiz-adv-x="1671" 
d="M1567 0h-580v190q50 38 89.5 73t88 91t80.5 114.5t54 139t22 168.5q0 132 -54 239.5t-165 173.5t-262 66q-138 0 -250.5 -58.5t-179 -170t-66.5 -256.5q0 -86 22.5 -166t55 -138.5t80.5 -114.5t87.5 -90.5t88.5 -70.5v-190h-582v190h369q-54 33 -102.5 71.5t-99 96
t-86 122.5t-58.5 151.5t-23 181.5q0 139 54 258.5t150.5 204.5t234.5 133.5t301 48.5q179 0 321 -50.5t231 -138.5t135 -202.5t46 -247.5q0 -209 -108.5 -372t-270.5 -257h377v-190z" />
    <glyph glyph-name="estimated" unicode="&#x212e;" horiz-adv-x="1480" 
d="M1403 676h-1038v-467q155 -152 368 -152q94 0 172 23t138 67.5t104.5 95.5t89.5 122q11 -7 37.5 -23.5t40.5 -24.5q-52 -81 -104.5 -139t-122 -106.5t-158.5 -72.5t-197 -24q-145 0 -269.5 56t-208.5 151.5t-131.5 224t-47.5 271.5q0 145 46.5 272.5t130.5 222.5t210 150
t278 55q151 0 277 -56t209 -151.5t129 -223t47 -271.5zM1110 758v389q-71 66 -170.5 108.5t-200.5 42.5q-226 0 -374 -151v-389h745z" />
    <glyph glyph-name="partialdiff" unicode="&#x2202;" horiz-adv-x="1392" 
d="M1264 946q0 -195 -54 -379q-38 -127 -97 -232.5t-138 -187t-183 -127t-223 -45.5q-196 0 -319 118.5t-123 305.5q0 120 34.5 222.5t92 173t132 120.5t154 73.5t158.5 23.5q118 0 204 -46t124 -116h6q6 49 6 108q0 163 -82 262t-235 99q-130 0 -238 -68q-9 26 -27.5 77
t-27.5 77q51 36 143 63t193 27q234 0 367 -150t133 -399zM997 670q-22 77 -85.5 127.5t-163.5 50.5q-158 0 -273 -129.5t-115 -321.5q0 -108 60.5 -174.5t161.5 -66.5q145 0 256.5 143.5t158.5 370.5z" />
    <glyph glyph-name="Delta" unicode="&#x2206;" horiz-adv-x="1515" 
d="M1466 0h-1396v102q92 222 276.5 666t276.5 666h295q184 -444 548 -1332v-102zM1186 193q-129 309 -383 927q-18 47 -35 125h-10q-18 -74 -35 -119q-258 -622 -385 -933h848z" />
    <glyph glyph-name="product" unicode="&#x220f;" horiz-adv-x="1748" 
d="M1561 -471h-238v1702h-897v-1702h-238v1905h1373v-1905z" />
    <glyph glyph-name="summation" unicode="&#x2211;" horiz-adv-x="1519" 
d="M1456 -471h-1419v121q128 141 384 420t384 419q-121 135 -361.5 405.5t-361.5 405.5v134h1323v-191h-989q511 -579 659 -747q-225 -253 -698 -777h1079v-190z" />
    <glyph glyph-name="minus" unicode="&#x2212;" 
d="M1128 797v-154h-946v154h946z" />
    <glyph glyph-name="uni2215" unicode="&#x2215;" horiz-adv-x="258" 
d="M543 1423l-699 -1423h-129l701 1423h127z" />
    <glyph glyph-name="uni2219" unicode="&#x2219;" horiz-adv-x="526" 
d="M266 690q54 0 92.5 -39.5t38.5 -93.5q0 -57 -38.5 -96t-94.5 -39q-57 0 -96 39t-39 96q0 55 40 94t97 39z" />
    <glyph glyph-name="radical" unicode="&#x221a;" horiz-adv-x="1339" 
d="M1313 1493l-516 -1518h-156q-67 133 -190 384.5t-142 289.5q-22 -14 -66 -40.5t-65 -39.5q-10 19 -30.5 58t-30.5 59q274 166 284 172q155 -321 316 -647q59 177 206 611.5t226 670.5h164z" />
    <glyph glyph-name="infinity" unicode="&#x221e;" horiz-adv-x="1929" 
d="M1804 604q0 -166 -107 -274.5t-288 -108.5q-133 0 -248 68t-194 184h-4q-82 -113 -198.5 -182.5t-246.5 -69.5q-185 0 -292 104.5t-107 268.5q0 170 107 275.5t286 105.5q136 0 250 -67.5t199 -186.5h4q76 105 187.5 179.5t248.5 74.5q182 0 292.5 -102t110.5 -269z
M1624 598q0 93 -57 155t-172 62q-187 0 -340 -217q68 -101 156.5 -159t185.5 -58q113 0 170 63t57 154zM868 598q-65 99 -157.5 158t-186.5 59q-107 0 -166 -61.5t-59 -157.5q0 -95 64.5 -156t164.5 -61q95 0 184 59.5t156 159.5z" />
    <glyph glyph-name="integral" unicode="&#x222b;" horiz-adv-x="1161" 
d="M981 1331q-50 25 -115 25q-87 0 -133.5 -51.5t-46.5 -147.5v-1247q0 -195 -101.5 -297t-277.5 -102q-51 0 -108.5 9.5t-89.5 24.5q34 117 47 168q53 -22 118 -22q87 0 133 50t46 148v1246q0 194 96.5 297.5t277.5 103.5q56 0 114.5 -12t90.5 -27q-24 -74 -51 -166z" />
    <glyph glyph-name="approxequal" unicode="&#x2248;" 
d="M1147 862q-58 -83 -125.5 -128.5t-159.5 -45.5q-112 0 -221 66q-109 67 -190 67q-54 0 -102.5 -38t-84.5 -97l-98 109q60 83 125 128.5t158 45.5q112 0 221 -66q108 -67 190 -67q103 0 189 135zM1147 414q-58 -83 -125.5 -128.5t-159.5 -45.5q-113 0 -221 65
q-111 68 -190 68q-54 0 -102.5 -38t-84.5 -97l-98 108q59 83 124.5 128.5t158.5 45.5q114 0 221 -65q109 -68 190 -68q103 0 189 135z" />
    <glyph glyph-name="notequal" unicode="&#x2260;" 
d="M1106 307h-518l-123 -258h-160l125 258h-223v148h293l145 301h-438v147h510l129 273h158l-130 -273h232v-147h-303l-146 -301h449v-148z" />
    <glyph glyph-name="lessequal" unicode="&#x2264;" 
d="M1106 0h-899v147h899v-147zM1106 279l-899 399v113l899 401v-160l-684 -295v-4l684 -297v-157z" />
    <glyph glyph-name="greaterequal" unicode="&#x2265;" 
d="M1104 0h-897v147h897v-147zM1106 678l-899 -399v159l682 295v4l-682 297v158l899 -401v-113z" />
    <glyph glyph-name="lozenge" unicode="&#x25ca;" horiz-adv-x="1382" 
d="M1255 717q-86 -120 -258 -358.5t-258 -358.5h-112q-86 119 -258 357.5t-258 357.5q86 120 258 359.5t258 359.5h112q86 -120 258 -358.5t258 -358.5zM1067 717q-129 178 -383 534l-387 -534q44 -61 122 -169.5t142.5 -198t120.5 -169.5q65 90 193 268.5t192 268.5z" />
    <glyph glyph-name="A.sc" unicode="&#xe000;" horiz-adv-x="1216" 
d="M778 377h-385l-96 -223q-18 -40 -18 -72q0 -19 12.5 -35t50.5 -47h-340q52 29 84.5 74.5t75.5 148.5l284 670q19 52 19 63q0 20 -11 34t-48 42h305l350 -809q44 -104 73.5 -143.5t92.5 -79.5h-379q12 12 20 18q39 34 39 56q0 18 -28 80zM733 498l-147 391l-152 -391h299z
" />
    <glyph glyph-name="AE.sc" unicode="&#xe001;" horiz-adv-x="1652" 
d="M330 0h-377q71 35 120.5 80.5t125.5 144.5q43 59 90 111l444 522q53 59 66.5 78.5t13.5 34.5q0 26 -57 61h647q41 0 78 12v-186q-43 22 -88 29.5t-131 7.5q-117 0 -177 -8v-264h224q30 0 71 14v-184q-52 32 -151 32h-144v-329q102 -15 211 -15q113 0 185 13.5t164 50.5
l-86 -205h-752q56 46 68 78t12 133v272h-275l-278 -338q-27 -32 -35 -44t-8 -23q0 -31 39 -78zM895 602l8 299l-227 -299h219z" />
    <glyph glyph-name="Aacute.sc" unicode="&#xe002;" horiz-adv-x="1216" 
d="M778 377h-385l-96 -223q-18 -40 -18 -72q0 -19 12.5 -35t50.5 -47h-340q52 29 84.5 74.5t75.5 148.5l284 670q19 52 19 63q0 20 -11 34t-48 42h305l350 -809q44 -104 73.5 -143.5t92.5 -79.5h-379q12 12 20 18q39 34 39 56q0 18 -28 80zM733 498l-147 391l-152 -391h299z
M442 1145l437 334l116 -148z" />
    <glyph glyph-name="Acircumflex.sc" unicode="&#xe003;" horiz-adv-x="1216" 
d="M778 377h-385l-96 -223q-18 -40 -18 -72q0 -19 12.5 -35t50.5 -47h-340q52 29 84.5 74.5t75.5 148.5l284 670q19 52 19 63q0 20 -11 34t-48 42h305l350 -809q44 -104 73.5 -143.5t92.5 -79.5h-379q12 12 20 18q39 34 39 56q0 18 -28 80zM733 498l-147 391l-152 -391h299z
M610 1425l340 -299q-147 8 -340 119q-186 -110 -346 -119z" />
    <glyph glyph-name="Adieresis.sc" unicode="&#xe004;" horiz-adv-x="1216" 
d="M778 377h-385l-96 -223q-18 -40 -18 -72q0 -19 12.5 -35t50.5 -47h-340q52 29 84.5 74.5t75.5 148.5l284 670q19 52 19 63q0 20 -11 34t-48 42h305l350 -809q44 -104 73.5 -143.5t92.5 -79.5h-379q12 12 20 18q39 34 39 56q0 18 -28 80zM733 498l-147 391l-152 -391h299z
M422 1434q51 0 87 -37t36 -88q0 -54 -36 -90.5t-89 -36.5q-54 0 -90.5 36.5t-36.5 90.5q0 52 37.5 88.5t91.5 36.5zM801 1434q50 0 86.5 -37.5t36.5 -89.5q0 -51 -37 -88t-88 -37q-53 0 -90 37t-37 90q0 51 37.5 88t91.5 37z" />
    <glyph glyph-name="Agrave.sc" unicode="&#xe005;" horiz-adv-x="1216" 
d="M778 377h-385l-96 -223q-18 -40 -18 -72q0 -19 12.5 -35t50.5 -47h-340q52 29 84.5 74.5t75.5 148.5l284 670q19 52 19 63q0 20 -11 34t-48 42h305l350 -809q44 -104 73.5 -143.5t92.5 -79.5h-379q12 12 20 18q39 34 39 56q0 18 -28 80zM733 498l-147 391l-152 -391h299z
M713 1145l-553 186l119 148z" />
    <glyph glyph-name="Aring.sc" unicode="&#xe006;" horiz-adv-x="1216" 
d="M778 377h-385l-96 -223q-18 -40 -18 -72q0 -19 12.5 -35t50.5 -47h-340q52 29 84.5 74.5t75.5 148.5l284 670q19 52 19 63q0 20 -11 34t-48 42h305l350 -809q44 -104 73.5 -143.5t92.5 -79.5h-379q12 12 20 18q39 34 39 56q0 18 -28 80zM733 498l-147 391l-152 -391h299z
M610 1563q86 0 148.5 -63.5t62.5 -149.5q0 -89 -63 -152t-152 -63t-151 63t-62 152t63 151t154 62zM606 1460q-44 0 -77 -33t-33 -79t33 -79.5t79 -33.5q47 0 80 33.5t33 79.5q0 47 -33.5 79.5t-81.5 32.5z" />
    <glyph glyph-name="Atilde.sc" unicode="&#xe007;" horiz-adv-x="1216" 
d="M778 377h-385l-96 -223q-18 -40 -18 -72q0 -19 12.5 -35t50.5 -47h-340q52 29 84.5 74.5t75.5 148.5l284 670q19 52 19 63q0 20 -11 34t-48 42h305l350 -809q44 -104 73.5 -143.5t92.5 -79.5h-379q12 12 20 18q39 34 39 56q0 18 -28 80zM733 498l-147 391l-152 -391h299z
M946 1434q-49 -236 -194 -236q-39 0 -152 29q-103 29 -126.5 34t-53.5 5q-38 0 -69.5 -13.5t-84.5 -52.5q24 74 35 100.5t27 47.5q44 59 108 59q32 0 68 -7.5t184 -45.5q46 -11 64 -11q81 0 194 91z" />
    <glyph glyph-name="B.sc" unicode="&#xe008;" horiz-adv-x="1075" 
d="M362 0h-262q57 47 68.5 78t11.5 131v614q0 70 -5 101t-20.5 53.5t-54.5 54.5h262q215 0 256 -4q113 -12 184.5 -76.5t71.5 -152.5q0 -66 -36.5 -113t-114.5 -84q74 -22 114 -42t70 -52q78 -78 78 -180q0 -88 -58.5 -166t-156.5 -119q-71 -30 -133.5 -36.5t-274.5 -6.5z
M375 621h43q115 0 182.5 41t67.5 110q0 68 -52 107t-141 39q-41 0 -100 -9v-288zM375 506v-365q76 -16 143 -16q120 0 186 48.5t66 137.5q0 98 -71 149.5t-207 51.5q-52 0 -117 -6z" />
    <glyph glyph-name="C.sc" unicode="&#xe009;" horiz-adv-x="1140" 
d="M1118 240l-108 -217q-135 -52 -277 -52q-334 0 -510 197q-139 154 -139 354q0 150 79 274t218 194.5t307 70.5q136 0 326 -45v-209q-172 98 -324 98q-165 0 -272 -103.5t-107 -262.5q0 -172 118 -295t284 -123q90 0 181 27t224 92z" />
    <glyph glyph-name="Ccedilla.sc" unicode="&#xe00a;" horiz-adv-x="1146" 
d="M1018 1016v-209q-172 98 -324 98q-165 0 -272 -103.5t-107 -262.5q0 -172 118 -295t284 -123q90 0 181 27t224 92l-108 -217q-132 -52 -271 -52q-34 0 -61 2l-33 -88q35 6 49 6q72 0 116 -35.5t44 -95.5q0 -68 -55 -113.5t-137 -45.5q-125 0 -228 75l64 84
q84 -65 149 -65q33 0 54.5 17.5t21.5 45.5q0 25 -18 40.5t-47 15.5q-22 0 -56 -11l-61 82l39 99q-103 19 -174 51q-148 68 -235 199t-87 288q0 150 79 274t218 194.5t307 70.5q136 0 326 -45z" />
    <glyph glyph-name="D.sc" unicode="&#xe00b;" horiz-adv-x="1253" 
d="M395 0h-295q57 47 68.5 78t11.5 131v614q0 70 -5 101t-20.5 53.5t-54.5 54.5h189h117q57 2 126 2q151 0 255.5 -30t193.5 -99q91 -69 139.5 -167t48.5 -212q0 -156 -88 -285t-237 -190q-69 -28 -170 -39.5t-279 -11.5zM379 889v-737q65 -11 119 -11q193 0 299 72
q149 103 149 297q0 181 -113 287t-307 106q-62 0 -147 -14z" />
    <glyph glyph-name="Eth.sc" unicode="&#xe00c;" horiz-adv-x="1280" 
d="M209 469h-160v129h160v223q0 71 -5 102.5t-20.5 54t-54.5 54.5h188h117q57 2 127 2q151 0 255.5 -30t193.5 -99q91 -69 139.5 -167t48.5 -212q0 -155 -88.5 -284.5t-237.5 -190.5q-71 -28 -171 -39.5t-277 -11.5h-297q57 46 69.5 77.5t12.5 131.5v260zM408 598h335v-129
h-335v-317q62 -11 116 -11q199 0 301 72q152 103 152 297q0 181 -114 287t-308 106q-62 0 -147 -14v-291z" />
    <glyph glyph-name="E.sc" unicode="&#xe00d;" horiz-adv-x="946" 
d="M379 492v-336q105 -15 211 -15q113 0 184.5 13.5t163.5 50.5l-86 -205h-752q56 47 68 79t12 132v612q0 70 -5 101t-20.5 53.5t-54.5 54.5h596q39 0 78 15v-189q-43 22 -88 29.5t-131 7.5q-116 0 -176 -8v-258h223q34 0 72 14v-182q-34 20 -60.5 25.5t-89.5 5.5h-145z" />
    <glyph glyph-name="Eacute.sc" unicode="&#xe00e;" horiz-adv-x="946" 
d="M379 492v-336q105 -15 211 -15q113 0 184.5 13.5t163.5 50.5l-86 -205h-752q56 47 68 79t12 132v612q0 70 -5 101t-20.5 53.5t-54.5 54.5h596q39 0 78 15v-189q-43 22 -88 29.5t-131 7.5q-116 0 -176 -8v-258h223q34 0 72 14v-182q-34 20 -60.5 25.5t-89.5 5.5h-145z
M330 1145l436 334l117 -148z" />
    <glyph glyph-name="Ecircumflex.sc" unicode="&#xe00f;" horiz-adv-x="946" 
d="M379 492v-336q105 -15 211 -15q113 0 184.5 13.5t163.5 50.5l-86 -205h-752q56 47 68 79t12 132v612q0 70 -5 101t-20.5 53.5t-54.5 54.5h596q39 0 78 15v-189q-43 22 -88 29.5t-131 7.5q-116 0 -176 -8v-258h223q34 0 72 14v-182q-34 20 -60.5 25.5t-89.5 5.5h-145z
M498 1425l340 -299q-147 8 -340 119q-186 -110 -346 -119z" />
    <glyph glyph-name="Edieresis.sc" unicode="&#xe010;" horiz-adv-x="946" 
d="M379 492v-336q105 -15 211 -15q113 0 184.5 13.5t163.5 50.5l-86 -205h-752q56 47 68 79t12 132v612q0 70 -5 101t-20.5 53.5t-54.5 54.5h596q39 0 78 15v-189q-43 22 -88 29.5t-131 7.5q-116 0 -176 -8v-258h223q34 0 72 14v-182q-34 20 -60.5 25.5t-89.5 5.5h-145z
M307 1434q51 0 87 -37t36 -88q0 -54 -36 -90.5t-89 -36.5q-54 0 -90.5 36.5t-36.5 90.5q0 52 37.5 88.5t91.5 36.5zM686 1434q50 0 86.5 -37.5t36.5 -89.5q0 -51 -37 -88t-88 -37q-52 0 -89.5 37t-37.5 90q0 51 37.5 88t91.5 37z" />
    <glyph glyph-name="Egrave.sc" unicode="&#xe011;" horiz-adv-x="946" 
d="M379 492v-336q105 -15 211 -15q113 0 184.5 13.5t163.5 50.5l-86 -205h-752q56 47 68 79t12 132v612q0 70 -5 101t-20.5 53.5t-54.5 54.5h596q39 0 78 15v-189q-43 22 -88 29.5t-131 7.5q-116 0 -176 -8v-258h223q34 0 72 14v-182q-34 20 -60.5 25.5t-89.5 5.5h-145z
M664 1145l-553 186l118 148z" />
    <glyph glyph-name="F.sc" unicode="&#xe012;" horiz-adv-x="821" 
d="M379 492v-281q0 -71 5 -102.5t20.5 -54t54.5 -54.5h-359q56 47 68 79t12 132v612q0 70 -5 101t-20.5 53.5t-54.5 54.5h596q42 0 78 15v-189q-58 24 -96.5 30.5t-124.5 6.5q-111 0 -174 -8v-258h223q36 0 72 14v-184q-29 20 -57.5 26.5t-92.5 6.5h-145z" />
    <glyph glyph-name="G.sc" unicode="&#xe013;" horiz-adv-x="1290" 
d="M1040 1028v-213q-68 56 -140 80.5t-169 24.5q-184 0 -304 -110.5t-120 -279.5q0 -170 131.5 -293.5t311.5 -123.5q48 0 114 8t101 18v191q0 58 -1 83t-11 50t-23 37t-45 37l293 4q-15 -47 -15 -105v-323q0 -39 3 -54t14 -36q-13 -1 -64 -9q-27 -5 -65 -12
q-152 -31 -297 -31q-298 0 -484 150t-186 389q0 157 87 283t241.5 197t347.5 71q112 0 280 -33z" />
    <glyph glyph-name="H.sc" unicode="&#xe014;" horiz-adv-x="1308" 
d="M932 483h-553v-274q0 -70 5 -101t20.5 -53.5t54.5 -54.5h-359q57 47 68.5 78t11.5 131v614q0 70 -5 101t-20.5 53.5t-54.5 54.5h359q-39 -32 -54.5 -54.5t-20.5 -53.5t-5 -101v-194h553v194q0 70 -5 101t-20.5 53.5t-54.5 54.5h358q-39 -32 -54.5 -54.5t-20.5 -53.5
t-5 -101v-614q0 -70 5 -101t20.5 -53.5t54.5 -54.5h-360q57 46 69.5 77.5t12.5 131.5v274z" />
    <glyph glyph-name="I.sc" unicode="&#xe015;" horiz-adv-x="559" 
d="M459 0h-359q57 47 68.5 78t11.5 131v614q0 70 -5 101t-20.5 53.5t-54.5 54.5h359q-39 -32 -54.5 -54.5t-20.5 -53.5t-5 -101v-614q0 -70 5 -101t20.5 -53.5t54.5 -54.5z" />
    <glyph glyph-name="Iacute.sc" unicode="&#xe016;" horiz-adv-x="559" 
d="M459 0h-359q57 47 68.5 78t11.5 131v614q0 70 -5 101t-20.5 53.5t-54.5 54.5h359q-39 -32 -54.5 -54.5t-20.5 -53.5t-5 -101v-614q0 -70 5 -101t20.5 -53.5t54.5 -54.5zM115 1145l436 334l117 -148z" />
    <glyph glyph-name="Icircumflex.sc" unicode="&#xe017;" horiz-adv-x="559" 
d="M459 0h-359q56 46 68 77.5t12 131.5v614q0 70 -5 101t-20.5 53.5t-54.5 54.5h359q-39 -32 -54.5 -54.5t-20.5 -53.5t-5 -101v-614q0 -70 5 -101t20.5 -53.5t54.5 -54.5zM283 1425l297 -299q-127 8 -297 119q-162 -110 -303 -119z" />
    <glyph glyph-name="Idieresis.sc" unicode="&#xe018;" horiz-adv-x="559" 
d="M459 0h-359q57 47 68.5 78t11.5 131v614q0 70 -5 101t-20.5 53.5t-54.5 54.5h359q-39 -32 -54.5 -54.5t-20.5 -53.5t-5 -101v-614q0 -70 5 -101t20.5 -53.5t54.5 -54.5zM115 1434q51 0 87 -37t36 -88q0 -54 -36 -90.5t-89 -36.5q-54 0 -90.5 36.5t-36.5 90.5
q0 52 37.5 88.5t91.5 36.5zM453 1434q50 0 86 -37.5t36 -89.5q0 -51 -36.5 -88t-87.5 -37q-53 0 -90 37t-37 90q0 51 37.5 88t91.5 37z" />
    <glyph glyph-name="Igrave.sc" unicode="&#xe019;" horiz-adv-x="559" 
d="M459 0h-359q57 47 68.5 78t11.5 131v614q0 70 -5 101t-20.5 53.5t-54.5 54.5h359q-39 -32 -54.5 -54.5t-20.5 -53.5t-5 -101v-614q0 -70 5 -101t20.5 -53.5t54.5 -54.5zM449 1145l-553 186l118 148z" />
    <glyph glyph-name="J.sc" unicode="&#xe01a;" horiz-adv-x="557" 
d="M383 823v-809q0 -103 -1 -124t-9 -46q-17 -46 -59 -80.5t-121 -66.5q-64 -27 -120 -37.5t-153 -13.5q88 44 136 79t81 78q28 38 37.5 81t9.5 130v809q0 70 -5 101t-20.5 53.5t-54.5 54.5h359q-39 -32 -54.5 -54.5t-20.5 -53.5t-5 -101z" />
    <glyph glyph-name="K.sc" unicode="&#xe01b;" horiz-adv-x="1142" 
d="M412 537l229 288q27 30 41 52q45 53 45 81q0 29 -51 74h352l-401 -459q140 -181 205 -262t129.5 -147.5t102.5 -92t112 -67.5q-102 -12 -187 -12q-38 0 -60.5 2t-51 14.5t-48.5 28.5t-57.5 56t-72 83t-97.5 123q-105 136 -143 182q-19 25 -47 56zM459 0h-359
q57 47 68.5 78t11.5 131v614q0 70 -5 101t-20.5 53.5t-54.5 54.5h359q-39 -32 -54.5 -54.5t-20.5 -53.5t-5 -101v-614q0 -70 5 -101t20.5 -53.5t54.5 -54.5z" />
    <glyph glyph-name="L.sc" unicode="&#xe01c;" horiz-adv-x="956" 
d="M379 823v-671q128 -15 217 -15q105 0 166.5 15t173.5 69l-100 -221h-736q57 47 68.5 78t11.5 131v614q0 70 -5 101t-20.5 53.5t-54.5 54.5h359q-39 -32 -54.5 -54.5t-20.5 -53.5t-5 -101z" />
    <glyph glyph-name="Lslash.sc" unicode="&#xe01d;" horiz-adv-x="968" 
d="M195 387l-121 -74v144l121 69v297q0 70 -5 101t-20.5 53.5t-54.5 54.5h358q-39 -32 -54.5 -54.5t-20.5 -53.5t-5 -101v-198l309 188v-139l-309 -174v-348q128 -15 217 -15q104 0 166.5 15.5t171.5 68.5l-98 -221h-735q56 46 68 77.5t12 131.5v178z" />
    <glyph glyph-name="M.sc" unicode="&#xe01e;" horiz-adv-x="1646" 
d="M1214 842l-358 -867q-69 47 -100 82.5t-60 100.5l-299 686l-96 -651q-8 -55 -8 -78q0 -36 13.5 -60.5t49.5 -54.5h-286q39 49 52.5 87.5t24.5 129.5l101 641q10 59 10 78q0 26 -12 46t-43 50h321q0 -15 4 -31q6 -15 15 -30l297 -682l252 624q5 15 16 37q16 33 16 82h355
q-51 -23 -67.5 -43.5t-16.5 -60.5q0 -18 4 -58l108 -673q12 -77 28.5 -116t55.5 -81h-370q52 22 72 47.5t20 71.5q0 37 -8 94z" />
    <glyph glyph-name="N.sc" unicode="&#xe01f;" horiz-adv-x="1318" 
d="M332 778v-569q0 -70 5 -101t20.5 -53.5t54.5 -54.5h-312q57 47 68.5 78t11.5 131v614q0 70 -5 101t-20.5 53.5t-54.5 54.5h269q6 -9 11 -18.5t7 -12.5l27 -30l579 -703v555q0 70 -5 101t-20.5 53.5t-54.5 54.5h312q-39 -32 -54.5 -54.5t-20.5 -53.5t-5 -101v-876
q-82 23 -143.5 63t-118.5 107z" />
    <glyph glyph-name="Ntilde.sc" unicode="&#xe020;" horiz-adv-x="1318" 
d="M332 778v-569q0 -70 5 -101t20.5 -53.5t54.5 -54.5h-312q57 47 68.5 78t11.5 131v614q0 70 -5 101t-20.5 53.5t-54.5 54.5h269q6 -9 11 -18.5t7 -12.5l27 -30l579 -703v555q0 70 -5 101t-20.5 53.5t-54.5 54.5h312q-39 -32 -54.5 -54.5t-20.5 -53.5t-5 -101v-876
q-82 23 -143.5 63t-118.5 107zM1018 1434q-49 -236 -195 -236q-38 0 -151 29q-103 29 -126.5 34t-53.5 5q-38 0 -69.5 -13.5t-84.5 -52.5q25 76 35.5 102t25.5 46q44 59 109 59q32 0 68 -7.5t184 -45.5q46 -11 63 -11q82 0 195 91z" />
    <glyph glyph-name="O.sc" unicode="&#xe021;" horiz-adv-x="1376" 
d="M705 1063q162 0 297 -71.5t212.5 -196t77.5 -273.5q0 -151 -80.5 -278t-220.5 -200t-307 -73q-165 0 -303 71.5t-217.5 196t-79.5 273.5q0 154 81 280.5t223.5 198.5t316.5 72zM682 920q-163 0 -269 -108.5t-106 -274.5q0 -86 32 -169.5t89 -144.5q98 -110 262 -110
q169 0 274 106.5t105 278.5q0 181 -110.5 301.5t-276.5 120.5z" />
    <glyph glyph-name="OE.sc" unicode="&#xe022;" horiz-adv-x="1837" 
d="M1649 1044v-233q-40 51 -85 66.5t-157 15.5q-64 0 -145 -8v-256h190q54 0 94 12v-182q-29 20 -53.5 26.5t-75.5 6.5h-155v-338q114 -15 204 -15q101 0 173 18.5t190 75.5l-105 -233h-708q36 44 48.5 76t14.5 84q-144 -189 -405 -189q-162 0 -298 72t-214 197.5t-78 275.5
t77.5 275.5t213 197.5t297.5 72q114 0 199 -38t208 -144q-4 56 -17 84.5t-52 68.5h524l47 2l35 2zM680 920q-70 0 -142 -27t-122 -70q-111 -97 -111 -286q0 -102 34 -188t97 -138q50 -43 124 -70.5t140 -27.5q67 0 147.5 30t129.5 74q51 42 78.5 115.5t27.5 161.5
q0 192 -110.5 309t-292.5 117z" />
    <glyph glyph-name="Oacute.sc" unicode="&#xe023;" horiz-adv-x="1376" 
d="M705 1063q162 0 297 -71.5t212.5 -196t77.5 -273.5q0 -151 -80.5 -278t-220.5 -200t-307 -73q-165 0 -303 71.5t-217.5 196t-79.5 273.5q0 154 81 280.5t223.5 198.5t316.5 72zM682 920q-163 0 -269 -108.5t-106 -274.5q0 -86 32 -169.5t89 -144.5q98 -110 262 -110
q169 0 274 106.5t105 278.5q0 181 -110.5 301.5t-276.5 120.5zM524 1145l437 334l116 -148z" />
    <glyph glyph-name="Ocircumflex.sc" unicode="&#xe024;" horiz-adv-x="1376" 
d="M705 1063q162 0 297 -71.5t212.5 -196t77.5 -273.5q0 -151 -80.5 -278t-220.5 -200t-307 -73q-165 0 -303 71.5t-217.5 196t-79.5 273.5q0 154 81 280.5t223.5 198.5t316.5 72zM682 920q-163 0 -269 -108.5t-106 -274.5q0 -86 32 -169.5t89 -144.5q98 -110 262 -110
q169 0 274 106.5t105 278.5q0 181 -110.5 301.5t-276.5 120.5zM692 1425l340 -299q-147 8 -340 119q-186 -110 -346 -119z" />
    <glyph glyph-name="Odieresis.sc" unicode="&#xe025;" horiz-adv-x="1404" 
d="M719 1063q162 0 297.5 -71.5t213 -196t77.5 -273.5q0 -113 -47.5 -215t-129 -176t-194.5 -117t-238 -43q-165 0 -303 71.5t-217.5 196t-79.5 273.5q0 154 81 280.5t223.5 198.5t316.5 72zM696 920q-163 0 -268.5 -108.5t-105.5 -274.5q0 -87 31.5 -170t88.5 -144
q98 -110 263 -110q169 0 273.5 106.5t104.5 278.5q0 181 -110.5 301.5t-276.5 120.5zM516 1434q51 0 87 -37t36 -88q0 -54 -36 -90.5t-89 -36.5q-54 0 -90.5 36.5t-36.5 90.5q0 52 37.5 88.5t91.5 36.5zM895 1434q50 0 86.5 -37.5t36.5 -89.5q0 -51 -37 -88t-88 -37
q-53 0 -90 37t-37 90q0 51 37.5 88t91.5 37z" />
    <glyph glyph-name="Ograve.sc" unicode="&#xe026;" horiz-adv-x="1404" 
d="M719 1063q162 0 297.5 -71.5t213 -196t77.5 -273.5q0 -113 -47.5 -215t-129 -176t-194.5 -117t-238 -43q-165 0 -303 71.5t-217.5 196t-79.5 273.5q0 154 81 280.5t223.5 198.5t316.5 72zM696 920q-163 0 -268.5 -108.5t-105.5 -274.5q0 -87 31.5 -170t88.5 -144
q98 -110 263 -110q169 0 273.5 106.5t104.5 278.5q0 181 -110.5 301.5t-276.5 120.5zM872 1145l-553 186l119 148z" />
    <glyph glyph-name="Oslash.sc" unicode="&#xe027;" horiz-adv-x="1376" 
d="M322 76l-117 -117h-180l198 201q-139 151 -139 356q0 151 81 276.5t222 197t311 71.5q196 0 351 -94l108 108h193l-205 -190q147 -167 147 -363q0 -152 -80.5 -278.5t-221 -199.5t-308.5 -73q-101 0 -185 24.5t-175 80.5zM356 285l572 559q-91 82 -238 82q-75 0 -151 -26
t-123 -69q-57 -49 -90 -130.5t-33 -170.5q0 -119 63 -245zM1016 754l-572 -568q56 -43 111.5 -61.5t130.5 -18.5q181 0 289 108t108 290q0 136 -67 250z" />
    <glyph glyph-name="Otilde.sc" unicode="&#xe028;" horiz-adv-x="1376" 
d="M705 1063q162 0 297 -71.5t212.5 -196t77.5 -273.5q0 -151 -80.5 -278t-220.5 -200t-307 -73q-165 0 -303 71.5t-217.5 196t-79.5 273.5q0 154 81 280.5t223.5 198.5t316.5 72zM682 920q-163 0 -269 -108.5t-106 -274.5q0 -86 32 -169.5t89 -144.5q98 -110 262 -110
q169 0 274 106.5t105 278.5q0 181 -110.5 301.5t-276.5 120.5zM1026 1434q-49 -236 -195 -236q-38 0 -151 29q-103 29 -126.5 34t-53.5 5q-38 0 -69.5 -13.5t-84.5 -52.5q24 74 35 100.5t27 47.5q44 59 108 59q32 0 68 -7.5t184 -45.5q46 -11 63 -11q82 0 195 91z" />
    <glyph glyph-name="P.sc" unicode="&#xe029;" horiz-adv-x="997" 
d="M379 889v-680q0 -70 5 -101t20.5 -53.5t54.5 -54.5h-359q57 47 68.5 78t11.5 131v614q0 70 -5 101t-20.5 53.5t-54.5 54.5h181q53 0 196 2h60q136 0 231 -39q85 -37 134.5 -102.5t49.5 -140.5q0 -120 -114.5 -210.5t-266.5 -90.5q-46 0 -79 9t-72 34q129 15 186 43
t92 78.5t35 105.5q0 85 -64 131.5t-180 46.5q-59 0 -110 -10z" />
    <glyph glyph-name="Thorn.sc" unicode="&#xe02a;" horiz-adv-x="997" 
d="M459 0h-359q57 47 68.5 78t11.5 131v614q0 70 -5 101t-20.5 53.5t-54.5 54.5h359q-54 -44 -67 -76t-13 -118v-21q92 2 143 2q181 0 287 -59q66 -38 104.5 -98t38.5 -123q0 -121 -114.5 -212t-266.5 -91q-85 0 -151 43q83 10 119.5 19t66.5 24q58 28 92.5 78t34.5 106
q0 85 -64 131.5t-180 46.5q-59 0 -110 -10v-465q0 -70 5 -101t20.5 -53.5t54.5 -54.5z" />
    <glyph glyph-name="Q.sc" unicode="&#xe02b;" horiz-adv-x="1376" 
d="M1571 -168h35q-64 -58 -118 -82t-118 -24q-184 0 -561 264q-85 -19 -147 -19q-157 0 -290 73t-210.5 198.5t-77.5 273.5q0 152 80.5 277t222 196.5t313.5 71.5q253 0 422.5 -153t169.5 -380q0 -142 -67.5 -262.5t-186.5 -189.5q303 -244 533 -244zM682 920
q-163 0 -269 -106.5t-106 -270.5q0 -174 101 -299q102 -131 282 -131q166 0 271.5 108.5t105.5 278.5q0 81 -29 158.5t-80 138.5q-102 123 -276 123z" />
    <glyph glyph-name="R.sc" unicode="&#xe02c;" horiz-adv-x="1091" 
d="M379 899v-690q0 -70 5 -101t20.5 -53.5t54.5 -54.5h-359q57 47 68.5 78t11.5 131v614q0 70 -5 101t-20.5 53.5t-54.5 54.5h267q45 0 82 2h71q169 0 268 -61q54 -34 87.5 -91t33.5 -116q0 -101 -102 -186q-32 -28 -65 -44t-95 -36q191 -238 296 -338t228 -158
q-154 -12 -192 -12q-72 0 -124 30.5t-140 124.5q-158 175 -303 400q145 23 211.5 72.5t66.5 134.5q0 70 -55.5 112.5t-147.5 42.5q-54 0 -108 -10z" />
    <glyph glyph-name="S.sc" unicode="&#xe02d;" horiz-adv-x="1003" 
d="M133 23l-63 233q100 -75 195.5 -109t205.5 -34q96 0 163.5 43t67.5 104q0 55 -53 98q-43 34 -209 105q-167 67 -233 123q-42 36 -66 85t-24 101q0 131 116.5 210t309.5 79q134 0 276 -39v-213q-128 119 -287 119q-88 0 -143 -37t-55 -96q0 -51 47 -87.5t194 -97.5
q108 -46 158.5 -71.5t87.5 -53.5q94 -69 94 -178q0 -143 -133.5 -239.5t-332.5 -96.5q-152 0 -316 52z" />
    <glyph glyph-name="Scaron.sc" unicode="&#xe02e;" horiz-adv-x="1003" 
d="M133 23l-63 233q100 -75 195.5 -109t205.5 -34q96 0 163.5 43t67.5 104q0 55 -53 98q-43 34 -209 105q-167 67 -233 123q-42 36 -66 85t-24 101q0 131 116.5 210t309.5 79q134 0 276 -39v-213q-128 119 -287 119q-88 0 -143 -37t-55 -96q0 -51 47 -87.5t194 -97.5
q108 -46 158.5 -71.5t87.5 -53.5q94 -69 94 -178q0 -143 -133.5 -239.5t-332.5 -96.5q-152 0 -316 52zM526 1126l-340 299q154 -9 340 -118q180 109 346 118z" />
    <glyph glyph-name="T.sc" unicode="&#xe02f;" horiz-adv-x="919" 
d="M936 1049l-68 -209q-32 32 -65 41.5t-113 9.5q-31 0 -117 -4h-16v-676q0 -71 5 -102.5t20.5 -54t54.5 -54.5h-358q40 33 54.5 54.5t19.5 52.5t5 104v676q-54 4 -129 4q-87 0 -131.5 -11.5t-101.5 -48.5l63 213q34 -12 97 -12h659q65 4 66 4q17 0 55 13z" />
    <glyph glyph-name="U.sc" unicode="&#xe030;" horiz-adv-x="1282" 
d="M907 0v90q-57 -55 -144 -87t-181 -32q-120 0 -220.5 48.5t-144.5 127.5q-26 44 -34.5 90.5t-8.5 141.5v444q0 70 -5 101t-20.5 53.5t-54.5 54.5h359q-39 -32 -54.5 -54.5t-20.5 -53.5t-5 -101v-444q0 -74 12 -112.5t47 -73.5t90.5 -56.5t112.5 -21.5q66 0 130 27.5
t101 70.5q20 25 27.5 49.5t7.5 65.5v495q0 70 -5 101t-20.5 53.5t-54.5 54.5h359q-39 -32 -54.5 -54.5t-20.5 -53.5t-5 -101v-614q0 -70 5 -101t20.5 -53.5t54.5 -54.5h-273z" />
    <glyph glyph-name="Uacute.sc" unicode="&#xe031;" horiz-adv-x="1282" 
d="M907 0v90q-57 -55 -144 -87t-181 -32q-120 0 -220.5 48.5t-144.5 127.5q-26 44 -34.5 90.5t-8.5 141.5v444q0 70 -5 101t-20.5 53.5t-54.5 54.5h359q-39 -32 -54.5 -54.5t-20.5 -53.5t-5 -101v-444q0 -74 12 -112.5t47 -73.5t90.5 -56.5t112.5 -21.5q66 0 130 27.5
t101 70.5q20 25 27.5 49.5t7.5 65.5v495q0 70 -5 101t-20.5 53.5t-54.5 54.5h359q-39 -32 -54.5 -54.5t-20.5 -53.5t-5 -101v-614q0 -70 5 -101t20.5 -53.5t54.5 -54.5h-273zM475 1145l436 334l117 -148z" />
    <glyph glyph-name="Ucircumflex.sc" unicode="&#xe032;" horiz-adv-x="1282" 
d="M907 0v90q-57 -55 -144 -87t-181 -32q-120 0 -220.5 48.5t-144.5 127.5q-26 44 -34.5 90.5t-8.5 141.5v444q0 70 -5 101t-20.5 53.5t-54.5 54.5h359q-39 -32 -54.5 -54.5t-20.5 -53.5t-5 -101v-444q0 -74 12 -112.5t47 -73.5t90.5 -56.5t112.5 -21.5q66 0 130 27.5
t101 70.5q20 25 27.5 49.5t7.5 65.5v495q0 70 -5 101t-20.5 53.5t-54.5 54.5h359q-39 -32 -54.5 -54.5t-20.5 -53.5t-5 -101v-614q0 -70 5 -101t20.5 -53.5t54.5 -54.5h-273zM643 1425l340 -299q-147 8 -340 119q-186 -110 -346 -119z" />
    <glyph glyph-name="Udieresis.sc" unicode="&#xe033;" horiz-adv-x="1282" 
d="M907 0v90q-57 -55 -144 -87t-181 -32q-120 0 -220.5 48.5t-144.5 127.5q-26 44 -34.5 90.5t-8.5 141.5v444q0 70 -5 101t-20.5 53.5t-54.5 54.5h359q-39 -32 -54.5 -54.5t-20.5 -53.5t-5 -101v-444q0 -74 12 -112.5t47 -73.5t90.5 -56.5t112.5 -21.5q66 0 130 27.5
t101 70.5q20 25 27.5 49.5t7.5 65.5v495q0 70 -5 101t-20.5 53.5t-54.5 54.5h359q-39 -32 -54.5 -54.5t-20.5 -53.5t-5 -101v-614q0 -70 5 -101t20.5 -53.5t54.5 -54.5h-273zM453 1434q51 0 86.5 -37t35.5 -88q0 -54 -35.5 -90.5t-88.5 -36.5q-54 0 -90.5 36.5t-36.5 90.5
q0 52 37.5 88.5t91.5 36.5zM831 1434q50 0 86.5 -37.5t36.5 -89.5q0 -51 -37 -88t-88 -37q-53 0 -90 37t-37 90q0 51 37.5 88t91.5 37z" />
    <glyph glyph-name="Ugrave.sc" unicode="&#xe034;" horiz-adv-x="1282" 
d="M907 0v90q-57 -55 -144 -87t-181 -32q-120 0 -220.5 48.5t-144.5 127.5q-26 44 -34.5 90.5t-8.5 141.5v444q0 70 -5 101t-20.5 53.5t-54.5 54.5h359q-39 -32 -54.5 -54.5t-20.5 -53.5t-5 -101v-444q0 -74 12 -112.5t47 -73.5t90.5 -56.5t112.5 -21.5q66 0 130 27.5
t101 70.5q20 25 27.5 49.5t7.5 65.5v495q0 70 -5 101t-20.5 53.5t-54.5 54.5h359q-39 -32 -54.5 -54.5t-20.5 -53.5t-5 -101v-614q0 -70 5 -101t20.5 -53.5t54.5 -54.5h-273zM809 1145l-553 186l119 148z" />
    <glyph glyph-name="V.sc" unicode="&#xe035;" horiz-adv-x="1116" 
d="M588 225l235 539q33 77 43.5 109.5t10.5 60.5q0 34 -16 53t-66 45h315l-483 -1081q-132 74 -168 110.5t-74 135.5l-238 559q-55 139 -83.5 190t-69.5 86h280q-2 -14 -2 -26q0 -34 39 -125z" />
    <glyph glyph-name="W.sc" unicode="&#xe036;" horiz-adv-x="1689" 
d="M864 707l-268 -754q-39 24 -92 55q-69 41 -94.5 72.5t-57.5 116.5l-219 596q-42 115 -68 159t-77 80h286q-6 -21 -6 -31q0 -19 19 -69l260 -707l207 576q28 82 28 127q0 49 -61 104h260q-8 -27 -8 -45q0 -36 24 -100l244 -658l201 555q33 95 33 134q0 69 -82 114h282
l-383 -1079q-8 4 -33.5 19.5t-41.5 23.5q-80 48 -106 79.5t-60 121.5z" />
    <glyph glyph-name="X.sc" unicode="&#xe037;" horiz-adv-x="1226" 
d="M594 430l-246 -285q-37 -40 -37 -65q0 -33 72 -80h-381q11 10 18.5 17t16.5 16.5t13.5 14t16.5 18.5t17.5 20.5t25 29.5t31.5 36l66 73l287 324l-228 289q-75 100 -114 137t-84 55l194 8q56 0 68 -4q17 -4 28 -15t48 -58l225 -279l178 209q39 45 39 74q0 15 -14.5 25.5
t-77.5 41.5h383l-410 -467l285 -368q76 -106 111.5 -138.5t95.5 -54.5l-185 -12h-16q-66 0 -88 12t-68 72z" />
    <glyph glyph-name="Y.sc" unicode="&#xe038;" horiz-adv-x="1087" 
d="M647 449v-240q0 -70 5 -101t20.5 -53.5t54.5 -54.5h-358q56 46 68 77.5t12 131.5v240l-302 419q-52 71 -81.5 99t-88.5 63l203 8h25q40 0 57 -12t55 -68l254 -360l211 279q31 42 31 65t-14 41t-54 49h347z" />
    <glyph glyph-name="Yacute.sc" unicode="&#xe039;" horiz-adv-x="1087" 
d="M647 449v-240q0 -70 5 -101t20.5 -53.5t54.5 -54.5h-358q56 46 68 77.5t12 131.5v240l-302 419q-52 71 -81.5 99t-88.5 63l203 8h25q40 0 57 -12t55 -68l254 -360l211 279q31 42 31 65t-14 41t-54 49h347zM379 1145l436 334l117 -148z" />
    <glyph glyph-name="Ydieresis.sc" unicode="&#xe03a;" horiz-adv-x="1087" 
d="M647 449v-240q0 -70 5 -101t20.5 -53.5t54.5 -54.5h-358q56 46 68 77.5t12 131.5v240l-302 419q-52 71 -81.5 99t-88.5 63l203 8h25q40 0 57 -12t55 -68l254 -360l211 279q31 42 31 65t-14 41t-54 49h347zM356 1434q51 0 87 -37t36 -88q0 -54 -36 -90.5t-89 -36.5
q-54 0 -90.5 36.5t-36.5 90.5q0 52 37.5 88.5t91.5 36.5zM735 1434q50 0 86.5 -37.5t36.5 -89.5q0 -51 -37 -88t-88 -37q-53 0 -90 37t-37 90q0 51 37.5 88t91.5 37z" />
    <glyph glyph-name="Z.sc" unicode="&#xe03b;" horiz-adv-x="1114" 
d="M1094 221l-107 -221h-956l647 883q-111 12 -268 12q-98 0 -153 -12.5t-148 -55.5l98 205h809l-643 -876q208 -15 336 -15q115 0 190.5 16t194.5 64z" />
    <glyph glyph-name="Zcaron.sc" unicode="&#xe03c;" horiz-adv-x="1114" 
d="M1094 221l-107 -221h-956l647 883q-111 12 -268 12q-98 0 -153 -12.5t-148 -55.5l98 205h809l-643 -876q208 -15 336 -15q115 0 190.5 16t194.5 64zM584 1126l-340 299q154 -9 340 -118q180 109 346 118z" />
    <glyph glyph-name="germandbls.sc" unicode="&#xe03d;" horiz-adv-x="2009" 
d="M133 23l-63 233q100 -75 195.5 -109t205.5 -34q96 0 163.5 43t67.5 104q0 55 -53 98q-43 34 -209 105q-167 67 -233 123q-42 36 -66 85t-24 101q0 131 116.5 210t309.5 79q134 0 276 -39v-213q-128 119 -287 119q-88 0 -143 -37t-55 -96q0 -51 47 -87.5t194 -97.5
q108 -46 158.5 -71.5t87.5 -53.5q94 -69 94 -178q0 -143 -133.5 -239.5t-332.5 -96.5q-152 0 -316 52zM1137 23l-64 233q100 -75 196 -109t206 -34q96 0 163.5 43t67.5 104q0 54 -51 98q-47 35 -213 105q-96 39 -145.5 65.5t-86.5 57.5q-42 33 -66 83t-24 103
q0 131 116.5 210t311.5 79q133 0 275 -39v-213q-128 119 -287 119q-88 0 -143.5 -37t-55.5 -96q0 -51 47.5 -87.5t194.5 -97.5q182 -76 246 -125q94 -69 94 -178q0 -143 -134 -239.5t-333 -96.5q-151 0 -315 52z" />
    <glyph glyph-name="f_i.sc" unicode="&#xe03e;" horiz-adv-x="1378" 
d="M379 492v-281q0 -71 5 -102.5t20.5 -54t54.5 -54.5h-359q56 47 68 79t12 132v612q0 70 -5 101t-20.5 53.5t-54.5 54.5h596q42 0 78 15v-189q-58 24 -96.5 30.5t-124.5 6.5q-111 0 -174 -8v-258h223q36 0 72 14v-184q-29 20 -57.5 26.5t-92.5 6.5h-145zM1280 0h-358
q40 33 54.5 54.5t19.5 52t5 102.5v614q0 99 -12 131.5t-67 77.5h358q-39 -32 -54.5 -54.5t-20.5 -53.5t-5 -101v-614q0 -70 5 -101t20.5 -53.5t54.5 -54.5z" />
    <glyph glyph-name="f_l.sc" unicode="&#xe03f;" horiz-adv-x="1777" 
d="M379 492v-281q0 -71 5 -102.5t20.5 -54t54.5 -54.5h-359q56 47 68 79t12 132v612q0 70 -5 101t-20.5 53.5t-54.5 54.5h596q42 0 78 15v-189q-58 24 -96.5 30.5t-124.5 6.5q-111 0 -174 -8v-258h223q36 0 72 14v-184q-29 20 -57.5 26.5t-92.5 6.5h-145zM1200 823v-671
q131 -15 217 -15q105 0 166.5 15t173.5 69l-100 -221h-735q40 33 54.5 54.5t19.5 52t5 102.5v614q0 99 -12 131.5t-67 77.5h358q-39 -32 -54.5 -54.5t-20.5 -53.5t-5 -101z" />
    <glyph glyph-name="ampersand.sc" unicode="&#xe040;" horiz-adv-x="1437" 
d="M659 606q323 -281 492.5 -398t382.5 -206q-186 -6 -244 -6q-96 0 -172.5 33.5t-189.5 124.5q-69 -92 -154.5 -133t-208.5 -41q-181 0 -292 84.5t-111 222.5q0 91 52 164.5t179 164.5q-75 69 -104 117.5t-29 102.5q0 91 83 154t202 63q114 0 187 -61.5t73 -155.5
q0 -63 -30.5 -111.5t-115.5 -118.5zM545 711q98 68 98 141q0 37 -30.5 60.5t-77.5 23.5q-45 0 -74 -22t-29 -56q0 -31 25.5 -64t87.5 -83zM512 508q-143 -96 -143 -213q0 -83 63.5 -134.5t163.5 -51.5q68 0 132 30t110 84q-211 167 -326 285z" />
    <glyph glyph-name="exclam.sc" unicode="&#xe041;" horiz-adv-x="706" 
d="M356 199q46 0 79.5 -34t33.5 -81t-34 -81t-81 -34t-80.5 34t-33.5 81q0 49 33 82t83 33zM418 281h-137l-31 520l-4 76q-1 86 -14 113.5t-66 58.5h299z" />
    <glyph glyph-name="question.sc" unicode="&#xe042;" horiz-adv-x="882" 
d="M393 199q46 0 79.5 -34t33.5 -81t-34 -81t-81 -34t-81 34t-34 81q0 48 34 81.5t83 33.5zM94 860l115 164q95 33 182 33q175 0 287.5 -81.5t112.5 -207.5q0 -76 -41 -137.5t-146 -145.5q-64 -49 -90.5 -70.5t-45 -42.5t-20.5 -31.5t-2 -33.5q0 -7 2 -19.5t3 -19.5
l-158 -14q-6 37 -6 49q0 63 33 112.5t116 112.5q86 63 121 109.5t35 99.5q0 77 -69.5 130t-170.5 53q-84 0 -258 -60z" />
    <glyph glyph-name="exclamdown.sc" unicode="&#xe043;" horiz-adv-x="706" 
d="M356 1077q46 0 79.5 -33.5t33.5 -80.5t-34 -81t-81 -34t-80.5 34t-33.5 81q0 49 33 81.5t83 32.5zM287 768h139l31 -520l2 -76q1 -61 7 -88t21 -44t54 -40h-299z" />
    <glyph glyph-name="questiondown.sc" unicode="&#xe044;" horiz-adv-x="882" 
d="M496 1075q46 0 79 -33.5t33 -80.5t-33.5 -81t-80.5 -34t-81 34t-34 81t34 80.5t83 33.5zM788 186l-114 -161q-95 -33 -182 -33q-175 0 -287.5 81t-112.5 208q0 76 41 137t146 145q114 88 135.5 112t21.5 64q0 15 -6 39l160 15q4 -27 4 -48q0 -64 -32.5 -113t-117.5 -114
q-84 -63 -118.5 -109.5t-34.5 -97.5q0 -78 69 -131t170 -53q81 0 258 59z" />
    <glyph glyph-name="zero.oldstyle" unicode="&#xf730;" horiz-adv-x="1284" 
d="M664 1026q154 0 282 -69t201.5 -188.5t73.5 -262.5q0 -147 -78 -270t-214 -194t-298 -71q-159 0 -289 68.5t-204.5 188.5t-74.5 266q0 151 77.5 273t215 190.5t308.5 68.5zM627 883q-152 0 -251.5 -103t-99.5 -260q0 -172 107.5 -288.5t267.5 -116.5q159 0 257 101
t98 265q0 178 -106 290t-273 112z" />
    <glyph glyph-name="one.oldstyle" unicode="&#xf731;" horiz-adv-x="581" 
d="M412 1075v-794q0 -94 6.5 -131t30.5 -76q27 -45 69 -74h-442q44 27 67.5 48t38.5 53.5t19 71.5t4 108v536h-176q286 123 383 258z" />
    <glyph glyph-name="two.oldstyle" unicode="&#xf732;" horiz-adv-x="962" 
d="M834 217v-217h-863q97 94 230 242q70 79 145 157q150 164 188.5 220.5t38.5 113.5q0 71 -51.5 114.5t-134.5 43.5q-71 0 -137 -20t-150 -66l125 186q98 49 228 49q149 0 243.5 -74.5t94.5 -191.5q0 -63 -30.5 -126.5t-98.5 -143.5q-52 -63 -88 -100t-197 -197
q-19 -22 -41 -41q117 -21 235 -21q87 0 144 16t119 56z" />
    <glyph glyph-name="three.oldstyle" unicode="&#xf733;" horiz-adv-x="995" 
d="M199 315v142h45q165 0 267.5 67t102.5 174q0 85 -64 135t-171 50q-164 0 -332 -80l109 174q118 49 254 49q180 0 292.5 -85t112.5 -220q0 -115 -84 -205q-36 -38 -76.5 -60t-113.5 -44q92 -19 144.5 -42.5t100.5 -66.5q105 -94 105 -248q0 -135 -76 -244t-217 -180
q-106 -54 -254 -84t-299 -30q-55 0 -100 2l78 129q301 0 476 104.5t175 284.5q0 126 -99 206.5t-256 80.5q-10 0 -120 -9z" />
    <glyph glyph-name="four.oldstyle" unicode="&#xf734;" horiz-adv-x="1236" 
d="M883 1026v-881q204 0 354 84l-129 -231h-225v-104q0 -120 -36.5 -197t-156.5 -207v508h-676l582 1028h287zM698 926l-424 -758q74 -17 139.5 -22t202.5 -5h78z" />
    <glyph glyph-name="five.oldstyle" unicode="&#xf735;" horiz-adv-x="1028" 
d="M340 834v-365q105 27 170 27q191 0 318.5 -122.5t127.5 -305.5q0 -148 -89 -273t-244 -194q-117 -52 -243.5 -77t-316.5 -32l87 146q87 0 136.5 5.5t110.5 22.5q165 46 254.5 143.5t89.5 231.5q0 140 -88.5 222.5t-240.5 82.5q-121 0 -273 -57v708h711v-241
q-44 57 -92 76.5t-142 19.5q-147 0 -276 -18z" />
    <glyph glyph-name="six.oldstyle" unicode="&#xf736;" horiz-adv-x="1251" 
d="M1024 1468l-84 -133q-292 -71 -469.5 -277t-177.5 -476q0 -200 106.5 -333.5t266.5 -133.5q140 0 227.5 93.5t87.5 242.5q0 155 -89 253.5t-230 98.5q-134 0 -256 -70l83 131q62 46 120.5 66t133.5 20q192 0 321.5 -133t129.5 -330q0 -142 -74 -261t-202.5 -187
t-282.5 -68q-119 0 -224 45.5t-179.5 124.5t-118 190.5t-43.5 237.5q0 220 117 408.5t333 314.5q114 67 225.5 106t278.5 70z" />
    <glyph glyph-name="seven.oldstyle" unicode="&#xf737;" horiz-adv-x="1103" 
d="M1061 997l-453 -977q-9 -23 -28.5 -63t-22.5 -47q-63 -158 -173.5 -266t-256.5 -154l635 1346q-167 14 -320 14q-126 0 -219.5 -24t-179.5 -78l139 249h879z" />
    <glyph glyph-name="eight.oldstyle" unicode="&#xf738;" horiz-adv-x="1275" 
d="M862 741q85 -29 130.5 -51t92.5 -57q60 -44 92.5 -110.5t32.5 -143.5q0 -180 -164 -294t-423 -114q-251 0 -405.5 107t-154.5 280q0 148 123 242q83 60 207 119q-266 100 -266 319q0 157 142 261t356 104q179 0 321 -82q172 -100 172 -272q0 -213 -256 -308zM717 791
q108 46 154.5 102t46.5 141q0 109 -83.5 174.5t-222.5 65.5q-123 0 -201.5 -56t-78.5 -143q0 -77 69 -131.5t265 -132.5q5 -2 21.5 -9t29.5 -11zM520 659q-109 -50 -147 -77q-52 -35 -80.5 -88t-28.5 -113q0 -120 103.5 -195t269.5 -75q158 0 256 63.5t98 165.5
q0 89 -102.5 158.5t-368.5 160.5z" />
    <glyph glyph-name="nine.oldstyle" unicode="&#xf739;" horiz-adv-x="1245" 
d="M207 -467l92 129q258 67 446 258q209 209 209 500q0 205 -103.5 336t-266.5 131q-141 0 -228.5 -93t-87.5 -245q0 -161 86.5 -257.5t231.5 -96.5q62 0 120.5 17t143.5 60l-125 -174q-113 -47 -217 -47q-189 0 -320 135.5t-131 331.5q0 139 73.5 256t200.5 184.5t279 67.5
q243 0 404.5 -168.5t161.5 -421.5q0 -217 -118 -413t-315 -304q-228 -128 -536 -186z" />
    </font>
</defs>
</svg>
